<svg version="1.1" viewBox="0.0 0.0 795.2729658792651 429.8503937007874" fill="none" stroke="none" stroke-linecap="square" stroke-miterlimit="10" xmlns:xlink="http://www.w3.org/1999/xlink" xmlns="http://www.w3.org/2000/svg"><clipPath id="p.0"><path d="m0 0l795.27295 0l0 429.8504l-795.27295 0l0 -429.8504z" clip-rule="nonzero"/></clipPath><g clip-path="url(#p.0)"><path fill="#000000" fill-opacity="0.0" d="m0 0l795.27295 0l0 429.8504l-795.27295 0z" fill-rule="evenodd"/><path fill="#000000" fill-opacity="0.0" d="m163.60104 53.194225l90.61418 0l0 126.55118" fill-rule="evenodd"/><path stroke="#000000" stroke-width="1.0" stroke-linejoin="round" stroke-linecap="butt" d="m163.60104 53.194225l90.61418 0l0 120.55118" fill-rule="evenodd"/><path fill="#000000" stroke="#000000" stroke-width="1.0" stroke-linecap="butt" d="m252.56349 173.7454l1.6517334 4.538101l1.6517334 -4.538101z" fill-rule="evenodd"/><path fill="#000000" fill-opacity="0.0" d="m21.616798 17.839895l141.98425 0l0 70.70866l-141.98425 0z" fill-rule="evenodd"/><path stroke="#000000" stroke-width="1.0" stroke-linejoin="round" stroke-linecap="butt" d="m21.616798 17.839895l141.98425 0l0 70.70866l-141.98425 0z" fill-rule="evenodd"/><path fill="#000000" d="m77.31829 60.114223l0 -10.0l1.328125 0l0.25 1.46875l0.09375 0q0.296875 -0.578125 0.765625 -0.9375q0.484375 -0.359375 1.109375 -0.53125q0.640625 -0.1875 1.390625 -0.1875q1.515625 0 2.4375 0.859375q0.921875 0.84375 0.921875 2.65625l0 6.671875l-1.6875 0l0 -6.375q0 -1.28125 -0.515625 -1.859375q-0.5 -0.59375 -1.640625 -0.59375q-1.53125 0 -2.15625 0.96875q-0.625 0.96875 -0.625 2.734375l0 5.125l-1.671875 0zm15.975006 0.1875q-1.59375 0 -2.75 -0.59375q-1.15625 -0.59375 -1.78125 -1.734375q-0.625 -1.15625 -0.625 -2.828125q0 -1.640625 0.59375 -2.796875q0.59375 -1.171875 1.65625 -1.796875q1.0625 -0.625 2.484375 -0.625q1.296875 0 2.234375 0.578125q0.953125 0.578125 1.46875 1.640625q0.515625 1.046875 0.515625 2.515625l0 0.765625l-7.265625 0q0.046875 1.3125 0.5 2.078125q0.453125 0.765625 1.25 1.09375q0.796875 0.328125 1.84375 0.328125q0.8125 0 1.609375 -0.21875q0.8125 -0.234375 1.609375 -0.609375l0 1.5q-0.859375 0.359375 -1.71875 0.53125q-0.859375 0.171875 -1.625 0.171875zm2.109375 -6.21875q-0.03125 -0.875 -0.328125 -1.5q-0.296875 -0.625 -0.859375 -0.953125q-0.546875 -0.34375 -1.34375 -0.34375q-1.25 0 -2.03125 0.765625q-0.765625 0.75 -0.96875 2.03125l5.53125 0zm4.709381 6.03125l-1.609375 -10.0l1.5625 0l0.734375 4.9375q0.109375 0.703125 0.15625 1.25q0.046875 0.53125 0.09375 1.09375q0.046875 0.546875 0.078125 1.3125l0.0625 0q0.0625 -0.3125 0.15625 -0.875q0.109375 -0.578125 0.25 -1.234375q0.140625 -0.65625 0.296875 -1.21875l0.984375 -3.375l1.84375 0l0.921875 3.375q0.171875 0.5625 0.3125 1.203125q0.15625 0.640625 0.28125 1.21875q0.125 0.5625 0.15625 0.90625l0.0625 0q0.046875 -0.734375 0.078125 -1.28125q0.046875 -0.5625 0.09375 -1.09375q0.0625 -0.546875 0.171875 -1.28125l0.796875 -4.9375l1.515625 0l-1.640625 10.0l-2.015625 0l-0.890625 -3.5q-0.1875 -0.765625 -0.390625 -1.53125q-0.203125 -0.765625 -0.359375 -1.515625l-0.046875 0q-0.15625 0.75 -0.375 1.515625q-0.203125 0.765625 -0.40625 1.53125l-0.921875 3.5l-1.953125 0z" fill-rule="nonzero"/><path fill="#000000" fill-opacity="0.0" d="m222.98425 179.57086l141.98425 0l0 70.708664l-141.98425 0z" fill-rule="evenodd"/><path stroke="#000000" stroke-width="1.0" stroke-linejoin="round" stroke-linecap="butt" d="m222.98425 179.57086l141.98425 0l0 70.708664l-141.98425 0z" fill-rule="evenodd"/><path fill="#000000" d="m267.14822 221.8452l0 -1.125l3.046875 -0.28125l0 -7.1875l-2.75 -0.25l0 -1.15625l4.09375 0l0.21875 1.828125l0.078125 0q0.515625 -0.984375 1.140625 -1.5q0.625 -0.515625 1.65625 -0.515625q0.625 0 1.125 0.109375q0.5 0.109375 0.90625 0.296875l-0.453125 1.484375q-0.296875 -0.171875 -0.703125 -0.296875q-0.40625 -0.125 -0.875 -0.125q-0.8125 0 -1.421875 0.515625q-0.609375 0.5 -0.96875 1.34375q-0.359375 0.828125 -0.359375 1.84375l0 3.609375l2.921875 0.28125l0 1.125l-7.65625 0zm16.318756 0.1875q-1.59375 0 -2.75 -0.59375q-1.15625 -0.59375 -1.78125 -1.734375q-0.625 -1.15625 -0.625 -2.828125q0 -1.640625 0.59375 -2.796875q0.59375 -1.171875 1.65625 -1.796875q1.0625 -0.625 2.484375 -0.625q1.296875 0 2.234375 0.578125q0.953125 0.578125 1.46875 1.640625q0.515625 1.046875 0.515625 2.515625l0 0.765625l-7.265625 0q0.046875 1.3125 0.5 2.078125q0.453125 0.765625 1.25 1.09375q0.796875 0.328125 1.84375 0.328125q0.8125 0 1.609375 -0.21875q0.8125 -0.234375 1.609375 -0.609375l0 1.5q-0.859375 0.359375 -1.71875 0.53125q-0.859375 0.171875 -1.625 0.171875zm2.109375 -6.21875q-0.03125 -0.875 -0.328125 -1.5q-0.296875 -0.625 -0.859375 -0.953125q-0.546875 -0.34375 -1.34375 -0.34375q-1.25 0 -2.03125 0.765625q-0.765625 0.75 -0.96875 2.03125l5.53125 0zm7.396881 6.21875q-1.484375 0 -2.390625 -0.71875q-0.890625 -0.734375 -0.890625 -2.21875q0 -1.078125 0.515625 -1.796875q0.515625 -0.71875 1.53125 -1.078125q1.03125 -0.359375 2.484375 -0.40625l2.140625 -0.046875l0 -0.421875q0 -1.328125 -0.671875 -1.828125q-0.671875 -0.5 -1.8125 -0.5q-0.796875 0 -1.53125 0.21875q-0.71875 0.203125 -1.375 0.5625l-0.578125 -1.265625q0.703125 -0.34375 1.5625 -0.609375q0.875 -0.265625 2.015625 -0.265625q1.890625 0 2.90625 0.859375q1.015625 0.84375 1.015625 2.625l0 6.703125l-1.34375 0l-0.1875 -1.375l-0.078125 0q-0.40625 0.515625 -0.90625 0.859375q-0.484375 0.34375 -1.09375 0.515625q-0.59375 0.1875 -1.3125 0.1875zm0.28125 -1.359375q0.828125 0 1.53125 -0.3125q0.71875 -0.3125 1.140625 -0.9375q0.4375 -0.625 0.4375 -1.578125l0 -0.890625l-1.796875 0.0625q-1.1875 0.03125 -1.921875 0.28125q-0.71875 0.25 -1.046875 0.6875q-0.328125 0.4375 -0.328125 1.0625q0 0.859375 0.53125 1.25q0.546875 0.375 1.453125 0.375zm11.428131 1.359375q-0.90625 0 -1.671875 -0.3125q-0.75 -0.328125 -1.296875 -0.96875q-0.53125 -0.65625 -0.828125 -1.640625q-0.28125 -1.0 -0.28125 -2.328125q0 -1.65625 0.46875 -2.796875q0.484375 -1.15625 1.421875 -1.734375q0.953125 -0.59375 2.375 -0.59375q0.6875 0 1.21875 0.1875q0.53125 0.1875 0.90625 0.515625q0.390625 0.328125 0.625 0.75l0.109375 0q-0.015625 -0.1875 -0.046875 -0.4375q-0.03125 -0.25 -0.046875 -0.515625q-0.015625 -0.28125 -0.015625 -0.515625l0 -3.96875l1.65625 0l0 14.171875l-1.375 0l-0.1875 -1.34375l-0.078125 0q-0.28125 0.453125 -0.6875 0.796875q-0.390625 0.34375 -0.953125 0.546875q-0.546875 0.1875 -1.3125 0.1875zm0.3125 -1.359375q1.328125 0 1.96875 -0.921875q0.65625 -0.921875 0.65625 -2.515625l0 -0.375q0 -1.09375 -0.25 -1.953125q-0.234375 -0.875 -0.796875 -1.375q-0.5625 -0.515625 -1.515625 -0.515625q-1.3125 0 -2.03125 0.96875q-0.703125 0.96875 -0.703125 2.96875q0 1.84375 0.65625 2.78125q0.65625 0.9375 2.015625 0.9375zm8.303131 5.75q-0.359375 0 -0.71875 -0.046875q-0.359375 -0.046875 -0.625 -0.109375l0 -1.28125q0.234375 0.03125 0.53125 0.0625q0.3125 0.046875 0.609375 0.046875q0.578125 0 0.953125 -0.1875q0.390625 -0.1875 0.671875 -0.578125q0.296875 -0.390625 0.546875 -1.03125l0.53125 -1.359375l-4.1875 -10.09375l1.640625 0l2.390625 5.875q0.234375 0.578125 0.46875 1.296875q0.234375 0.703125 0.421875 1.359375l0.0625 0q0.125 -0.46875 0.265625 -0.921875q0.15625 -0.46875 0.296875 -0.90625q0.140625 -0.453125 0.265625 -0.84375l1.96875 -5.859375l1.703125 0l-4.1875 11.3125q-0.359375 0.96875 -0.78125 1.703125q-0.421875 0.734375 -1.078125 1.140625q-0.65625 0.421875 -1.75 0.421875z" fill-rule="nonzero"/><path fill="#000000" fill-opacity="0.0" d="m424.3517 179.56955l141.98422 0l0 70.708664l-141.98422 0z" fill-rule="evenodd"/><path stroke="#000000" stroke-width="1.0" stroke-linejoin="round" stroke-linecap="butt" d="m424.3517 179.56955l141.98422 0l0 70.708664l-141.98422 0z" fill-rule="evenodd"/><path fill="#000000" d="m457.32193 221.84389l0 -1.125l3.046875 -0.28125l0 -7.1875l-2.75 -0.25l0 -1.15625l4.09375 0l0.21875 1.828125l0.078125 0q0.515625 -0.984375 1.140625 -1.5q0.625 -0.515625 1.65625 -0.515625q0.625 0 1.125 0.109375q0.5 0.109375 0.90625 0.296875l-0.453125 1.484375q-0.296875 -0.171875 -0.703125 -0.296875q-0.40625 -0.125 -0.875 -0.125q-0.8125 0 -1.421875 0.515625q-0.609375 0.5 -0.96875 1.34375q-0.359375 0.828125 -0.359375 1.84375l0 3.609375l2.921875 0.28125l0 1.125l-7.65625 0zm14.912506 0.1875q-1.78125 0 -2.625 -0.875q-0.84375 -0.890625 -0.84375 -2.65625l0 -6.65625l1.671875 0l0 6.40625q0 1.1875 0.484375 1.8125q0.5 0.609375 1.71875 0.609375q1.046875 0 1.640625 -0.4375q0.59375 -0.4375 0.84375 -1.25q0.25 -0.828125 0.25 -1.984375l0 -5.15625l1.6875 0l0 10.0l-1.34375 0l-0.25 -1.34375l-0.09375 0q-0.34375 0.5625 -0.8125 0.90625q-0.46875 0.328125 -1.046875 0.46875q-0.578125 0.15625 -1.28125 0.15625zm7.818756 -0.1875l0 -10.0l1.328125 0l0.25 1.46875l0.09375 0q0.296875 -0.578125 0.765625 -0.9375q0.484375 -0.359375 1.109375 -0.53125q0.640625 -0.1875 1.390625 -0.1875q1.515625 0 2.4375 0.859375q0.921875 0.84375 0.921875 2.65625l0 6.671875l-1.6875 0l0 -6.375q0 -1.28125 -0.515625 -1.859375q-0.5 -0.59375 -1.640625 -0.59375q-1.53125 0 -2.15625 0.96875q-0.625 0.96875 -0.625 2.734375l0 5.125l-1.671875 0zm11.193756 0l0 -10.0l1.328125 0l0.25 1.46875l0.09375 0q0.296875 -0.578125 0.765625 -0.9375q0.484375 -0.359375 1.109375 -0.53125q0.640625 -0.1875 1.390625 -0.1875q1.515625 0 2.4375 0.859375q0.921875 0.84375 0.921875 2.65625l0 6.671875l-1.6875 0l0 -6.375q0 -1.28125 -0.515625 -1.859375q-0.5 -0.59375 -1.640625 -0.59375q-1.53125 0 -2.15625 0.96875q-0.625 0.96875 -0.625 2.734375l0 5.125l-1.671875 0zm11.193756 0l0 -1.125l3.5625 -0.28125l0 -7.1875l-3.265625 -0.25l0 -1.15625l4.9375 0l0 8.59375l3.34375 0.28125l0 1.125l-8.578125 0zm4.234375 -11.8125q-0.484375 0 -0.84375 -0.296875q-0.34375 -0.296875 -0.34375 -0.875q0 -0.609375 0.34375 -0.890625q0.359375 -0.296875 0.84375 -0.296875q0.484375 0 0.828125 0.296875q0.34375 0.28125 0.34375 0.890625q0 0.578125 -0.34375 0.875q-0.34375 0.296875 -0.828125 0.296875zm6.959381 11.8125l0 -10.0l1.328125 0l0.25 1.46875l0.09375 0q0.296875 -0.578125 0.765625 -0.9375q0.484375 -0.359375 1.109375 -0.53125q0.640625 -0.1875 1.390625 -0.1875q1.515625 0 2.4375 0.859375q0.921875 0.84375 0.921875 2.65625l0 6.671875l-1.6875 0l0 -6.375q0 -1.28125 -0.515625 -1.859375q-0.5 -0.59375 -1.640625 -0.59375q-1.53125 0 -2.15625 0.96875q-0.625 0.96875 -0.625 2.734375l0 5.125l-1.671875 0zm14.850037 4.578125q-1.03125 0 -1.9375 -0.203125q-0.90625 -0.203125 -1.671875 -0.515625l0 -1.484375q0.75 0.421875 1.71875 0.640625q0.984375 0.21875 1.828125 0.21875q1.703125 0 2.375 -0.796875q0.671875 -0.796875 0.671875 -2.171875l0 -0.359375q0 -0.21875 0 -0.421875q0.015625 -0.21875 0.046875 -0.640625l-0.078125 0q-0.515625 0.765625 -1.21875 1.0625q-0.703125 0.28125 -1.6875 0.28125q-1.96875 0 -3.078125 -1.34375q-1.09375 -1.359375 -1.09375 -3.78125q0 -2.453125 1.078125 -3.84375q1.09375 -1.40625 3.0 -1.40625q1.015625 0 1.703125 0.328125q0.6875 0.328125 1.234375 1.09375l0.09375 0l0.21875 -1.234375l1.34375 0l0 10.265625q0 1.40625 -0.484375 2.359375q-0.484375 0.96875 -1.5 1.453125q-1.0 0.5 -2.5625 0.5zm0.359375 -5.75q0.625 0 1.109375 -0.1875q0.5 -0.203125 0.84375 -0.625q0.34375 -0.421875 0.53125 -1.0625q0.1875 -0.640625 0.1875 -1.546875l0 -0.390625q0 -1.359375 -0.328125 -2.203125q-0.328125 -0.859375 -0.9375 -1.25q-0.609375 -0.390625 -1.453125 -0.390625q-1.421875 0 -2.078125 1.0q-0.640625 1.0 -0.640625 2.828125q0 1.859375 0.671875 2.84375q0.6875 0.984375 2.09375 0.984375z" fill-rule="nonzero"/><path fill="#000000" fill-opacity="0.0" d="m625.7192 17.839895l141.98425 0l0 70.70866l-141.98425 0z" fill-rule="evenodd"/><path stroke="#000000" stroke-width="1.0" stroke-linejoin="round" stroke-linecap="butt" d="m625.7192 17.839895l141.98425 0l0 70.70866l-141.98425 0z" fill-rule="evenodd"/><path fill="#000000" d="m648.2425 60.301723q-1.0625 0 -1.90625 -0.28125q-0.84375 -0.28125 -1.34375 -0.984375q-0.484375 -0.71875 -0.484375 -1.96875l0 -5.546875l-2.71875 0l0 -1.15625l2.71875 -0.3125l0.34375 -2.609375l1.34375 0l0 2.671875l3.890625 0l0 1.40625l-3.890625 0l0 5.234375q0 0.75 0.203125 1.234375q0.21875 0.484375 0.703125 0.71875q0.484375 0.234375 1.25 0.234375q0.484375 0 1.046875 -0.09375q0.5625 -0.09375 0.96875 -0.1875l0 1.34375q-0.453125 0.109375 -1.0 0.203125q-0.53125 0.09375 -1.125 0.09375zm9.975037 0q-1.59375 0 -2.75 -0.59375q-1.15625 -0.59375 -1.78125 -1.734375q-0.625 -1.15625 -0.625 -2.828125q0 -1.640625 0.59375 -2.796875q0.59375 -1.171875 1.65625 -1.796875q1.0625 -0.625 2.484375 -0.625q1.296875 0 2.234375 0.578125q0.953125 0.578125 1.46875 1.640625q0.515625 1.046875 0.515625 2.515625l0 0.765625l-7.265625 0q0.046875 1.3125 0.5 2.078125q0.453125 0.765625 1.25 1.09375q0.796875 0.328125 1.84375 0.328125q0.8125 0 1.609375 -0.21875q0.8125 -0.234375 1.609375 -0.609375l0 1.5q-0.859375 0.359375 -1.71875 0.53125q-0.859375 0.171875 -1.625 0.171875zm2.109375 -6.21875q-0.03125 -0.875 -0.328125 -1.5q-0.296875 -0.625 -0.859375 -0.953125q-0.546875 -0.34375 -1.34375 -0.34375q-1.25 0 -2.03125 0.765625q-0.765625 0.75 -0.96875 2.03125l5.53125 0zm3.9593506 6.03125l0 -1.125l3.046875 -0.28125l0 -7.1875l-2.75 -0.25l0 -1.15625l4.09375 0l0.21875 1.828125l0.078125 0q0.515625 -0.984375 1.140625 -1.5q0.625 -0.515625 1.65625 -0.515625q0.625 0 1.125 0.109375q0.5 0.109375 0.90625 0.296875l-0.453125 1.484375q-0.296875 -0.171875 -0.703125 -0.296875q-0.40625 -0.125 -0.875 -0.125q-0.8125 0 -1.421875 0.515625q-0.609375 0.5 -0.96875 1.34375q-0.359375 0.828125 -0.359375 1.84375l0 3.609375l2.921875 0.28125l0 1.125l-7.65625 0zm10.975037 0l0 -10.0l1.15625 0l0.234375 1.09375l0.09375 0q0.25 -0.5 0.53125 -0.78125q0.28125 -0.28125 0.59375 -0.390625q0.328125 -0.109375 0.71875 -0.109375q0.765625 0 1.1875 0.375q0.421875 0.359375 0.640625 1.0625l0.0625 0q0.3125 -0.6875 0.78125 -1.0625q0.484375 -0.375 1.265625 -0.375q0.765625 0 1.21875 0.390625q0.46875 0.390625 0.65625 1.203125q0.203125 0.796875 0.203125 2.0625l0 6.53125l-1.5 0l0 -6.25q0 -0.78125 -0.0625 -1.328125q-0.0625 -0.5625 -0.265625 -0.859375q-0.203125 -0.296875 -0.671875 -0.296875q-0.453125 0 -0.765625 0.421875q-0.3125 0.421875 -0.484375 1.25q-0.171875 0.8125 -0.171875 2.0625l0 5.0l-1.484375 0l0 -6.25q0 -0.796875 -0.09375 -1.34375q-0.09375 -0.5625 -0.328125 -0.84375q-0.234375 -0.296875 -0.703125 -0.296875q-0.484375 0 -0.78125 0.46875q-0.296875 0.453125 -0.421875 1.28125q-0.125 0.828125 -0.125 1.984375l0 5.0l-1.484375 0zm11.756226 0l0 -1.125l3.5625 -0.28125l0 -7.1875l-3.265625 -0.25l0 -1.15625l4.9375 0l0 8.59375l3.34375 0.28125l0 1.125l-8.578125 0zm4.234375 -11.8125q-0.484375 0 -0.84375 -0.296875q-0.34375 -0.296875 -0.34375 -0.875q0 -0.609375 0.34375 -0.890625q0.359375 -0.296875 0.84375 -0.296875q0.484375 0 0.828125 0.296875q0.34375 0.28125 0.34375 0.890625q0 0.578125 -0.34375 0.875q-0.34375 0.296875 -0.828125 0.296875zm6.9594116 11.8125l0 -10.0l1.328125 0l0.25 1.46875l0.09375 0q0.296875 -0.578125 0.765625 -0.9375q0.484375 -0.359375 1.109375 -0.53125q0.640625 -0.1875 1.390625 -0.1875q1.515625 0 2.4375 0.859375q0.921875 0.84375 0.921875 2.65625l0 6.671875l-1.6875 0l0 -6.375q0 -1.28125 -0.515625 -1.859375q-0.5 -0.59375 -1.640625 -0.59375q-1.53125 0 -2.15625 0.96875q-0.625 0.96875 -0.625 2.734375l0 5.125l-1.671875 0zm14.287476 0.1875q-1.484375 0 -2.390625 -0.71875q-0.890625 -0.734375 -0.890625 -2.21875q0 -1.078125 0.515625 -1.796875q0.515625 -0.71875 1.53125 -1.078125q1.03125 -0.359375 2.484375 -0.40625l2.140625 -0.046875l0 -0.421875q0 -1.328125 -0.671875 -1.828125q-0.671875 -0.5 -1.8125 -0.5q-0.796875 0 -1.53125 0.21875q-0.71875 0.203125 -1.375 0.5625l-0.578125 -1.265625q0.703125 -0.34375 1.5625 -0.609375q0.875 -0.265625 2.015625 -0.265625q1.890625 0 2.90625 0.859375q1.015625 0.84375 1.015625 2.625l0 6.703125l-1.34375 0l-0.1875 -1.375l-0.078125 0q-0.40625 0.515625 -0.90625 0.859375q-0.484375 0.34375 -1.09375 0.515625q-0.59375 0.1875 -1.3125 0.1875zm0.28125 -1.359375q0.828125 0 1.53125 -0.3125q0.71875 -0.3125 1.140625 -0.9375q0.4375 -0.625 0.4375 -1.578125l0 -0.890625l-1.796875 0.0625q-1.1875 0.03125 -1.921875 0.28125q-0.71875 0.25 -1.046875 0.6875q-0.328125 0.4375 -0.328125 1.0625q0 0.859375 0.53125 1.25q0.546875 0.375 1.453125 0.375zm13.818787 1.359375q-1.0625 0 -1.90625 -0.28125q-0.84375 -0.28125 -1.34375 -0.984375q-0.484375 -0.71875 -0.484375 -1.96875l0 -5.546875l-2.71875 0l0 -1.15625l2.71875 -0.3125l0.34375 -2.609375l1.34375 0l0 2.671875l3.890625 0l0 1.40625l-3.890625 0l0 5.234375q0 0.75 0.203125 1.234375q0.21875 0.484375 0.703125 0.71875q0.484375 0.234375 1.25 0.234375q0.484375 0 1.046875 -0.09375q0.5625 -0.09375 0.96875 -0.1875l0 1.34375q-0.453125 0.109375 -1.0 0.203125q-0.53125 0.09375 -1.125 0.09375zm9.974976 0q-1.59375 0 -2.75 -0.59375q-1.15625 -0.59375 -1.78125 -1.734375q-0.625 -1.15625 -0.625 -2.828125q0 -1.640625 0.59375 -2.796875q0.59375 -1.171875 1.65625 -1.796875q1.0625 -0.625 2.484375 -0.625q1.296875 0 2.234375 0.578125q0.953125 0.578125 1.46875 1.640625q0.515625 1.046875 0.515625 2.515625l0 0.765625l-7.265625 0q0.046875 1.3125 0.5 2.078125q0.453125 0.765625 1.25 1.09375q0.796875 0.328125 1.84375 0.328125q0.8125 0 1.609375 -0.21875q0.8125 -0.234375 1.609375 -0.609375l0 1.5q-0.859375 0.359375 -1.71875 0.53125q-0.859375 0.171875 -1.625 0.171875zm2.109375 -6.21875q-0.03125 -0.875 -0.328125 -1.5q-0.296875 -0.625 -0.859375 -0.953125q-0.546875 -0.34375 -1.34375 -0.34375q-1.25 0 -2.03125 0.765625q-0.765625 0.75 -0.96875 2.03125l5.53125 0zm7.9125366 6.21875q-0.90625 0 -1.671875 -0.3125q-0.75 -0.328125 -1.296875 -0.96875q-0.53125 -0.65625 -0.828125 -1.640625q-0.28125 -1.0 -0.28125 -2.328125q0 -1.65625 0.46875 -2.796875q0.484375 -1.15625 1.421875 -1.734375q0.953125 -0.59375 2.375 -0.59375q0.6875 0 1.21875 0.1875q0.53125 0.1875 0.90625 0.515625q0.390625 0.328125 0.625 0.75l0.109375 0q-0.015625 -0.1875 -0.046875 -0.4375q-0.03125 -0.25 -0.046875 -0.515625q-0.015625 -0.28125 -0.015625 -0.515625l0 -3.96875l1.65625 0l0 14.171875l-1.375 0l-0.1875 -1.34375l-0.078125 0q-0.28125 0.453125 -0.6875 0.796875q-0.390625 0.34375 -0.953125 0.546875q-0.546875 0.1875 -1.3125 0.1875zm0.3125 -1.359375q1.328125 0 1.96875 -0.921875q0.65625 -0.921875 0.65625 -2.515625l0 -0.375q0 -1.09375 -0.25 -1.953125q-0.234375 -0.875 -0.796875 -1.375q-0.5625 -0.515625 -1.515625 -0.515625q-1.3125 0 -2.03125 0.96875q-0.703125 0.96875 -0.703125 2.96875q0 1.84375 0.65625 2.78125q0.65625 0.9375 2.015625 0.9375z" fill-rule="nonzero"/><path fill="#000000" fill-opacity="0.0" d="m326.64435 324.64435l141.98425 0l0 70.70868l-141.98425 0z" fill-rule="evenodd"/><path stroke="#000000" stroke-width="1.0" stroke-linejoin="round" stroke-linecap="butt" d="m326.64435 324.64435l141.98425 0l0 70.70868l-141.98425 0z" fill-rule="evenodd"/><path fill="#000000" d="m360.3646 366.9187l-1.609375 -10.0l1.5625 0l0.734375 4.9375q0.109375 0.703125 0.15625 1.25q0.046875 0.53125 0.09375 1.09375q0.046875 0.546875 0.078125 1.3125l0.0625 0q0.0625 -0.3125 0.15625 -0.875q0.109375 -0.578125 0.25 -1.234375q0.140625 -0.65625 0.296875 -1.21875l0.984375 -3.375l1.84375 0l0.921875 3.375q0.171875 0.5625 0.3125 1.203125q0.15625 0.640625 0.28125 1.21875q0.125 0.5625 0.15625 0.90625l0.0625 0q0.046875 -0.734375 0.078125 -1.28125q0.046875 -0.5625 0.09375 -1.09375q0.0625 -0.546875 0.171875 -1.28125l0.796875 -4.9375l1.515625 0l-1.640625 10.0l-2.015625 0l-0.890625 -3.5q-0.1875 -0.765625 -0.390625 -1.53125q-0.203125 -0.765625 -0.359375 -1.515625l-0.046875 0q-0.15625 0.75 -0.375 1.515625q-0.203125 0.765625 -0.40625 1.53125l-0.921875 3.5l-1.953125 0zm13.881256 0.1875q-1.484375 0 -2.390625 -0.71875q-0.890625 -0.734375 -0.890625 -2.21875q0 -1.078125 0.515625 -1.796875q0.515625 -0.71875 1.53125 -1.078125q1.03125 -0.359375 2.484375 -0.40625l2.140625 -0.046875l0 -0.421875q0 -1.328125 -0.671875 -1.828125q-0.671875 -0.5 -1.8125 -0.5q-0.796875 0 -1.53125 0.21875q-0.71875 0.203125 -1.375 0.5625l-0.578125 -1.265625q0.703125 -0.34375 1.5625 -0.609375q0.875 -0.265625 2.015625 -0.265625q1.890625 0 2.90625 0.859375q1.015625 0.84375 1.015625 2.625l0 6.703125l-1.34375 0l-0.1875 -1.375l-0.078125 0q-0.40625 0.515625 -0.90625 0.859375q-0.484375 0.34375 -1.09375 0.515625q-0.59375 0.1875 -1.3125 0.1875zm0.28125 -1.359375q0.828125 0 1.53125 -0.3125q0.71875 -0.3125 1.140625 -0.9375q0.4375 -0.625 0.4375 -1.578125l0 -0.890625l-1.796875 0.0625q-1.1875 0.03125 -1.921875 0.28125q-0.71875 0.25 -1.046875 0.6875q-0.328125 0.4375 -0.328125 1.0625q0 0.859375 0.53125 1.25q0.546875 0.375 1.453125 0.375zm7.818756 1.171875l0 -1.125l3.5625 -0.28125l0 -7.1875l-3.265625 -0.25l0 -1.15625l4.9375 0l0 8.59375l3.34375 0.28125l0 1.125l-8.578125 0zm4.234375 -11.8125q-0.484375 0 -0.84375 -0.296875q-0.34375 -0.296875 -0.34375 -0.875q0 -0.609375 0.34375 -0.890625q0.359375 -0.296875 0.84375 -0.296875q0.484375 0 0.828125 0.296875q0.34375 0.28125 0.34375 0.890625q0 0.578125 -0.34375 0.875q-0.34375 0.296875 -0.828125 0.296875zm12.959381 12.0q-1.0625 0 -1.90625 -0.28125q-0.84375 -0.28125 -1.34375 -0.984375q-0.484375 -0.71875 -0.484375 -1.96875l0 -5.546875l-2.71875 0l0 -1.15625l2.71875 -0.3125l0.34375 -2.609375l1.34375 0l0 2.671875l3.890625 0l0 1.40625l-3.890625 0l0 5.234375q0 0.75 0.203125 1.234375q0.21875 0.484375 0.703125 0.71875q0.484375 0.234375 1.25 0.234375q0.484375 0 1.046875 -0.09375q0.5625 -0.09375 0.96875 -0.1875l0 1.34375q-0.453125 0.109375 -1.0 0.203125q-0.53125 0.09375 -1.125 0.09375zm5.193756 -0.1875l0 -1.125l3.5625 -0.28125l0 -7.1875l-3.265625 -0.25l0 -1.15625l4.9375 0l0 8.59375l3.34375 0.28125l0 1.125l-8.578125 0zm4.234375 -11.8125q-0.484375 0 -0.84375 -0.296875q-0.34375 -0.296875 -0.34375 -0.875q0 -0.609375 0.34375 -0.890625q0.359375 -0.296875 0.84375 -0.296875q0.484375 0 0.828125 0.296875q0.34375 0.28125 0.34375 0.890625q0 0.578125 -0.34375 0.875q-0.34375 0.296875 -0.828125 0.296875zm6.959381 11.8125l0 -10.0l1.328125 0l0.25 1.46875l0.09375 0q0.296875 -0.578125 0.765625 -0.9375q0.484375 -0.359375 1.109375 -0.53125q0.640625 -0.1875 1.390625 -0.1875q1.515625 0 2.4375 0.859375q0.921875 0.84375 0.921875 2.65625l0 6.671875l-1.6875 0l0 -6.375q0 -1.28125 -0.515625 -1.859375q-0.5 -0.59375 -1.640625 -0.59375q-1.53125 0 -2.15625 0.96875q-0.625 0.96875 -0.625 2.734375l0 5.125l-1.671875 0zm14.850006 4.578125q-1.03125 0 -1.9375 -0.203125q-0.90625 -0.203125 -1.671875 -0.515625l0 -1.484375q0.75 0.421875 1.71875 0.640625q0.984375 0.21875 1.828125 0.21875q1.703125 0 2.375 -0.796875q0.671875 -0.796875 0.671875 -2.171875l0 -0.359375q0 -0.21875 0 -0.421875q0.015625 -0.21875 0.046875 -0.640625l-0.078125 0q-0.515625 0.765625 -1.21875 1.0625q-0.703125 0.28125 -1.6875 0.28125q-1.96875 0 -3.078125 -1.34375q-1.09375 -1.359375 -1.09375 -3.78125q0 -2.453125 1.078125 -3.84375q1.09375 -1.40625 3.0 -1.40625q1.015625 0 1.703125 0.328125q0.6875 0.328125 1.234375 1.09375l0.09375 0l0.21875 -1.234375l1.34375 0l0 10.265625q0 1.40625 -0.484375 2.359375q-0.484375 0.96875 -1.5 1.453125q-1.0 0.5 -2.5625 0.5zm0.359375 -5.75q0.625 0 1.109375 -0.1875q0.5 -0.203125 0.84375 -0.625q0.34375 -0.421875 0.53125 -1.0625q0.1875 -0.640625 0.1875 -1.546875l0 -0.390625q0 -1.359375 -0.328125 -2.203125q-0.328125 -0.859375 -0.9375 -1.25q-0.609375 -0.390625 -1.453125 -0.390625q-1.421875 0 -2.078125 1.0q-0.640625 1.0 -0.640625 2.828125q0 1.859375 0.671875 2.84375q0.6875 0.984375 2.09375 0.984375z" fill-rule="nonzero"/><path fill="#000000" fill-opacity="0.0" d="m175.61679 45.115486l66.58269 0l0 16.157478l-66.58269 0z" fill-rule="evenodd"/><path fill="#ffffff" d="m183.34843 45.115486l51.1194 0l0 16.0l-51.1194 0l0 -16.0z" fill-rule="nonzero"/><path fill="#000000" fill-opacity="0.0" d="m183.34843 45.849888l51.1194 0l0 15.326042l-51.1194 0l0 -15.326042z" fill-rule="nonzero"/><path fill="#000000" d="m188.73906 57.05611q-0.65625 0.5625 -1.265625 0.796875q-0.59375 0.21875 -1.28125 0.21875q-1.140625 0 -1.75 -0.546875q-0.609375 -0.5625 -0.609375 -1.4375q0 -0.5 0.21875 -0.921875q0.234375 -0.421875 0.609375 -0.671875q0.375 -0.25 0.84375 -0.390625q0.34375 -0.078125 1.046875 -0.171875q1.421875 -0.171875 2.09375 -0.40625q0 -0.234375 0 -0.296875q0 -0.71875 -0.328125 -1.015625q-0.453125 -0.390625 -1.34375 -0.390625q-0.8125 0 -1.21875 0.296875q-0.390625 0.28125 -0.578125 1.015625l-1.140625 -0.15625q0.15625 -0.734375 0.515625 -1.1875q0.359375 -0.453125 1.03125 -0.6875q0.671875 -0.25 1.5625 -0.25q0.890625 0 1.4375 0.203125q0.5625 0.203125 0.8125 0.53125q0.265625 0.3125 0.375 0.796875q0.046875 0.296875 0.046875 1.078125l0 1.5625q0 1.625 0.078125 2.0625q0.078125 0.4375 0.296875 0.828125l-1.21875 0q-0.1875 -0.359375 -0.234375 -0.859375zm-0.09375 -2.609375q-0.640625 0.265625 -1.921875 0.4375q-0.71875 0.109375 -1.015625 0.25q-0.296875 0.125 -0.46875 0.375q-0.15625 0.25 -0.15625 0.546875q0 0.46875 0.34375 0.78125q0.359375 0.3125 1.046875 0.3125q0.671875 0 1.203125 -0.296875q0.53125 -0.296875 0.78125 -0.8125q0.1875 -0.390625 0.1875 -1.171875l0 -0.421875zm7.4749756 3.46875l0 -0.875q-0.65625 1.03125 -1.9375 1.03125q-0.8125 0 -1.515625 -0.453125q-0.6875 -0.453125 -1.078125 -1.265625q-0.375 -0.828125 -0.375 -1.890625q0 -1.03125 0.34375 -1.875q0.34375 -0.84375 1.03125 -1.28125q0.703125 -0.453125 1.546875 -0.453125q0.625 0 1.109375 0.265625q0.5 0.25 0.796875 0.671875l0 -3.421875l1.171875 0l0 9.546875l-1.09375 0zm-3.703125 -3.453125q0 1.328125 0.5625 1.984375q0.5625 0.65625 1.328125 0.65625q0.765625 0 1.296875 -0.625q0.53125 -0.625 0.53125 -1.90625q0 -1.421875 -0.546875 -2.078125q-0.546875 -0.671875 -1.34375 -0.671875q-0.78125 0 -1.3125 0.640625q-0.515625 0.625 -0.515625 2.0zm6.6312256 3.453125l0 -6.90625l1.046875 0l0 0.96875q0.328125 -0.515625 0.859375 -0.8125q0.546875 -0.3125 1.234375 -0.3125q0.78125 0 1.265625 0.3125q0.484375 0.3125 0.6875 0.890625q0.828125 -1.203125 2.140625 -1.203125q1.03125 0 1.578125 0.578125q0.5625 0.5625 0.5625 1.734375l0 4.75l-1.171875 0l0 -4.359375q0 -0.703125 -0.125 -1.0q-0.109375 -0.3125 -0.40625 -0.5q-0.296875 -0.1875 -0.703125 -0.1875q-0.71875 0 -1.203125 0.484375q-0.484375 0.484375 -0.484375 1.546875l0 4.015625l-1.171875 0l0 -4.484375q0 -0.78125 -0.296875 -1.171875q-0.28125 -0.390625 -0.921875 -0.390625q-0.5 0 -0.921875 0.265625q-0.421875 0.25 -0.609375 0.75q-0.1875 0.5 -0.1875 1.453125l0 3.578125l-1.171875 0zm11.118057 -8.1875l0 -1.359375l1.171875 0l0 1.359375l-1.171875 0zm0 8.1875l0 -6.90625l1.171875 0l0 6.90625l-1.171875 0zm5.507965 -1.046875l0.171875 1.03125q-0.5 0.109375 -0.890625 0.109375q-0.640625 0 -1.0 -0.203125q-0.34375 -0.203125 -0.484375 -0.53125q-0.140625 -0.328125 -0.140625 -1.390625l0 -3.96875l-0.859375 0l0 -0.90625l0.859375 0l0 -1.71875l1.171875 -0.703125l0 2.421875l1.171875 0l0 0.90625l-1.171875 0l0 4.046875q0 0.5 0.046875 0.640625q0.0625 0.140625 0.203125 0.234375q0.140625 0.078125 0.40625 0.078125q0.203125 0 0.515625 -0.046875zm3.7029877 0l0.171875 1.03125q-0.5 0.109375 -0.890625 0.109375q-0.640625 0 -1.0 -0.203125q-0.34375 -0.203125 -0.484375 -0.53125q-0.140625 -0.328125 -0.140625 -1.390625l0 -3.96875l-0.859375 0l0 -0.90625l0.859375 0l0 -1.71875l1.171875 -0.703125l0 2.421875l1.171875 0l0 0.90625l-1.171875 0l0 4.046875q0 0.5 0.046875 0.640625q0.0625 0.140625 0.203125 0.234375q0.140625 0.078125 0.40625 0.078125q0.203125 0 0.515625 -0.046875zm5.8748627 -1.171875l1.203125 0.140625q-0.28125 1.0625 -1.0625 1.65625q-0.765625 0.578125 -1.96875 0.578125q-1.515625 0 -2.40625 -0.9375q-0.890625 -0.9375 -0.890625 -2.609375q0 -1.75 0.890625 -2.703125q0.90625 -0.96875 2.34375 -0.96875q1.390625 0 2.265625 0.9375q0.875 0.9375 0.875 2.65625q0 0.109375 0 0.3125l-5.15625 0q0.0625 1.140625 0.640625 1.75q0.578125 0.59375 1.4375 0.59375q0.65625 0 1.109375 -0.328125q0.453125 -0.34375 0.71875 -1.078125zm-3.84375 -1.90625l3.859375 0q-0.078125 -0.859375 -0.4375 -1.296875q-0.5625 -0.6875 -1.453125 -0.6875q-0.8125 0 -1.359375 0.546875q-0.546875 0.53125 -0.609375 1.4375zm11.006226 4.125l0 -0.875q-0.65625 1.03125 -1.9375 1.03125q-0.8125 0 -1.515625 -0.453125q-0.6875 -0.453125 -1.078125 -1.265625q-0.375 -0.828125 -0.375 -1.890625q0 -1.03125 0.34375 -1.875q0.34375 -0.84375 1.03125 -1.28125q0.703125 -0.453125 1.546875 -0.453125q0.625 0 1.109375 0.265625q0.5 0.25 0.796875 0.671875l0 -3.421875l1.171875 0l0 9.546875l-1.09375 0zm-3.703125 -3.453125q0 1.328125 0.5625 1.984375q0.5625 0.65625 1.328125 0.65625q0.765625 0 1.296875 -0.625q0.53125 -0.625 0.53125 -1.90625q0 -1.421875 -0.546875 -2.078125q-0.546875 -0.671875 -1.34375 -0.671875q-0.78125 0 -1.3125 0.640625q-0.515625 0.625 -0.515625 2.0z" fill-rule="nonzero"/><path fill="#010000" fill-opacity="0.0" d="m234.46783 45.849888l0 0l0 15.326042l0 0l0 -15.326042z" fill-rule="nonzero"/><path fill="#000000" fill-opacity="0.0" d="m495.34384 179.56955l0 -25.0l-201.35434 0l0 25.063004" fill-rule="evenodd"/><path stroke="#000000" stroke-width="1.0" stroke-linejoin="round" stroke-linecap="butt" d="m495.34384 179.56955l0 -25.0l-201.35434 0l0 19.063004" fill-rule="evenodd"/><path fill="#000000" stroke="#000000" stroke-width="1.0" stroke-linecap="butt" d="m292.33777 173.63255l1.6517334 4.538086l1.6517334 -4.538086z" fill-rule="evenodd"/><path fill="#000000" fill-opacity="0.0" d="m293.97638 250.27953l0 25.000015l201.35434 0l0 -24.937027" fill-rule="evenodd"/><path stroke="#000000" stroke-width="1.0" stroke-linejoin="round" stroke-linecap="butt" d="m293.97638 250.27953l0 25.000015l201.35434 0l0 -18.937012" fill-rule="evenodd"/><path fill="#000000" stroke="#000000" stroke-width="1.0" stroke-linecap="butt" d="m496.98245 256.34253l-1.6517334 -4.538101l-1.6517334 4.538101z" fill-rule="evenodd"/><path fill="#000000" fill-opacity="0.0" d="m326.64435 359.9987l-73.60629 0l0 -110.14174" fill-rule="evenodd"/><path stroke="#000000" stroke-width="1.0" stroke-linejoin="round" stroke-linecap="butt" d="m326.64435 359.9987l-73.60629 0l0 -104.14174" fill-rule="evenodd"/><path fill="#000000" stroke="#000000" stroke-width="1.0" stroke-linecap="butt" d="m254.68979 255.85695l-1.6517334 -4.538086l-1.6517334 4.538086z" fill-rule="evenodd"/><path fill="#000000" fill-opacity="0.0" d="m533.16406 249.85695l0 110.14174l-64.53546 0" fill-rule="evenodd"/><path stroke="#000000" stroke-width="1.0" stroke-linejoin="round" stroke-linecap="butt" d="m533.16406 249.85695l0 110.14174l-58.53546 0" fill-rule="evenodd"/><path fill="#000000" stroke="#000000" stroke-width="1.0" stroke-linecap="butt" d="m474.6286 358.34695l-4.538086 1.6517334l4.538086 1.6517334z" fill-rule="evenodd"/><path fill="#000000" fill-opacity="0.0" d="m531.35693 178.86351l0 -125.66928l94.36224 0" fill-rule="evenodd"/><path stroke="#000000" stroke-width="1.0" stroke-linejoin="round" stroke-linecap="butt" d="m531.35693 178.86351l0 -125.66928l88.36224 0" fill-rule="evenodd"/><path fill="#000000" stroke="#000000" stroke-width="1.0" stroke-linecap="butt" d="m619.7192 54.84596l4.538086 -1.6517334l-4.538086 -1.6517334z" fill-rule="evenodd"/><path fill="#000000" fill-opacity="0.0" d="m361.37402 146.67192l66.58267 0l0 16.15747l-66.58267 0z" fill-rule="evenodd"/><path fill="#ffffff" d="m370.2185 146.67192l48.893707 0l0 16.0l-48.893707 0l0 -16.0z" fill-rule="nonzero"/><path fill="#000000" fill-opacity="0.0" d="m370.2185 147.40631l48.893707 0l0 15.32605l-48.893707 0l0 -15.32605z" fill-rule="nonzero"/><path fill="#000000" d="m371.10913 151.28441l0 -1.359375l1.171875 0l0 1.359375l-1.171875 0zm0 8.1875l0 -6.90625l1.171875 0l0 6.90625l-1.171875 0zm2.945465 0l0 -6.90625l1.0625 0l0 0.984375q0.75 -1.140625 2.1875 -1.140625q0.625 0 1.15625 0.21875q0.53125 0.21875 0.78125 0.59375q0.265625 0.359375 0.375 0.859375q0.0625 0.328125 0.0625 1.140625l0 4.25l-1.171875 0l0 -4.203125q0 -0.71875 -0.140625 -1.0625q-0.140625 -0.359375 -0.484375 -0.5625q-0.34375 -0.21875 -0.8125 -0.21875q-0.75 0 -1.296875 0.46875q-0.546875 0.46875 -0.546875 1.796875l0 3.78125l-1.171875 0zm9.974976 -1.046875l0.171875 1.03125q-0.5 0.109375 -0.890625 0.109375q-0.640625 0 -1.0 -0.203125q-0.34375 -0.203125 -0.484375 -0.53125q-0.140625 -0.328125 -0.140625 -1.390625l0 -3.96875l-0.859375 0l0 -0.90625l0.859375 0l0 -1.71875l1.171875 -0.703125l0 2.421875l1.171875 0l0 0.90625l-1.171875 0l0 4.046875q0 0.5 0.046875 0.640625q0.0625 0.140625 0.203125 0.234375q0.140625 0.078125 0.40625 0.078125q0.203125 0 0.515625 -0.046875zm5.8748474 -1.171875l1.203125 0.140625q-0.28125 1.0625 -1.0625 1.65625q-0.765625 0.578125 -1.96875 0.578125q-1.515625 0 -2.40625 -0.9375q-0.890625 -0.9375 -0.890625 -2.609375q0 -1.75 0.890625 -2.703125q0.90625 -0.96875 2.34375 -0.96875q1.390625 0 2.265625 0.9375q0.875 0.9375 0.875 2.65625q0 0.109375 0 0.3125l-5.15625 0q0.0625 1.140625 0.640625 1.75q0.578125 0.59375 1.4375 0.59375q0.65625 0 1.109375 -0.328125q0.453125 -0.34375 0.71875 -1.078125zm-3.84375 -1.90625l3.859375 0q-0.078125 -0.859375 -0.4375 -1.296875q-0.5625 -0.6875 -1.453125 -0.6875q-0.8125 0 -1.359375 0.546875q-0.546875 0.53125 -0.609375 1.4375zm6.5062256 4.125l0 -6.90625l1.0625 0l0 1.046875q0.40625 -0.734375 0.734375 -0.96875q0.34375 -0.234375 0.765625 -0.234375q0.59375 0 1.203125 0.375l-0.40625 1.078125q-0.4375 -0.25 -0.859375 -0.25q-0.390625 0 -0.703125 0.234375q-0.296875 0.234375 -0.421875 0.640625q-0.203125 0.625 -0.203125 1.359375l0 3.625l-1.171875 0zm4.438385 0l0 -6.90625l1.0625 0l0 1.046875q0.40625 -0.734375 0.734375 -0.96875q0.34375 -0.234375 0.765625 -0.234375q0.59375 0 1.203125 0.375l-0.40625 1.078125q-0.4375 -0.25 -0.859375 -0.25q-0.390625 0 -0.703125 0.234375q-0.296875 0.234375 -0.421875 0.640625q-0.203125 0.625 -0.203125 1.359375l0 3.625l-1.171875 0zm8.9852295 0l0 -1.015625q-0.8125 1.171875 -2.1875 1.171875q-0.609375 0 -1.140625 -0.234375q-0.53125 -0.234375 -0.796875 -0.578125q-0.25 -0.359375 -0.359375 -0.875q-0.0625 -0.34375 -0.0625 -1.09375l0 -4.28125l1.171875 0l0 3.828125q0 0.921875 0.0625 1.234375q0.109375 0.46875 0.46875 0.734375q0.359375 0.25 0.890625 0.25q0.515625 0 0.984375 -0.265625q0.46875 -0.265625 0.65625 -0.734375q0.1875 -0.46875 0.1875 -1.34375l0 -3.703125l1.171875 0l0 6.90625l-1.046875 0zm2.8812256 2.65625l0 -9.5625l1.078125 0l0 0.890625q0.375 -0.53125 0.84375 -0.78125q0.484375 -0.265625 1.15625 -0.265625q0.875 0 1.546875 0.453125q0.6875 0.453125 1.03125 1.28125q0.34375 0.828125 0.34375 1.828125q0 1.046875 -0.375 1.90625q-0.375 0.84375 -1.109375 1.296875q-0.71875 0.453125 -1.53125 0.453125q-0.578125 0 -1.046875 -0.25q-0.46875 -0.25 -0.765625 -0.625l0 3.375l-1.171875 0zm1.0625 -6.078125q0 1.34375 0.53125 1.984375q0.546875 0.625 1.3125 0.625q0.78125 0 1.34375 -0.65625q0.5625 -0.65625 0.5625 -2.046875q0 -1.3125 -0.546875 -1.96875q-0.546875 -0.671875 -1.296875 -0.671875q-0.75 0 -1.328125 0.703125q-0.578125 0.703125 -0.578125 2.03125zm8.912476 2.375l0.171875 1.03125q-0.5 0.109375 -0.890625 0.109375q-0.640625 0 -1.0 -0.203125q-0.34375 -0.203125 -0.484375 -0.53125q-0.140625 -0.328125 -0.140625 -1.390625l0 -3.96875l-0.859375 0l0 -0.90625l0.859375 0l0 -1.71875l1.171875 -0.703125l0 2.421875l1.171875 0l0 0.90625l-1.171875 0l0 4.046875q0 0.5 0.046875 0.640625q0.0625 0.140625 0.203125 0.234375q0.140625 0.078125 0.40625 0.078125q0.203125 0 0.515625 -0.046875z" fill-rule="nonzero"/><path fill="#010000" fill-opacity="0.0" d="m419.1122 147.40631l0 0l0 15.32605l0 0l0 -15.32605z" fill-rule="nonzero"/><path fill="#000000" fill-opacity="0.0" d="m541.81366 45.115486l66.58264 0l0 16.157478l-66.58264 0z" fill-rule="evenodd"/><path fill="#ffffff" d="m564.7347 45.115486l20.7406 0l0 16.0l-20.7406 0l0 -16.0z" fill-rule="nonzero"/><path fill="#000000" fill-opacity="0.0" d="m564.7347 45.849888l20.7406 0l0 15.326042l-20.7406 0l0 -15.326042z" fill-rule="nonzero"/><path fill="#000000" d="m570.34406 55.696735l1.203125 0.140625q-0.28125 1.0625 -1.0625 1.65625q-0.765625 0.578125 -1.96875 0.578125q-1.515625 0 -2.40625 -0.9375q-0.890625 -0.9375 -0.890625 -2.609375q0 -1.75 0.890625 -2.703125q0.90625 -0.96875 2.34375 -0.96875q1.390625 0 2.265625 0.9375q0.875 0.9375 0.875 2.65625q0 0.109375 0 0.3125l-5.15625 0q0.0625 1.140625 0.640625 1.75q0.578125 0.59375 1.4375 0.59375q0.65625 0 1.109375 -0.328125q0.453125 -0.34375 0.71875 -1.078125zm-3.84375 -1.90625l3.859375 0q-0.078125 -0.859375 -0.4375 -1.296875q-0.5625 -0.6875 -1.453125 -0.6875q-0.8125 0 -1.359375 0.546875q-0.546875 0.53125 -0.609375 1.4375zm5.7406006 4.125l2.53125 -3.59375l-2.34375 -3.3125l1.46875 0l1.0625 1.609375q0.296875 0.46875 0.484375 0.78125q0.28125 -0.4375 0.515625 -0.765625l1.171875 -1.625l1.40625 0l-2.390625 3.25l2.5625 3.65625l-1.4375 0l-1.421875 -2.140625l-0.375 -0.59375l-1.8125 2.734375l-1.421875 0zm7.4609375 -8.1875l0 -1.359375l1.171875 0l0 1.359375l-1.171875 0zm0 8.1875l0 -6.90625l1.171875 0l0 6.90625l-1.171875 0zm5.5079956 -1.046875l0.171875 1.03125q-0.5 0.109375 -0.890625 0.109375q-0.640625 0 -1.0 -0.203125q-0.34375 -0.203125 -0.484375 -0.53125q-0.140625 -0.328125 -0.140625 -1.390625l0 -3.96875l-0.859375 0l0 -0.90625l0.859375 0l0 -1.71875l1.171875 -0.703125l0 2.421875l1.171875 0l0 0.90625l-1.171875 0l0 4.046875q0 0.5 0.046875 0.640625q0.0625 0.140625 0.203125 0.234375q0.140625 0.078125 0.40625 0.078125q0.203125 0 0.515625 -0.046875z" fill-rule="nonzero"/><path fill="#010000" fill-opacity="0.0" d="m585.4753 45.849888l0 0l0 15.326042l0 0l0 -15.326042z" fill-rule="nonzero"/><path fill="#000000" fill-opacity="0.0" d="m293.9895 267.02362l201.35434 0l0 16.15747l-201.35434 0z" fill-rule="evenodd"/><path fill="#ffffff" d="m339.09912 267.02362l111.13507 0l0 16.0l-111.13507 0l0 -16.0z" fill-rule="nonzero"/><path fill="#000000" fill-opacity="0.0" d="m339.09912 267.75803l111.13507 0l0 15.32605l-111.13507 0l0 -15.32605z" fill-rule="nonzero"/><path fill="#000000" d="m339.50537 277.7611l1.15625 -0.1875q0.109375 0.703125 0.546875 1.078125q0.453125 0.359375 1.25 0.359375q0.8125 0 1.203125 -0.328125q0.390625 -0.328125 0.390625 -0.765625q0 -0.390625 -0.359375 -0.625q-0.234375 -0.15625 -1.1875 -0.390625q-1.296875 -0.328125 -1.796875 -0.5625q-0.484375 -0.25 -0.75 -0.65625q-0.25 -0.421875 -0.25 -0.9375q0 -0.453125 0.203125 -0.84375q0.21875 -0.40625 0.578125 -0.671875q0.28125 -0.1875 0.75 -0.328125q0.46875 -0.140625 1.015625 -0.140625q0.8125 0 1.421875 0.234375q0.609375 0.234375 0.90625 0.640625q0.296875 0.390625 0.40625 1.0625l-1.140625 0.15625q-0.078125 -0.53125 -0.453125 -0.828125q-0.375 -0.3125 -1.0625 -0.3125q-0.8125 0 -1.15625 0.265625q-0.34375 0.265625 -0.34375 0.625q0 0.234375 0.140625 0.421875q0.15625 0.1875 0.453125 0.3125q0.171875 0.0625 1.03125 0.296875q1.25 0.328125 1.734375 0.546875q0.5 0.203125 0.78125 0.609375q0.28125 0.40625 0.28125 1.0q0 0.59375 -0.34375 1.109375q-0.34375 0.515625 -1.0 0.796875q-0.640625 0.28125 -1.453125 0.28125q-1.34375 0 -2.046875 -0.5625q-0.703125 -0.5625 -0.90625 -1.65625zm11.6484375 -0.46875l1.15625 0.15625q-0.1875 1.1875 -0.96875 1.859375q-0.78125 0.671875 -1.921875 0.671875q-1.40625 0 -2.28125 -0.921875q-0.859375 -0.9375 -0.859375 -2.65625q0 -1.125 0.375 -1.96875q0.375 -0.84375 1.125 -1.25q0.765625 -0.421875 1.65625 -0.421875q1.125 0 1.84375 0.578125q0.71875 0.5625 0.921875 1.609375l-1.140625 0.171875q-0.171875 -0.703125 -0.59375 -1.046875q-0.40625 -0.359375 -0.984375 -0.359375q-0.890625 0 -1.453125 0.640625q-0.546875 0.640625 -0.546875 2.0q0 1.40625 0.53125 2.03125q0.546875 0.625 1.40625 0.625q0.6875 0 1.140625 -0.421875q0.46875 -0.421875 0.59375 -1.296875zm2.1484375 2.53125l0 -9.546875l1.171875 0l0 3.421875q0.828125 -0.9375 2.078125 -0.9375q0.765625 0 1.328125 0.296875q0.5625 0.296875 0.8125 0.84375q0.25 0.53125 0.25 1.546875l0 4.375l-1.171875 0l0 -4.375q0 -0.890625 -0.390625 -1.28125q-0.375 -0.40625 -1.078125 -0.40625q-0.515625 0 -0.984375 0.28125q-0.453125 0.265625 -0.65625 0.734375q-0.1875 0.453125 -0.1875 1.265625l0 3.78125l-1.171875 0zm12.146851 -2.21875l1.203125 0.140625q-0.28125 1.0625 -1.0625 1.65625q-0.765625 0.578125 -1.96875 0.578125q-1.515625 0 -2.40625 -0.9375q-0.890625 -0.9375 -0.890625 -2.609375q0 -1.75 0.890625 -2.703125q0.90625 -0.96875 2.34375 -0.96875q1.390625 0 2.265625 0.9375q0.875 0.9375 0.875 2.65625q0 0.109375 0 0.3125l-5.15625 0q0.0625 1.140625 0.640625 1.75q0.578125 0.59375 1.4375 0.59375q0.65625 0 1.109375 -0.328125q0.453125 -0.34375 0.71875 -1.078125zm-3.84375 -1.90625l3.859375 0q-0.078125 -0.859375 -0.4375 -1.296875q-0.5625 -0.6875 -1.453125 -0.6875q-0.8125 0 -1.359375 0.546875q-0.546875 0.53125 -0.609375 1.4375zm11.006226 4.125l0 -0.875q-0.65625 1.03125 -1.9375 1.03125q-0.8125 0 -1.515625 -0.453125q-0.6875 -0.453125 -1.078125 -1.265625q-0.375 -0.828125 -0.375 -1.890625q0 -1.03125 0.34375 -1.875q0.34375 -0.84375 1.03125 -1.28125q0.703125 -0.453125 1.546875 -0.453125q0.625 0 1.109375 0.265625q0.5 0.25 0.796875 0.671875l0 -3.421875l1.171875 0l0 9.546875l-1.09375 0zm-3.703125 -3.453125q0 1.328125 0.5625 1.984375q0.5625 0.65625 1.328125 0.65625q0.765625 0 1.296875 -0.625q0.53125 -0.625 0.53125 -1.90625q0 -1.421875 -0.546875 -2.078125q-0.546875 -0.671875 -1.34375 -0.671875q-0.78125 0 -1.3125 0.640625q-0.515625 0.625 -0.515625 2.0zm11.162476 3.453125l0 -1.015625q-0.8125 1.171875 -2.1875 1.171875q-0.609375 0 -1.140625 -0.234375q-0.53125 -0.234375 -0.796875 -0.578125q-0.25 -0.359375 -0.359375 -0.875q-0.0625 -0.34375 -0.0625 -1.09375l0 -4.28125l1.171875 0l0 3.828125q0 0.921875 0.0625 1.234375q0.109375 0.46875 0.46875 0.734375q0.359375 0.25 0.890625 0.25q0.515625 0 0.984375 -0.265625q0.46875 -0.265625 0.65625 -0.734375q0.1875 -0.46875 0.1875 -1.34375l0 -3.703125l1.171875 0l0 6.90625l-1.046875 0zm2.8656006 0l0 -9.546875l1.171875 0l0 9.546875l-1.171875 0zm7.71109 -2.21875l1.203125 0.140625q-0.28125 1.0625 -1.0625 1.65625q-0.765625 0.578125 -1.96875 0.578125q-1.515625 0 -2.40625 -0.9375q-0.890625 -0.9375 -0.890625 -2.609375q0 -1.75 0.890625 -2.703125q0.90625 -0.96875 2.34375 -0.96875q1.390625 0 2.265625 0.9375q0.875 0.9375 0.875 2.65625q0 0.109375 0 0.3125l-5.15625 0q0.0625 1.140625 0.640625 1.75q0.578125 0.59375 1.4375 0.59375q0.65625 0 1.109375 -0.328125q0.453125 -0.34375 0.71875 -1.078125zm-3.84375 -1.90625l3.859375 0q-0.078125 -0.859375 -0.4375 -1.296875q-0.5625 -0.6875 -1.453125 -0.6875q-0.8125 0 -1.359375 0.546875q-0.546875 0.53125 -0.609375 1.4375zm6.5062256 4.125l0 -6.90625l1.0625 0l0 1.046875q0.40625 -0.734375 0.734375 -0.96875q0.34375 -0.234375 0.765625 -0.234375q0.59375 0 1.203125 0.375l-0.40625 1.078125q-0.4375 -0.25 -0.859375 -0.25q-0.390625 0 -0.703125 0.234375q-0.296875 0.234375 -0.421875 0.640625q-0.203125 0.625 -0.203125 1.359375l0 3.625l-1.171875 0zm12.641357 0l0 -0.875q-0.65625 1.03125 -1.9375 1.03125q-0.8125 0 -1.515625 -0.453125q-0.6875 -0.453125 -1.078125 -1.265625q-0.375 -0.828125 -0.375 -1.890625q0 -1.03125 0.34375 -1.875q0.34375 -0.84375 1.03125 -1.28125q0.703125 -0.453125 1.546875 -0.453125q0.625 0 1.109375 0.265625q0.5 0.25 0.796875 0.671875l0 -3.421875l1.171875 0l0 9.546875l-1.09375 0zm-3.703125 -3.453125q0 1.328125 0.5625 1.984375q0.5625 0.65625 1.328125 0.65625q0.765625 0 1.296875 -0.625q0.53125 -0.625 0.53125 -1.90625q0 -1.421875 -0.546875 -2.078125q-0.546875 -0.671875 -1.34375 -0.671875q-0.78125 0 -1.3125 0.640625q-0.515625 0.625 -0.515625 2.0zm6.6468506 -4.734375l0 -1.359375l1.171875 0l0 1.359375l-1.171875 0zm0 8.1875l0 -6.90625l1.171875 0l0 6.90625l-1.171875 0zm2.476715 -2.0625l1.15625 -0.1875q0.109375 0.703125 0.546875 1.078125q0.453125 0.359375 1.25 0.359375q0.8125 0 1.203125 -0.328125q0.390625 -0.328125 0.390625 -0.765625q0 -0.390625 -0.359375 -0.625q-0.234375 -0.15625 -1.1875 -0.390625q-1.296875 -0.328125 -1.796875 -0.5625q-0.484375 -0.25 -0.75 -0.65625q-0.25 -0.421875 -0.25 -0.9375q0 -0.453125 0.203125 -0.84375q0.21875 -0.40625 0.578125 -0.671875q0.28125 -0.1875 0.75 -0.328125q0.46875 -0.140625 1.015625 -0.140625q0.8125 0 1.421875 0.234375q0.609375 0.234375 0.90625 0.640625q0.296875 0.390625 0.40625 1.0625l-1.140625 0.15625q-0.078125 -0.53125 -0.453125 -0.828125q-0.375 -0.3125 -1.0625 -0.3125q-0.8125 0 -1.15625 0.265625q-0.34375 0.265625 -0.34375 0.625q0 0.234375 0.140625 0.421875q0.15625 0.1875 0.453125 0.3125q0.171875 0.0625 1.03125 0.296875q1.25 0.328125 1.734375 0.546875q0.5 0.203125 0.78125 0.609375q0.28125 0.40625 0.28125 1.0q0 0.59375 -0.34375 1.109375q-0.34375 0.515625 -1.0 0.796875q-0.640625 0.28125 -1.453125 0.28125q-1.34375 0 -2.046875 -0.5625q-0.703125 -0.5625 -0.90625 -1.65625zm7.1328125 4.71875l0 -9.5625l1.078125 0l0 0.890625q0.375 -0.53125 0.84375 -0.78125q0.484375 -0.265625 1.15625 -0.265625q0.875 0 1.546875 0.453125q0.6875 0.453125 1.03125 1.28125q0.34375 0.828125 0.34375 1.828125q0 1.046875 -0.375 1.90625q-0.375 0.84375 -1.109375 1.296875q-0.71875 0.453125 -1.53125 0.453125q-0.578125 0 -1.046875 -0.25q-0.46875 -0.25 -0.765625 -0.625l0 3.375l-1.171875 0zm1.0625 -6.078125q0 1.34375 0.53125 1.984375q0.546875 0.625 1.3125 0.625q0.78125 0 1.34375 -0.65625q0.5625 -0.65625 0.5625 -2.046875q0 -1.3125 -0.546875 -1.96875q-0.546875 -0.671875 -1.296875 -0.671875q-0.75 0 -1.328125 0.703125q-0.578125 0.703125 -0.578125 2.03125zm10.865601 2.5625q-0.65625 0.5625 -1.265625 0.796875q-0.59375 0.21875 -1.28125 0.21875q-1.140625 0 -1.75 -0.546875q-0.609375 -0.5625 -0.609375 -1.4375q0 -0.5 0.21875 -0.921875q0.234375 -0.421875 0.609375 -0.671875q0.375 -0.25 0.84375 -0.390625q0.34375 -0.078125 1.046875 -0.171875q1.421875 -0.171875 2.09375 -0.40625q0 -0.234375 0 -0.296875q0 -0.71875 -0.328125 -1.015625q-0.453125 -0.390625 -1.34375 -0.390625q-0.8125 0 -1.21875 0.296875q-0.390625 0.28125 -0.578125 1.015625l-1.140625 -0.15625q0.15625 -0.734375 0.515625 -1.1875q0.359375 -0.453125 1.03125 -0.6875q0.671875 -0.25 1.5625 -0.25q0.890625 0 1.4375 0.203125q0.5625 0.203125 0.8125 0.53125q0.265625 0.3125 0.375 0.796875q0.046875 0.296875 0.046875 1.078125l0 1.5625q0 1.625 0.078125 2.0625q0.078125 0.4375 0.296875 0.828125l-1.21875 0q-0.1875 -0.359375 -0.234375 -0.859375zm-0.09375 -2.609375q-0.640625 0.265625 -1.921875 0.4375q-0.71875 0.109375 -1.015625 0.25q-0.296875 0.125 -0.46875 0.375q-0.15625 0.25 -0.15625 0.546875q0 0.46875 0.34375 0.78125q0.359375 0.3125 1.046875 0.3125q0.671875 0 1.203125 -0.296875q0.53125 -0.296875 0.78125 -0.8125q0.1875 -0.390625 0.1875 -1.171875l0 -0.421875zm5.5531006 2.421875l0.171875 1.03125q-0.5 0.109375 -0.890625 0.109375q-0.640625 0 -1.0 -0.203125q-0.34375 -0.203125 -0.484375 -0.53125q-0.140625 -0.328125 -0.140625 -1.390625l0 -3.96875l-0.859375 0l0 -0.90625l0.859375 0l0 -1.71875l1.171875 -0.703125l0 2.421875l1.171875 0l0 0.90625l-1.171875 0l0 4.046875q0 0.5 0.046875 0.640625q0.0625 0.140625 0.203125 0.234375q0.140625 0.078125 0.40625 0.078125q0.203125 0 0.515625 -0.046875zm5.656128 -1.484375l1.15625 0.15625q-0.1875 1.1875 -0.96875 1.859375q-0.78125 0.671875 -1.921875 0.671875q-1.40625 0 -2.28125 -0.921875q-0.859375 -0.9375 -0.859375 -2.65625q0 -1.125 0.375 -1.96875q0.375 -0.84375 1.125 -1.25q0.765625 -0.421875 1.65625 -0.421875q1.125 0 1.84375 0.578125q0.71875 0.5625 0.921875 1.609375l-1.140625 0.171875q-0.171875 -0.703125 -0.59375 -1.046875q-0.40625 -0.359375 -0.984375 -0.359375q-0.890625 0 -1.453125 0.640625q-0.546875 0.640625 -0.546875 2.0q0 1.40625 0.53125 2.03125q0.546875 0.625 1.40625 0.625q0.6875 0 1.140625 -0.421875q0.46875 -0.421875 0.59375 -1.296875zm2.1484375 2.53125l0 -9.546875l1.171875 0l0 3.421875q0.828125 -0.9375 2.078125 -0.9375q0.765625 0 1.328125 0.296875q0.5625 0.296875 0.8125 0.84375q0.25 0.53125 0.25 1.546875l0 4.375l-1.171875 0l0 -4.375q0 -0.890625 -0.390625 -1.28125q-0.375 -0.40625 -1.078125 -0.40625q-0.515625 0 -0.984375 0.28125q-0.453125 0.265625 -0.65625 0.734375q-0.1875 0.453125 -0.1875 1.265625l0 3.78125l-1.171875 0z" fill-rule="nonzero"/><path fill="#010000" fill-opacity="0.0" d="m450.2342 267.75803l0 0l0 15.32605l0 0l0 -15.32605z" fill-rule="nonzero"/><path fill="#000000" fill-opacity="0.0" d="m260.5643 275.28085l0 80.188965l-16.15747 0l0 -80.188965z" fill-rule="evenodd"/><path fill="#ffffff" d="m260.5643 280.55817l0 69.63434l-16.0 0l0 -69.63434l16.0 0z" fill-rule="nonzero"/><path fill="#000000" fill-opacity="0.0" d="m259.8299 280.55817l0 69.63434l-15.326035 0l0 -69.63434l15.326035 0z" fill-rule="nonzero"/><path fill="#000000" d="m247.76431 281.80817l9.546875 0l0 1.25l-9.546875 0l0 -1.25zm-0.15625 2.453003l9.859375 2.765625l0 0.9375l-9.859375 -2.765625l0 -0.9375zm4.796875 4.3435974q2.375 0 3.71875 1.28125q1.34375 1.28125 1.34375 3.296875q0 1.3125 -0.625 2.375q-0.625 1.0625 -1.765625 1.609375q-1.125 0.5625 -2.5625 0.5625q-1.4375 0 -2.59375 -0.59375q-1.140625 -0.578125 -1.734375 -1.65625q-0.578125 -1.0625 -0.578125 -2.3125q0 -1.34375 0.640625 -2.40625q0.65625 -1.0625 1.78125 -1.609375q1.125 -0.546875 2.375 -0.546875zm-0.015625 1.3125q-1.71875 0 -2.71875 0.921875q-0.984375 0.921875 -0.984375 2.328125q0 1.421875 1.0 2.34375q1.0 0.921875 2.84375 0.921875q1.15625 0 2.03125 -0.40625q0.875 -0.390625 1.34375 -1.15625q0.484375 -0.75 0.484375 -1.6875q0 -1.34375 -0.921875 -2.3125q-0.921875 -0.953125 -3.078125 -0.953125zm-1.171875 12.554413q1.921875 0 2.84375 1.078125q0.765625 0.890625 0.765625 2.171875q0 1.421875 -0.9375 2.328125q-0.921875 0.90625 -2.578125 0.90625q-1.328125 0 -2.09375 -0.40625q-0.765625 -0.390625 -1.1875 -1.15625q-0.421875 -0.765625 -0.421875 -1.671875q0 -1.453125 0.921875 -2.359375q0.9375 -0.890625 2.6875 -0.890625zm0 1.203125q-1.328125 0 -1.984375 0.578125q-0.65625 0.59375 -0.65625 1.46875q0 0.875 0.65625 1.453125q0.671875 0.578125 2.03125 0.578125q1.28125 0 1.9375 -0.59375q0.65625 -0.578125 0.65625 -1.4375q0 -0.875 -0.65625 -1.46875q-0.65625 -0.578125 -1.984375 -0.578125zm-3.453125 6.6312256l6.90625 0l0 1.0625l-1.046875 0q0.734375 0.40625 0.96875 0.734375q0.234375 0.34375 0.234375 0.765625q0 0.59375 -0.375 1.203125l-1.078125 -0.40625q0.25 -0.4375 0.25 -0.859375q0 -0.390625 -0.234375 -0.703125q-0.234375 -0.296875 -0.640625 -0.421875q-0.625 -0.203125 -1.359375 -0.203125l-3.625 0l0 -1.171875zm2.21875 12.891357l-0.140625 1.203125q-1.0625 -0.28125 -1.65625 -1.0625q-0.578125 -0.765625 -0.578125 -1.96875q0 -1.515625 0.9375 -2.40625q0.9375 -0.890625 2.609375 -0.890625q1.75 0 2.703125 0.890625q0.96875 0.90625 0.96875 2.34375q0 1.390625 -0.9375 2.265625q-0.9375 0.875 -2.65625 0.875q-0.109375 0 -0.3125 0l0 -5.15625q-1.140625 0.0625 -1.75 0.640625q-0.59375 0.578125 -0.59375 1.4375q0 0.65625 0.328125 1.109375q0.34375 0.453125 1.078125 0.71875zm1.90625 -3.84375l0 3.859375q0.859375 -0.078125 1.296875 -0.4375q0.6875 -0.5625 0.6875 -1.453125q0 -0.8125 -0.546875 -1.359375q-0.53125 -0.546875 -1.4375 -0.609375zm-4.125 8.443726l6.90625 -2.625l0 1.234375l-4.140625 1.484375q-0.65625 0.234375 -1.390625 0.4375q0.546875 0.15625 1.3125 0.4375l4.21875 1.53125l0 1.21875l-6.90625 -2.625l0 -1.09375zm2.21875 9.4765625l-0.140625 1.203125q-1.0625 -0.28125 -1.65625 -1.0625q-0.578125 -0.765625 -0.578125 -1.96875q0 -1.515625 0.9375 -2.40625q0.9375 -0.890625 2.609375 -0.890625q1.75 0 2.703125 0.890625q0.96875 0.90625 0.96875 2.34375q0 1.390625 -0.9375 2.265625q-0.9375 0.875 -2.65625 0.875q-0.109375 0 -0.3125 0l0 -5.15625q-1.140625 0.0625 -1.75 0.640625q-0.59375 0.578125 -0.59375 1.4375q0 0.65625 0.328125 1.109375q0.34375 0.453125 1.078125 0.71875zm1.90625 -3.84375l0 3.859375q0.859375 -0.078125 1.296875 -0.4375q0.6875 -0.5625 0.6875 -1.453125q0 -0.8125 -0.546875 -1.359375q-0.53125 -0.546875 -1.4375 -0.609375zm-4.125 6.5218506l6.90625 0l0 1.0625l-0.984375 0q1.140625 0.75 1.140625 2.1875q0 0.625 -0.21875 1.15625q-0.21875 0.53125 -0.59375 0.78125q-0.359375 0.265625 -0.859375 0.375q-0.328125 0.0625 -1.140625 0.0625l-4.25 0l0 -1.171875l4.203125 0q0.71875 0 1.0625 -0.140625q0.359375 -0.140625 0.5625 -0.484375q0.21875 -0.34375 0.21875 -0.8125q0 -0.75 -0.46875 -1.296875q-0.46875 -0.546875 -1.796875 -0.546875l-3.78125 0l0 -1.171875zm1.046875 9.974976l-1.03125 0.171875q-0.109375 -0.5 -0.109375 -0.890625q0 -0.640625 0.203125 -1.0q0.203125 -0.34375 0.53125 -0.484375q0.328125 -0.140625 1.390625 -0.140625l3.96875 0l0 -0.859375l0.90625 0l0 0.859375l1.71875 0l0.703125 1.171875l-2.421875 0l0 1.171875l-0.90625 0l0 -1.171875l-4.046875 0q-0.5 0 -0.640625 0.046875q-0.140625 0.0625 -0.234375 0.203125q-0.078125 0.140625 -0.078125 0.40625q0 0.203125 0.046875 0.515625z" fill-rule="nonzero"/><path fill="#000000" fill-opacity="0.0" d="m259.8299 350.1925l0 3.7029724l-15.326035 0l0 -3.7029724l15.326035 0z" fill-rule="nonzero"/><path fill="#010000" fill-opacity="0.0" d="m259.8299 353.89548l0 0l-15.326035 0l0 0l15.326035 0z" fill-rule="nonzero"/><path fill="#000000" fill-opacity="0.0" d="m256.55118 351.92126l66.58267 0l0 16.15747l-66.58267 0z" fill-rule="evenodd"/><path fill="#ffffff" d="m257.6155 351.92126l64.45404 0l0 16.0l-64.45404 0l0 -16.0z" fill-rule="nonzero"/><path fill="#000000" fill-opacity="0.0" d="m257.6155 352.65567l64.45404 0l0 15.326019l-64.45404 0l0 -15.326019z" fill-rule="nonzero"/><path fill="#000000" d="m263.00613 362.19l1.15625 0.15625q-0.1875 1.1875 -0.96875 1.859375q-0.78125 0.671875 -1.921875 0.671875q-1.40625 0 -2.28125 -0.921875q-0.859375 -0.9375 -0.859375 -2.65625q0 -1.125 0.375 -1.96875q0.375 -0.84375 1.125 -1.25q0.765625 -0.421875 1.65625 -0.421875q1.125 0 1.84375 0.578125q0.71875 0.5625 0.921875 1.609375l-1.140625 0.171875q-0.171875 -0.703125 -0.59375 -1.046875q-0.40625 -0.359375 -0.984375 -0.359375q-0.890625 0 -1.453125 0.640625q-0.546875 0.640625 -0.546875 2.0q0 1.40625 0.53125 2.03125q0.546875 0.625 1.40625 0.625q0.6875 0 1.140625 -0.421875q0.46875 -0.421875 0.59375 -1.296875zm1.7109375 -0.921875q0 -1.921875 1.078125 -2.84375q0.890625 -0.765625 2.171875 -0.765625q1.421875 0 2.328125 0.9375q0.90625 0.921875 0.90625 2.578125q0 1.328125 -0.40625 2.09375q-0.390625 0.765625 -1.15625 1.1875q-0.765625 0.421875 -1.671875 0.421875q-1.453125 0 -2.359375 -0.921875q-0.890625 -0.9375 -0.890625 -2.6875zm1.203125 0q0 1.328125 0.578125 1.984375q0.59375 0.65625 1.46875 0.65625q0.875 0 1.453125 -0.65625q0.578125 -0.671875 0.578125 -2.03125q0 -1.28125 -0.59375 -1.9375q-0.578125 -0.65625 -1.4375 -0.65625q-0.875 0 -1.46875 0.65625q-0.578125 0.65625 -0.578125 1.984375zm6.6468506 3.453125l0 -6.90625l1.046875 0l0 0.96875q0.328125 -0.515625 0.859375 -0.8125q0.546875 -0.3125 1.234375 -0.3125q0.78125 0 1.265625 0.3125q0.484375 0.3125 0.6875 0.890625q0.828125 -1.203125 2.140625 -1.203125q1.03125 0 1.578125 0.578125q0.5625 0.5625 0.5625 1.734375l0 4.75l-1.171875 0l0 -4.359375q0 -0.703125 -0.125 -1.0q-0.109375 -0.3125 -0.40625 -0.5q-0.296875 -0.1875 -0.703125 -0.1875q-0.71875 0 -1.203125 0.484375q-0.484375 0.484375 -0.484375 1.546875l0 4.015625l-1.171875 0l0 -4.484375q0 -0.78125 -0.296875 -1.171875q-0.28125 -0.390625 -0.921875 -0.390625q-0.5 0 -0.921875 0.265625q-0.421875 0.25 -0.609375 0.75q-0.1875 0.5 -0.1875 1.453125l0 3.578125l-1.171875 0zm11.102417 2.65625l0 -9.5625l1.078125 0l0 0.890625q0.375 -0.53125 0.84375 -0.78125q0.484375 -0.265625 1.15625 -0.265625q0.875 0 1.546875 0.453125q0.6875 0.453125 1.03125 1.28125q0.34375 0.828125 0.34375 1.828125q0 1.046875 -0.375 1.90625q-0.375 0.84375 -1.109375 1.296875q-0.71875 0.453125 -1.53125 0.453125q-0.578125 0 -1.046875 -0.25q-0.46875 -0.25 -0.765625 -0.625l0 3.375l-1.171875 0zm1.0625 -6.078125q0 1.34375 0.53125 1.984375q0.546875 0.625 1.3125 0.625q0.78125 0 1.34375 -0.65625q0.5625 -0.65625 0.5625 -2.046875q0 -1.3125 -0.546875 -1.96875q-0.546875 -0.671875 -1.296875 -0.671875q-0.75 0 -1.328125 0.703125q-0.578125 0.703125 -0.578125 2.03125zm6.3343506 3.421875l0 -9.546875l1.171875 0l0 9.546875l-1.171875 0zm7.71109 -2.21875l1.203125 0.140625q-0.28125 1.0625 -1.0625 1.65625q-0.765625 0.578125 -1.96875 0.578125q-1.515625 0 -2.40625 -0.9375q-0.890625 -0.9375 -0.890625 -2.609375q0 -1.75 0.890625 -2.703125q0.90625 -0.96875 2.34375 -0.96875q1.390625 0 2.265625 0.9375q0.875 0.9375 0.875 2.65625q0 0.109375 0 0.3125l-5.15625 0q0.0625 1.140625 0.640625 1.75q0.578125 0.59375 1.4375 0.59375q0.65625 0 1.109375 -0.328125q0.453125 -0.34375 0.71875 -1.078125zm-3.84375 -1.90625l3.859375 0q-0.078125 -0.859375 -0.4375 -1.296875q-0.5625 -0.6875 -1.453125 -0.6875q-0.8125 0 -1.359375 0.546875q-0.546875 0.53125 -0.609375 1.4375zm9.084351 3.078125l0.171875 1.03125q-0.5 0.109375 -0.890625 0.109375q-0.640625 0 -1.0 -0.203125q-0.34375 -0.203125 -0.484375 -0.53125q-0.140625 -0.328125 -0.140625 -1.390625l0 -3.96875l-0.859375 0l0 -0.90625l0.859375 0l0 -1.71875l1.171875 -0.703125l0 2.421875l1.171875 0l0 0.90625l-1.171875 0l0 4.046875q0 0.5 0.046875 0.640625q0.0625 0.140625 0.203125 0.234375q0.140625 0.078125 0.40625 0.078125q0.203125 0 0.515625 -0.046875zm1.1561279 -7.140625l0 -1.359375l1.171875 0l0 1.359375l-1.171875 0zm0 8.1875l0 -6.90625l1.171875 0l0 6.90625l-1.171875 0zm2.507965 -3.453125q0 -1.921875 1.078125 -2.84375q0.890625 -0.765625 2.171875 -0.765625q1.421875 0 2.328125 0.9375q0.90625 0.921875 0.90625 2.578125q0 1.328125 -0.40625 2.09375q-0.390625 0.765625 -1.15625 1.1875q-0.765625 0.421875 -1.671875 0.421875q-1.453125 0 -2.359375 -0.921875q-0.890625 -0.9375 -0.890625 -2.6875zm1.203125 0q0 1.328125 0.578125 1.984375q0.59375 0.65625 1.46875 0.65625q0.875 0 1.453125 -0.65625q0.578125 -0.671875 0.578125 -2.03125q0 -1.28125 -0.59375 -1.9375q-0.578125 -0.65625 -1.4375 -0.65625q-0.875 0 -1.46875 0.65625q-0.578125 0.65625 -0.578125 1.984375zm6.6468506 3.453125l0 -6.90625l1.0625 0l0 0.984375q0.75 -1.140625 2.1875 -1.140625q0.625 0 1.15625 0.21875q0.53125 0.21875 0.78125 0.59375q0.265625 0.359375 0.375 0.859375q0.0625 0.328125 0.0625 1.140625l0 4.25l-1.171875 0l0 -4.203125q0 -0.71875 -0.140625 -1.0625q-0.140625 -0.359375 -0.484375 -0.5625q-0.34375 -0.21875 -0.8125 -0.21875q-0.75 0 -1.296875 0.46875q-0.546875 0.46875 -0.546875 1.796875l0 3.78125l-1.171875 0z" fill-rule="nonzero"/><path fill="#010000" fill-opacity="0.0" d="m322.06955 352.65567l0 0l0 15.326019l0 0l0 -15.326019z" fill-rule="nonzero"/><path fill="#000000" fill-opacity="0.0" d="m525.6562 355.46982l0 -102.20473l16.15747 0l0 102.20473z" fill-rule="evenodd"/><path fill="#ffffff" d="m525.6562 354.73846l0 -100.74202l16.0 0l0 100.74202l-16.0 0z" fill-rule="nonzero"/><path fill="#000000" fill-opacity="0.0" d="m526.39056 354.73846l0 -100.74202l15.32605 0l0 100.74202l-15.32605 0z" fill-rule="nonzero"/><path fill="#000000" d="m538.4562 353.48846l-9.546875 0l0 -1.25l9.546875 0l0 1.25zm0.15625 -2.453003l-9.859375 -2.765625l0 -0.9375l9.859375 2.765625l0 0.9375zm-4.796875 -4.3435974q-2.375 0 -3.71875 -1.28125q-1.34375 -1.28125 -1.34375 -3.296875q0 -1.3125 0.625 -2.375q0.625 -1.0625 1.765625 -1.609375q1.125 -0.5625 2.5625 -0.5625q1.4375 0 2.59375 0.59375q1.140625 0.578125 1.734375 1.65625q0.578125 1.0625 0.578125 2.3125q0 1.34375 -0.640625 2.40625q-0.65625 1.0625 -1.78125 1.609375q-1.125 0.546875 -2.375 0.546875zm0.015625 -1.3125q1.71875 0 2.71875 -0.921875q0.984375 -0.921875 0.984375 -2.328125q0 -1.421875 -1.0 -2.34375q-1.0 -0.921875 -2.84375 -0.921875q-1.15625 0 -2.03125 0.40625q-0.875 0.390625 -1.34375 1.15625q-0.484375 0.75 -0.484375 1.6875q0 1.34375 0.921875 2.3125q0.921875 0.953125 3.078125 0.953125zm1.171875 -12.554413q-1.921875 0 -2.84375 -1.078125q-0.765625 -0.890625 -0.765625 -2.171875q0 -1.421875 0.9375 -2.328125q0.921875 -0.90625 2.578125 -0.90625q1.328125 0 2.09375 0.40625q0.765625 0.390625 1.1875 1.15625q0.421875 0.765625 0.421875 1.671875q0 1.453125 -0.921875 2.359375q-0.9375 0.890625 -2.6875 0.890625zm0 -1.203125q1.328125 0 1.984375 -0.578125q0.65625 -0.59375 0.65625 -1.46875q0 -0.875 -0.65625 -1.453125q-0.671875 -0.578125 -2.03125 -0.578125q-1.28125 0 -1.9375 0.59375q-0.65625 0.578125 -0.65625 1.4375q0 0.875 0.65625 1.46875q0.65625 0.578125 1.984375 0.578125zm3.453125 -6.6312256l-6.90625 0l0 -1.0625l1.046875 0q-0.734375 -0.40625 -0.96875 -0.734375q-0.234375 -0.34375 -0.234375 -0.765625q0 -0.59375 0.375 -1.203125l1.078125 0.40625q-0.25 0.4375 -0.25 0.859375q0 0.390625 0.234375 0.703125q0.234375 0.296875 0.640625 0.421875q0.625 0.203125 1.359375 0.203125l3.625 0l0 1.171875zm-2.21875 -12.891357l0.140625 -1.203125q1.0625 0.28125 1.65625 1.0625q0.578125 0.765625 0.578125 1.96875q0 1.515625 -0.9375 2.40625q-0.9375 0.890625 -2.609375 0.890625q-1.75 0 -2.703125 -0.890625q-0.96875 -0.90625 -0.96875 -2.34375q0 -1.390625 0.9375 -2.265625q0.9375 -0.875 2.65625 -0.875q0.109375 0 0.3125 0l0 5.15625q1.140625 -0.0625 1.75 -0.640625q0.59375 -0.578125 0.59375 -1.4375q0 -0.65625 -0.328125 -1.109375q-0.34375 -0.453125 -1.078125 -0.71875zm-1.90625 3.84375l0 -3.859375q-0.859375 0.078125 -1.296875 0.4375q-0.6875 0.5625 -0.6875 1.453125q0 0.8125 0.546875 1.359375q0.53125 0.546875 1.4375 0.609375zm4.125 -8.443726l-6.90625 2.625l0 -1.234375l4.140625 -1.484375q0.65625 -0.234375 1.390625 -0.4375q-0.546875 -0.15625 -1.3125 -0.4375l-4.21875 -1.53125l0 -1.21875l6.90625 2.625l0 1.09375zm-2.21875 -9.4765625l0.140625 -1.203125q1.0625 0.28125 1.65625 1.0625q0.578125 0.765625 0.578125 1.96875q0 1.515625 -0.9375 2.40625q-0.9375 0.890625 -2.609375 0.890625q-1.75 0 -2.703125 -0.890625q-0.96875 -0.90625 -0.96875 -2.34375q0 -1.390625 0.9375 -2.265625q0.9375 -0.875 2.65625 -0.875q0.109375 0 0.3125 0l0 5.15625q1.140625 -0.0625 1.75 -0.640625q0.59375 -0.578125 0.59375 -1.4375q0 -0.65625 -0.328125 -1.109375q-0.34375 -0.453125 -1.078125 -0.71875zm-1.90625 3.84375l0 -3.859375q-0.859375 0.078125 -1.296875 0.4375q-0.6875 0.5625 -0.6875 1.453125q0 0.8125 0.546875 1.359375q0.53125 0.546875 1.4375 0.609375zm4.125 -6.5218506l-6.90625 0l0 -1.0625l0.984375 0q-1.140625 -0.75 -1.140625 -2.1875q0 -0.625 0.21875 -1.15625q0.21875 -0.53125 0.59375 -0.78125q0.359375 -0.265625 0.859375 -0.375q0.328125 -0.0625 1.140625 -0.0625l4.25 0l0 1.171875l-4.203125 0q-0.71875 0 -1.0625 0.140625q-0.359375 0.140625 -0.5625 0.484375q-0.21875 0.34375 -0.21875 0.8125q0 0.75 0.46875 1.296875q0.46875 0.546875 1.796875 0.546875l3.78125 0l0 1.171875zm-1.046875 -9.974976l1.03125 -0.171875q0.109375 0.5 0.109375 0.890625q0 0.640625 -0.203125 1.0q-0.203125 0.34375 -0.53125 0.484375q-0.328125 0.140625 -1.390625 0.140625l-3.96875 0l0 0.859375l-0.90625 0l0 -0.859375l-1.71875 0l-0.703125 -1.171875l2.421875 0l0 -1.171875l0.90625 0l0 1.171875l4.046875 0q0.5 0 0.640625 -0.046875q0.140625 -0.0625 0.234375 -0.203125q0.078125 -0.140625 0.078125 -0.40625q0 -0.203125 -0.046875 -0.515625zm1.046875 -9.827728l-6.90625 2.125l0 -1.21875l3.984375 -1.09375l1.484375 -0.421875q-0.109375 -0.015625 -1.421875 -0.359375l-4.046875 -1.09375l0 -1.203125l4.0 -1.03125l1.328125 -0.34375l-1.34375 -0.40625l-3.984375 -1.171875l0 -1.140625l6.90625 2.15625l0 1.21875l-4.140625 1.09375l-1.171875 0.265625l5.3125 1.40625l0 1.21875zm-0.859375 -12.859528q0.5625 0.65625 0.796875 1.265625q0.21875 0.59375 0.21875 1.28125q0 1.140625 -0.546875 1.75q-0.5625 0.609375 -1.4375 0.609375q-0.5 0 -0.921875 -0.21875q-0.421875 -0.234375 -0.671875 -0.609375q-0.25 -0.375 -0.390625 -0.84375q-0.078125 -0.34375 -0.171875 -1.046875q-0.171875 -1.421875 -0.40625 -2.09375q-0.234375 0 -0.296875 0q-0.71875 0 -1.015625 0.328125q-0.390625 0.453125 -0.390625 1.34375q0 0.8125 0.296875 1.21875q0.28125 0.390625 1.015625 0.578125l-0.15625 1.140625q-0.734375 -0.15625 -1.1875 -0.515625q-0.453125 -0.359375 -0.6875 -1.03125q-0.25 -0.671875 -0.25 -1.5625q0 -0.890625 0.203125 -1.4375q0.203125 -0.5625 0.53125 -0.8125q0.3125 -0.265625 0.796875 -0.375q0.296875 -0.046875 1.078125 -0.046875l1.5625 0q1.625 0 2.0625 -0.078125q0.4375 -0.078125 0.828125 -0.296875l0 1.21875q-0.359375 0.1875 -0.859375 0.234375zm-2.609375 0.09375q0.265625 0.640625 0.4375 1.921875q0.109375 0.71875 0.25 1.015625q0.125 0.296875 0.375 0.46875q0.25 0.15625 0.546875 0.15625q0.46875 0 0.78125 -0.34375q0.3125 -0.359375 0.3125 -1.046875q0 -0.671875 -0.296875 -1.203125q-0.296875 -0.53125 -0.8125 -0.78125q-0.390625 -0.1875 -1.171875 -0.1875l-0.421875 0zm-4.71875 -3.0062256l-1.359375 0l0 -1.171875l1.359375 0l0 1.171875zm8.1875 0l-6.90625 0l0 -1.171875l6.90625 0l0 1.171875zm-1.046875 -5.507965l1.03125 -0.171875q0.109375 0.5 0.109375 0.890625q0 0.640625 -0.203125 1.0q-0.203125 0.34375 -0.53125 0.484375q-0.328125 0.140625 -1.390625 0.140625l-3.96875 0l0 0.859375l-0.90625 0l0 -0.859375l-1.71875 0l-0.703125 -1.171875l2.421875 0l0 -1.171875l0.90625 0l0 1.171875l4.046875 0q0.5 0 0.640625 -0.046875q0.140625 -0.0625 0.234375 -0.203125q0.078125 -0.140625 0.078125 -0.40625q0 -0.203125 -0.046875 -0.515625z" fill-rule="nonzero"/><path fill="#000000" fill-opacity="0.0" d="m526.39056 253.99644l0 0l15.32605 0l0 0l-15.32605 0z" fill-rule="nonzero"/></g></svg>