<svg version="1.1" viewBox="0.0 0.0 961.7034120734908 352.31758530183725" fill="none" stroke="none" stroke-linecap="square" stroke-miterlimit="10" xmlns:xlink="http://www.w3.org/1999/xlink" xmlns="http://www.w3.org/2000/svg"><clipPath id="p.0"><path d="m0 0l961.7034 0l0 352.3176l-961.7034 0l0 -352.3176z" clip-rule="nonzero"/></clipPath><g clip-path="url(#p.0)"><path fill="#000000" fill-opacity="0.0" d="m0 0l961.7034 0l0 352.3176l-961.7034 0z" fill-rule="evenodd"/><path fill="#000000" fill-opacity="0.0" d="m105.16273 233.48557l56.69291 0l0 56.6929l-56.69291 0z" fill-rule="evenodd"/><path stroke="#000000" stroke-width="1.0" stroke-linejoin="round" stroke-linecap="butt" d="m105.16273 233.48557l56.69291 0l0 56.6929l-56.69291 0z" fill-rule="evenodd"/><path fill="#000000" d="m128.24147 268.752l0 -13.359375l5.921875 0q1.78125 0 2.703125 0.359375q0.9375 0.359375 1.484375 1.28125q0.5625 0.90625 0.5625 2.015625q0 1.40625 -0.921875 2.390625q-0.921875 0.96875 -2.84375 1.234375q0.703125 0.34375 1.078125 0.671875q0.765625 0.703125 1.453125 1.765625l2.328125 3.640625l-2.21875 0l-1.765625 -2.78125q-0.78125 -1.203125 -1.28125 -1.828125q-0.5 -0.640625 -0.90625 -0.890625q-0.390625 -0.265625 -0.796875 -0.359375q-0.296875 -0.078125 -0.984375 -0.078125l-2.046875 0l0 5.9375l-1.765625 0zm1.765625 -7.453125l3.796875 0q1.21875 0 1.890625 -0.25q0.6875 -0.265625 1.046875 -0.8125q0.359375 -0.546875 0.359375 -1.1875q0 -0.953125 -0.6875 -1.5625q-0.6875 -0.609375 -2.1875 -0.609375l-4.21875 0l0 4.421875z" fill-rule="nonzero"/><path fill="#000000" fill-opacity="0.0" d="m452.50525 42.62992l56.6929 0l0 56.692917l-56.6929 0z" fill-rule="evenodd"/><path stroke="#000000" stroke-width="1.0" stroke-linejoin="round" stroke-linecap="butt" d="m452.50525 42.62992l56.6929 0l0 56.692917l-56.6929 0z" fill-rule="evenodd"/><path fill="#000000" d="m475.47366 73.5995l1.65625 -0.140625q0.125 1.0 0.546875 1.640625q0.4375 0.640625 1.34375 1.046875q0.921875 0.390625 2.0625 0.390625q1.0 0 1.78125 -0.296875q0.78125 -0.296875 1.15625 -0.8125q0.375 -0.53125 0.375 -1.15625q0 -0.625 -0.375 -1.09375q-0.359375 -0.46875 -1.1875 -0.796875q-0.546875 -0.203125 -2.390625 -0.640625q-1.828125 -0.453125 -2.5625 -0.84375q-0.96875 -0.5 -1.4375 -1.234375q-0.46875 -0.75 -0.46875 -1.671875q0 -1.0 0.578125 -1.875q0.578125 -0.890625 1.671875 -1.34375q1.109375 -0.453125 2.453125 -0.453125q1.484375 0 2.609375 0.484375q1.140625 0.46875 1.75 1.40625q0.609375 0.921875 0.65625 2.09375l-1.6875 0.125q-0.140625 -1.265625 -0.9375 -1.90625q-0.78125 -0.65625 -2.3125 -0.65625q-1.609375 0 -2.34375 0.59375q-0.734375 0.59375 -0.734375 1.421875q0 0.71875 0.53125 1.171875q0.5 0.46875 2.65625 0.96875q2.15625 0.484375 2.953125 0.84375q1.171875 0.53125 1.71875 1.359375q0.5625 0.828125 0.5625 1.90625q0 1.0625 -0.609375 2.015625q-0.609375 0.9375 -1.75 1.46875q-1.140625 0.515625 -2.578125 0.515625q-1.8125 0 -3.046875 -0.53125q-1.21875 -0.53125 -1.921875 -1.59375q-0.6875 -1.0625 -0.71875 -2.40625z" fill-rule="nonzero"/><path fill="#000000" fill-opacity="0.0" d="m105.16273 70.97638l0 0c0 -15.655315 12.691147 -28.346458 28.346458 -28.346458l0 0c7.5179443 0 14.727982 2.9864922 20.043976 8.302486c5.3159943 5.3159904 8.302475 12.526024 8.302475 20.043972l0 0c0 15.655312 -12.691132 28.346458 -28.34645 28.346458l0 0c-15.655312 0 -28.346458 -12.691147 -28.346458 -28.346458z" fill-rule="evenodd"/><path stroke="#000000" stroke-width="1.0" stroke-linejoin="round" stroke-linecap="butt" d="m105.16273 70.97638l0 0c0 -15.655315 12.691147 -28.346458 28.346458 -28.346458l0 0c7.5179443 0 14.727982 2.9864922 20.043976 8.302486c5.3159943 5.3159904 8.302475 12.526024 8.302475 20.043972l0 0c0 15.655312 -12.691132 28.346458 -28.34645 28.346458l0 0c-15.655312 0 -28.346458 -12.691147 -28.346458 -28.346458z" fill-rule="evenodd"/><path fill="#000000" d="m127.25615 77.89638l5.125 -13.359375l1.90625 0l5.46875 13.359375l-2.015625 0l-1.546875 -4.046875l-5.59375 0l-1.46875 4.046875l-1.875 0zm3.859375 -5.484375l4.53125 0l-1.40625 -3.703125q-0.625 -1.6875 -0.9375 -2.765625q-0.265625 1.28125 -0.71875 2.546875l-1.46875 3.921875z" fill-rule="nonzero"/><path fill="#000000" fill-opacity="0.0" d="m452.50656 261.83203l0 0c0 -15.655319 12.691132 -28.346466 28.346466 -28.346466l0 0c7.5179443 0 14.727966 2.986496 20.043976 8.30249c5.315979 5.315979 8.30246 12.526016 8.30246 20.043976l0 0c0 15.655304 -12.691132 28.346436 -28.346436 28.346436l0 0c-15.655334 0 -28.346466 -12.691132 -28.346466 -28.346436z" fill-rule="evenodd"/><path stroke="#000000" stroke-width="1.0" stroke-linejoin="round" stroke-linecap="butt" d="m452.50656 261.83203l0 0c0 -15.655319 12.691132 -28.346466 28.346466 -28.346466l0 0c7.5179443 0 14.727966 2.986496 20.043976 8.30249c5.315979 5.315979 8.30246 12.526016 8.30246 20.043976l0 0c0 15.655304 -12.691132 28.346436 -28.346436 28.346436l0 0c-15.655334 0 -28.346466 -12.691132 -28.346466 -28.346436z" fill-rule="evenodd"/><path fill="#000000" d="m475.9906 268.752l0 -13.359375l5.015625 0q1.53125 0 2.453125 0.40625q0.921875 0.40625 1.4375 1.25q0.53125 0.84375 0.53125 1.765625q0 0.859375 -0.46875 1.625q-0.453125 0.75 -1.390625 1.203125q1.203125 0.359375 1.859375 1.21875q0.65625 0.859375 0.65625 2.015625q0 0.9375 -0.40625 1.75q-0.390625 0.796875 -0.984375 1.234375q-0.578125 0.4375 -1.453125 0.671875q-0.875 0.21875 -2.15625 0.21875l-5.09375 0zm1.78125 -7.75l2.875 0q1.1875 0 1.6875 -0.140625q0.671875 -0.203125 1.015625 -0.671875q0.34375 -0.46875 0.34375 -1.171875q0 -0.65625 -0.328125 -1.15625q-0.3125 -0.515625 -0.90625 -0.703125q-0.59375 -0.1875 -2.03125 -0.1875l-2.65625 0l0 4.03125zm0 6.171875l3.3125 0q0.859375 0 1.203125 -0.0625q0.609375 -0.109375 1.015625 -0.359375q0.421875 -0.265625 0.6875 -0.75q0.265625 -0.484375 0.265625 -1.125q0 -0.75 -0.390625 -1.296875q-0.375 -0.546875 -1.0625 -0.765625q-0.671875 -0.234375 -1.953125 -0.234375l-3.078125 0l0 4.59375z" fill-rule="nonzero"/><path fill="#000000" fill-opacity="0.0" d="m644.8412 147.81233l56.692932 0l0 56.692917l-56.692932 0z" fill-rule="evenodd"/><path stroke="#000000" stroke-width="1.0" stroke-linejoin="round" stroke-linecap="butt" d="m644.8412 147.81233l56.692932 0l0 56.692917l-56.692932 0z" fill-rule="evenodd"/><path fill="#000000" d="m672.33344 183.0788l0 -11.78125l-4.40625 0l0 -1.578125l10.578125 0l0 1.578125l-4.40625 0l0 11.78125l-1.765625 0z" fill-rule="nonzero"/><path fill="#000000" fill-opacity="0.0" d="m857.8622 147.81102l56.692932 0l0 56.692917l-56.692932 0z" fill-rule="evenodd"/><path stroke="#000000" stroke-width="1.0" stroke-linejoin="round" stroke-linecap="butt" d="m857.8622 147.81102l56.692932 0l0 56.692917l-56.692932 0z" fill-rule="evenodd"/><path fill="#000000" d="m889.6753 169.71811l1.765625 0l0 7.71875q0 2.015625 -0.453125 3.203125q-0.453125 1.1875 -1.640625 1.9375q-1.1875 0.734375 -3.125 0.734375q-1.875 0 -3.078125 -0.640625q-1.1875 -0.65625 -1.703125 -1.875q-0.5 -1.234375 -0.5 -3.359375l0 -7.71875l1.765625 0l0 7.71875q0 1.734375 0.3125 2.5625q0.328125 0.8125 1.109375 1.265625q0.796875 0.453125 1.9375 0.453125q1.953125 0 2.78125 -0.890625q0.828125 -0.890625 0.828125 -3.390625l0 -7.71875z" fill-rule="nonzero"/><path fill="#000000" fill-opacity="0.0" d="m751.9974 261.83203l0 0c0 -15.655319 12.691162 -28.346466 28.346436 -28.346466l0 0c7.5179443 0 14.728027 2.986496 20.044006 8.30249c5.315979 5.315979 8.30249 12.526016 8.30249 20.043976l0 0c0 15.655304 -12.691162 28.346436 -28.346497 28.346436l0 0c-15.655273 0 -28.346436 -12.691132 -28.346436 -28.346436z" fill-rule="evenodd"/><path stroke="#000000" stroke-width="1.0" stroke-linejoin="round" stroke-linecap="butt" d="m751.9974 261.83203l0 0c0 -15.655319 12.691162 -28.346466 28.346436 -28.346466l0 0c7.5179443 0 14.728027 2.986496 20.044006 8.30249c5.315979 5.315979 8.30249 12.526016 8.30249 20.043976l0 0c0 15.655304 -12.691162 28.346436 -28.346497 28.346436l0 0c-15.655273 0 -28.346436 -12.691132 -28.346436 -28.346436z" fill-rule="evenodd"/><path fill="#000000" d="m784.5761 264.0645l1.765625 0.453125q-0.5625 2.171875 -2.0 3.328125q-1.4375 1.140625 -3.53125 1.140625q-2.15625 0 -3.515625 -0.875q-1.34375 -0.890625 -2.0625 -2.546875q-0.703125 -1.671875 -0.703125 -3.59375q0 -2.078125 0.796875 -3.625q0.796875 -1.5625 2.265625 -2.359375q1.484375 -0.8125 3.25 -0.8125q2.0 0 3.359375 1.015625q1.375 1.015625 1.90625 2.875l-1.734375 0.40625q-0.46875 -1.453125 -1.359375 -2.109375q-0.875 -0.671875 -2.203125 -0.671875q-1.546875 0 -2.578125 0.734375q-1.03125 0.734375 -1.453125 1.984375q-0.421875 1.234375 -0.421875 2.5625q0 1.703125 0.5 2.96875q0.5 1.265625 1.546875 1.90625q1.046875 0.625 2.265625 0.625q1.484375 0 2.515625 -0.859375q1.03125 -0.859375 1.390625 -2.546875z" fill-rule="nonzero"/><path fill="#000000" fill-opacity="0.0" d="m751.9974 70.97638l0 0c0 -15.655315 12.691162 -28.346458 28.346436 -28.346458l0 0c7.5179443 0 14.728027 2.9864922 20.044006 8.302486c5.315979 5.3159904 8.30249 12.526024 8.30249 20.043972l0 0c0 15.655312 -12.691162 28.346458 -28.346497 28.346458l0 0c-15.655273 0 -28.346436 -12.691147 -28.346436 -28.346458z" fill-rule="evenodd"/><path stroke="#000000" stroke-width="1.0" stroke-linejoin="round" stroke-linecap="butt" d="m751.9974 70.97638l0 0c0 -15.655315 12.691162 -28.346458 28.346436 -28.346458l0 0c7.5179443 0 14.728027 2.9864922 20.044006 8.302486c5.315979 5.3159904 8.30249 12.526024 8.30249 20.043972l0 0c0 15.655312 -12.691162 28.346458 -28.346497 28.346458l0 0c-15.655273 0 -28.346436 -12.691147 -28.346436 -28.346458z" fill-rule="evenodd"/><path fill="#000000" d="m775.04486 77.89638l0 -13.359375l4.609375 0q1.546875 0 2.375 0.203125q1.140625 0.25 1.953125 0.953125q1.0625 0.890625 1.578125 2.28125q0.53125 1.390625 0.53125 3.171875q0 1.515625 -0.359375 2.703125q-0.359375 1.171875 -0.921875 1.9375q-0.546875 0.765625 -1.203125 1.21875q-0.65625 0.4375 -1.59375 0.671875q-0.9375 0.21875 -2.140625 0.21875l-4.828125 0zm1.765625 -1.578125l2.859375 0q1.3125 0 2.0625 -0.234375q0.75 -0.25 1.203125 -0.703125q0.625 -0.625 0.96875 -1.6875q0.359375 -1.0625 0.359375 -2.578125q0 -2.09375 -0.6875 -3.21875q-0.6875 -1.125 -1.671875 -1.5q-0.703125 -0.28125 -2.28125 -0.28125l-2.8125 0l0 10.203125z" fill-rule="nonzero"/><path fill="#000000" fill-opacity="0.0" d="m133.50919 233.48557l0 -134.17323" fill-rule="evenodd"/><path stroke="#000000" stroke-width="1.0" stroke-linejoin="round" stroke-linecap="butt" d="m133.50919 233.48557l0 -128.17323" fill-rule="evenodd"/><path fill="#000000" stroke="#000000" stroke-width="1.0" stroke-linecap="butt" d="m135.16092 105.31233l-1.6517334 -4.5380936l-1.6517334 4.5380936z" fill-rule="evenodd"/><path fill="#000000" fill-opacity="0.0" d="m480.85303 233.48557l0 -134.17323" fill-rule="evenodd"/><path stroke="#000000" stroke-width="1.0" stroke-linejoin="round" stroke-linecap="butt" d="m480.85303 233.48557l0 -128.17323" fill-rule="evenodd"/><path fill="#000000" stroke="#000000" stroke-width="1.0" stroke-linecap="butt" d="m482.50476 105.31233l-1.6517334 -4.5380936l-1.6517334 4.5380936z" fill-rule="evenodd"/><path fill="#000000" fill-opacity="0.0" d="m673.1877 147.81233c0 -38.425194 39.40155 -76.85039 78.8031 -76.85039" fill-rule="evenodd"/><path stroke="#000000" stroke-width="1.0" stroke-linejoin="round" stroke-linecap="butt" d="m673.1877 147.81233c0 -19.2126 9.850403 -38.425194 24.625977 -52.83464c7.3877563 -7.204727 16.006897 -13.208664 25.241638 -17.411415c4.6173706 -2.1013794 9.388611 -3.7524643 14.236877 -4.8782043c2.4241333 -0.5628662 4.8674927 -0.9944 7.3204346 -1.2852173c0.30670166 -0.036346436 0.61346436 -0.070503235 0.9203491 -0.10243988l0.4650879 -0.0450058" fill-rule="evenodd"/><path fill="#000000" stroke="#000000" stroke-width="1.0" stroke-linecap="butt" d="m746.0788 72.90517l4.4518433 -1.8717194l-4.6134033 -1.4277954z" fill-rule="evenodd"/><path fill="#000000" fill-opacity="0.0" d="m808.6903 70.97638c38.75586 0 77.51178 38.425194 77.51178 76.85039" fill-rule="evenodd"/><path stroke="#000000" stroke-width="1.0" stroke-linejoin="round" stroke-linecap="butt" d="m808.6903 70.97638c19.37793 0 38.75586 9.6063 53.289368 24.015747c7.2667236 7.204727 13.322327 15.610237 17.56128 24.616142c2.1195068 4.5029526 3.784729 9.155998 4.920166 13.884102c0.567688 2.3640442 1.0029297 4.7468567 1.2962646 7.1390533c0.03668213 0.2990265 0.07110596 0.59820557 0.10333252 0.89749146l0.030578613 0.3059082" fill-rule="evenodd"/><path fill="#000000" stroke="#000000" stroke-width="1.0" stroke-linecap="butt" d="m884.2418 141.92038l1.8845825 4.446457l1.4144287 -4.617569z" fill-rule="evenodd"/><path fill="#000000" fill-opacity="0.0" d="m886.2087 204.50394c0 28.661423 -38.75592 57.322845 -77.51184 57.322845" fill-rule="evenodd"/><path stroke="#000000" stroke-width="1.0" stroke-linejoin="round" stroke-linecap="butt" d="m886.2087 204.50394c0 14.330704 -9.688965 28.661423 -24.222473 39.409454c-7.2667236 5.374008 -15.744568 9.852356 -24.828003 12.987213c-4.541748 1.5674133 -9.234802 2.7989502 -14.003601 3.6386414c-2.3843384 0.41986084 -4.7877197 0.74172974 -7.2004395 0.9586487c-0.3015747 0.027130127 -0.6033325 0.052581787 -0.90527344 0.076416016l-0.35632324 0.026153564" fill-rule="evenodd"/><path fill="#000000" stroke="#000000" stroke-width="1.0" stroke-linecap="butt" d="m814.63025 259.9499l-4.472534 1.8217468l4.597168 1.4793701z" fill-rule="evenodd"/><path fill="#000000" fill-opacity="0.0" d="m751.9974 261.83203c-39.40155 0 -78.80316 -28.661423 -78.80316 -57.322845" fill-rule="evenodd"/><path stroke="#000000" stroke-width="1.0" stroke-linejoin="round" stroke-linecap="butt" d="m751.9974 261.83203c-19.700806 0 -39.40155 -7.1653595 -54.177185 -17.913391c-7.3877563 -5.3740234 -13.5442505 -11.643707 -17.85382 -18.361221c-2.1547852 -3.3587646 -3.8477783 -6.829483 -5.002136 -10.356186c-0.28857422 -0.88168335 -0.54351807 -1.7668457 -0.7635498 -2.6546478c-0.11004639 -0.44389343 -0.21136475 -0.888443 -0.30377197 -1.3335571c-0.046203613 -0.22254944 -0.09020996 -0.4452362 -0.13195801 -0.66804504l-0.010986328 -0.061965942" fill-rule="evenodd"/><path fill="#000000" stroke="#000000" stroke-width="1.0" stroke-linecap="butt" d="m675.39844 210.32895l-2.06781 -4.3642273l-1.2212524 4.6723785z" fill-rule="evenodd"/><path fill="#000000" fill-opacity="0.0" d="m95.87139 303.85828l75.2756 0l0 42.015747l-75.2756 0z" fill-rule="evenodd"/><path fill="#000000" d="m125.10865 334.70013q-1.421875 -3.125 -1.421875 -6.4375q0 -2.203125 0.578125 -4.09375q0.578125 -1.90625 1.765625 -3.765625q0.78125 -1.234375 2.4999924 -3.203125l1.28125 0q-1.0625 1.140625 -2.2499924 3.203125q-1.1875 2.0625 -1.734375 4.0625q-0.53125 2.0 -0.53125 4.0q0 3.015625 1.046875 6.234375l-1.234375 0zm10.353294 -5.125q-0.859375 0.734375 -1.65625 1.078125q-0.78125 0.34375 -1.6875 0.34375q-1.34375 0 -2.171875 -0.78125q-0.8125 -0.796875 -0.8125 -2.03125q0 -0.796875 0.375 -1.421875q0.375 -0.625 0.984375 -1.0q0.609375 -0.390625 1.484375 -0.546875q0.5625 -0.109375 2.109375 -0.171875q1.5625 -0.0625 2.234375 -0.328125q0.1875 -0.671875 0.1875 -1.125q0 -0.578125 -0.421875 -0.90625q-0.5625 -0.453125 -1.671875 -0.453125q-1.03125 0 -1.703125 0.46875q-0.65625 0.453125 -0.953125 1.296875l-1.671875 -0.140625q0.515625 -1.4375 1.609375 -2.203125q1.109375 -0.765625 2.796875 -0.765625q1.796875 0 2.84375 0.859375q0.796875 0.625 0.796875 1.65625q0 0.765625 -0.21875 1.796875l-0.53125 2.40625q-0.265625 1.140625 -0.265625 1.859375q0 0.453125 0.203125 1.3125l-1.671875 0q-0.125 -0.46875 -0.1875 -1.203125zm0.609375 -3.703125q-0.34375 0.140625 -0.75 0.21875q-0.390625 0.0625 -1.3125 0.15625q-1.4375 0.125 -2.03125 0.328125q-0.59375 0.1875 -0.90625 0.625q-0.296875 0.421875 -0.296875 0.9375q0 0.6875 0.484375 1.140625q0.484375 0.4375 1.359375 0.4375q0.828125 0 1.578125 -0.421875q0.75 -0.4375 1.1875 -1.203125q0.4375 -0.78125 0.6875 -2.21875zm6.328842 -8.671875q1.4375 3.125 1.4375 6.421875q0 2.21875 -0.578125 4.125q-0.578125 1.890625 -1.765625 3.75q-0.796875 1.234375 -2.5 3.203125l-1.296875 0q1.0625 -1.140625 2.25 -3.21875q1.203125 -2.0625 1.734375 -4.046875q0.53125 -2.0 0.53125 -4.015625q0 -3.0 -1.046875 -6.21875l1.234375 0z" fill-rule="nonzero"/><path fill="#000000" fill-opacity="0.0" d="m443.2152 303.85828l75.27557 0l0 42.015747l-75.27557 0z" fill-rule="evenodd"/><path fill="#000000" d="m472.45248 334.70013q-1.421875 -3.125 -1.421875 -6.4375q0 -2.203125 0.578125 -4.09375q0.578125 -1.90625 1.765625 -3.765625q0.78125 -1.234375 2.5 -3.203125l1.28125 0q-1.0625 1.140625 -2.25 3.203125q-1.1875 2.0625 -1.734375 4.0625q-0.53125 2.0 -0.53125 4.0q0 3.015625 1.046875 6.234375l-1.234375 0zm3.837677 -3.921875l2.78125 -13.359375l1.65625 0l-1.0 4.78125q0.78125 -0.71875 1.421875 -1.015625q0.640625 -0.296875 1.328125 -0.296875q1.359375 0 2.265625 1.015625q0.90625 1.0 0.90625 2.9375q0 1.28125 -0.375 2.359375q-0.359375 1.0625 -0.890625 1.78125q-0.53125 0.71875 -1.109375 1.15625q-0.578125 0.4375 -1.1875 0.640625q-0.59375 0.21875 -1.140625 0.21875q-0.96875 0 -1.703125 -0.5q-0.71875 -0.515625 -1.125 -1.546875l-0.390625 1.828125l-1.4375 0zm2.4375 -3.96875l-0.015625 0.3125q0 1.234375 0.59375 1.890625q0.59375 0.640625 1.484375 0.640625q0.859375 0 1.578125 -0.609375q0.734375 -0.609375 1.1875 -1.890625q0.46875 -1.28125 0.46875 -2.375q0 -1.21875 -0.59375 -1.890625q-0.578125 -0.671875 -1.4375 -0.671875q-0.90625 0 -1.65625 0.6875q-0.734375 0.6875 -1.234375 2.125q-0.375 1.0625 -0.375 1.78125zm11.016327 -9.609375q1.4375 3.125 1.4375 6.421875q0 2.21875 -0.578125 4.125q-0.578125 1.890625 -1.765625 3.75q-0.796875 1.234375 -2.5 3.203125l-1.296875 0q1.0625 -1.140625 2.25 -3.21875q1.203125 -2.0625 1.734375 -4.046875q0.53125 -2.0 0.53125 -4.015625q0 -3.0 -1.046875 -6.21875l1.234375 0z" fill-rule="nonzero"/><path fill="#000000" fill-opacity="0.0" d="m742.70605 303.85828l75.27557 0l0 42.015747l-75.27557 0z" fill-rule="evenodd"/><path fill="#000000" d="m772.4671 334.70013q-1.421875 -3.125 -1.421875 -6.4375q0 -2.203125 0.578125 -4.09375q0.578125 -1.90625 1.765625 -3.765625q0.78125 -1.234375 2.5 -3.203125l1.28125 0q-1.0625 1.140625 -2.25 3.203125q-1.1875 2.0625 -1.734375 4.0625q-0.53125 2.0 -0.53125 4.0q0 3.015625 1.046875 6.234375l-1.234375 0zm10.5095215 -7.453125l1.65625 0.171875q-0.625 1.8125 -1.765625 2.703125q-1.140625 0.875 -2.609375 0.875q-1.578125 0 -2.5625 -1.015625q-0.96875 -1.03125 -0.96875 -2.859375q0 -1.578125 0.625 -3.109375q0.640625 -1.53125 1.796875 -2.328125q1.171875 -0.796875 2.6875 -0.796875q1.546875 0 2.453125 0.875q0.921875 0.875 0.921875 2.328125l-1.625 0.109375q-0.015625 -0.921875 -0.546875 -1.4375q-0.515625 -0.515625 -1.359375 -0.515625q-1.0 0 -1.734375 0.625q-0.71875 0.625 -1.140625 1.90625q-0.40625 1.28125 -0.40625 2.46875q0 1.234375 0.546875 1.859375q0.546875 0.609375 1.34375 0.609375q0.796875 0 1.53125 -0.609375q0.734375 -0.609375 1.15625 -1.859375zm5.734375 -10.046875q1.4375 3.125 1.4375 6.421875q0 2.21875 -0.578125 4.125q-0.578125 1.890625 -1.765625 3.75q-0.796875 1.234375 -2.5 3.203125l-1.296875 0q1.0625 -1.140625 2.25 -3.21875q1.203125 -2.0625 1.734375 -4.046875q0.53125 -2.0 0.53125 -4.015625q0 -3.0 -1.046875 -6.21875l1.234375 0z" fill-rule="nonzero"/></g></svg>