<svg version="1.1" viewBox="0.0 0.0 850.5564304461942 259.70603674540683" fill="none" stroke="none" stroke-linecap="square" stroke-miterlimit="10" xmlns:xlink="http://www.w3.org/1999/xlink" xmlns="http://www.w3.org/2000/svg"><clipPath id="p.0"><path d="m0 0l850.55646 0l0 259.70602l-850.55646 0l0 -259.70602z" clip-rule="nonzero"/></clipPath><g clip-path="url(#p.0)"><path fill="#000000" fill-opacity="0.0" d="m0 0l850.55646 0l0 259.70602l-850.55646 0z" fill-rule="evenodd"/><path fill="#000000" fill-opacity="0.0" d="m215.92235 117.53649l76.94487 0l0 -16.015747l32.031494 32.0315l-32.031494 32.031494l0 -16.015747l-76.94487 0z" fill-rule="evenodd"/><path stroke="#000000" stroke-width="1.0" stroke-linejoin="round" stroke-linecap="butt" d="m215.92235 117.53649l76.94487 0l0 -16.015747l32.031494 32.0315l-32.031494 32.031494l0 -16.015747l-76.94487 0z" fill-rule="evenodd"/><path fill="#000000" fill-opacity="0.0" d="m177.24797 36.940945l0 0c0 -15.655315 -12.761642 -28.346457 -28.503937 -28.346457l0 0c-7.5597076 0 -14.809799 2.986493 -20.15532 8.3024845c-5.3455276 5.3159924 -8.348618 12.526024 -8.348618 20.043972l0 0c0 15.655315 12.761642 28.346455 28.503937 28.346455l0 0c15.742294 0 28.503937 -12.691139 28.503937 -28.346455z" fill-rule="evenodd"/><path stroke="#000000" stroke-width="1.0" stroke-linejoin="round" stroke-linecap="butt" d="m177.24797 36.940945l0 0c0 -15.655315 -12.761642 -28.346457 -28.503937 -28.346457l0 0c-7.5597076 0 -14.809799 2.986493 -20.15532 8.3024845c-5.3455276 5.3159924 -8.348618 12.526024 -8.348618 20.043972l0 0c0 15.655315 12.761642 28.346455 28.503937 28.346455l0 0c15.742294 0 28.503937 -12.691139 28.503937 -28.346455z" fill-rule="evenodd"/><path fill="#000000" d="m142.491 43.860943l5.125 -13.359375l1.90625 0l5.46875 13.359375l-2.015625 0l-1.546875 -4.046875l-5.59375 0l-1.46875 4.046875l-1.875 0zm3.859375 -5.484375l4.53125 0l-1.40625 -3.703125q-0.625 -1.6875 -0.9375 -2.765625q-0.265625 1.28125 -0.71875 2.546875l-1.46875 3.921875z" fill-rule="nonzero"/><path fill="#000000" fill-opacity="0.0" d="m89.34175 121.56562l0 0c0 -15.655319 -12.76165 -28.346458 -28.503937 -28.346458l0 0c-7.5597153 0 -14.809803 2.9864883 -20.155327 8.302483c-5.345524 5.3159943 -8.34861 12.526024 -8.34861 20.043976l0 0c0 15.655312 12.761646 28.346458 28.503937 28.346458l0 0c15.742287 0 28.503937 -12.691147 28.503937 -28.346458z" fill-rule="evenodd"/><path stroke="#000000" stroke-width="1.0" stroke-linejoin="round" stroke-linecap="butt" d="m89.34175 121.56562l0 0c0 -15.655319 -12.76165 -28.346458 -28.503937 -28.346458l0 0c-7.5597153 0 -14.809803 2.9864883 -20.155327 8.302483c-5.345524 5.3159943 -8.34861 12.526024 -8.34861 20.043976l0 0c0 15.655312 12.761646 28.346458 28.503937 28.346458l0 0c15.742287 0 28.503937 -12.691147 28.503937 -28.346458z" fill-rule="evenodd"/><path fill="#000000" d="m55.975403 128.48561l0 -13.359367l5.015625 0q1.53125 0 2.453125 0.40625q0.921875 0.40625 1.4375 1.25q0.53125 0.84375 0.53125 1.765625q0 0.859375 -0.46875 1.625q-0.453125 0.75 -1.390625 1.203125q1.203125 0.359375 1.859375 1.21875q0.65625 0.859375 0.65625 2.015625q0 0.9375 -0.40625 1.75q-0.390625 0.796875 -0.984375 1.234375q-0.578125 0.43749237 -1.453125 0.6718674q-0.875 0.21875 -2.15625 0.21875l-5.09375 0zm1.78125 -7.7499924l2.875 0q1.1875 0 1.6875 -0.140625q0.671875 -0.203125 1.015625 -0.671875q0.34375 -0.46875 0.34375 -1.171875q0 -0.65625 -0.328125 -1.15625q-0.3125 -0.515625 -0.90625 -0.703125q-0.59375 -0.1875 -2.03125 -0.1875l-2.65625 0l0 4.03125zm0 6.171875l3.3125 0q0.859375 0 1.203125 -0.0625q0.609375 -0.109375 1.015625 -0.359375q0.421875 -0.265625 0.6875 -0.75q0.265625 -0.484375 0.265625 -1.125q0 -0.75 -0.390625 -1.296875q-0.375 -0.546875 -1.0625 -0.765625q-0.671875 -0.234375 -1.953125 -0.234375l-3.078125 0l0 4.59375z" fill-rule="nonzero"/><path fill="#000000" fill-opacity="0.0" d="m141.17491 222.76247l0 0c0 -15.655319 -12.761642 -28.34645 -28.503937 -28.34645l0 0c-7.5597153 0 -14.809799 2.9864807 -20.155327 8.302475c-5.34552 5.3159943 -8.34861 12.5260315 -8.34861 20.043976l0 0c0 15.655319 12.76165 28.34645 28.503937 28.34645l0 0c15.742294 0 28.503937 -12.691132 28.503937 -28.34645z" fill-rule="evenodd"/><path stroke="#000000" stroke-width="1.0" stroke-linejoin="round" stroke-linecap="butt" d="m141.17491 222.76247l0 0c0 -15.655319 -12.761642 -28.34645 -28.503937 -28.34645l0 0c-7.5597153 0 -14.809799 2.9864807 -20.155327 8.302475c-5.34552 5.3159943 -8.34861 12.5260315 -8.34861 20.043976l0 0c0 15.655319 12.76165 28.34645 28.503937 28.34645l0 0c15.742294 0 28.503937 -12.691132 28.503937 -28.34645z" fill-rule="evenodd"/><path fill="#000000" d="m116.90325 224.99496l1.765625 0.453125q-0.5625 2.171875 -2.0 3.328125q-1.4375 1.140625 -3.53125 1.140625q-2.15625 0 -3.515625 -0.875q-1.34375 -0.890625 -2.0625 -2.546875q-0.703125 -1.671875 -0.703125 -3.59375q0 -2.078125 0.796875 -3.625q0.796875 -1.5625 2.265625 -2.359375q1.484375 -0.8125 3.25 -0.8125q2.0 0 3.359375 1.015625q1.375 1.015625 1.90625 2.875l-1.734375 0.40625q-0.46875 -1.453125 -1.359375 -2.109375q-0.875 -0.671875 -2.203125 -0.671875q-1.546875 0 -2.578125 0.734375q-1.03125 0.734375 -1.453125 1.984375q-0.421875 1.234375 -0.421875 2.5625q0 1.703125 0.5 2.96875q0.5 1.265625 1.546875 1.90625q1.046875 0.625 2.265625 0.625q1.484375 0 2.515625 -0.859375q1.03125 -0.859375 1.390625 -2.546875z" fill-rule="nonzero"/><path fill="#000000" fill-opacity="0.0" d="m128.58871 56.984917l-47.590553 44.53543" fill-rule="evenodd"/><path stroke="#000000" stroke-width="1.0" stroke-linejoin="round" stroke-linecap="butt" d="m128.58871 56.984917l-47.590553 44.53543" fill-rule="evenodd"/><path fill="#000000" fill-opacity="0.0" d="m112.670975 194.41602l-31.685036 -52.81891" fill-rule="evenodd"/><path stroke="#000000" stroke-width="1.0" stroke-linejoin="round" stroke-linecap="butt" d="m112.670975 194.41602l-31.685036 -52.81891" fill-rule="evenodd"/><path fill="#000000" fill-opacity="0.0" d="m535.02637 36.940945l0 0c0 -15.655315 -12.761658 -28.346457 -28.503937 -28.346457l0 0c-7.559723 0 -14.809814 2.986493 -20.155334 8.3024845c-5.34552 5.3159924 -8.348602 12.526024 -8.348602 20.043972l0 0c0 15.655315 12.761627 28.346455 28.503937 28.346455l0 0c15.742279 0 28.503937 -12.691139 28.503937 -28.346455z" fill-rule="evenodd"/><path stroke="#000000" stroke-width="1.0" stroke-linejoin="round" stroke-linecap="butt" d="m535.02637 36.940945l0 0c0 -15.655315 -12.761658 -28.346457 -28.503937 -28.346457l0 0c-7.559723 0 -14.809814 2.986493 -20.155334 8.3024845c-5.34552 5.3159924 -8.348602 12.526024 -8.348602 20.043972l0 0c0 15.655315 12.761627 28.346455 28.503937 28.346455l0 0c15.742279 0 28.503937 -12.691139 28.503937 -28.346455z" fill-rule="evenodd"/><path fill="#000000" d="m500.26938 43.860943l5.125 -13.359375l1.90625 0l5.4687805 13.359375l-2.0156555 0l-1.546875 -4.046875l-5.59375 0l-1.46875 4.046875l-1.875 0zm3.859375 -5.484375l4.53125 0l-1.40625 -3.703125q-0.625 -1.6875 -0.9375 -2.765625q-0.265625 1.28125 -0.71875 2.546875l-1.46875 3.921875z" fill-rule="nonzero"/><path fill="#000000" fill-opacity="0.0" d="m447.12277 121.56562l0 0c0 -15.655319 -12.761658 -28.346458 -28.503937 -28.346458l0 0c-7.559723 0 -14.809814 2.9864883 -20.155334 8.302483c-5.34552 5.3159943 -8.348602 12.526024 -8.348602 20.043976l0 0c0 15.655312 12.761627 28.346458 28.503937 28.346458l0 0c15.742279 0 28.503937 -12.691147 28.503937 -28.346458z" fill-rule="evenodd"/><path stroke="#000000" stroke-width="1.0" stroke-linejoin="round" stroke-linecap="butt" d="m447.12277 121.56562l0 0c0 -15.655319 -12.761658 -28.346458 -28.503937 -28.346458l0 0c-7.559723 0 -14.809814 2.9864883 -20.155334 8.302483c-5.34552 5.3159943 -8.348602 12.526024 -8.348602 20.043976l0 0c0 15.655312 12.761627 28.346458 28.503937 28.346458l0 0c15.742279 0 28.503937 -12.691147 28.503937 -28.346458z" fill-rule="evenodd"/><path fill="#000000" d="m422.8511 123.79812l1.765625 0.453125q-0.5625 2.171875 -2.0 3.328125q-1.4375 1.1406174 -3.53125 1.1406174q-2.15625 0 -3.515625 -0.8749924q-1.34375 -0.890625 -2.0625 -2.546875q-0.703125 -1.671875 -0.703125 -3.59375q0 -2.078125 0.796875 -3.625q0.796875 -1.5625 2.265625 -2.359375q1.484375 -0.8125 3.25 -0.8125q2.0 0 3.359375 1.015625q1.375 1.015625 1.90625 2.875l-1.734375 0.40625q-0.46875 -1.453125 -1.359375 -2.109375q-0.875 -0.671875 -2.203125 -0.671875q-1.546875 0 -2.578125 0.734375q-1.03125 0.734375 -1.453125 1.984375q-0.421875 1.234375 -0.421875 2.5625q0 1.703125 0.5 2.96875q0.5 1.265625 1.546875 1.90625q1.046875 0.625 2.265625 0.625q1.484375 0 2.515625 -0.859375q1.03125 -0.859375 1.390625 -2.546875z" fill-rule="nonzero"/><path fill="#000000" fill-opacity="0.0" d="m381.3286 222.76247l0 0c0 -15.655319 -12.761627 -28.34645 -28.503937 -28.34645l0 0c-7.5596924 0 -14.809784 2.9864807 -20.155304 8.302475c-5.34552 5.3159943 -8.348633 12.5260315 -8.348633 20.043976l0 0c0 15.655319 12.761658 28.34645 28.503937 28.34645l0 0c15.74231 0 28.503937 -12.691132 28.503937 -28.34645z" fill-rule="evenodd"/><path stroke="#000000" stroke-width="1.0" stroke-linejoin="round" stroke-linecap="butt" d="m381.3286 222.76247l0 0c0 -15.655319 -12.761627 -28.34645 -28.503937 -28.34645l0 0c-7.5596924 0 -14.809784 2.9864807 -20.155304 8.302475c-5.34552 5.3159943 -8.348633 12.5260315 -8.348633 20.043976l0 0c0 15.655319 12.761658 28.34645 28.503937 28.34645l0 0c15.74231 0 28.503937 -12.691132 28.503937 -28.34645z" fill-rule="evenodd"/><path fill="#000000" d="m347.96228 229.68246l0 -13.359375l5.015625 0q1.53125 0 2.453125 0.40625q0.921875 0.40625 1.4375 1.25q0.53125 0.84375 0.53125 1.765625q0 0.859375 -0.46875 1.625q-0.453125 0.75 -1.390625 1.203125q1.203125 0.359375 1.859375 1.21875q0.65625 0.859375 0.65625 2.015625q0 0.9375 -0.40625 1.75q-0.390625 0.796875 -0.984375 1.234375q-0.578125 0.4375 -1.453125 0.671875q-0.875 0.21875 -2.15625 0.21875l-5.09375 0zm1.78125 -7.75l2.875 0q1.1875 0 1.6875 -0.140625q0.671875 -0.203125 1.015625 -0.671875q0.34375 -0.46875 0.34375 -1.171875q0 -0.65625 -0.328125 -1.15625q-0.3125 -0.515625 -0.90625 -0.703125q-0.59375 -0.1875 -2.03125 -0.1875l-2.65625 0l0 4.03125zm0 6.171875l3.3125 0q0.859375 0 1.203125 -0.0625q0.609375 -0.109375 1.015625 -0.359375q0.421875 -0.265625 0.6875 -0.75q0.265625 -0.484375 0.265625 -1.125q0 -0.75 -0.390625 -1.296875q-0.375 -0.546875 -1.0625 -0.765625q-0.671875 -0.234375 -1.953125 -0.234375l-3.078125 0l0 4.59375z" fill-rule="nonzero"/><path fill="#000000" fill-opacity="0.0" d="m486.3671 56.984917l-47.590546 44.53543" fill-rule="evenodd"/><path stroke="#000000" stroke-width="1.0" stroke-linejoin="round" stroke-linecap="butt" d="m486.3671 56.984917l-47.590546 44.53543" fill-rule="evenodd"/><path fill="#000000" fill-opacity="0.0" d="m352.82468 194.41602l45.637817 -52.81891" fill-rule="evenodd"/><path stroke="#000000" stroke-width="1.0" stroke-linejoin="round" stroke-linecap="butt" d="m352.82468 194.41602l45.637817 -52.81891" fill-rule="evenodd"/><path fill="#000000" fill-opacity="0.0" d="m818.2232 222.76378l0 0c0 -15.655319 -12.761658 -28.34645 -28.503906 -28.34645l0 0c-7.5597534 0 -14.809814 2.9864807 -20.155334 8.302475c-5.34552 5.3159943 -8.348633 12.5260315 -8.348633 20.043976l0 0c0 15.655319 12.761658 28.34645 28.503967 28.34645l0 0c15.742249 0 28.503906 -12.691132 28.503906 -28.34645z" fill-rule="evenodd"/><path stroke="#000000" stroke-width="1.0" stroke-linejoin="round" stroke-linecap="butt" d="m818.2232 222.76378l0 0c0 -15.655319 -12.761658 -28.34645 -28.503906 -28.34645l0 0c-7.5597534 0 -14.809814 2.9864807 -20.155334 8.302475c-5.34552 5.3159943 -8.348633 12.5260315 -8.348633 20.043976l0 0c0 15.655319 12.761658 28.34645 28.503967 28.34645l0 0c15.742249 0 28.503906 -12.691132 28.503906 -28.34645z" fill-rule="evenodd"/><path fill="#000000" d="m783.46625 229.68378l5.125 -13.359375l1.90625 0l5.46875 13.359375l-2.015625 0l-1.546875 -4.046875l-5.59375 0l-1.46875 4.046875l-1.875 0zm3.859375 -5.484375l4.53125 0l-1.40625 -3.703125q-0.625 -1.6875 -0.9375 -2.765625q-0.265625 1.28125 -0.71875 2.546875l-1.46875 3.921875z" fill-rule="nonzero"/><path fill="#000000" fill-opacity="0.0" d="m761.2146 121.56562l0 0c0 -15.655319 -12.761597 -28.346458 -28.503906 -28.346458l0 0c-7.5596924 0 -14.809814 2.9864883 -20.155334 8.302483c-5.34552 5.3159943 -8.348633 12.526024 -8.348633 20.043976l0 0c0 15.655312 12.761658 28.346458 28.503967 28.346458l0 0c15.74231 0 28.503906 -12.691147 28.503906 -28.346458z" fill-rule="evenodd"/><path stroke="#000000" stroke-width="1.0" stroke-linejoin="round" stroke-linecap="butt" d="m761.2146 121.56562l0 0c0 -15.655319 -12.761597 -28.346458 -28.503906 -28.346458l0 0c-7.5596924 0 -14.809814 2.9864883 -20.155334 8.302483c-5.34552 5.3159943 -8.348633 12.526024 -8.348633 20.043976l0 0c0 15.655312 12.761658 28.346458 28.503967 28.346458l0 0c15.74231 0 28.503906 -12.691147 28.503906 -28.346458z" fill-rule="evenodd"/><path fill="#000000" d="m736.943 123.79812l1.765625 0.453125q-0.5625 2.171875 -2.0 3.328125q-1.4375 1.1406174 -3.53125 1.1406174q-2.15625 0 -3.515625 -0.8749924q-1.34375 -0.890625 -2.0625 -2.546875q-0.703125 -1.671875 -0.703125 -3.59375q0 -2.078125 0.796875 -3.625q0.796875 -1.5625 2.265625 -2.359375q1.484375 -0.8125 3.25 -0.8125q2.0 0 3.359375 1.015625q1.375 1.015625 1.90625 2.875l-1.734375 0.40625q-0.46875 -1.453125 -1.359375 -2.109375q-0.875 -0.671875 -2.203125 -0.671875q-1.546875 0 -2.578125 0.734375q-1.03125 0.734375 -1.453125 1.984375q-0.421875 1.234375 -0.421875 2.5625q0 1.703125 0.5 2.96875q0.5 1.265625 1.546875 1.90625q1.046875 0.625 2.265625 0.625q1.484375 0 2.515625 -0.859375q1.03125 -0.859375 1.390625 -2.546875z" fill-rule="nonzero"/><path fill="#000000" fill-opacity="0.0" d="m704.2079 222.76247l0 0c0 -15.655319 -12.761658 -28.34645 -28.503906 -28.34645l0 0c-7.5597534 0 -14.809814 2.9864807 -20.155334 8.302475c-5.34552 5.3159943 -8.348633 12.5260315 -8.348633 20.043976l0 0c0 15.655319 12.761658 28.34645 28.503967 28.34645l0 0c15.742249 0 28.503906 -12.691132 28.503906 -28.34645z" fill-rule="evenodd"/><path stroke="#000000" stroke-width="1.0" stroke-linejoin="round" stroke-linecap="butt" d="m704.2079 222.76247l0 0c0 -15.655319 -12.761658 -28.34645 -28.503906 -28.34645l0 0c-7.5597534 0 -14.809814 2.9864807 -20.155334 8.302475c-5.34552 5.3159943 -8.348633 12.5260315 -8.348633 20.043976l0 0c0 15.655319 12.761658 28.34645 28.503967 28.34645l0 0c15.742249 0 28.503906 -12.691132 28.503906 -28.34645z" fill-rule="evenodd"/><path fill="#000000" d="m670.84155 229.68246l0 -13.359375l5.015625 0q1.53125 0 2.453125 0.40625q0.921875 0.40625 1.4375 1.25q0.53125 0.84375 0.53125 1.765625q0 0.859375 -0.46875 1.625q-0.453125 0.75 -1.390625 1.203125q1.203125 0.359375 1.859375 1.21875q0.65625 0.859375 0.65625 2.015625q0 0.9375 -0.40625 1.75q-0.390625 0.796875 -0.984375 1.234375q-0.578125 0.4375 -1.453125 0.671875q-0.875 0.21875 -2.15625 0.21875l-5.09375 0zm1.78125 -7.75l2.875 0q1.1875 0 1.6875 -0.140625q0.671875 -0.203125 1.015625 -0.671875q0.34375 -0.46875 0.34375 -1.171875q0 -0.65625 -0.328125 -1.15625q-0.3125 -0.515625 -0.90625 -0.703125q-0.59375 -0.1875 -2.03125 -0.1875l-2.65625 0l0 4.03125zm0 6.171875l3.3125 0q0.859375 0 1.203125 -0.0625q0.609375 -0.109375 1.015625 -0.359375q0.421875 -0.265625 0.6875 -0.75q0.265625 -0.484375 0.265625 -1.125q0 -0.75 -0.390625 -1.296875q-0.375 -0.546875 -1.0625 -0.765625q-0.671875 -0.234375 -1.953125 -0.234375l-3.078125 0l0 4.59375z" fill-rule="nonzero"/><path fill="#000000" fill-opacity="0.0" d="m789.7193 194.41733l-36.850403 -52.81891" fill-rule="evenodd"/><path stroke="#000000" stroke-width="1.0" stroke-linejoin="round" stroke-linecap="butt" d="m789.7193 194.41733l-36.850403 -52.81891" fill-rule="evenodd"/><path fill="#000000" fill-opacity="0.0" d="m675.704 194.41602l36.85034 -52.81891" fill-rule="evenodd"/><path stroke="#000000" stroke-width="1.0" stroke-linejoin="round" stroke-linecap="butt" d="m675.704 194.41602l36.85034 -52.81891" fill-rule="evenodd"/><path fill="#000000" fill-opacity="0.0" d="m550.87775 105.55224l76.944885 0l0 -16.015747l32.031494 32.031494l-32.031494 32.0315l0 -16.015747l-76.944885 0z" fill-rule="evenodd"/><path stroke="#000000" stroke-width="1.0" stroke-linejoin="round" stroke-linecap="butt" d="m550.87775 105.55224l76.944885 0l0 -16.015747l32.031494 32.031494l-32.031494 32.0315l0 -16.015747l-76.944885 0z" fill-rule="evenodd"/></g></svg>