<svg version="1.1" viewBox="0.0 0.0 700.0 370.98687664041995" fill="none" stroke="none" stroke-linecap="square" stroke-miterlimit="10" xmlns:xlink="http://www.w3.org/1999/xlink" xmlns="http://www.w3.org/2000/svg"><clipPath id="p.0"><path d="m0 0l700.0 0l0 370.98688l-700.0 0l0 -370.98688z" clip-rule="nonzero"/></clipPath><g clip-path="url(#p.0)"><path fill="#000000" fill-opacity="0.0" d="m0 0l700.0 0l0 370.98688l-700.0 0z" fill-rule="evenodd"/><path fill="#000000" fill-opacity="0.0" d="m146.94386 42.003937l0 0c0 -15.655315 12.761658 -28.346457 28.503937 -28.346457l0 0c7.559723 0 14.809814 2.986494 20.155334 8.3024845c5.34552 5.3159924 8.348602 12.526024 8.348602 20.043972l0 0c0 15.655315 -12.761642 28.346458 -28.503937 28.346458l0 0c-15.742279 0 -28.503937 -12.691143 -28.503937 -28.346458z" fill-rule="evenodd"/><path stroke="#000000" stroke-width="1.0" stroke-linejoin="round" stroke-linecap="butt" d="m146.94386 42.003937l0 0c0 -15.655315 12.761658 -28.346457 28.503937 -28.346457l0 0c7.559723 0 14.809814 2.986494 20.155334 8.3024845c5.34552 5.3159924 8.348602 12.526024 8.348602 20.043972l0 0c0 15.655315 -12.761642 28.346458 -28.503937 28.346458l0 0c-15.742279 0 -28.503937 -12.691143 -28.503937 -28.346458z" fill-rule="evenodd"/><path fill="#000000" d="m173.55682 41.68956q-1.015625 -0.375 -1.515625 -1.0625q-0.484375 -0.703125 -0.484375 -1.671875q0 -1.453125 1.046875 -2.4375q1.046875 -1.0 2.78125 -1.0q1.75 0 2.8125 1.015625q1.078125 1.015625 1.078125 2.46875q0 0.9375 -0.5 1.625q-0.484375 0.6875 -1.46875 1.0625q1.21875 0.390625 1.859375 1.28125q0.65625 0.890625 0.65625 2.140625q0 1.703125 -1.21875 2.875q-1.21875 1.171875 -3.1875 1.171875q-1.984375 0 -3.203125 -1.171875q-1.203125 -1.171875 -1.203125 -2.921875q0 -1.3125 0.65625 -2.1875q0.671875 -0.875 1.890625 -1.1875zm-0.328125 -2.78125q0 0.9375 0.609375 1.546875q0.609375 0.59375 1.59375 0.59375q0.9375 0 1.546875 -0.59375q0.609375 -0.59375 0.609375 -1.453125q0 -0.90625 -0.625 -1.515625q-0.625 -0.625 -1.5625 -0.625q-0.9375 0 -1.5625 0.609375q-0.609375 0.59375 -0.609375 1.4375zm-0.53125 6.15625q0 0.703125 0.328125 1.359375q0.34375 0.65625 1.0 1.015625q0.65625 0.359375 1.40625 0.359375q1.171875 0 1.9375 -0.75q0.765625 -0.75 0.765625 -1.921875q0 -1.1875 -0.796875 -1.953125q-0.78125 -0.78125 -1.953125 -0.78125q-1.15625 0 -1.921875 0.765625q-0.765625 0.765625 -0.765625 1.90625z" fill-rule="nonzero"/><path fill="#000000" fill-opacity="0.0" d="m71.93793 134.91864l0 0c0 -15.655319 12.76165 -28.346458 28.503937 -28.346458l0 0c7.5597153 0 14.809807 2.9864883 20.155327 8.302483c5.3455276 5.3159943 8.34861 12.526024 8.34861 20.043976l0 0c0 15.655304 -12.761642 28.34645 -28.503937 28.34645l0 0c-15.742287 0 -28.503937 -12.691147 -28.503937 -28.34645z" fill-rule="evenodd"/><path stroke="#000000" stroke-width="1.0" stroke-linejoin="round" stroke-linecap="butt" d="m71.93793 134.91864l0 0c0 -15.655319 12.76165 -28.346458 28.503937 -28.346458l0 0c7.5597153 0 14.809807 2.9864883 20.155327 8.302483c5.3455276 5.3159943 8.34861 12.526024 8.34861 20.043976l0 0c0 15.655304 -12.761642 28.34645 -28.503937 28.34645l0 0c-15.742287 0 -28.503937 -12.691147 -28.503937 -28.34645z" fill-rule="evenodd"/><path fill="#000000" d="m96.035255 138.33864l1.71875 -0.140625q0.1875 1.25 0.875 1.890625q0.703125 0.625 1.6875 0.625q1.1875 0 2.0 -0.890625q0.828125 -0.890625 0.828125 -2.359375q0 -1.40625 -0.796875 -2.21875q-0.78125 -0.8125 -2.0625 -0.8125q-0.78125 0 -1.421875 0.359375q-0.640625 0.359375 -1.0 0.9375l-1.546875 -0.203125l1.296875 -6.859375l6.640625 0l0 1.5625l-5.328125 0l-0.71875 3.59375q1.203125 -0.84375 2.515625 -0.84375q1.75 0 2.953125 1.21875q1.203125 1.203125 1.203125 3.109375q0 1.8125 -1.046875 3.140625q-1.296875 1.625 -3.515625 1.625q-1.8125 0 -2.96875 -1.015625q-1.15625 -1.03125 -1.3125 -2.71875z" fill-rule="nonzero"/><path fill="#000000" fill-opacity="0.0" d="m221.94981 134.91077l0 0c0 -15.655319 12.761642 -28.346458 28.503937 -28.346458l0 0c7.5597076 0 14.809799 2.9864883 20.15532 8.302483c5.34552 5.3159943 8.348602 12.526024 8.348602 20.043976l0 0c0 15.655304 -12.761627 28.34645 -28.503922 28.34645l0 0c-15.742294 0 -28.503937 -12.691147 -28.503937 -28.34645z" fill-rule="evenodd"/><path stroke="#000000" stroke-width="1.0" stroke-linejoin="round" stroke-linecap="butt" d="m221.94981 134.91077l0 0c0 -15.655319 12.761642 -28.346458 28.503937 -28.346458l0 0c7.5597076 0 14.809799 2.9864883 20.15532 8.302483c5.34552 5.3159943 8.348602 12.526024 8.348602 20.043976l0 0c0 15.655304 -12.761627 28.34645 -28.503922 28.34645l0 0c-15.742294 0 -28.503937 -12.691147 -28.503937 -28.34645z" fill-rule="evenodd"/><path fill="#000000" d="m246.28151 138.73701l1.578125 -0.140625q0.203125 1.109375 0.765625 1.609375q0.5625 0.5 1.453125 0.5q0.75 0 1.3125 -0.34375q0.578125 -0.34375 0.9375 -0.921875q0.375 -0.578125 0.609375 -1.5625q0.25 -0.984375 0.25 -2.0q0 -0.109375 0 -0.328125q-0.5 0.78125 -1.359375 1.265625q-0.84375 0.484375 -1.828125 0.484375q-1.671875 0 -2.8125 -1.203125q-1.140625 -1.203125 -1.140625 -3.171875q0 -2.03125 1.1875 -3.265625q1.203125 -1.234375 3.0 -1.234375q1.3125 0 2.390625 0.703125q1.078125 0.703125 1.640625 2.0q0.5625 1.296875 0.5625 3.75q0 2.5625 -0.5625 4.078125q-0.5625 1.515625 -1.65625 2.3125q-1.09375 0.796875 -2.578125 0.796875q-1.5625 0 -2.5625 -0.875q-0.984375 -0.875 -1.1875 -2.453125zm6.71875 -5.890625q0 -1.40625 -0.75 -2.234375q-0.75 -0.828125 -1.8125 -0.828125q-1.09375 0 -1.90625 0.890625q-0.8125 0.890625 -0.8125 2.3125q0 1.28125 0.765625 2.078125q0.78125 0.796875 1.90625 0.796875q1.140625 0 1.875 -0.796875q0.734375 -0.796875 0.734375 -2.21875z" fill-rule="nonzero"/><path fill="#000000" fill-opacity="0.0" d="m128.94826 227.82808l0 0c0 -15.655304 12.761642 -28.34645 28.503937 -28.34645l0 0c7.5597076 0 14.809799 2.986496 20.15532 8.30249c5.34552 5.315979 8.348618 12.526016 8.348618 20.04396l0 0c0 15.655319 -12.761658 28.34645 -28.503937 28.34645l0 0c-15.742294 0 -28.503937 -12.691132 -28.503937 -28.34645z" fill-rule="evenodd"/><path stroke="#000000" stroke-width="1.0" stroke-linejoin="round" stroke-linecap="butt" d="m128.94826 227.82808l0 0c0 -15.655304 12.761642 -28.34645 28.503937 -28.34645l0 0c7.5597076 0 14.809799 2.986496 20.15532 8.30249c5.34552 5.315979 8.348618 12.526016 8.348618 20.04396l0 0c0 15.655319 -12.761658 28.34645 -28.503937 28.34645l0 0c-15.742294 0 -28.503937 -12.691132 -28.503937 -28.34645z" fill-rule="evenodd"/><path fill="#000000" d="m161.54558 224.66995l-1.625 0.125q-0.21875 -0.96875 -0.625 -1.40625q-0.65625 -0.703125 -1.640625 -0.703125q-0.78125 0 -1.375 0.4375q-0.765625 0.5625 -1.21875 1.65625q-0.453125 1.078125 -0.46875 3.078125q0.59375 -0.890625 1.453125 -1.328125q0.859375 -0.4375 1.796875 -0.4375q1.640625 0 2.78125 1.203125q1.15625 1.203125 1.15625 3.109375q0 1.265625 -0.546875 2.34375q-0.53125 1.078125 -1.484375 1.65625q-0.9375 0.578125 -2.140625 0.578125q-2.0625 0 -3.359375 -1.5q-1.28125 -1.515625 -1.28125 -4.984375q0 -3.875 1.421875 -5.625q1.25 -1.53125 3.375 -1.53125q1.5625 0 2.5625 0.890625q1.015625 0.875 1.21875 2.4375zm-6.6875 5.75q0 0.84375 0.359375 1.625q0.359375 0.765625 1.0 1.171875q0.640625 0.40625 1.359375 0.40625q1.03125 0 1.78125 -0.828125q0.75 -0.84375 0.75 -2.28125q0 -1.390625 -0.734375 -2.1875q-0.734375 -0.796875 -1.859375 -0.796875q-1.109375 0 -1.890625 0.796875q-0.765625 0.796875 -0.765625 2.09375z" fill-rule="nonzero"/><path fill="#000000" fill-opacity="0.0" d="m14.92497 227.82808l0 0c0 -15.655304 12.761647 -28.34645 28.503937 -28.34645l0 0c7.5597153 0 14.809803 2.986496 20.155327 8.30249c5.345524 5.315979 8.348614 12.526016 8.348614 20.04396l0 0c0 15.655319 -12.76165 28.34645 -28.50394 28.34645l0 0c-15.742289 0 -28.503937 -12.691132 -28.503937 -28.34645z" fill-rule="evenodd"/><path stroke="#000000" stroke-width="1.0" stroke-linejoin="round" stroke-linecap="butt" d="m14.92497 227.82808l0 0c0 -15.655304 12.761647 -28.34645 28.503937 -28.34645l0 0c7.5597153 0 14.809803 2.986496 20.155327 8.30249c5.345524 5.315979 8.348614 12.526016 8.348614 20.04396l0 0c0 15.655319 -12.76165 28.34645 -28.50394 28.34645l0 0c-15.742289 0 -28.503937 -12.691132 -28.503937 -28.34645z" fill-rule="evenodd"/><path fill="#000000" d="m47.63167 233.16995l0 1.578125l-8.828125 0q-0.015625 -0.59375 0.1875 -1.140625q0.34375 -0.90625 1.078125 -1.78125q0.75 -0.875 2.15625 -2.015625q2.171875 -1.78125 2.9375 -2.828125q0.765625 -1.046875 0.765625 -1.96875q0 -0.984375 -0.703125 -1.640625q-0.6875 -0.671875 -1.8125 -0.671875q-1.1875 0 -1.90625 0.71875q-0.703125 0.703125 -0.703125 1.953125l-1.6875 -0.171875q0.171875 -1.890625 1.296875 -2.875q1.140625 -0.984375 3.03125 -0.984375q1.921875 0 3.046875 1.0625q1.125 1.0625 1.125 2.640625q0 0.796875 -0.328125 1.578125q-0.328125 0.78125 -1.09375 1.640625q-0.75 0.84375 -2.53125 2.34375q-1.46875 1.234375 -1.890625 1.6875q-0.421875 0.4375 -0.6875 0.875l6.546875 0z" fill-rule="nonzero"/><path fill="#000000" fill-opacity="0.0" d="m71.93661 322.3924l0 0c0 -15.655334 12.76165 -28.346466 28.503937 -28.346466l0 0c7.5597153 0 14.809807 2.9864807 20.155327 8.30249c5.3455276 5.315979 8.348618 12.5260315 8.348618 20.043976l0 0c0 15.655304 -12.76165 28.346436 -28.503944 28.346436l0 0c-15.742287 0 -28.503937 -12.691132 -28.503937 -28.346436z" fill-rule="evenodd"/><path stroke="#000000" stroke-width="1.0" stroke-linejoin="round" stroke-linecap="butt" d="m71.93661 322.3924l0 0c0 -15.655334 12.76165 -28.346466 28.503937 -28.346466l0 0c7.5597153 0 14.809807 2.9864807 20.155327 8.30249c5.3455276 5.315979 8.348618 12.5260315 8.348618 20.043976l0 0c0 15.655304 -12.76165 28.346436 -28.503944 28.346436l0 0c-15.742287 0 -28.503937 -12.691132 -28.503937 -28.346436z" fill-rule="evenodd"/><path fill="#000000" d="m96.033936 325.78113l1.640625 -0.21875q0.28125 1.40625 0.953125 2.015625q0.6875 0.609375 1.65625 0.609375q1.15625 0 1.953125 -0.796875q0.796875 -0.796875 0.796875 -1.984375q0 -1.125 -0.734375 -1.859375q-0.734375 -0.734375 -1.875 -0.734375q-0.46875 0 -1.15625 0.171875l0.1875 -1.4375q0.15625 0.015625 0.265625 0.015625q1.046875 0 1.875 -0.546875q0.84375 -0.546875 0.84375 -1.671875q0 -0.90625 -0.609375 -1.5q-0.609375 -0.59375 -1.578125 -0.59375q-0.953125 0 -1.59375 0.609375q-0.640625 0.59375 -0.8125 1.796875l-1.640625 -0.296875q0.296875 -1.640625 1.359375 -2.546875q1.0625 -0.90625 2.65625 -0.90625q1.09375 0 2.0 0.46875q0.921875 0.46875 1.40625 1.28125q0.5 0.8125 0.5 1.71875q0 0.859375 -0.46875 1.578125q-0.46875 0.703125 -1.375 1.125q1.1875 0.28125 1.84375 1.140625q0.65625 0.859375 0.65625 2.15625q0 1.734375 -1.28125 2.953125q-1.265625 1.21875 -3.21875 1.21875q-1.765625 0 -2.921875 -1.046875q-1.15625 -1.046875 -1.328125 -2.71875z" fill-rule="nonzero"/><path fill="#000000" fill-opacity="0.0" d="m155.29248 62.04791l-54.866142 44.535435" fill-rule="evenodd"/><path stroke="#000000" stroke-width="1.0" stroke-linejoin="round" stroke-linecap="butt" d="m155.29248 62.04791l-54.866142 44.535435" fill-rule="evenodd"/><path fill="#000000" fill-opacity="0.0" d="m195.60313 62.04791l54.866135 44.50394" fill-rule="evenodd"/><path stroke="#000000" stroke-width="1.0" stroke-linejoin="round" stroke-linecap="butt" d="m195.60313 62.04791l54.866135 44.50394" fill-rule="evenodd"/><path fill="#000000" fill-opacity="0.0" d="m120.59719 154.9626l36.850395 44.503937" fill-rule="evenodd"/><path stroke="#000000" stroke-width="1.0" stroke-linejoin="round" stroke-linecap="butt" d="m120.59719 154.9626l36.850395 44.503937" fill-rule="evenodd"/><path fill="#000000" fill-opacity="0.0" d="m80.28654 154.9626l-36.85039 44.503937" fill-rule="evenodd"/><path stroke="#000000" stroke-width="1.0" stroke-linejoin="round" stroke-linecap="butt" d="m80.28654 154.9626l-36.85039 44.503937" fill-rule="evenodd"/><path fill="#000000" fill-opacity="0.0" d="m63.584232 247.87206l36.8504 46.173233" fill-rule="evenodd"/><path stroke="#000000" stroke-width="1.0" stroke-linejoin="round" stroke-linecap="butt" d="m63.584232 247.87206l36.8504 46.173233" fill-rule="evenodd"/><path fill="#000000" fill-opacity="0.0" d="m479.33652 41.889763l0 0c0 -15.655315 12.761627 -28.346455 28.503937 -28.346455l0 0c7.5596924 0 14.809814 2.986493 20.155334 8.302485c5.34552 5.3159904 8.348572 12.526022 8.348572 20.04397l0 0c0 15.655315 -12.761658 28.346458 -28.503906 28.346458l0 0c-15.74231 0 -28.503937 -12.691143 -28.503937 -28.346458z" fill-rule="evenodd"/><path stroke="#000000" stroke-width="1.0" stroke-linejoin="round" stroke-linecap="butt" d="m479.33652 41.889763l0 0c0 -15.655315 12.761627 -28.346455 28.503937 -28.346455l0 0c7.5596924 0 14.809814 2.986493 20.155334 8.302485c5.34552 5.3159904 8.348572 12.526022 8.348572 20.04397l0 0c0 15.655315 -12.761658 28.346458 -28.503906 28.346458l0 0c-15.74231 0 -28.503937 -12.691143 -28.503937 -28.346458z" fill-rule="evenodd"/><path fill="#000000" d="m503.43384 45.30976l1.71875 -0.140625q0.1875 1.25 0.875 1.890625q0.703125 0.625 1.6875 0.625q1.1875 0 2.0 -0.890625q0.828125 -0.890625 0.828125 -2.359375q0 -1.40625 -0.796875 -2.21875q-0.78125 -0.8125 -2.0625 -0.8125q-0.78125 0 -1.421875 0.359375q-0.640625 0.359375 -1.0 0.9375l-1.546875 -0.203125l1.296875 -6.859375l6.640625 0l0 1.5625l-5.328125 0l-0.71875 3.59375q1.203125 -0.84375 2.515625 -0.84375q1.75 0 2.953125 1.21875q1.203125 1.203125 1.203125 3.109375q0 1.8125 -1.046875 3.140625q-1.296875 1.625 -3.515625 1.625q-1.8125 0 -2.96875 -1.015625q-1.15625 -1.03125 -1.3125 -2.71875z" fill-rule="nonzero"/><path fill="#000000" fill-opacity="0.0" d="m386.2518 134.8084l0 0c0 -15.655312 12.761658 -28.34645 28.503937 -28.34645l0 0c7.559723 0 14.809814 2.9864883 20.155334 8.302483c5.34552 5.3159943 8.348602 12.526024 8.348602 20.043968l0 0c0 15.655319 -12.761658 28.346466 -28.503937 28.346466l0 0c-15.742279 0 -28.503937 -12.691147 -28.503937 -28.346466z" fill-rule="evenodd"/><path stroke="#000000" stroke-width="1.0" stroke-linejoin="round" stroke-linecap="butt" d="m386.2518 134.8084l0 0c0 -15.655312 12.761658 -28.34645 28.503937 -28.34645l0 0c7.559723 0 14.809814 2.9864883 20.155334 8.302483c5.34552 5.3159943 8.348602 12.526024 8.348602 20.043968l0 0c0 15.655319 -12.761658 28.346466 -28.503937 28.346466l0 0c-15.742279 0 -28.503937 -12.691147 -28.503937 -28.346466z" fill-rule="evenodd"/><path fill="#000000" d="m418.9585 140.15027l0 1.578125l-8.828125 0q-0.015625 -0.59375 0.1875 -1.140625q0.34375 -0.90625 1.078125 -1.78125q0.75 -0.875 2.15625 -2.015625q2.171875 -1.78125 2.9375 -2.828125q0.765625 -1.046875 0.765625 -1.96875q0 -0.984375 -0.703125 -1.640625q-0.6875 -0.671875 -1.8125 -0.671875q-1.1875 0 -1.90625 0.71875q-0.703125 0.703125 -0.703125 1.953125l-1.6875 -0.171875q0.171875 -1.890625 1.296875 -2.875q1.140625 -0.984375 3.03125 -0.984375q1.921875 0 3.046875 1.0625q1.125 1.0625 1.125 2.640625q0 0.796875 -0.328125 1.578125q-0.328125 0.78125 -1.09375 1.640625q-0.75 0.84375 -2.53125 2.34375q-1.46875 1.234375 -1.890625 1.6875q-0.421875 0.4375 -0.6875 0.875l6.546875 0z" fill-rule="nonzero"/><path fill="#000000" fill-opacity="0.0" d="m572.4212 134.8084l0 0c0 -15.655312 12.761658 -28.34645 28.503906 -28.34645l0 0c7.5597534 0 14.809814 2.9864883 20.155334 8.302483c5.34552 5.3159943 8.348633 12.526024 8.348633 20.043968l0 0c0 15.655319 -12.761658 28.346466 -28.503967 28.346466l0 0c-15.742249 0 -28.503906 -12.691147 -28.503906 -28.346466z" fill-rule="evenodd"/><path stroke="#000000" stroke-width="1.0" stroke-linejoin="round" stroke-linecap="butt" d="m572.4212 134.8084l0 0c0 -15.655312 12.761658 -28.34645 28.503906 -28.34645l0 0c7.5597534 0 14.809814 2.9864883 20.155334 8.302483c5.34552 5.3159943 8.348633 12.526024 8.348633 20.043968l0 0c0 15.655319 -12.761658 28.346466 -28.503967 28.346466l0 0c-15.742249 0 -28.503906 -12.691147 -28.503906 -28.346466z" fill-rule="evenodd"/><path fill="#000000" d="m599.0342 134.49402q-1.015625 -0.375 -1.515625 -1.0625q-0.484375 -0.703125 -0.484375 -1.671875q0 -1.453125 1.046875 -2.4375q1.046875 -1.0 2.78125 -1.0q1.75 0 2.8125 1.015625q1.078125 1.015625 1.078125 2.46875q0 0.9375 -0.5 1.625q-0.484375 0.6875 -1.46875 1.0625q1.21875 0.390625 1.859375 1.28125q0.65625 0.890625 0.65625 2.140625q0 1.703125 -1.21875 2.875q-1.21875 1.171875 -3.1875 1.171875q-1.984375 0 -3.203125 -1.171875q-1.203125 -1.171875 -1.203125 -2.921875q0 -1.3125 0.65625 -2.1875q0.671875 -0.875 1.890625 -1.1875zm-0.328125 -2.78125q0 0.9375 0.609375 1.546875q0.609375 0.59375 1.59375 0.59375q0.9375 0 1.546875 -0.59375q0.609375 -0.59375 0.609375 -1.453125q0 -0.90625 -0.625 -1.515625q-0.625 -0.625 -1.5625 -0.625q-0.9375 0 -1.5625 0.609375q-0.609375 0.59375 -0.609375 1.4375zm-0.53125 6.15625q0 0.703125 0.328125 1.359375q0.34375 0.65625 1.0 1.015625q0.65625 0.359375 1.40625 0.359375q1.171875 0 1.9375 -0.75q0.765625 -0.75 0.765625 -1.921875q0 -1.1875 -0.796875 -1.953125q-0.78125 -0.78125 -1.953125 -0.78125q-1.15625 0 -1.921875 0.765625q-0.765625 0.765625 -0.765625 1.90625z" fill-rule="nonzero"/><path fill="#000000" fill-opacity="0.0" d="m515.40955 227.71129l0 0c0 -15.655319 12.761658 -28.346466 28.503967 -28.346466l0 0c7.5596924 0 14.809814 2.986496 20.155334 8.30249c5.34552 5.3159943 8.348572 12.5260315 8.348572 20.043976l0 0c0 15.655319 -12.761658 28.34645 -28.503906 28.34645l0 0c-15.74231 0 -28.503967 -12.691132 -28.503967 -28.34645z" fill-rule="evenodd"/><path stroke="#000000" stroke-width="1.0" stroke-linejoin="round" stroke-linecap="butt" d="m515.40955 227.71129l0 0c0 -15.655319 12.761658 -28.346466 28.503967 -28.346466l0 0c7.5596924 0 14.809814 2.986496 20.155334 8.30249c5.34552 5.3159943 8.348572 12.5260315 8.348572 20.043976l0 0c0 15.655319 -12.761658 28.34645 -28.503906 28.34645l0 0c-15.74231 0 -28.503967 -12.691132 -28.503967 -28.34645z" fill-rule="evenodd"/><path fill="#000000" d="m548.0069 224.55316l-1.625 0.125q-0.21875 -0.96875 -0.625 -1.40625q-0.65625 -0.703125 -1.640625 -0.703125q-0.78125 0 -1.375 0.4375q-0.765625 0.5625 -1.21875 1.65625q-0.453125 1.078125 -0.46875 3.078125q0.59375 -0.890625 1.453125 -1.328125q0.859375 -0.4375 1.796875 -0.4375q1.640625 0 2.78125 1.203125q1.15625 1.203125 1.15625 3.109375q0 1.265625 -0.546875 2.34375q-0.53125 1.078125 -1.484375 1.65625q-0.9375 0.578125 -2.140625 0.578125q-2.0625 0 -3.359375 -1.5q-1.28125 -1.515625 -1.28125 -4.984375q0 -3.875 1.421875 -5.625q1.25 -1.53125 3.375 -1.53125q1.5625 0 2.5625 0.890625q1.015625 0.875 1.21875 2.4375zm-6.6875 5.75q0 0.84375 0.359375 1.625q0.359375 0.765625 1.0 1.171875q0.640625 0.40625 1.359375 0.40625q1.03125 0 1.78125 -0.828125q0.75 -0.84375 0.75 -2.28125q0 -1.390625 -0.734375 -2.1875q-0.734375 -0.796875 -1.859375 -0.796875q-1.109375 0 -1.890625 0.796875q-0.765625 0.796875 -0.765625 2.09375z" fill-rule="nonzero"/><path fill="#000000" fill-opacity="0.0" d="m629.43286 227.71129l0 0c0 -15.655319 12.761597 -28.346466 28.503906 -28.346466l0 0c7.5597534 0 14.809814 2.986496 20.155334 8.30249c5.34552 5.3159943 8.348633 12.5260315 8.348633 20.043976l0 0c0 15.655319 -12.761658 28.34645 -28.503967 28.34645l0 0c-15.74231 0 -28.503906 -12.691132 -28.503906 -28.34645z" fill-rule="evenodd"/><path stroke="#000000" stroke-width="1.0" stroke-linejoin="round" stroke-linecap="butt" d="m629.43286 227.71129l0 0c0 -15.655319 12.761597 -28.346466 28.503906 -28.346466l0 0c7.5597534 0 14.809814 2.986496 20.155334 8.30249c5.34552 5.3159943 8.348633 12.5260315 8.348633 20.043976l0 0c0 15.655319 -12.761658 28.34645 -28.503967 28.34645l0 0c-15.74231 0 -28.503906 -12.691132 -28.503906 -28.34645z" fill-rule="evenodd"/><path fill="#000000" d="m653.7645 231.53754l1.578125 -0.140625q0.203125 1.109375 0.765625 1.609375q0.5625 0.5 1.453125 0.5q0.75 0 1.3125 -0.34375q0.578125 -0.34375 0.9375 -0.921875q0.375 -0.578125 0.609375 -1.5625q0.25 -0.984375 0.25 -2.0q0 -0.109375 0 -0.328125q-0.5 0.78125 -1.359375 1.265625q-0.84375 0.484375 -1.828125 0.484375q-1.671875 0 -2.8125 -1.203125q-1.140625 -1.203125 -1.140625 -3.171875q0 -2.03125 1.1875 -3.265625q1.203125 -1.234375 3.0 -1.234375q1.3125 0 2.390625 0.703125q1.078125 0.703125 1.640625 2.0q0.5625 1.296875 0.5625 3.75q0 2.5625 -0.5625 4.078125q-0.5625 1.515625 -1.65625 2.3125q-1.09375 0.796875 -2.578125 0.796875q-1.5625 0 -2.5625 -0.875q-0.984375 -0.875 -1.1875 -2.453125zm6.71875 -5.890625q0 -1.40625 -0.75 -2.234375q-0.75 -0.828125 -1.8125 -0.828125q-1.09375 0 -1.90625 0.890625q-0.8125 0.890625 -0.8125 2.3125q0 1.28125 0.765625 2.078125q0.78125 0.796875 1.90625 0.796875q1.140625 0 1.875 -0.796875q0.734375 -0.796875 0.734375 -2.21875z" fill-rule="nonzero"/><path fill="#000000" fill-opacity="0.0" d="m443.26343 227.71129l0 0c0 -15.655319 12.761658 -28.346466 28.503937 -28.346466l0 0c7.559723 0 14.809814 2.986496 20.155334 8.30249c5.34552 5.3159943 8.348633 12.5260315 8.348633 20.043976l0 0c0 15.655319 -12.761658 28.34645 -28.503967 28.34645l0 0c-15.742279 0 -28.503937 -12.691132 -28.503937 -28.34645z" fill-rule="evenodd"/><path stroke="#000000" stroke-width="1.0" stroke-linejoin="round" stroke-linecap="butt" d="m443.26343 227.71129l0 0c0 -15.655319 12.761658 -28.346466 28.503937 -28.346466l0 0c7.559723 0 14.809814 2.986496 20.155334 8.30249c5.34552 5.3159943 8.348633 12.5260315 8.348633 20.043976l0 0c0 15.655319 -12.761658 28.34645 -28.503967 28.34645l0 0c-15.742279 0 -28.503937 -12.691132 -28.503937 -28.34645z" fill-rule="evenodd"/><path fill="#000000" d="m467.36078 231.10004l1.640625 -0.21875q0.28125 1.40625 0.953125 2.015625q0.6875 0.609375 1.65625 0.609375q1.15625 0 1.953125 -0.796875q0.796875 -0.796875 0.796875 -1.984375q0 -1.125 -0.734375 -1.859375q-0.734375 -0.734375 -1.875 -0.734375q-0.46875 0 -1.15625 0.171875l0.1875 -1.4375q0.15625 0.015625 0.265625 0.015625q1.046875 0 1.875 -0.546875q0.84375 -0.546875 0.84375 -1.671875q0 -0.90625 -0.609375 -1.5q-0.609375 -0.59375 -1.578125 -0.59375q-0.953125 0 -1.59375 0.609375q-0.640625 0.59375 -0.8125 1.796875l-1.640625 -0.296875q0.296875 -1.640625 1.359375 -2.546875q1.0625 -0.90625 2.65625 -0.90625q1.09375 0 2.0 0.46875q0.921875 0.46875 1.40625 1.28125q0.5 0.8125 0.5 1.71875q0 0.859375 -0.46875 1.578125q-0.46875 0.703125 -1.375 1.125q1.1875 0.28125 1.84375 1.140625q0.65625 0.859375 0.65625 2.15625q0 1.734375 -1.28125 2.953125q-1.265625 1.21875 -3.21875 1.21875q-1.765625 0 -2.921875 -1.046875q-1.15625 -1.046875 -1.328125 -2.71875z" fill-rule="nonzero"/><path fill="#000000" fill-opacity="0.0" d="m487.68512 61.933735l-52.787415 52.818897" fill-rule="evenodd"/><path stroke="#000000" stroke-width="1.0" stroke-linejoin="round" stroke-linecap="butt" d="m487.68512 61.933735l-52.787415 52.818897" fill-rule="evenodd"/><path fill="#000000" fill-opacity="0.0" d="m527.9958 61.933735l52.787354 52.818897" fill-rule="evenodd"/><path stroke="#000000" stroke-width="1.0" stroke-linejoin="round" stroke-linecap="butt" d="m527.9958 61.933735l52.787354 52.818897" fill-rule="evenodd"/><path fill="#000000" fill-opacity="0.0" d="m434.91107 154.85237l36.850403 44.503937" fill-rule="evenodd"/><path stroke="#000000" stroke-width="1.0" stroke-linejoin="round" stroke-linecap="butt" d="m434.91107 154.85237l36.850403 44.503937" fill-rule="evenodd"/><path fill="#000000" fill-opacity="0.0" d="m543.9135 199.36482l36.850403 -44.503937" fill-rule="evenodd"/><path stroke="#000000" stroke-width="1.0" stroke-linejoin="round" stroke-linecap="butt" d="m543.9135 199.36482l36.850403 -44.503937" fill-rule="evenodd"/><path fill="#000000" fill-opacity="0.0" d="m621.08044 154.85237l36.850403 44.503937" fill-rule="evenodd"/><path stroke="#000000" stroke-width="1.0" stroke-linejoin="round" stroke-linecap="butt" d="m621.08044 154.85237l36.850403 44.503937" fill-rule="evenodd"/><path fill="#000000" fill-opacity="0.0" d="m287.7386 172.28871l63.322845 0l0 -13.204727l26.409424 26.409454l-26.409424 26.409454l0 -13.204727l-63.322845 0z" fill-rule="evenodd"/><path stroke="#000000" stroke-width="1.0" stroke-linejoin="round" stroke-linecap="butt" d="m287.7386 172.28871l63.322845 0l0 -13.204727l26.409424 26.409454l-26.409424 26.409454l0 -13.204727l-63.322845 0z" fill-rule="evenodd"/><path fill="#000000" fill-opacity="0.0" d="m6.5284977 5.995814l276.7559 0l0 359.9685l-276.7559 0z" fill-rule="evenodd"/><path stroke="#ff0000" stroke-width="2.0" stroke-linejoin="round" stroke-linecap="butt" stroke-dasharray="8.0,6.0" d="m6.5284977 5.995814l276.7559 0l0 359.9685l-276.7559 0z" fill-rule="evenodd"/><path fill="#000000" fill-opacity="0.0" d="m10.126002 96.727036l180.62991 0l0 262.2047l-180.62991 0z" fill-rule="evenodd"/><path stroke="#0000ff" stroke-width="2.0" stroke-linejoin="round" stroke-linecap="butt" stroke-dasharray="8.0,6.0" d="m10.126002 96.727036l180.62991 0l0 262.2047l-180.62991 0z" fill-rule="evenodd"/><path fill="#000000" fill-opacity="0.0" d="m80.40945 142.58792l40.88189 0l0 20.56694l-40.88189 0z" fill-rule="evenodd"/><path fill="#0000ff" d="m87.26808 155.82793l0 -7.625l2.859375 0q0.875 0 1.40625 0.234375q0.53125 0.21875 0.828125 0.703125q0.296875 0.484375 0.296875 1.015625q0 0.484375 -0.265625 0.921875q-0.265625 0.421875 -0.796875 0.6875q0.6875 0.203125 1.0625 0.703125q0.375 0.484375 0.375 1.140625q0 0.546875 -0.234375 1.015625q-0.21875 0.453125 -0.5625 0.703125q-0.328125 0.25 -0.828125 0.375q-0.5 0.125 -1.234375 0.125l-2.90625 0zm1.015625 -4.421875l1.640625 0q0.671875 0 0.96875 -0.09375q0.375 -0.109375 0.5625 -0.375q0.203125 -0.265625 0.203125 -0.671875q0 -0.375 -0.1875 -0.65625q-0.171875 -0.296875 -0.515625 -0.40625q-0.328125 -0.109375 -1.15625 -0.109375l-1.515625 0l0 2.3125zm0 3.515625l1.890625 0q0.484375 0 0.6875 -0.03125q0.34375 -0.0625 0.578125 -0.203125q0.234375 -0.15625 0.390625 -0.421875q0.15625 -0.28125 0.15625 -0.65625q0 -0.421875 -0.21875 -0.734375q-0.21875 -0.3125 -0.609375 -0.4375q-0.390625 -0.125 -1.125 -0.125l-1.75 0l0 2.609375zm6.1857605 0.90625l0 -7.625l5.140625 0l0 0.890625l-4.125 0l0 2.375l3.578125 0l0 0.890625l-3.578125 0l0 3.46875l-1.015625 0zm11.266785 -1.234375l0 -2.09375l-2.078125 0l0 -0.875l2.078125 0l0 -2.078125l0.875 0l0 2.078125l2.078125 0l0 0.875l-2.078125 0l0 2.09375l-0.875 0zm7.5199585 1.234375l-0.9375 0l0 -5.96875q-0.34375 0.328125 -0.890625 0.65625q-0.546875 0.3125 -0.984375 0.46875l0 -0.90625q0.796875 -0.359375 1.375 -0.890625q0.59375 -0.53125 0.828125 -1.015625l0.609375 0l0 7.65625z" fill-rule="nonzero"/><path fill="#000000" fill-opacity="0.0" d="m155.00787 49.669292l40.881897 0l0 20.566929l-40.881897 0z" fill-rule="evenodd"/><path fill="#ff0000" d="m161.8665 62.90929l0 -7.625l2.859375 0q0.875 0 1.40625 0.234375q0.53125 0.21875 0.828125 0.703125q0.296875 0.484375 0.296875 1.015625q0 0.484375 -0.265625 0.921875q-0.265625 0.421875 -0.796875 0.6875q0.6875 0.203125 1.0625 0.703125q0.375 0.484375 0.375 1.140625q0 0.546875 -0.234375 1.015625q-0.21875 0.453125 -0.5625 0.703125q-0.328125 0.25 -0.828125 0.375q-0.5 0.125 -1.234375 0.125l-2.90625 0zm1.015625 -4.421875l1.640625 0q0.671875 0 0.96875 -0.09375q0.375 -0.109375 0.5625 -0.375q0.203125 -0.265625 0.203125 -0.671875q0 -0.375 -0.1875 -0.65625q-0.171875 -0.296875 -0.515625 -0.40625q-0.328125 -0.109375 -1.15625 -0.109375l-1.515625 0l0 2.3125zm0 3.515625l1.890625 0q0.484375 0 0.6875 -0.03125q0.34375 -0.0625 0.578125 -0.203125q0.234375 -0.15625 0.390625 -0.421875q0.15625 -0.28125 0.15625 -0.65625q0 -0.421875 -0.21875 -0.734375q-0.21875 -0.3125 -0.609375 -0.4375q-0.390625 -0.125 -1.125 -0.125l-1.75 0l0 2.609375zm6.1857605 0.90625l0 -7.625l5.140625 0l0 0.890625l-4.125 0l0 2.375l3.578125 0l0 0.890625l-3.578125 0l0 3.46875l-1.015625 0zm11.266785 -1.234375l0 -2.09375l-2.078125 0l0 -0.875l2.078125 0l0 -2.078125l0.875 0l0 2.078125l2.078125 0l0 0.875l-2.078125 0l0 2.09375l-0.875 0zm8.9105835 0.328125l0 0.90625l-5.03125 0q-0.015625 -0.34375 0.109375 -0.65625q0.1875 -0.515625 0.609375 -1.015625q0.421875 -0.5 1.234375 -1.140625q1.234375 -1.03125 1.671875 -1.625q0.4375 -0.59375 0.4375 -1.125q0 -0.5625 -0.40625 -0.9375q-0.390625 -0.390625 -1.03125 -0.390625q-0.671875 0 -1.078125 0.40625q-0.40625 0.40625 -0.40625 1.125l-0.96875 -0.09375q0.09375 -1.078125 0.734375 -1.640625q0.65625 -0.5625 1.734375 -0.5625q1.109375 0 1.75 0.609375q0.640625 0.609375 0.640625 1.5q0 0.46875 -0.1875 0.90625q-0.1875 0.4375 -0.625 0.9375q-0.4375 0.484375 -1.453125 1.328125q-0.828125 0.71875 -1.078125 0.96875q-0.234375 0.25 -0.390625 0.5l3.734375 0z" fill-rule="nonzero"/></g></svg>