<svg version="1.1" viewBox="0.0 0.0 415.8241469816273 276.9685039370079" fill="none" stroke="none" stroke-linecap="square" stroke-miterlimit="10" xmlns:xlink="http://www.w3.org/1999/xlink" xmlns="http://www.w3.org/2000/svg"><clipPath id="p.0"><path d="m0 0l415.82416 0l0 276.9685l-415.82416 0l0 -276.9685z" clip-rule="nonzero"/></clipPath><g clip-path="url(#p.0)"><path fill="#000000" fill-opacity="0.0" d="m0 0l415.82416 0l0 276.9685l-415.82416 0z" fill-rule="evenodd"/><path fill="#000000" fill-opacity="0.0" d="m178.2454 36.719162l0 0c0 -15.655317 12.691147 -28.346458 28.34645 -28.346458l0 0c7.5179596 0 14.727982 2.986493 20.043976 8.3024845c5.3159943 5.3159924 8.30249 12.526024 8.30249 20.043974l0 0c0 15.655315 -12.691147 28.346458 -28.346466 28.346458l0 0c-15.655304 0 -28.34645 -12.691143 -28.34645 -28.346458z" fill-rule="evenodd"/><path stroke="#000000" stroke-width="1.0" stroke-linejoin="round" stroke-linecap="butt" d="m178.2454 36.719162l0 0c0 -15.655317 12.691147 -28.346458 28.34645 -28.346458l0 0c7.5179596 0 14.727982 2.986493 20.043976 8.3024845c5.3159943 5.3159924 8.30249 12.526024 8.30249 20.043974l0 0c0 15.655315 -12.691147 28.346458 -28.346466 28.346458l0 0c-15.655304 0 -28.34645 -12.691143 -28.34645 -28.346458z" fill-rule="evenodd"/><path fill="#000000" d="m202.41963 40.54541l1.578125 -0.140625q0.203125 1.109375 0.765625 1.609375q0.5625 0.5 1.453125 0.5q0.75 0 1.3125 -0.34375q0.578125 -0.34375 0.9375 -0.921875q0.375 -0.578125 0.609375 -1.5625q0.25 -0.984375 0.25 -2.0q0 -0.109375 0 -0.328125q-0.5 0.78125 -1.359375 1.265625q-0.84375 0.484375 -1.828125 0.484375q-1.671875 0 -2.8125 -1.203125q-1.140625 -1.203125 -1.140625 -3.171875q0 -2.03125 1.1875 -3.265627q1.203125 -1.234375 3.0 -1.234375q1.3125 0 2.390625 0.703125q1.078125 0.703125 1.640625 2.000002q0.5625 1.296875 0.5625 3.75q0 2.5625 -0.5625 4.078125q-0.5625 1.515625 -1.65625 2.3125q-1.09375 0.796875 -2.578125 0.796875q-1.5625 0 -2.5625 -0.875q-0.984375 -0.875 -1.1875 -2.453125zm6.71875 -5.890625q0 -1.40625 -0.75 -2.234375q-0.75 -0.8281269 -1.8125 -0.8281269q-1.09375 0 -1.90625 0.8906269q-0.8125 0.890625 -0.8125 2.3125q0 1.28125 0.765625 2.078125q0.78125 0.796875 1.90625 0.796875q1.140625 0 1.875 -0.796875q0.734375 -0.796875 0.734375 -2.21875z" fill-rule="nonzero"/><path fill="#000000" fill-opacity="0.0" d="m291.63123 128.9029l0 0c0 -15.655319 12.691162 -28.346466 28.346466 -28.346466l0 0c7.5179443 0 14.727966 2.986496 20.043976 8.30249c5.315979 5.3159866 8.30249 12.526024 8.30249 20.043976l0 0c0 15.655304 -12.691162 28.34645 -28.346466 28.34645l0 0c-15.655304 0 -28.346466 -12.691147 -28.346466 -28.34645z" fill-rule="evenodd"/><path stroke="#000000" stroke-width="1.0" stroke-linejoin="round" stroke-linecap="butt" d="m291.63123 128.9029l0 0c0 -15.655319 12.691162 -28.346466 28.346466 -28.346466l0 0c7.5179443 0 14.727966 2.986496 20.043976 8.30249c5.315979 5.3159866 8.30249 12.526024 8.30249 20.043976l0 0c0 15.655304 -12.691162 28.34645 -28.346466 28.34645l0 0c-15.655304 0 -28.346466 -12.691147 -28.346466 -28.34645z" fill-rule="evenodd"/><path fill="#000000" d="m316.55508 135.82289l-1.640625 0l0 -10.453133q-0.59375 0.5625 -1.5625 1.140625q-0.953125 0.5625 -1.71875 0.84375l0 -1.59375q1.375 -0.640625 2.40625 -1.5625q1.03125 -0.921875 1.453125 -1.78125l1.0625 0l0 13.406258zm4.2038574 -3.53125l1.640625 -0.21875q0.28125 1.40625 0.953125 2.015625q0.6875 0.609375 1.65625 0.609375q1.15625 0 1.953125 -0.796875q0.796875 -0.796875 0.796875 -1.984375q0 -1.125 -0.734375 -1.859375q-0.734375 -0.734375 -1.875 -0.734375q-0.46875 0 -1.15625 0.171875l0.1875 -1.4375q0.15625 0.015625 0.265625 0.015625q1.046875 0 1.875 -0.5468826q0.84375 -0.546875 0.84375 -1.671875q0 -0.90625 -0.609375 -1.5q-0.609375 -0.59375 -1.578125 -0.59375q-0.953125 0 -1.59375 0.609375q-0.640625 0.59375 -0.8125 1.796875l-1.640625 -0.296875q0.296875 -1.640625 1.359375 -2.546875q1.0625 -0.90625 2.65625 -0.90625q1.09375 0 2.0 0.46875q0.921875 0.46875 1.40625 1.28125q0.5 0.8125 0.5 1.71875q0 0.859375 -0.46875 1.578125q-0.46875 0.7031326 -1.375 1.1250076q1.1875 0.28125 1.84375 1.140625q0.65625 0.859375 0.65625 2.15625q0 1.734375 -1.28125 2.953125q-1.265625 1.21875 -3.21875 1.21875q-1.765625 0 -2.921875 -1.046875q-1.15625 -1.046875 -1.328125 -2.71875z" fill-rule="nonzero"/><path fill="#000000" fill-opacity="0.0" d="m234.93832 221.08661l0 0c0 -15.655304 12.691132 -28.34645 28.346466 -28.34645l0 0c7.5179443 0 14.727966 2.986496 20.043945 8.30249c5.3160095 5.315979 8.30249 12.526016 8.30249 20.04396l0 0c0 15.655319 -12.691132 28.346466 -28.346436 28.346466l0 0c-15.655334 0 -28.346466 -12.691147 -28.346466 -28.346466z" fill-rule="evenodd"/><path stroke="#000000" stroke-width="1.0" stroke-linejoin="round" stroke-linecap="butt" d="m234.93832 221.08661l0 0c0 -15.655304 12.691132 -28.34645 28.346466 -28.34645l0 0c7.5179443 0 14.727966 2.986496 20.043945 8.30249c5.3160095 5.315979 8.30249 12.526016 8.30249 20.04396l0 0c0 15.655319 -12.691132 28.346466 -28.346436 28.346466l0 0c-15.655334 0 -28.346466 -12.691147 -28.346466 -28.346466z" fill-rule="evenodd"/><path fill="#000000" d="m259.86218 228.0066l-1.640625 0l0 -10.453125q-0.59375 0.5625 -1.5625 1.140625q-0.953125 0.5625 -1.71875 0.84375l0 -1.59375q1.375 -0.640625 2.40625 -1.5625q1.03125 -0.921875 1.453125 -1.78125l1.0625 0l0 13.40625zm4.2038574 -6.59375q0 -2.359375 0.484375 -3.796875q0.484375 -1.453125 1.4375 -2.234375q0.96875 -0.78125 2.421875 -0.78125q1.078125 0 1.890625 0.4375q0.8125 0.421875 1.328125 1.25q0.53125 0.8125 0.828125 1.984375q0.3125 1.15625 0.3125 3.140625q0 2.359375 -0.484375 3.8125q-0.484375 1.4375 -1.453125 2.234375q-0.953125 0.78125 -2.421875 0.78125q-1.921875 0 -3.03125 -1.390625q-1.3125 -1.671875 -1.3125 -5.4375zm1.671875 0q0 3.296875 0.765625 4.390625q0.78125 1.078125 1.90625 1.078125q1.140625 0 1.90625 -1.09375q0.765625 -1.09375 0.765625 -4.375q0 -3.296875 -0.765625 -4.375q-0.765625 -1.078125 -1.921875 -1.078125q-1.125 0 -1.796875 0.953125q-0.859375 1.21875 -0.859375 4.5z" fill-rule="nonzero"/><path fill="#000000" fill-opacity="0.0" d="m348.32416 221.08661l0 0c0 -15.655304 12.691132 -28.34645 28.346436 -28.34645l0 0c7.5179443 0 14.727997 2.986496 20.043976 8.30249c5.3160095 5.315979 8.30249 12.526016 8.30249 20.04396l0 0c0 15.655319 -12.691132 28.346466 -28.346466 28.346466l0 0c-15.655304 0 -28.346436 -12.691147 -28.346436 -28.346466z" fill-rule="evenodd"/><path stroke="#000000" stroke-width="1.0" stroke-linejoin="round" stroke-linecap="butt" d="m348.32416 221.08661l0 0c0 -15.655304 12.691132 -28.34645 28.346436 -28.34645l0 0c7.5179443 0 14.727997 2.986496 20.043976 8.30249c5.3160095 5.315979 8.30249 12.526016 8.30249 20.04396l0 0c0 15.655319 -12.691132 28.346466 -28.346466 28.346466l0 0c-15.655304 0 -28.346436 -12.691147 -28.346436 -28.346466z" fill-rule="evenodd"/><path fill="#000000" d="m375.68552 226.42848l0 1.578125l-8.828125 0q-0.015625 -0.59375 0.1875 -1.140625q0.34375 -0.90625 1.078125 -1.78125q0.75 -0.875 2.15625 -2.015625q2.171875 -1.78125 2.9375 -2.828125q0.765625 -1.046875 0.765625 -1.96875q0 -0.984375 -0.703125 -1.640625q-0.6875 -0.671875 -1.8125 -0.671875q-1.1875 0 -1.90625 0.71875q-0.703125 0.703125 -0.703125 1.953125l-1.6875 -0.171875q0.171875 -1.890625 1.296875 -2.875q1.140625 -0.984375 3.03125 -0.984375q1.921875 0 3.046875 1.0625q1.125 1.0625 1.125 2.640625q0 0.796875 -0.328125 1.578125q-0.328125 0.78125 -1.09375 1.640625q-0.75 0.84375 -2.53125 2.34375q-1.46875 1.234375 -1.890625 1.6875q-0.421875 0.4375 -0.6875 0.875l6.546875 0zm1.7663269 -1.921875l1.71875 -0.140625q0.1875 1.25 0.875 1.890625q0.703125 0.625 1.6875 0.625q1.1875 0 2.0 -0.890625q0.828125 -0.890625 0.828125 -2.359375q0 -1.40625 -0.796875 -2.21875q-0.78125 -0.8125 -2.0625 -0.8125q-0.78125 0 -1.421875 0.359375q-0.640625 0.359375 -1.0 0.9375l-1.546875 -0.203125l1.296875 -6.859375l6.640625 0l0 1.5625l-5.328125 0l-0.71875 3.59375q1.203125 -0.84375 2.515625 -0.84375q1.75 0 2.953125 1.21875q1.203125 1.203125 1.203125 3.109375q0 1.8125 -1.046875 3.140625q-1.296875 1.625 -3.515625 1.625q-1.8125 0 -2.96875 -1.015625q-1.15625 -1.03125 -1.3125 -2.71875z" fill-rule="nonzero"/><path fill="#000000" fill-opacity="0.0" d="m64.85958 128.9029l0 0c0 -15.655319 12.691139 -28.346466 28.346458 -28.346466l0 0c7.5179443 0 14.727974 2.986496 20.043968 8.30249c5.3159943 5.3159866 8.302483 12.526024 8.302483 20.043976l0 0c0 15.655304 -12.691139 28.34645 -28.34645 28.34645l0 0c-15.655319 0 -28.346458 -12.691147 -28.346458 -28.34645z" fill-rule="evenodd"/><path stroke="#000000" stroke-width="1.0" stroke-linejoin="round" stroke-linecap="butt" d="m64.85958 128.9029l0 0c0 -15.655319 12.691139 -28.346466 28.346458 -28.346466l0 0c7.5179443 0 14.727974 2.986496 20.043968 8.30249c5.3159943 5.3159866 8.302483 12.526024 8.302483 20.043976l0 0c0 15.655304 -12.691139 28.34645 -28.34645 28.34645l0 0c-15.655319 0 -28.346458 -12.691147 -28.346458 -28.34645z" fill-rule="evenodd"/><path fill="#000000" d="m94.04943 135.82289l0 -3.203125l-5.796875 0l0 -1.5l6.09375 -8.656258l1.34375 0l0 8.656258l1.796875 0l0 1.5l-1.796875 0l0 3.203125l-1.640625 0zm0 -4.703125l0 -6.0156326l-4.1875 6.0156326l4.1875 0z" fill-rule="nonzero"/><path fill="#000000" fill-opacity="0.0" d="m8.166667 221.08661l0 0c0 -15.655304 12.69114 -28.34645 28.346455 -28.34645l0 0c7.517948 0 14.727982 2.986496 20.043972 8.30249c5.3159943 5.315979 8.302486 12.526016 8.302486 20.04396l0 0c0 15.655319 -12.691143 28.346466 -28.346458 28.346466l0 0c-15.655315 0 -28.346455 -12.691147 -28.346455 -28.346466z" fill-rule="evenodd"/><path stroke="#000000" stroke-width="1.0" stroke-linejoin="round" stroke-linecap="butt" d="m8.166667 221.08661l0 0c0 -15.655304 12.69114 -28.34645 28.346455 -28.34645l0 0c7.517948 0 14.727982 2.986496 20.043972 8.30249c5.3159943 5.315979 8.302486 12.526016 8.302486 20.04396l0 0c0 15.655319 -12.691143 28.346466 -28.346458 28.346466l0 0c-15.655315 0 -28.346455 -12.691147 -28.346455 -28.346466z" fill-rule="evenodd"/><path fill="#000000" d="m40.71589 226.42848l0 1.578125l-8.828123 0q-0.015625 -0.59375 0.1874981 -1.140625q0.34375 -0.90625 1.078125 -1.78125q0.75 -0.875 2.15625 -2.015625q2.171875 -1.78125 2.9375 -2.828125q0.765625 -1.046875 0.765625 -1.96875q0 -0.984375 -0.703125 -1.640625q-0.6875 -0.671875 -1.8125 -0.671875q-1.1875 0 -1.90625 0.71875q-0.703125 0.703125 -0.703125 1.953125l-1.6875 -0.171875q0.171875 -1.890625 1.296875 -2.875q1.140625 -0.984375 3.03125 -0.984375q1.921875 0 3.046875 1.0625q1.125 1.0625 1.125 2.640625q0 0.796875 -0.328125 1.578125q-0.328125 0.78125 -1.09375 1.640625q-0.75 0.84375 -2.53125 2.34375q-1.46875 1.234375 -1.890625 1.6875q-0.421875 0.4375 -0.6875 0.875l6.546875 0z" fill-rule="nonzero"/><path fill="#000000" fill-opacity="0.0" d="m121.55249 221.08661l0 0c0 -15.655304 12.691147 -28.34645 28.346466 -28.34645l0 0c7.5179443 0 14.727966 2.986496 20.04396 8.30249c5.3159943 5.315979 8.30249 12.526016 8.30249 20.04396l0 0c0 15.655319 -12.691147 28.346466 -28.34645 28.346466l0 0c-15.655319 0 -28.346466 -12.691147 -28.346466 -28.346466z" fill-rule="evenodd"/><path stroke="#000000" stroke-width="1.0" stroke-linejoin="round" stroke-linecap="butt" d="m121.55249 221.08661l0 0c0 -15.655304 12.691147 -28.34645 28.346466 -28.34645l0 0c7.5179443 0 14.727966 2.986496 20.04396 8.30249c5.3159943 5.315979 8.30249 12.526016 8.30249 20.04396l0 0c0 15.655319 -12.691147 28.346466 -28.34645 28.346466l0 0c-15.655319 0 -28.346466 -12.691147 -28.346466 -28.346466z" fill-rule="evenodd"/><path fill="#000000" d="m148.00797 220.77223q-1.015625 -0.375 -1.515625 -1.0625q-0.484375 -0.703125 -0.484375 -1.671875q0 -1.453125 1.046875 -2.4375q1.046875 -1.0 2.78125 -1.0q1.75 0 2.8125 1.015625q1.078125 1.015625 1.078125 2.46875q0 0.9375 -0.5 1.625q-0.484375 0.6875 -1.46875 1.0625q1.21875 0.390625 1.859375 1.28125q0.65625 0.890625 0.65625 2.140625q0 1.703125 -1.21875 2.875q-1.21875 1.171875 -3.1875 1.171875q-1.984375 0 -3.203125 -1.171875q-1.203125 -1.171875 -1.203125 -2.921875q0 -1.3125 0.65625 -2.1875q0.671875 -0.875 1.890625 -1.1875zm-0.328125 -2.78125q0 0.9375 0.609375 1.546875q0.609375 0.59375 1.59375 0.59375q0.9375 0 1.546875 -0.59375q0.609375 -0.59375 0.609375 -1.453125q0 -0.90625 -0.625 -1.515625q-0.625 -0.625 -1.5625 -0.625q-0.9375 0 -1.5625 0.609375q-0.609375 0.59375 -0.609375 1.4375zm-0.53125 6.15625q0 0.703125 0.328125 1.359375q0.34375 0.65625 1.0 1.015625q0.65625 0.359375 1.40625 0.359375q1.171875 0 1.9375 -0.75q0.765625 -0.75 0.765625 -1.921875q0 -1.1875 -0.796875 -1.953125q-0.78125 -0.78125 -1.953125 -0.78125q-1.15625 0 -1.921875 0.765625q-0.765625 0.765625 -0.765625 1.90625z" fill-rule="nonzero"/><path fill="#000000" fill-opacity="0.0" d="m186.5479 56.76313l-73.29134 52.09449" fill-rule="evenodd"/><path stroke="#000000" stroke-width="1.0" stroke-linejoin="round" stroke-linecap="butt" d="m186.5479 56.76313l-73.29134 52.09449" fill-rule="evenodd"/><path fill="#000000" fill-opacity="0.0" d="m226.63583 56.76313l73.29135 52.09449" fill-rule="evenodd"/><path stroke="#000000" stroke-width="1.0" stroke-linejoin="round" stroke-linecap="butt" d="m226.63583 56.76313l73.29135 52.09449" fill-rule="evenodd"/><path fill="#000000" fill-opacity="0.0" d="m299.93372 148.94685l-36.661407 43.779526" fill-rule="evenodd"/><path stroke="#000000" stroke-width="1.0" stroke-linejoin="round" stroke-linecap="butt" d="m299.93372 148.94685l-36.661407 43.779526" fill-rule="evenodd"/><path fill="#000000" fill-opacity="0.0" d="m340.02167 148.94685l36.661407 43.779526" fill-rule="evenodd"/><path stroke="#000000" stroke-width="1.0" stroke-linejoin="round" stroke-linecap="butt" d="m340.02167 148.94685l36.661407 43.779526" fill-rule="evenodd"/><path fill="#000000" fill-opacity="0.0" d="m113.25001 148.94685l36.661415 43.779526" fill-rule="evenodd"/><path stroke="#000000" stroke-width="1.0" stroke-linejoin="round" stroke-linecap="butt" d="m113.25001 148.94685l36.661415 43.779526" fill-rule="evenodd"/><path fill="#000000" fill-opacity="0.0" d="m73.16206 148.94685l-36.661415 43.779526" fill-rule="evenodd"/><path stroke="#000000" stroke-width="1.0" stroke-linejoin="round" stroke-linecap="butt" d="m73.16206 148.94685l-36.661415 43.779526" fill-rule="evenodd"/></g></svg>