<svg version="1.1" viewBox="0.0 0.0 464.3595800524934 224.88451443569554" fill="none" stroke="none" stroke-linecap="square" stroke-miterlimit="10" xmlns:xlink="http://www.w3.org/1999/xlink" xmlns="http://www.w3.org/2000/svg"><clipPath id="p.0"><path d="m0 0l464.3596 0l0 224.88452l-464.3596 0l0 -224.88452z" clip-rule="nonzero"/></clipPath><g clip-path="url(#p.0)"><path fill="#000000" fill-opacity="0.0" d="m0 0l464.3596 0l0 224.88452l-464.3596 0z" fill-rule="evenodd"/><path stroke="#999999" stroke-width="1.0" stroke-linecap="butt" d="m258.39108 41.062992l0 176.9685" fill-rule="nonzero"/><path stroke="#999999" stroke-width="1.0" stroke-linecap="butt" d="m298.5853 41.062992l0 176.9685" fill-rule="nonzero"/><path stroke="#999999" stroke-width="1.0" stroke-linecap="butt" d="m338.77954 41.062992l0 176.9685" fill-rule="nonzero"/><path stroke="#999999" stroke-width="1.0" stroke-linecap="butt" d="m378.97375 41.062992l0 176.9685" fill-rule="nonzero"/><path stroke="#999999" stroke-width="1.0" stroke-linecap="butt" d="m419.16797 41.062992l0 176.9685" fill-rule="nonzero"/><path stroke="#999999" stroke-width="1.0" stroke-linecap="butt" d="m459.3622 41.062992l0 176.9685" fill-rule="nonzero"/><path stroke="#999999" stroke-width="1.0" stroke-linecap="butt" d="m257.8924 41.56168l201.9685 0" fill-rule="nonzero"/><path stroke="#999999" stroke-width="1.0" stroke-linecap="butt" d="m257.8924 76.755905l201.9685 0" fill-rule="nonzero"/><path stroke="#999999" stroke-width="1.0" stroke-linecap="butt" d="m257.8924 111.950134l201.9685 0" fill-rule="nonzero"/><path stroke="#999999" stroke-width="1.0" stroke-linecap="butt" d="m257.8924 147.14436l201.9685 0" fill-rule="nonzero"/><path stroke="#999999" stroke-width="1.0" stroke-linecap="butt" d="m257.8924 182.33858l201.9685 0" fill-rule="nonzero"/><path stroke="#999999" stroke-width="1.0" stroke-linecap="butt" d="m257.8924 217.5328l201.9685 0" fill-rule="nonzero"/><path fill="#000000" d="m274.02768 28.167454l3.65625 -9.546875l1.359375 0l3.90625 9.546875l-1.4375 0l-1.109375 -2.890625l-3.984375 0l-1.046875 2.890625l-1.34375 0zm2.75 -3.921875l3.234375 0l-1.0 -2.640625q-0.453125 -1.203125 -0.671875 -1.96875q-0.1875 0.90625 -0.515625 1.8125l-1.046875 2.796875z" fill-rule="nonzero"/><path fill="#000000" d="m315.2063 28.167454l0 -9.546875l3.59375 0q1.09375 0 1.75 0.296875q0.65625 0.28125 1.03125 0.890625q0.375 0.609375 0.375 1.265625q0 0.609375 -0.34375 1.15625q-0.328125 0.53125 -0.984375 0.859375q0.859375 0.25 1.328125 0.875q0.46875 0.609375 0.46875 1.4375q0 0.671875 -0.296875 1.25q-0.28125 0.578125 -0.703125 0.890625q-0.40625 0.3125 -1.03125 0.46875q-0.625 0.15625 -1.546875 0.15625l-3.640625 0zm1.265625 -5.53125l2.0625 0q0.84375 0 1.203125 -0.109375q0.484375 -0.140625 0.71875 -0.46875q0.25 -0.34375 0.25 -0.84375q0 -0.46875 -0.234375 -0.828125q-0.21875 -0.359375 -0.640625 -0.5q-0.421875 -0.140625 -1.453125 -0.140625l-1.90625 0l0 2.890625zm0 4.40625l2.375 0q0.609375 0 0.859375 -0.046875q0.4375 -0.078125 0.734375 -0.25q0.296875 -0.1875 0.484375 -0.53125q0.1875 -0.359375 0.1875 -0.8125q0 -0.53125 -0.28125 -0.921875q-0.265625 -0.40625 -0.75 -0.5625q-0.484375 -0.15625 -1.40625 -0.15625l-2.203125 0l0 3.28125z" fill-rule="nonzero"/><path fill="#000000" d="m361.89218 24.823704l1.265625 0.3125q-0.390625 1.5625 -1.421875 2.375q-1.03125 0.8125 -2.53125 0.8125q-1.53125 0 -2.5 -0.625q-0.96875 -0.625 -1.484375 -1.8125q-0.5 -1.1875 -0.5 -2.5625q0 -1.484375 0.5625 -2.59375q0.578125 -1.109375 1.625 -1.6875q1.0625 -0.578125 2.328125 -0.578125q1.421875 0 2.390625 0.734375q0.984375 0.71875 1.375 2.046875l-1.25 0.296875q-0.328125 -1.046875 -0.96875 -1.515625q-0.625 -0.484375 -1.578125 -0.484375q-1.09375 0 -1.84375 0.53125q-0.734375 0.53125 -1.03125 1.421875q-0.296875 0.875 -0.296875 1.828125q0 1.21875 0.34375 2.125q0.359375 0.90625 1.109375 1.359375q0.75 0.4375 1.625 0.4375q1.0625 0 1.796875 -0.609375q0.734375 -0.609375 0.984375 -1.8125z" fill-rule="nonzero"/><path fill="#000000" d="m395.28955 28.167454l0 -9.546875l3.28125 0q1.109375 0 1.703125 0.140625q0.8125 0.1875 1.390625 0.6875q0.765625 0.640625 1.140625 1.640625q0.375 0.984375 0.375 2.25q0 1.09375 -0.265625 1.9375q-0.25 0.828125 -0.65625 1.390625q-0.390625 0.546875 -0.859375 0.859375q-0.46875 0.3125 -1.140625 0.484375q-0.65625 0.15625 -1.53125 0.15625l-3.4375 0zm1.265625 -1.125l2.03125 0q0.9375 0 1.46875 -0.171875q0.546875 -0.1875 0.875 -0.5q0.4375 -0.453125 0.6875 -1.203125q0.25 -0.765625 0.25 -1.84375q0 -1.5 -0.5 -2.296875q-0.484375 -0.8125 -1.1875 -1.078125q-0.5 -0.203125 -1.625 -0.203125l-2.0 0l0 7.296875z" fill-rule="nonzero"/><path fill="#000000" d="m435.8671 28.167454l0 -9.546875l6.90625 0l0 1.125l-5.640625 0l0 2.921875l5.28125 0l0 1.125l-5.28125 0l0 3.25l5.859375 0l0 1.125l-7.125 0z" fill-rule="nonzero"/><path fill="#000000" d="m233.83347 63.36168l3.65625 -9.546875l1.359375 0l3.90625 9.546875l-1.4375 0l-1.109375 -2.890625l-3.984375 0l-1.046875 2.890625l-1.34375 0zm2.75 -3.921875l3.234375 0l-1.0 -2.640625q-0.453125 -1.203125 -0.671875 -1.96875q-0.1875 0.90625 -0.515625 1.8125l-1.046875 2.796875z" fill-rule="nonzero"/><path fill="#000000" d="m278.2218 58.08043q0.6875 -0.859375 1.0625 -1.140625q0.53125 -0.375 1.109375 -0.375q0.671875 0 1.265625 0.5q0.609375 0.484375 0.609375 1.59375q0 0.765625 -0.234375 1.203125q-0.21875 0.4375 -0.6875 0.703125q-0.46875 0.265625 -0.953125 0.265625q-0.578125 0 -1.109375 -0.359375q-0.375 -0.28125 -1.0625 -1.140625q-0.890625 1.109375 -1.875 1.109375q-0.65625 0 -1.140625 -0.5q-0.46875 -0.5 -0.46875 -1.234375q0 -0.734375 0.46875 -1.234375q0.484375 -0.5 1.140625 -0.5q0.984375 0 1.875 1.109375zm0.453125 0.609375q0.5625 0.890625 1.03125 1.203125q0.296875 0.21875 0.671875 0.21875q0.484375 0 0.8125 -0.359375q0.34375 -0.359375 0.34375 -1.03125q0 -0.6875 -0.34375 -1.046875q-0.328125 -0.375 -0.84375 -0.375q-0.3125 0 -0.59375 0.1875q-0.375 0.25 -1.078125 1.203125zm-0.90625 0.015625q-0.515625 -0.65625 -0.828125 -0.84375q-0.3125 -0.1875 -0.59375 -0.1875q-0.390625 0 -0.640625 0.28125q-0.25 0.265625 -0.25 0.734375q0 0.453125 0.265625 0.734375q0.265625 0.28125 0.625 0.28125q0.671875 0 1.421875 -1.0z" fill-rule="nonzero"/><path fill="#000000" d="m321.60117 56.158554l-1.15625 0.09375q-0.15625 -0.6875 -0.4375 -1.0q-0.484375 -0.5 -1.171875 -0.5q-0.5625 0 -0.984375 0.3125q-0.5625 0.390625 -0.890625 1.171875q-0.3125 0.765625 -0.3125 2.203125q0.421875 -0.640625 1.03125 -0.953125q0.609375 -0.3125 1.28125 -0.3125q1.171875 0 1.984375 0.859375q0.828125 0.859375 0.828125 2.234375q0 0.890625 -0.390625 1.671875q-0.375 0.765625 -1.0625 1.171875q-0.671875 0.40625 -1.53125 0.40625q-1.46875 0 -2.390625 -1.0625q-0.921875 -1.078125 -0.921875 -3.5625q0 -2.765625 1.015625 -4.015625q0.90625 -1.09375 2.40625 -1.09375q1.125 0 1.84375 0.640625q0.71875 0.625 0.859375 1.734375zm-4.78125 4.109375q0 0.609375 0.25 1.171875q0.265625 0.546875 0.71875 0.84375q0.46875 0.28125 0.984375 0.28125q0.734375 0 1.265625 -0.59375q0.546875 -0.609375 0.546875 -1.640625q0 -0.984375 -0.53125 -1.546875q-0.53125 -0.578125 -1.328125 -0.578125q-0.796875 0 -1.359375 0.578125q-0.546875 0.5625 -0.546875 1.484375z" fill-rule="nonzero"/><path fill="#000000" d="m358.61026 58.08043q0.6875 -0.859375 1.0625 -1.140625q0.53125 -0.375 1.109375 -0.375q0.671875 0 1.265625 0.5q0.609375 0.484375 0.609375 1.59375q0 0.765625 -0.234375 1.203125q-0.21875 0.4375 -0.6875 0.703125q-0.46875 0.265625 -0.953125 0.265625q-0.578125 0 -1.109375 -0.359375q-0.375 -0.28125 -1.0625 -1.140625q-0.890625 1.109375 -1.875 1.109375q-0.65625 0 -1.140625 -0.5q-0.46875 -0.5 -0.46875 -1.234375q0 -0.734375 0.46875 -1.234375q0.484375 -0.5 1.140625 -0.5q0.984375 0 1.875 1.109375zm0.453125 0.609375q0.5625 0.890625 1.03125 1.203125q0.296875 0.21875 0.671875 0.21875q0.484375 0 0.8125 -0.359375q0.34375 -0.359375 0.34375 -1.03125q0 -0.6875 -0.34375 -1.046875q-0.328125 -0.375 -0.84375 -0.375q-0.3125 0 -0.59375 0.1875q-0.375 0.25 -1.078125 1.203125zm-0.90625 0.015625q-0.515625 -0.65625 -0.828125 -0.84375q-0.3125 -0.1875 -0.59375 -0.1875q-0.390625 0 -0.640625 0.28125q-0.25 0.265625 -0.25 0.734375q0 0.453125 0.265625 0.734375q0.265625 0.28125 0.625 0.28125q0.671875 0 1.421875 -1.0z" fill-rule="nonzero"/><path fill="#000000" d="m395.92712 60.846054l1.171875 -0.15625q0.203125 1.0 0.6875 1.4375q0.484375 0.4375 1.171875 0.4375q0.828125 0 1.390625 -0.578125q0.578125 -0.578125 0.578125 -1.421875q0 -0.796875 -0.53125 -1.3125q-0.515625 -0.53125 -1.328125 -0.53125q-0.34375 0 -0.828125 0.125l0.125 -1.03125q0.125 0.015625 0.1875 0.015625q0.75 0 1.34375 -0.390625q0.609375 -0.390625 0.609375 -1.203125q0 -0.640625 -0.4375 -1.0625q-0.4375 -0.421875 -1.125 -0.421875q-0.6875 0 -1.140625 0.4375q-0.453125 0.421875 -0.59375 1.28125l-1.171875 -0.21875q0.21875 -1.171875 0.984375 -1.8125q0.765625 -0.65625 1.890625 -0.65625q0.78125 0 1.4375 0.34375q0.65625 0.328125 1.0 0.90625q0.359375 0.578125 0.359375 1.234375q0 0.609375 -0.34375 1.125q-0.328125 0.5 -0.96875 0.796875q0.84375 0.203125 1.3125 0.828125q0.46875 0.609375 0.46875 1.53125q0 1.25 -0.921875 2.125q-0.90625 0.859375 -2.296875 0.859375q-1.25 0 -2.09375 -0.75q-0.828125 -0.75 -0.9375 -1.9375z" fill-rule="nonzero"/><path fill="#000000" d="m438.99872 58.08043q0.6875 -0.859375 1.0625 -1.140625q0.53125 -0.375 1.109375 -0.375q0.671875 0 1.265625 0.5q0.609375 0.484375 0.609375 1.59375q0 0.765625 -0.234375 1.203125q-0.21875 0.4375 -0.6875 0.703125q-0.46875 0.265625 -0.953125 0.265625q-0.578125 0 -1.109375 -0.359375q-0.375 -0.28125 -1.0625 -1.140625q-0.890625 1.109375 -1.875 1.109375q-0.65625 0 -1.140625 -0.5q-0.46875 -0.5 -0.46875 -1.234375q0 -0.734375 0.46875 -1.234375q0.484375 -0.5 1.140625 -0.5q0.984375 0 1.875 1.109375zm0.453125 0.609375q0.5625 0.890625 1.03125 1.203125q0.296875 0.21875 0.671875 0.21875q0.484375 0 0.8125 -0.359375q0.34375 -0.359375 0.34375 -1.03125q0 -0.6875 -0.34375 -1.046875q-0.328125 -0.375 -0.84375 -0.375q-0.3125 0 -0.59375 0.1875q-0.375 0.25 -1.078125 1.203125zm-0.90625 0.015625q-0.515625 -0.65625 -0.828125 -0.84375q-0.3125 -0.1875 -0.59375 -0.1875q-0.390625 0 -0.640625 0.28125q-0.25 0.265625 -0.25 0.734375q0 0.453125 0.265625 0.734375q0.265625 0.28125 0.625 0.28125q0.671875 0 1.421875 -1.0z" fill-rule="nonzero"/><path fill="#000000" d="m234.81784 98.55591l0 -9.546875l3.59375 0q1.09375 0 1.75 0.296875q0.65625 0.28125 1.03125 0.890625q0.375 0.609375 0.375 1.265625q0 0.609375 -0.34375 1.15625q-0.328125 0.53125 -0.984375 0.859375q0.859375 0.25 1.328125 0.875q0.46875 0.609375 0.46875 1.4375q0 0.671875 -0.296875 1.25q-0.28125 0.578125 -0.703125 0.890625q-0.40625 0.3125 -1.03125 0.46875q-0.625 0.15625 -1.546875 0.15625l-3.640625 0zm1.265625 -5.53125l2.0625 0q0.84375 0 1.203125 -0.109375q0.484375 -0.140625 0.71875 -0.46875q0.25 -0.34375 0.25 -0.84375q0 -0.46875 -0.234375 -0.828125q-0.21875 -0.359375 -0.640625 -0.5q-0.421875 -0.140625 -1.453125 -0.140625l-1.90625 0l0 2.890625zm0 4.40625l2.375 0q0.609375 0 0.859375 -0.046875q0.4375 -0.078125 0.734375 -0.25q0.296875 -0.1875 0.484375 -0.53125q0.1875 -0.359375 0.1875 -0.8125q0 -0.53125 -0.28125 -0.921875q-0.265625 -0.40625 -0.75 -0.5625q-0.484375 -0.15625 -1.40625 -0.15625l-2.203125 0l0 3.28125z" fill-rule="nonzero"/><path fill="#000000" d="m278.2218 93.27466q0.6875 -0.859375 1.0625 -1.140625q0.53125 -0.375 1.109375 -0.375q0.671875 0 1.265625 0.5q0.609375 0.484375 0.609375 1.59375q0 0.765625 -0.234375 1.203125q-0.21875 0.4375 -0.6875 0.703125q-0.46875 0.265625 -0.953125 0.265625q-0.578125 0 -1.109375 -0.359375q-0.375 -0.28125 -1.0625 -1.140625q-0.890625 1.109375 -1.875 1.109375q-0.65625 0 -1.140625 -0.5q-0.46875 -0.5 -0.46875 -1.234375q0 -0.734375 0.46875 -1.234375q0.484375 -0.5 1.140625 -0.5q0.984375 0 1.875 1.109375zm0.453125 0.609375q0.5625 0.890625 1.03125 1.203125q0.296875 0.21875 0.671875 0.21875q0.484375 0 0.8125 -0.359375q0.34375 -0.359375 0.34375 -1.03125q0 -0.6875 -0.34375 -1.046875q-0.328125 -0.375 -0.84375 -0.375q-0.3125 0 -0.59375 0.1875q-0.375 0.25 -1.078125 1.203125zm-0.90625 0.015625q-0.515625 -0.65625 -0.828125 -0.84375q-0.3125 -0.1875 -0.59375 -0.1875q-0.390625 0 -0.640625 0.28125q-0.25 0.265625 -0.25 0.734375q0 0.453125 0.265625 0.734375q0.265625 0.28125 0.625 0.28125q0.671875 0 1.421875 -1.0z" fill-rule="nonzero"/><path fill="#000000" d="m318.41605 93.27466q0.6875 -0.859375 1.0625 -1.140625q0.53125 -0.375 1.109375 -0.375q0.671875 0 1.265625 0.5q0.609375 0.484375 0.609375 1.59375q0 0.765625 -0.234375 1.203125q-0.21875 0.4375 -0.6875 0.703125q-0.46875 0.265625 -0.953125 0.265625q-0.578125 0 -1.109375 -0.359375q-0.375 -0.28125 -1.0625 -1.140625q-0.890625 1.109375 -1.875 1.109375q-0.65625 0 -1.140625 -0.5q-0.46875 -0.5 -0.46875 -1.234375q0 -0.734375 0.46875 -1.234375q0.484375 -0.5 1.140625 -0.5q0.984375 0 1.875 1.109375zm0.453125 0.609375q0.5625 0.890625 1.03125 1.203125q0.296875 0.21875 0.671875 0.21875q0.484375 0 0.8125 -0.359375q0.34375 -0.359375 0.34375 -1.03125q0 -0.6875 -0.34375 -1.046875q-0.328125 -0.375 -0.84375 -0.375q-0.3125 0 -0.59375 0.1875q-0.375 0.25 -1.078125 1.203125zm-0.90625 0.015625q-0.515625 -0.65625 -0.828125 -0.84375q-0.3125 -0.1875 -0.59375 -0.1875q-0.390625 0 -0.640625 0.28125q-0.25 0.265625 -0.25 0.734375q0 0.453125 0.265625 0.734375q0.265625 0.28125 0.625 0.28125q0.671875 0 1.421875 -1.0z" fill-rule="nonzero"/><path fill="#000000" d="m355.9048 96.35278l1.125 -0.109375q0.140625 0.796875 0.546875 1.15625q0.40625 0.359375 1.03125 0.359375q0.53125 0 0.9375 -0.25q0.421875 -0.25 0.671875 -0.65625q0.265625 -0.421875 0.4375 -1.125q0.171875 -0.703125 0.171875 -1.421875q0 -0.078125 0 -0.234375q-0.359375 0.546875 -0.96875 0.90625q-0.59375 0.34375 -1.3125 0.34375q-1.1875 0 -2.015625 -0.859375q-0.8125 -0.859375 -0.8125 -2.265625q0 -1.453125 0.859375 -2.328125q0.859375 -0.890625 2.140625 -0.890625q0.9375 0 1.703125 0.5q0.78125 0.5 1.171875 1.4375q0.40625 0.921875 0.40625 2.671875q0 1.828125 -0.40625 2.921875q-0.390625 1.078125 -1.171875 1.640625q-0.78125 0.5625 -1.84375 0.5625q-1.109375 0 -1.828125 -0.609375q-0.703125 -0.625 -0.84375 -1.75zm4.796875 -4.21875q0 -1.0 -0.546875 -1.59375q-0.53125 -0.59375 -1.28125 -0.59375q-0.78125 0 -1.375 0.640625q-0.578125 0.640625 -0.578125 1.65625q0 0.90625 0.546875 1.484375q0.5625 0.5625 1.359375 0.5625q0.828125 0 1.34375 -0.5625q0.53125 -0.578125 0.53125 -1.59375z" fill-rule="nonzero"/><path fill="#000000" d="m398.8045 93.27466q0.6875 -0.859375 1.0625 -1.140625q0.53125 -0.375 1.109375 -0.375q0.671875 0 1.265625 0.5q0.609375 0.484375 0.609375 1.59375q0 0.765625 -0.234375 1.203125q-0.21875 0.4375 -0.6875 0.703125q-0.46875 0.265625 -0.953125 0.265625q-0.578125 0 -1.109375 -0.359375q-0.375 -0.28125 -1.0625 -1.140625q-0.890625 1.109375 -1.875 1.109375q-0.65625 0 -1.140625 -0.5q-0.46875 -0.5 -0.46875 -1.234375q0 -0.734375 0.46875 -1.234375q0.484375 -0.5 1.140625 -0.5q0.984375 0 1.875 1.109375zm0.453125 0.609375q0.5625 0.890625 1.03125 1.203125q0.296875 0.21875 0.671875 0.21875q0.484375 0 0.8125 -0.359375q0.34375 -0.359375 0.34375 -1.03125q0 -0.6875 -0.34375 -1.046875q-0.328125 -0.375 -0.84375 -0.375q-0.3125 0 -0.59375 0.1875q-0.375 0.25 -1.078125 1.203125zm-0.90625 0.015625q-0.515625 -0.65625 -0.828125 -0.84375q-0.3125 -0.1875 -0.59375 -0.1875q-0.390625 0 -0.640625 0.28125q-0.25 0.265625 -0.25 0.734375q0 0.453125 0.265625 0.734375q0.265625 0.28125 0.625 0.28125q0.671875 0 1.421875 -1.0z" fill-rule="nonzero"/><path fill="#000000" d="m438.99872 93.27466q0.6875 -0.859375 1.0625 -1.140625q0.53125 -0.375 1.109375 -0.375q0.671875 0 1.265625 0.5q0.609375 0.484375 0.609375 1.59375q0 0.765625 -0.234375 1.203125q-0.21875 0.4375 -0.6875 0.703125q-0.46875 0.265625 -0.953125 0.265625q-0.578125 0 -1.109375 -0.359375q-0.375 -0.28125 -1.0625 -1.140625q-0.890625 1.109375 -1.875 1.109375q-0.65625 0 -1.140625 -0.5q-0.46875 -0.5 -0.46875 -1.234375q0 -0.734375 0.46875 -1.234375q0.484375 -0.5 1.140625 -0.5q0.984375 0 1.875 1.109375zm0.453125 0.609375q0.5625 0.890625 1.03125 1.203125q0.296875 0.21875 0.671875 0.21875q0.484375 0 0.8125 -0.359375q0.34375 -0.359375 0.34375 -1.03125q0 -0.6875 -0.34375 -1.046875q-0.328125 -0.375 -0.84375 -0.375q-0.3125 0 -0.59375 0.1875q-0.375 0.25 -1.078125 1.203125zm-0.90625 0.015625q-0.515625 -0.65625 -0.828125 -0.84375q-0.3125 -0.1875 -0.59375 -0.1875q-0.390625 0 -0.640625 0.28125q-0.25 0.265625 -0.25 0.734375q0 0.453125 0.265625 0.734375q0.265625 0.28125 0.625 0.28125q0.671875 0 1.421875 -1.0z" fill-rule="nonzero"/><path fill="#000000" d="m241.30951 130.40639l1.265625 0.3125q-0.390625 1.5625 -1.421875 2.375q-1.03125 0.8125 -2.53125 0.8125q-1.53125 0 -2.5 -0.625q-0.96875 -0.625 -1.484375 -1.8125q-0.5 -1.1875 -0.5 -2.5625q0 -1.4843826 0.5625 -2.5937576q0.578125 -1.109375 1.625 -1.6875q1.0625 -0.578125 2.328125 -0.578125q1.421875 0 2.390625 0.734375q0.984375 0.71875 1.375 2.046875l-1.25 0.296875q-0.328125 -1.046875 -0.96875 -1.515625q-0.625 -0.484375 -1.578125 -0.484375q-1.09375 0 -1.84375 0.53125q-0.734375 0.53125 -1.03125 1.421875q-0.296875 0.875 -0.296875 1.8281326q0 1.21875 0.34375 2.125q0.359375 0.90625 1.109375 1.359375q0.75 0.4375 1.625 0.4375q1.0625 0 1.796875 -0.609375q0.734375 -0.609375 0.984375 -1.8125z" fill-rule="nonzero"/><path fill="#000000" d="m275.32883 131.25014l1.234375 -0.109375q0.140625 0.90625 0.640625 1.359375q0.5 0.453125 1.203125 0.453125q0.84375 0 1.421875 -0.640625q0.59375 -0.640625 0.59375 -1.6875q0 -1.0 -0.5625 -1.578125q-0.5625 -0.59375 -1.484375 -0.59375q-0.5625 0 -1.015625 0.265625q-0.453125 0.25 -0.71875 0.671875l-1.09375 -0.15625l0.921875 -4.8906326l4.75 0l0 1.109375l-3.8125 0l-0.515625 2.5625076q0.859375 -0.5937576 1.796875 -0.5937576q1.25 0 2.109375 0.8750076q0.859375 0.859375 0.859375 2.21875q0 1.296875 -0.75 2.234375q-0.921875 1.15625 -2.5 1.15625q-1.3125 0 -2.140625 -0.71875q-0.8125 -0.734375 -0.9375 -1.9375z" fill-rule="nonzero"/><path fill="#000000" d="m315.53867 131.23451l1.171875 -0.15625q0.203125 1.0 0.6875 1.4375q0.484375 0.4375 1.171875 0.4375q0.828125 0 1.390625 -0.578125q0.578125 -0.578125 0.578125 -1.421875q0 -0.796875 -0.53125 -1.3125q-0.515625 -0.53125 -1.328125 -0.53125q-0.34375 0 -0.828125 0.125l0.125 -1.03125q0.125 0.015625 0.1875 0.015625q0.75 0 1.34375 -0.39063263q0.609375 -0.390625 0.609375 -1.203125q0 -0.640625 -0.4375 -1.0625q-0.4375 -0.421875 -1.125 -0.421875q-0.6875 0 -1.140625 0.4375q-0.453125 0.421875 -0.59375 1.28125l-1.171875 -0.21875q0.21875 -1.171875 0.984375 -1.8125q0.765625 -0.65625 1.890625 -0.65625q0.78125 0 1.4375 0.34375q0.65625 0.328125 1.0 0.90625q0.359375 0.578125 0.359375 1.234375q0 0.609375 -0.34375 1.125q-0.328125 0.5000076 -0.96875 0.7968826q0.84375 0.203125 1.3125 0.828125q0.46875 0.609375 0.46875 1.53125q0 1.25 -0.921875 2.125q-0.90625 0.859375 -2.296875 0.859375q-1.25 0 -2.09375 -0.75q-0.828125 -0.75 -0.9375 -1.9375z" fill-rule="nonzero"/><path fill="#000000" d="m358.61026 128.46889q0.6875 -0.8593826 1.0625 -1.1406326q0.53125 -0.375 1.109375 -0.375q0.671875 0 1.265625 0.5q0.609375 0.484375 0.609375 1.5937576q0 0.765625 -0.234375 1.203125q-0.21875 0.4375 -0.6875 0.703125q-0.46875 0.265625 -0.953125 0.265625q-0.578125 0 -1.109375 -0.359375q-0.375 -0.28125 -1.0625 -1.140625q-0.890625 1.109375 -1.875 1.109375q-0.65625 0 -1.140625 -0.5q-0.46875 -0.5 -0.46875 -1.234375q0 -0.734375 0.46875 -1.2343826q0.484375 -0.5 1.140625 -0.5q0.984375 0 1.875 1.1093826zm0.453125 0.609375q0.5625 0.890625 1.03125 1.203125q0.296875 0.21875 0.671875 0.21875q0.484375 0 0.8125 -0.359375q0.34375 -0.359375 0.34375 -1.03125q0 -0.6875 -0.34375 -1.046875q-0.328125 -0.37500763 -0.84375 -0.37500763q-0.3125 0 -0.59375 0.1875q-0.375 0.25000763 -1.078125 1.2031326zm-0.90625 0.015625q-0.515625 -0.65625 -0.828125 -0.84375q-0.3125 -0.1875 -0.59375 -0.1875q-0.390625 0 -0.640625 0.28125q-0.25 0.265625 -0.25 0.734375q0 0.453125 0.265625 0.734375q0.265625 0.28125 0.625 0.28125q0.671875 0 1.421875 -1.0z" fill-rule="nonzero"/><path fill="#000000" d="m398.8045 128.46889q0.6875 -0.8593826 1.0625 -1.1406326q0.53125 -0.375 1.109375 -0.375q0.671875 0 1.265625 0.5q0.609375 0.484375 0.609375 1.5937576q0 0.765625 -0.234375 1.203125q-0.21875 0.4375 -0.6875 0.703125q-0.46875 0.265625 -0.953125 0.265625q-0.578125 0 -1.109375 -0.359375q-0.375 -0.28125 -1.0625 -1.140625q-0.890625 1.109375 -1.875 1.109375q-0.65625 0 -1.140625 -0.5q-0.46875 -0.5 -0.46875 -1.234375q0 -0.734375 0.46875 -1.2343826q0.484375 -0.5 1.140625 -0.5q0.984375 0 1.875 1.1093826zm0.453125 0.609375q0.5625 0.890625 1.03125 1.203125q0.296875 0.21875 0.671875 0.21875q0.484375 0 0.8125 -0.359375q0.34375 -0.359375 0.34375 -1.03125q0 -0.6875 -0.34375 -1.046875q-0.328125 -0.37500763 -0.84375 -0.37500763q-0.3125 0 -0.59375 0.1875q-0.375 0.25000763 -1.078125 1.2031326zm-0.90625 0.015625q-0.515625 -0.65625 -0.828125 -0.84375q-0.3125 -0.1875 -0.59375 -0.1875q-0.390625 0 -0.640625 0.28125q-0.25 0.265625 -0.25 0.734375q0 0.453125 0.265625 0.734375q0.265625 0.28125 0.625 0.28125q0.671875 0 1.421875 -1.0z" fill-rule="nonzero"/><path fill="#000000" d="m438.99872 128.46889q0.6875 -0.8593826 1.0625 -1.1406326q0.53125 -0.375 1.109375 -0.375q0.671875 0 1.265625 0.5q0.609375 0.484375 0.609375 1.5937576q0 0.765625 -0.234375 1.203125q-0.21875 0.4375 -0.6875 0.703125q-0.46875 0.265625 -0.953125 0.265625q-0.578125 0 -1.109375 -0.359375q-0.375 -0.28125 -1.0625 -1.140625q-0.890625 1.109375 -1.875 1.109375q-0.65625 0 -1.140625 -0.5q-0.46875 -0.5 -0.46875 -1.234375q0 -0.734375 0.46875 -1.2343826q0.484375 -0.5 1.140625 -0.5q0.984375 0 1.875 1.1093826zm0.453125 0.609375q0.5625 0.890625 1.03125 1.203125q0.296875 0.21875 0.671875 0.21875q0.484375 0 0.8125 -0.359375q0.34375 -0.359375 0.34375 -1.03125q0 -0.6875 -0.34375 -1.046875q-0.328125 -0.37500763 -0.84375 -0.37500763q-0.3125 0 -0.59375 0.1875q-0.375 0.25000763 -1.078125 1.2031326zm-0.90625 0.015625q-0.515625 -0.65625 -0.828125 -0.84375q-0.3125 -0.1875 -0.59375 -0.1875q-0.390625 0 -0.640625 0.28125q-0.25 0.265625 -0.25 0.734375q0 0.453125 0.265625 0.734375q0.265625 0.28125 0.625 0.28125q0.671875 0 1.421875 -1.0z" fill-rule="nonzero"/><path fill="#000000" d="m234.51263 168.94435l0 -9.546875l3.28125 0q1.109375 0 1.703125 0.140625q0.8125 0.1875 1.390625 0.6875q0.765625 0.640625 1.140625 1.640625q0.375 0.984375 0.375 2.25q0 1.09375 -0.265625 1.9375q-0.25 0.828125 -0.65625 1.390625q-0.390625 0.546875 -0.859375 0.859375q-0.46875 0.3125 -1.140625 0.484375q-0.65625 0.15625 -1.53125 0.15625l-3.4375 0zm1.265625 -1.125l2.03125 0q0.9375 0 1.46875 -0.171875q0.546875 -0.1875 0.875 -0.5q0.4375 -0.453125 0.6875 -1.203125q0.25 -0.765625 0.25 -1.84375q0 -1.5 -0.5 -2.296875q-0.484375 -0.8125 -1.1875 -1.078125q-0.5 -0.203125 -1.625 -0.203125l-2.0 0l0 7.296875z" fill-rule="nonzero"/><path fill="#000000" d="m278.2218 163.6631q0.6875 -0.859375 1.0625 -1.140625q0.53125 -0.375 1.109375 -0.375q0.671875 0 1.265625 0.5q0.609375 0.484375 0.609375 1.59375q0 0.765625 -0.234375 1.203125q-0.21875 0.4375 -0.6875 0.703125q-0.46875 0.265625 -0.953125 0.265625q-0.578125 0 -1.109375 -0.359375q-0.375 -0.28125 -1.0625 -1.140625q-0.890625 1.109375 -1.875 1.109375q-0.65625 0 -1.140625 -0.5q-0.46875 -0.5 -0.46875 -1.234375q0 -0.734375 0.46875 -1.234375q0.484375 -0.5 1.140625 -0.5q0.984375 0 1.875 1.109375zm0.453125 0.609375q0.5625 0.890625 1.03125 1.203125q0.296875 0.21875 0.671875 0.21875q0.484375 0 0.8125 -0.359375q0.34375 -0.359375 0.34375 -1.03125q0 -0.6875 -0.34375 -1.046875q-0.328125 -0.375 -0.84375 -0.375q-0.3125 0 -0.59375 0.1875q-0.375 0.25 -1.078125 1.203125zm-0.90625 0.015625q-0.515625 -0.65625 -0.828125 -0.84375q-0.3125 -0.1875 -0.59375 -0.1875q-0.390625 0 -0.640625 0.28125q-0.25 0.265625 -0.25 0.734375q0 0.453125 0.265625 0.734375q0.265625 0.28125 0.625 0.28125q0.671875 0 1.421875 -1.0z" fill-rule="nonzero"/><path fill="#000000" d="m318.41605 163.6631q0.6875 -0.859375 1.0625 -1.140625q0.53125 -0.375 1.109375 -0.375q0.671875 0 1.265625 0.5q0.609375 0.484375 0.609375 1.59375q0 0.765625 -0.234375 1.203125q-0.21875 0.4375 -0.6875 0.703125q-0.46875 0.265625 -0.953125 0.265625q-0.578125 0 -1.109375 -0.359375q-0.375 -0.28125 -1.0625 -1.140625q-0.890625 1.109375 -1.875 1.109375q-0.65625 0 -1.140625 -0.5q-0.46875 -0.5 -0.46875 -1.234375q0 -0.734375 0.46875 -1.234375q0.484375 -0.5 1.140625 -0.5q0.984375 0 1.875 1.109375zm0.453125 0.609375q0.5625 0.890625 1.03125 1.203125q0.296875 0.21875 0.671875 0.21875q0.484375 0 0.8125 -0.359375q0.34375 -0.359375 0.34375 -1.03125q0 -0.6875 -0.34375 -1.046875q-0.328125 -0.375 -0.84375 -0.375q-0.3125 0 -0.59375 0.1875q-0.375 0.25 -1.078125 1.203125zm-0.90625 0.015625q-0.515625 -0.65625 -0.828125 -0.84375q-0.3125 -0.1875 -0.59375 -0.1875q-0.390625 0 -0.640625 0.28125q-0.25 0.265625 -0.25 0.734375q0 0.453125 0.265625 0.734375q0.265625 0.28125 0.625 0.28125q0.671875 0 1.421875 -1.0z" fill-rule="nonzero"/><path fill="#000000" d="m357.5298 163.77248q-0.734375 -0.265625 -1.09375 -0.765625q-0.34375 -0.5 -0.34375 -1.1875q0 -1.03125 0.75 -1.734375q0.75 -0.71875 1.984375 -0.71875q1.25 0 2.015625 0.734375q0.765625 0.71875 0.765625 1.75q0 0.671875 -0.359375 1.171875q-0.34375 0.484375 -1.046875 0.75q0.875 0.28125 1.328125 0.921875q0.46875 0.640625 0.46875 1.515625q0 1.234375 -0.875 2.0625q-0.859375 0.828125 -2.265625 0.828125q-1.421875 0 -2.28125 -0.828125q-0.859375 -0.84375 -0.859375 -2.09375q0 -0.921875 0.46875 -1.546875q0.46875 -0.640625 1.34375 -0.859375zm-0.234375 -1.984375q0 0.671875 0.4375 1.109375q0.4375 0.421875 1.125 0.421875q0.671875 0 1.109375 -0.421875q0.4375 -0.421875 0.4375 -1.046875q0 -0.640625 -0.453125 -1.078125q-0.4375 -0.4375 -1.109375 -0.4375q-0.671875 0 -1.109375 0.4375q-0.4375 0.421875 -0.4375 1.015625zm-0.375 4.40625q0 0.5 0.234375 0.96875q0.234375 0.46875 0.703125 0.734375q0.46875 0.25 1.015625 0.25q0.828125 0 1.375 -0.53125q0.546875 -0.546875 0.546875 -1.390625q0 -0.84375 -0.5625 -1.390625q-0.5625 -0.5625 -1.40625 -0.5625q-0.828125 0 -1.375 0.546875q-0.53125 0.546875 -0.53125 1.375z" fill-rule="nonzero"/><path fill="#000000" d="m398.8045 163.6631q0.6875 -0.859375 1.0625 -1.140625q0.53125 -0.375 1.109375 -0.375q0.671875 0 1.265625 0.5q0.609375 0.484375 0.609375 1.59375q0 0.765625 -0.234375 1.203125q-0.21875 0.4375 -0.6875 0.703125q-0.46875 0.265625 -0.953125 0.265625q-0.578125 0 -1.109375 -0.359375q-0.375 -0.28125 -1.0625 -1.140625q-0.890625 1.109375 -1.875 1.109375q-0.65625 0 -1.140625 -0.5q-0.46875 -0.5 -0.46875 -1.234375q0 -0.734375 0.46875 -1.234375q0.484375 -0.5 1.140625 -0.5q0.984375 0 1.875 1.109375zm0.453125 0.609375q0.5625 0.890625 1.03125 1.203125q0.296875 0.21875 0.671875 0.21875q0.484375 0 0.8125 -0.359375q0.34375 -0.359375 0.34375 -1.03125q0 -0.6875 -0.34375 -1.046875q-0.328125 -0.375 -0.84375 -0.375q-0.3125 0 -0.59375 0.1875q-0.375 0.25 -1.078125 1.203125zm-0.90625 0.015625q-0.515625 -0.65625 -0.828125 -0.84375q-0.3125 -0.1875 -0.59375 -0.1875q-0.390625 0 -0.640625 0.28125q-0.25 0.265625 -0.25 0.734375q0 0.453125 0.265625 0.734375q0.265625 0.28125 0.625 0.28125q0.671875 0 1.421875 -1.0z" fill-rule="nonzero"/><path fill="#000000" d="m436.18387 160.64748l0 -1.125l6.1875 0l0 0.921875q-0.921875 0.96875 -1.8125 2.578125q-0.890625 1.59375 -1.375 3.296875q-0.359375 1.203125 -0.453125 2.625l-1.203125 0q0.015625 -1.125 0.4375 -2.71875q0.421875 -1.59375 1.203125 -3.078125q0.796875 -1.484375 1.6875 -2.5l-4.671875 0z" fill-rule="nonzero"/><path fill="#000000" d="m234.89597 204.13858l0 -9.546875l6.90625 0l0 1.125l-5.640625 0l0 2.921875l5.28125 0l0 1.125l-5.28125 0l0 3.25l5.859375 0l0 1.125l-7.125 0z" fill-rule="nonzero"/><path fill="#000000" d="m281.48508 203.01358l0 1.125l-6.296875 0q-0.015625 -0.421875 0.140625 -0.8125q0.234375 -0.640625 0.765625 -1.265625q0.53125 -0.625 1.53125 -1.453125q1.5625 -1.265625 2.109375 -2.015625q0.546875 -0.75 0.546875 -1.40625q0 -0.703125 -0.5 -1.171875q-0.5 -0.484375 -1.296875 -0.484375q-0.859375 0 -1.375 0.515625q-0.5 0.5 -0.5 1.390625l-1.203125 -0.109375q0.125 -1.359375 0.921875 -2.0625q0.8125 -0.703125 2.171875 -0.703125q1.375 0 2.171875 0.765625q0.8125 0.75 0.8125 1.875q0 0.578125 -0.234375 1.140625q-0.234375 0.546875 -0.78125 1.15625q-0.546875 0.609375 -1.8125 1.671875q-1.046875 0.890625 -1.359375 1.21875q-0.296875 0.3125 -0.484375 0.625l4.671875 0z" fill-rule="nonzero"/><path fill="#000000" d="m318.41605 198.85733q0.6875 -0.859375 1.0625 -1.140625q0.53125 -0.375 1.109375 -0.375q0.671875 0 1.265625 0.5q0.609375 0.484375 0.609375 1.59375q0 0.765625 -0.234375 1.203125q-0.21875 0.4375 -0.6875 0.703125q-0.46875 0.265625 -0.953125 0.265625q-0.578125 0 -1.109375 -0.359375q-0.375 -0.28125 -1.0625 -1.140625q-0.890625 1.109375 -1.875 1.109375q-0.65625 0 -1.140625 -0.5q-0.46875 -0.5 -0.46875 -1.234375q0 -0.734375 0.46875 -1.234375q0.484375 -0.5 1.140625 -0.5q0.984375 0 1.875 1.109375zm0.453125 0.609375q0.5625 0.890625 1.03125 1.203125q0.296875 0.21875 0.671875 0.21875q0.484375 0 0.8125 -0.359375q0.34375 -0.359375 0.34375 -1.03125q0 -0.6875 -0.34375 -1.046875q-0.328125 -0.375 -0.84375 -0.375q-0.3125 0 -0.59375 0.1875q-0.375 0.25 -1.078125 1.203125zm-0.90625 0.015625q-0.515625 -0.65625 -0.828125 -0.84375q-0.3125 -0.1875 -0.59375 -0.1875q-0.390625 0 -0.640625 0.28125q-0.25 0.265625 -0.25 0.734375q0 0.453125 0.265625 0.734375q0.265625 0.28125 0.625 0.28125q0.671875 0 1.421875 -1.0z" fill-rule="nonzero"/><path fill="#000000" d="m358.61026 198.85733q0.6875 -0.859375 1.0625 -1.140625q0.53125 -0.375 1.109375 -0.375q0.671875 0 1.265625 0.5q0.609375 0.484375 0.609375 1.59375q0 0.765625 -0.234375 1.203125q-0.21875 0.4375 -0.6875 0.703125q-0.46875 0.265625 -0.953125 0.265625q-0.578125 0 -1.109375 -0.359375q-0.375 -0.28125 -1.0625 -1.140625q-0.890625 1.109375 -1.875 1.109375q-0.65625 0 -1.140625 -0.5q-0.46875 -0.5 -0.46875 -1.234375q0 -0.734375 0.46875 -1.234375q0.484375 -0.5 1.140625 -0.5q0.984375 0 1.875 1.109375zm0.453125 0.609375q0.5625 0.890625 1.03125 1.203125q0.296875 0.21875 0.671875 0.21875q0.484375 0 0.8125 -0.359375q0.34375 -0.359375 0.34375 -1.03125q0 -0.6875 -0.34375 -1.046875q-0.328125 -0.375 -0.84375 -0.375q-0.3125 0 -0.59375 0.1875q-0.375 0.25 -1.078125 1.203125zm-0.90625 0.015625q-0.515625 -0.65625 -0.828125 -0.84375q-0.3125 -0.1875 -0.59375 -0.1875q-0.390625 0 -0.640625 0.28125q-0.25 0.265625 -0.25 0.734375q0 0.453125 0.265625 0.734375q0.265625 0.28125 0.625 0.28125q0.671875 0 1.421875 -1.0z" fill-rule="nonzero"/><path fill="#000000" d="m400.33337 204.13858l-1.171875 0l0 -7.46875q-0.421875 0.40625 -1.109375 0.8125q-0.6875 0.40625 -1.234375 0.609375l0 -1.140625q0.984375 -0.453125 1.71875 -1.109375q0.734375 -0.671875 1.03125 -1.28125l0.765625 0l0 9.578125z" fill-rule="nonzero"/><path fill="#000000" d="m438.99872 198.85733q0.6875 -0.859375 1.0625 -1.140625q0.53125 -0.375 1.109375 -0.375q0.671875 0 1.265625 0.5q0.609375 0.484375 0.609375 1.59375q0 0.765625 -0.234375 1.203125q-0.21875 0.4375 -0.6875 0.703125q-0.46875 0.265625 -0.953125 0.265625q-0.578125 0 -1.109375 -0.359375q-0.375 -0.28125 -1.0625 -1.140625q-0.890625 1.109375 -1.875 1.109375q-0.65625 0 -1.140625 -0.5q-0.46875 -0.5 -0.46875 -1.234375q0 -0.734375 0.46875 -1.234375q0.484375 -0.5 1.140625 -0.5q0.984375 0 1.875 1.109375zm0.453125 0.609375q0.5625 0.890625 1.03125 1.203125q0.296875 0.21875 0.671875 0.21875q0.484375 0 0.8125 -0.359375q0.34375 -0.359375 0.34375 -1.03125q0 -0.6875 -0.34375 -1.046875q-0.328125 -0.375 -0.84375 -0.375q-0.3125 0 -0.59375 0.1875q-0.375 0.25 -1.078125 1.203125zm-0.90625 0.015625q-0.515625 -0.65625 -0.828125 -0.84375q-0.3125 -0.1875 -0.59375 -0.1875q-0.390625 0 -0.640625 0.28125q-0.25 0.265625 -0.25 0.734375q0 0.453125 0.265625 0.734375q0.265625 0.28125 0.625 0.28125q0.671875 0 1.421875 -1.0z" fill-rule="nonzero"/><path fill="#000000" fill-opacity="0.0" d="m128.19476 36.892387l0 0c0 -10.436876 -8.460754 -18.897636 -18.897629 -18.897636l0 0c-5.0119705 0 -9.818657 1.9909954 -13.362648 5.5349903c-3.5439987 3.543993 -5.5349884 8.350681 -5.5349884 13.362646l0 0c0 10.436878 8.460754 18.89764 18.897636 18.89764l0 0c10.436874 0 18.897629 -8.460762 18.897629 -18.89764z" fill-rule="evenodd"/><path stroke="#000000" stroke-width="1.0" stroke-linejoin="round" stroke-linecap="butt" d="m128.19476 36.892387l0 0c0 -10.436876 -8.460754 -18.897636 -18.897629 -18.897636l0 0c-5.0119705 0 -9.818657 1.9909954 -13.362648 5.5349903c-3.5439987 3.543993 -5.5349884 8.350681 -5.5349884 13.362646l0 0c0 10.436878 8.460754 18.89764 18.897636 18.89764l0 0c10.436874 0 18.897629 -8.460762 18.897629 -18.89764z" fill-rule="evenodd"/><path fill="#000000" d="m106.01261 41.97239l0 -10.484375l3.9375 0q1.203125 0 1.921875 0.3125q0.734375 0.3125 1.140625 0.984375q0.40625 0.65625 0.40625 1.375q0 0.671875 -0.375 1.265625q-0.359375 0.59375 -1.09375 0.96875q0.953125 0.28125 1.46875 0.953125q0.515625 0.671875 0.515625 1.578125q0 0.75 -0.3125 1.390625q-0.3125 0.625 -0.78125 0.96875q-0.453125 0.34375 -1.140625 0.515625q-0.6875 0.171875 -1.6875 0.171875l-4.0 0zm1.390625 -6.078125l2.265625 0q0.921875 0 1.3125 -0.125q0.53125 -0.15625 0.796875 -0.515625q0.28125 -0.375 0.28125 -0.921875q0 -0.53125 -0.25 -0.921875q-0.25 -0.390625 -0.71875 -0.53125q-0.46875 -0.15625 -1.59375 -0.15625l-2.09375 0l0 3.171875zm0 4.84375l2.609375 0q0.671875 0 0.9375 -0.046875q0.484375 -0.09375 0.796875 -0.296875q0.328125 -0.203125 0.53125 -0.578125q0.21875 -0.390625 0.21875 -0.890625q0 -0.578125 -0.3125 -1.015625q-0.296875 -0.4375 -0.828125 -0.609375q-0.53125 -0.171875 -1.53125 -0.171875l-2.421875 0l0 3.609375z" fill-rule="nonzero"/><path fill="#000000" fill-opacity="0.0" d="m51.74068 93.754l0 0c0 -10.436874 -8.460762 -18.897636 -18.89764 -18.897636l0 0c-5.011965 0 -9.818651 1.9909973 -13.362646 5.5349884c-3.543995 3.543991 -5.5349903 8.350685 -5.5349903 13.362648l0 0c0 10.436874 8.46076 18.897636 18.897636 18.897636l0 0c10.436878 0 18.89764 -8.460762 18.89764 -18.897636z" fill-rule="evenodd"/><path stroke="#000000" stroke-width="1.0" stroke-linejoin="round" stroke-linecap="butt" d="m51.74068 93.754l0 0c0 -10.436874 -8.460762 -18.897636 -18.89764 -18.897636l0 0c-5.011965 0 -9.818651 1.9909973 -13.362646 5.5349884c-3.543995 3.543991 -5.5349903 8.350685 -5.5349903 13.362648l0 0c0 10.436874 8.46076 18.897636 18.897636 18.897636l0 0c10.436878 0 18.89764 -8.460762 18.89764 -18.897636z" fill-rule="evenodd"/><path fill="#000000" d="m28.46477 98.834l4.015623 -10.484375l1.5 0l4.296875 10.484375l-1.578125 0l-1.234375 -3.171875l-4.374998 0l-1.15625 3.171875l-1.46875 0zm3.015625 -4.3125l3.562498 0l-1.09375 -2.90625q-0.5 -1.3125 -0.75 -2.171875q-0.203125 1.015625 -0.5625 2.0l-1.1562481 3.078125z" fill-rule="nonzero"/><path fill="#000000" fill-opacity="0.0" d="m202.34175 94.26507l0 0c0 -10.436874 -8.460754 -18.897636 -18.897644 -18.897636l0 0c-5.011963 0 -9.818649 1.9909973 -13.36264 5.5349884c-3.543991 3.5439987 -5.5349884 8.350685 -5.5349884 13.362648l0 0c0 10.436882 8.460754 18.897636 18.897629 18.897636l0 0c10.43689 0 18.897644 -8.460754 18.897644 -18.897636z" fill-rule="evenodd"/><path stroke="#000000" stroke-width="1.0" stroke-linejoin="round" stroke-linecap="butt" d="m202.34175 94.26507l0 0c0 -10.436874 -8.460754 -18.897636 -18.897644 -18.897636l0 0c-5.011963 0 -9.818649 1.9909973 -13.36264 5.5349884c-3.543991 3.5439987 -5.5349884 8.350685 -5.5349884 13.362648l0 0c0 10.436882 8.460754 18.897636 18.897629 18.897636l0 0c10.43689 0 18.897644 -8.460754 18.897644 -18.897636z" fill-rule="evenodd"/><path fill="#000000" d="m187.69084 95.673195l1.390625 0.34375q-0.4375 1.703125 -1.578125 2.609375q-1.125 0.890625 -2.765625 0.890625q-1.6875 0 -2.75 -0.6875q-1.0625 -0.6875 -1.625 -2.0q-0.546875 -1.3125 -0.546875 -2.8125q0 -1.640625 0.625 -2.859375q0.625 -1.21875 1.78125 -1.84375q1.15625 -0.640625 2.546875 -0.640625q1.5625 0 2.640625 0.8125q1.078125 0.796875 1.5 2.25l-1.375 0.3125q-0.359375 -1.140625 -1.0625 -1.65625q-0.6875 -0.53125 -1.734375 -0.53125q-1.21875 0 -2.03125 0.578125q-0.8125 0.578125 -1.140625 1.5625q-0.328125 0.96875 -0.328125 2.015625q0 1.328125 0.390625 2.328125q0.390625 1.0 1.21875 1.5q0.828125 0.484375 1.78125 0.484375q1.171875 0 1.96875 -0.671875q0.8125 -0.671875 1.09375 -1.984375z" fill-rule="nonzero"/><path fill="#000000" fill-opacity="0.0" d="m79.73579 185.84196l0 0c0 -10.43689 -8.460762 -18.897644 -18.89764 -18.897644l0 0c-5.0119667 0 -9.818653 1.9909973 -13.362648 5.5349884c-3.543995 3.543991 -5.534992 8.3506775 -5.534992 13.362656l0 0c0 10.436874 8.460762 18.897629 18.89764 18.897629l0 0c10.436878 0 18.89764 -8.460754 18.89764 -18.897629z" fill-rule="evenodd"/><path stroke="#000000" stroke-width="1.0" stroke-linejoin="round" stroke-linecap="butt" d="m79.73579 185.84196l0 0c0 -10.43689 -8.460762 -18.897644 -18.89764 -18.897644l0 0c-5.0119667 0 -9.818653 1.9909973 -13.362648 5.5349884c-3.543995 3.543991 -5.534992 8.3506775 -5.534992 13.362656l0 0c0 10.436874 8.460762 18.897629 18.89764 18.897629l0 0c10.436878 0 18.89764 -8.460754 18.89764 -18.897629z" fill-rule="evenodd"/><path fill="#000000" d="m57.63175 190.92195l0 -10.484375l7.593746 0l0 1.234375l-6.203121 0l0 3.203125l5.796871 0l0 1.234375l-5.796871 0l0 3.578125l6.437496 0l0 1.234375l-7.828121 0z" fill-rule="nonzero"/><path fill="#000000" fill-opacity="0.0" d="m173.7164 187.28674l0 0c0 -10.436874 -8.460754 -18.897644 -18.897629 -18.897644l0 0c-5.011963 0 -9.818649 1.9909973 -13.362656 5.5349884c-3.543991 3.5440063 -5.5349884 8.350693 -5.5349884 13.362656l0 0c0 10.436874 8.46077 18.897629 18.897644 18.897629l0 0c10.436874 0 18.897629 -8.460754 18.897629 -18.897629z" fill-rule="evenodd"/><path stroke="#000000" stroke-width="1.0" stroke-linejoin="round" stroke-linecap="butt" d="m173.7164 187.28674l0 0c0 -10.436874 -8.460754 -18.897644 -18.897629 -18.897644l0 0c-5.011963 0 -9.818649 1.9909973 -13.362656 5.5349884c-3.543991 3.5440063 -5.5349884 8.350693 -5.5349884 13.362656l0 0c0 10.436874 8.46077 18.897629 18.897644 18.897629l0 0c10.436874 0 18.897629 -8.460754 18.897629 -18.897629z" fill-rule="evenodd"/><path fill="#000000" d="m151.58112 192.36674l0 -10.484375l3.625 0q1.21875 0 1.859375 0.140625q0.90625 0.203125 1.546875 0.75q0.828125 0.703125 1.234375 1.796875q0.40625 1.09375 0.40625 2.5q0 1.1875 -0.28125 2.109375q-0.265625 0.921875 -0.703125 1.53125q-0.4375 0.609375 -0.96875 0.953125q-0.515625 0.34375 -1.25 0.53125q-0.71875 0.171875 -1.671875 0.171875l-3.796875 0zm1.390625 -1.234375l2.25 0q1.03125 0 1.625 -0.1875q0.59375 -0.203125 0.9375 -0.546875q0.5 -0.5 0.765625 -1.328125q0.28125 -0.84375 0.28125 -2.03125q0 -1.640625 -0.546875 -2.515625q-0.53125 -0.890625 -1.3125 -1.1875q-0.546875 -0.21875 -1.796875 -0.21875l-2.203125 0l0 8.015625z" fill-rule="nonzero"/><path fill="#000000" fill-opacity="0.0" d="m46.20569 80.39135l44.18898 -43.496063" fill-rule="evenodd"/><path stroke="#000000" stroke-width="1.0" stroke-linejoin="round" stroke-linecap="butt" d="m46.20569 80.39135l39.91294 -39.28708" fill-rule="evenodd"/><path fill="#000000" stroke="#000000" stroke-width="1.0" stroke-linecap="butt" d="m87.27731 42.281414l2.0754929 -4.360607l-4.3928604 2.0063171z" fill-rule="evenodd"/><path fill="#000000" fill-opacity="0.0" d="m128.19476 36.892387l55.244095 38.48819" fill-rule="evenodd"/><path stroke="#000000" stroke-width="1.0" stroke-linejoin="round" stroke-linecap="butt" d="m128.19476 36.892387l50.32109 35.05835" fill-rule="evenodd"/><path fill="#000000" stroke="#000000" stroke-width="1.0" stroke-linecap="butt" d="m177.57166 73.30599l4.6677246 1.2389069l-2.7793427 -3.949417z" fill-rule="evenodd"/><path fill="#000000" fill-opacity="0.0" d="m170.08147 80.90242l-47.433075 -30.645668" fill-rule="evenodd"/><path stroke="#000000" stroke-width="1.0" stroke-linejoin="round" stroke-linecap="butt" d="m170.08147 80.90242l-42.393402 -27.38963" fill-rule="evenodd"/><path fill="#000000" stroke="#000000" stroke-width="1.0" stroke-linecap="butt" d="m128.58441 52.125427l-4.7080994 -1.0753403l2.9153976 3.8500633z" fill-rule="evenodd"/><path fill="#000000" fill-opacity="0.0" d="m164.54648 94.26507l-112.8189 -0.50393677" fill-rule="evenodd"/><path stroke="#000000" stroke-width="1.0" stroke-linejoin="round" stroke-linecap="butt" d="m164.54648 94.26507l-106.81896 -0.4771347" fill-rule="evenodd"/><path fill="#000000" stroke="#000000" stroke-width="1.0" stroke-linecap="butt" d="m57.734894 92.136215l-4.545429 1.6314468l4.530674 1.6719894z" fill-rule="evenodd"/><path fill="#000000" fill-opacity="0.0" d="m47.488712 172.49416l-14.645672 -59.84252" fill-rule="evenodd"/><path stroke="#000000" stroke-width="1.0" stroke-linejoin="round" stroke-linecap="butt" d="m47.488712 172.49416l-13.219341 -54.01452" fill-rule="evenodd"/><path fill="#000000" stroke="#000000" stroke-width="1.0" stroke-linecap="butt" d="m35.873753 118.08698l-2.6831856 -4.0153503l-0.52558136 4.800659z" fill-rule="evenodd"/><path fill="#000000" fill-opacity="0.0" d="m46.220345 107.12926l108.59843 61.259842" fill-rule="evenodd"/><path stroke="#000000" stroke-width="1.0" stroke-linejoin="round" stroke-linecap="butt" d="m46.220345 107.12926l103.372536 58.31195" fill-rule="evenodd"/><path fill="#000000" stroke="#000000" stroke-width="1.0" stroke-linecap="butt" d="m148.78136 166.87982l4.7641144 0.7910156l-3.1410675 -3.6682587z" fill-rule="evenodd"/><path fill="#000000" fill-opacity="0.0" d="m168.18141 173.92409l15.275589 -60.755898" fill-rule="evenodd"/><path stroke="#000000" stroke-width="1.0" stroke-linejoin="round" stroke-linecap="butt" d="m168.18143 173.92409l13.812546 -54.937004" fill-rule="evenodd"/><path fill="#000000" stroke="#000000" stroke-width="1.0" stroke-linecap="butt" d="m183.59586 119.38983l-0.49531555 -4.803871l-2.708435 3.9983673z" fill-rule="evenodd"/><path fill="#000000" fill-opacity="0.0" d="m141.45612 200.64938l-67.24409 -1.448822" fill-rule="evenodd"/><path stroke="#000000" stroke-width="1.0" stroke-linejoin="round" stroke-linecap="butt" d="m141.45612 200.64938l-61.245483 -1.3195801" fill-rule="evenodd"/><path fill="#000000" stroke="#000000" stroke-width="1.0" stroke-linecap="butt" d="m80.24621 197.67845l-4.572624 1.5536041l4.501465 1.7490997z" fill-rule="evenodd"/><path fill="#000000" fill-opacity="0.0" d="m79.73579 185.84196l56.188972 1.4488068" fill-rule="evenodd"/><path stroke="#000000" stroke-width="1.0" stroke-linejoin="round" stroke-linecap="butt" d="m79.73579 185.84196l50.190956 1.2941742" fill-rule="evenodd"/><path fill="#000000" stroke="#000000" stroke-width="1.0" stroke-linecap="butt" d="m129.88417 188.78731l4.5791626 -1.5342102l-4.4940033 -1.768158z" fill-rule="evenodd"/><path fill="#000000" fill-opacity="0.0" d="m49.349083 45.79929l20.7874 0l0 25.637798l-20.7874 0z" fill-rule="evenodd"/><path fill="#ffffff" d="m58.349083 54.79929l7.4124756 0l0 15.999996l-7.4124756 0l0 -15.999996z" fill-rule="nonzero"/><path fill="#000000" fill-opacity="0.0" d="m58.349083 55.53369l7.4124756 0l0 15.326042l-7.4124756 0l0 -15.326042z" fill-rule="nonzero"/><path fill="#000000" d="m64.97408 60.396164l-1.15625 0.09375q-0.15625 -0.6875 -0.4375 -1.0q-0.484375 -0.5 -1.171875 -0.5q-0.5625 0 -0.984375 0.3125q-0.5625 0.390625 -0.890625 1.171875q-0.3125 0.765625 -0.3125 2.203125q0.421875 -0.640625 1.03125 -0.953125q0.609375 -0.3125 1.28125 -0.3125q1.171875 0 1.984375 0.859375q0.828125 0.859375 0.828125 2.234375q0 0.890625 -0.390625 1.671875q-0.375 0.765625 -1.0625 1.171875q-0.671875 0.40625 -1.53125 0.40625q-1.46875 0 -2.390625 -1.0625q-0.921875 -1.078125 -0.921875 -3.5625q0 -2.765625 1.015625 -4.015625q0.90625 -1.09375 2.40625 -1.09375q1.125 0 1.84375 0.640625q0.71875 0.625 0.859375 1.734375zm-4.78125 4.109375q0 0.609375 0.25 1.171875q0.265625 0.546875 0.71875 0.84375q0.46875 0.28125 0.984375 0.28125q0.734375 0 1.265625 -0.59375q0.546875 -0.609375 0.546875 -1.640625q0 -0.984375 -0.53125 -1.546875q-0.53125 -0.578125 -1.328125 -0.578125q-0.796875 0 -1.359375 0.578125q-0.546875 0.5625 -0.546875 1.484375z" fill-rule="nonzero"/><path fill="#010000" fill-opacity="0.0" d="m65.76156 55.53369l0 0l0 15.326042l0 0l0 -15.326042z" fill-rule="nonzero"/><path fill="#000000" fill-opacity="0.0" d="m144.4252 37.143837l20.7874 0l0 25.637798l-20.7874 0z" fill-rule="evenodd"/><path fill="#ffffff" d="m153.4252 46.143837l7.4124756 0l0 16.0l-7.4124756 0l0 -16.0z" fill-rule="nonzero"/><path fill="#000000" fill-opacity="0.0" d="m153.4252 46.87824l7.4124756 0l0 15.326042l-7.4124756 0l0 -15.326042z" fill-rule="nonzero"/><path fill="#000000" d="m154.15958 56.74071l1.125 -0.109375q0.140625 0.796875 0.546875 1.15625q0.40625 0.359375 1.03125 0.359375q0.53125 0 0.9375 -0.25q0.421875 -0.25 0.671875 -0.65625q0.265625 -0.421875 0.4375 -1.125q0.171875 -0.703125 0.171875 -1.421875q0 -0.078125 0 -0.234375q-0.359375 0.546875 -0.96875 0.90625q-0.59375 0.34375 -1.3125 0.34375q-1.1875 0 -2.015625 -0.859375q-0.8125 -0.859375 -0.8125 -2.265625q0 -1.453125 0.859375 -2.328125q0.859375 -0.890625 2.140625 -0.890625q0.9375 0 1.703125 0.5q0.78125 0.5 1.171875 1.4375q0.40625 0.921875 0.40625 2.671875q0 1.828125 -0.40625 2.921875q-0.390625 1.078125 -1.171875 1.640625q-0.78125 0.5625 -1.84375 0.5625q-1.109375 0 -1.828125 -0.609375q-0.703125 -0.625 -0.84375 -1.75zm4.796875 -4.21875q0 -1.0 -0.546875 -1.59375q-0.53125 -0.59375 -1.28125 -0.59375q-0.78125 0 -1.375 0.640625q-0.578125 0.640625 -0.578125 1.65625q0 0.90625 0.546875 1.484375q0.5625 0.5625 1.359375 0.5625q0.828125 0 1.34375 -0.5625q0.53125 -0.578125 0.53125 -1.59375z" fill-rule="nonzero"/><path fill="#010000" fill-opacity="0.0" d="m160.83768 46.87824l0 0l0 15.326042l0 0l0 -15.326042z" fill-rule="nonzero"/><path fill="#000000" fill-opacity="0.0" d="m134.0315 50.678555l20.7874 0l0 25.637798l-20.7874 0z" fill-rule="evenodd"/><path fill="#ffffff" d="m143.0315 59.678555l7.4124756 0l0 15.999996l-7.4124756 0l0 -15.999996z" fill-rule="nonzero"/><path fill="#000000" fill-opacity="0.0" d="m143.0315 60.412956l7.4124756 0l0 15.326042l-7.4124756 0l0 -15.326042z" fill-rule="nonzero"/><path fill="#000000" d="m143.594 69.96293l1.171875 -0.15625q0.203125 1.0 0.6875 1.4375q0.484375 0.4375 1.171875 0.4375q0.828125 0 1.390625 -0.578125q0.578125 -0.578125 0.578125 -1.421875q0 -0.796875 -0.53125 -1.3125q-0.515625 -0.53125 -1.328125 -0.53125q-0.34375 0 -0.828125 0.125l0.125 -1.03125q0.125 0.015625 0.1875 0.015625q0.75 0 1.34375 -0.390625q0.609375 -0.390625 0.609375 -1.203125q0 -0.640625 -0.4375 -1.0625q-0.4375 -0.421875 -1.125 -0.421875q-0.6875 0 -1.140625 0.4375q-0.453125 0.421875 -0.59375 1.28125l-1.171875 -0.21875q0.21875 -1.171875 0.984375 -1.8125q0.765625 -0.65625 1.890625 -0.65625q0.78125 0 1.4375 0.34375q0.65625 0.328125 1.0 0.90625q0.359375 0.578125 0.359375 1.234375q0 0.609375 -0.34375 1.125q-0.328125 0.5 -0.96875 0.796875q0.84375 0.203125 1.3125 0.828125q0.46875 0.609375 0.46875 1.53125q0 1.25 -0.921875 2.125q-0.90625 0.859375 -2.296875 0.859375q-1.25 0 -2.09375 -0.75q-0.828125 -0.75 -0.9375 -1.9375z" fill-rule="nonzero"/><path fill="#010000" fill-opacity="0.0" d="m150.44397 60.412956l0 0l0 15.326042l0 0l0 -15.326042z" fill-rule="nonzero"/><path fill="#000000" fill-opacity="0.0" d="m97.749344 77.46129l20.7874 0l0 25.637802l-20.7874 0z" fill-rule="evenodd"/><path fill="#ffffff" d="m106.749344 86.46129l7.4124756 0l0 16.0l-7.4124756 0l0 -16.0z" fill-rule="nonzero"/><path fill="#000000" fill-opacity="0.0" d="m106.749344 87.195694l7.4124756 0l0 15.326042l-7.4124756 0l0 -15.326042z" fill-rule="nonzero"/><path fill="#000000" d="m107.29622 96.76129l1.234375 -0.109375q0.140625 0.90625 0.640625 1.359375q0.5 0.453125 1.203125 0.453125q0.84375 0 1.421875 -0.640625q0.59375 -0.640625 0.59375 -1.6875q0 -1.0 -0.5625 -1.578125q-0.5625 -0.59375 -1.484375 -0.59375q-0.5625 0 -1.015625 0.265625q-0.453125 0.25 -0.71875 0.671875l-1.09375 -0.15625l0.921875 -4.890625l4.75 0l0 1.109375l-3.8125 0l-0.515625 2.5625q0.859375 -0.59375 1.796875 -0.59375q1.25 0 2.109375 0.875q0.859375 0.859375 0.859375 2.21875q0 1.296875 -0.75 2.234375q-0.921875 1.15625 -2.5 1.15625q-1.3125 0 -2.140625 -0.71875q-0.8125 -0.734375 -0.9375 -1.9375z" fill-rule="nonzero"/><path fill="#010000" fill-opacity="0.0" d="m114.16182 87.195694l0 0l0 15.326042l0 0l0 -15.326042z" fill-rule="nonzero"/><path fill="#000000" fill-opacity="0.0" d="m26.700787 130.7258l20.787403 0l0 25.637802l-20.787403 0z" fill-rule="evenodd"/><path fill="#ffffff" d="m35.700787 139.7258l7.4124756 0l0 16.0l-7.4124756 0l0 -16.0z" fill-rule="nonzero"/><path fill="#000000" fill-opacity="0.0" d="m35.700787 140.4602l7.4124756 0l0 15.326035l-7.4124756 0l0 -15.326035z" fill-rule="nonzero"/><path fill="#000000" d="m42.40391 151.4008l0 1.125l-6.296875 0q-0.015625 -0.421875 0.140625 -0.8125q0.234375 -0.640625 0.765625 -1.265625q0.53125 -0.625 1.53125 -1.453125q1.5625 -1.265625 2.109375 -2.015625q0.546875 -0.75 0.546875 -1.40625q0 -0.703125 -0.5 -1.171875q-0.5 -0.484375 -1.296875 -0.484375q-0.859375 0 -1.375 0.515625q-0.5 0.5 -0.5 1.390625l-1.203125 -0.109375q0.125 -1.359375 0.921875 -2.0625q0.8125 -0.703125 2.171875 -0.703125q1.375 0 2.171875 0.765625q0.8125 0.75 0.8125 1.875q0 0.578125 -0.234375 1.140625q-0.234375 0.546875 -0.78125 1.15625q-0.546875 0.609375 -1.8125 1.671875q-1.046875 0.890625 -1.359375 1.21875q-0.296875 0.3125 -0.484375 0.625l4.671875 0z" fill-rule="nonzero"/><path fill="#010000" fill-opacity="0.0" d="m43.113262 140.4602l0 0l0 15.326035l0 0l0 -15.326035z" fill-rule="nonzero"/><path fill="#000000" fill-opacity="0.0" d="m89.84703 120.21533l20.7874 0l0 25.637802l-20.7874 0z" fill-rule="evenodd"/><path fill="#ffffff" d="m98.84703 129.21533l7.4124756 0l0 16.0l-7.4124756 0l0 -16.0z" fill-rule="nonzero"/><path fill="#000000" fill-opacity="0.0" d="m98.84703 129.94974l7.4124756 0l0 15.326035l-7.4124756 0l0 -15.326035z" fill-rule="nonzero"/><path fill="#000000" d="m99.40953 139.49971l1.171875 -0.15625q0.203125 1.0 0.6875 1.4375q0.484375 0.4375 1.171875 0.4375q0.828125 0 1.390625 -0.578125q0.578125 -0.578125 0.578125 -1.421875q0 -0.796875 -0.53125 -1.3125q-0.515625 -0.53125 -1.328125 -0.53125q-0.34375 0 -0.828125 0.125l0.125 -1.03125q0.125 0.015625 0.1875 0.015625q0.75 0 1.34375 -0.390625q0.609375 -0.390625 0.609375 -1.203125q0 -0.640625 -0.4375 -1.0625q-0.4375 -0.421875 -1.125 -0.421875q-0.6875 0 -1.140625 0.4375q-0.453125 0.421875 -0.59375 1.28125l-1.171875 -0.21875q0.21875 -1.171875 0.984375 -1.8125q0.765625 -0.65625 1.890625 -0.65625q0.78125 0 1.4375 0.34375q0.65625 0.328125 1.0 0.90625q0.359375 0.578125 0.359375 1.234375q0 0.609375 -0.34375 1.125q-0.328125 0.5 -0.96875 0.796875q0.84375 0.203125 1.3125 0.828125q0.46875 0.609375 0.46875 1.53125q0 1.25 -0.921875 2.125q-0.90625 0.859375 -2.296875 0.859375q-1.25 0 -2.09375 -0.75q-0.828125 -0.75 -0.9375 -1.9375z" fill-rule="nonzero"/><path fill="#010000" fill-opacity="0.0" d="m106.25951 129.94974l0 0l0 15.326035l0 0l0 -15.326035z" fill-rule="nonzero"/><path fill="#000000" fill-opacity="0.0" d="m92.49344 168.38722l20.7874 0l0 25.637787l-20.7874 0z" fill-rule="evenodd"/><path fill="#ffffff" d="m101.49344 177.38722l7.4124756 0l0 16.0l-7.4124756 0l0 -16.0z" fill-rule="nonzero"/><path fill="#000000" fill-opacity="0.0" d="m101.49344 178.12161l7.4124756 0l0 15.32605l-7.4124756 0l0 -15.32605z" fill-rule="nonzero"/><path fill="#000000" d="m106.46219 190.18721l-1.171875 0l0 -7.46875q-0.421875 0.40625 -1.109375 0.8125q-0.6875 0.40625 -1.234375 0.609375l0 -1.140625q0.984375 -0.453125 1.71875 -1.109375q0.734375 -0.671875 1.03125 -1.28125l0.765625 0l0 9.578125z" fill-rule="nonzero"/><path fill="#010000" fill-opacity="0.0" d="m108.905914 178.12161l0 0l0 15.32605l0 0l0 -15.32605z" fill-rule="nonzero"/><path fill="#000000" fill-opacity="0.0" d="m158.357 130.7258l20.7874 0l0 25.637802l-20.7874 0z" fill-rule="evenodd"/><path fill="#ffffff" d="m167.357 139.7258l7.4124756 0l0 16.0l-7.4124756 0l0 -16.0z" fill-rule="nonzero"/><path fill="#000000" fill-opacity="0.0" d="m167.357 140.4602l7.4124756 0l0 15.326035l-7.4124756 0l0 -15.326035z" fill-rule="nonzero"/><path fill="#000000" d="m169.71637 147.35393q-0.734375 -0.265625 -1.09375 -0.765625q-0.34375 -0.5 -0.34375 -1.1875q0 -1.03125 0.75 -1.734375q0.75 -0.71875 1.984375 -0.71875q1.25 0 2.015625 0.734375q0.765625 0.71875 0.765625 1.75q0 0.671875 -0.359375 1.171875q-0.34375 0.484375 -1.046875 0.75q0.875 0.28125 1.328125 0.921875q0.46875 0.640625 0.46875 1.515625q0 1.234375 -0.875 2.0625q-0.859375 0.828125 -2.265625 0.828125q-1.421875 0 -2.28125 -0.828125q-0.859375 -0.84375 -0.859375 -2.09375q0 -0.921875 0.46875 -1.546875q0.46875 -0.640625 1.34375 -0.859375zm-0.234375 -1.984375q0 0.671875 0.4375 1.109375q0.4375 0.421875 1.125 0.421875q0.671875 0 1.109375 -0.421875q0.4375 -0.421875 0.4375 -1.046875q0 -0.640625 -0.453125 -1.078125q-0.4375 -0.4375 -1.109375 -0.4375q-0.671875 0 -1.109375 0.4375q-0.4375 0.421875 -0.4375 1.015625zm-0.375 4.40625q0 0.5 0.234375 0.96875q0.234375 0.46875 0.703125 0.734375q0.46875 0.25 1.015625 0.25q0.828125 0 1.375 -0.53125q0.546875 -0.546875 0.546875 -1.390625q0 -0.84375 -0.5625 -1.390625q-0.5625 -0.5625 -1.40625 -0.5625q-0.828125 0 -1.375 0.546875q-0.53125 0.546875 -0.53125 1.375z" fill-rule="nonzero"/><path fill="#010000" fill-opacity="0.0" d="m174.76947 140.4602l0 0l0 15.326035l0 0l0 -15.326035z" fill-rule="nonzero"/><path fill="#000000" fill-opacity="0.0" d="m105.0 181.25073l20.7874 0l0 25.637802l-20.7874 0z" fill-rule="evenodd"/><path fill="#ffffff" d="m114.0 190.25073l7.4124756 0l0 16.0l-7.4124756 0l0 -16.0z" fill-rule="nonzero"/><path fill="#000000" fill-opacity="0.0" d="m114.0 190.98514l7.4124756 0l0 15.326035l-7.4124756 0l0 -15.326035z" fill-rule="nonzero"/><path fill="#000000" d="m114.625 194.75386l0 -1.125l6.1875 0l0 0.921875q-0.921875 0.96875 -1.8125 2.578125q-0.890625 1.59375 -1.375 3.296875q-0.359375 1.203125 -0.453125 2.625l-1.203125 0q0.015625 -1.125 0.4375 -2.71875q0.421875 -1.59375 1.203125 -3.078125q0.796875 -1.484375 1.6875 -2.5l-4.671875 0z" fill-rule="nonzero"/><path fill="#010000" fill-opacity="0.0" d="m121.412476 190.98514l0 0l0 15.326035l0 0l0 -15.326035z" fill-rule="nonzero"/></g></svg>