<svg version="1.1" viewBox="0.0 0.0 383.70603674540683 178.9501312335958" fill="none" stroke="none" stroke-linecap="square" stroke-miterlimit="10" xmlns:xlink="http://www.w3.org/1999/xlink" xmlns="http://www.w3.org/2000/svg"><clipPath id="p.0"><path d="m0 0l383.70602 0l0 178.95013l-383.70602 0l0 -178.95013z" clip-rule="nonzero"/></clipPath><g clip-path="url(#p.0)"><path fill="#000000" fill-opacity="0.0" d="m0 0l383.70602 0l0 178.95013l-383.70602 0z" fill-rule="evenodd"/><path fill="#000000" fill-opacity="0.0" d="m92.43099 22.813648l0 0c0 -10.436877 -8.460762 -18.897638 -18.897636 -18.897638l0 0c-5.0119705 0 -9.818657 1.9909954 -13.362652 5.53499c-3.543995 3.543995 -5.5349884 8.350683 -5.5349884 13.362648l0 0c0 10.436878 8.460758 18.897636 18.89764 18.897636l0 0c10.436874 0 18.897636 -8.460758 18.897636 -18.897636z" fill-rule="evenodd"/><path stroke="#000000" stroke-width="1.0" stroke-linejoin="round" stroke-linecap="butt" d="m92.43099 22.813648l0 0c0 -10.436877 -8.460762 -18.897638 -18.897636 -18.897638l0 0c-5.0119705 0 -9.818657 1.9909954 -13.362652 5.53499c-3.543995 3.543995 -5.5349884 8.350683 -5.5349884 13.362648l0 0c0 10.436878 8.460758 18.897636 18.89764 18.897636l0 0c10.436874 0 18.897636 -8.460758 18.897636 -18.897636z" fill-rule="evenodd"/><path fill="#000000" d="m69.15508 27.893648l4.015625 -10.484375l1.5 0l4.296875 10.484375l-1.578125 0l-1.234375 -3.171875l-4.375 0l-1.15625 3.171875l-1.46875 0zm3.015625 -4.3125l3.5625 0l-1.09375 -2.90625q-0.5 -1.3125 -0.75 -2.171875q-0.203125 1.015625 -0.5625 2.0l-1.15625 3.078125z" fill-rule="nonzero"/><path fill="#000000" fill-opacity="0.0" d="m380.326 114.62992l0 0c0 -10.436874 -8.460754 -18.897636 -18.897614 -18.897636l0 0c-5.011963 0 -9.818665 1.9909973 -13.362671 5.5349884c-3.5439758 3.5439987 -5.534973 8.350685 -5.534973 13.362648l0 0c0 10.436874 8.460754 18.897636 18.897644 18.897636l0 0c10.436859 0 18.897614 -8.460762 18.897614 -18.897636z" fill-rule="evenodd"/><path stroke="#000000" stroke-width="1.0" stroke-linejoin="round" stroke-linecap="butt" d="m380.326 114.62992l0 0c0 -10.436874 -8.460754 -18.897636 -18.897614 -18.897636l0 0c-5.011963 0 -9.818665 1.9909973 -13.362671 5.5349884c-3.5439758 3.5439987 -5.534973 8.350685 -5.534973 13.362648l0 0c0 10.436874 8.460754 18.897636 18.897644 18.897636l0 0c10.436859 0 18.897614 -8.460762 18.897614 -18.897636z" fill-rule="evenodd"/><path fill="#000000" d="m360.75174 119.70992l0 -10.484375l1.390625 0l0 10.484375l-1.390625 0z" fill-rule="nonzero"/><path fill="#000000" fill-opacity="0.0" d="m294.59897 155.43307l0 0c0 -10.436874 -8.460754 -18.897644 -18.897644 -18.897644l0 0c-5.011963 0 -9.818634 1.9909973 -13.36264 5.5349884c-3.5440063 3.543991 -5.5350037 8.350693 -5.5350037 13.362656l0 0c0 10.436874 8.460785 18.897629 18.897644 18.897629l0 0c10.43689 0 18.897644 -8.460754 18.897644 -18.897629z" fill-rule="evenodd"/><path stroke="#000000" stroke-width="1.0" stroke-linejoin="round" stroke-linecap="butt" d="m294.59897 155.43307l0 0c0 -10.436874 -8.460754 -18.897644 -18.897644 -18.897644l0 0c-5.011963 0 -9.818634 1.9909973 -13.36264 5.5349884c-3.5440063 3.543991 -5.5350037 8.350693 -5.5350037 13.362656l0 0c0 10.436874 8.460785 18.897629 18.897644 18.897629l0 0c10.43689 0 18.897644 -8.460754 18.897644 -18.897629z" fill-rule="evenodd"/><path fill="#000000" d="m272.51056 160.51308l0 -10.484375l1.390625 0l0 4.296875l5.453125 0l0 -4.296875l1.390625 0l0 10.484375l-1.390625 0l0 -4.9375l-5.453125 0l0 4.9375l-1.390625 0z" fill-rule="nonzero"/><path fill="#000000" fill-opacity="0.0" d="m294.59897 73.82415l0 0c0 -10.436882 -8.460754 -18.89764 -18.897644 -18.89764l0 0c-5.011963 0 -9.818634 1.9909935 -13.36264 5.5349884c-3.5440063 3.543995 -5.5350037 8.350681 -5.5350037 13.362652l0 0c0 10.436874 8.460785 18.897636 18.897644 18.897636l0 0c10.43689 0 18.897644 -8.460762 18.897644 -18.897636z" fill-rule="evenodd"/><path stroke="#000000" stroke-width="1.0" stroke-linejoin="round" stroke-linecap="butt" d="m294.59897 73.82415l0 0c0 -10.436882 -8.460754 -18.89764 -18.897644 -18.89764l0 0c-5.011963 0 -9.818634 1.9909935 -13.36264 5.5349884c-3.5440063 3.543995 -5.5350037 8.350681 -5.5350037 13.362652l0 0c0 10.436874 8.460785 18.897636 18.897644 18.897636l0 0c10.43689 0 18.897644 -8.460762 18.897644 -18.897636z" fill-rule="evenodd"/><path fill="#000000" d="m277.38556 74.79477l0 -1.234375l4.4375 -0.015625l0 3.90625q-1.03125 0.8125 -2.125 1.21875q-1.078125 0.40625 -2.21875 0.40625q-1.546875 0 -2.8125 -0.65625q-1.265625 -0.65625 -1.90625 -1.90625q-0.640625 -1.265625 -0.640625 -2.8125q0 -1.53125 0.640625 -2.84375q0.640625 -1.328125 1.84375 -1.96875q1.203125 -0.65625 2.765625 -0.65625q1.140625 0 2.0625 0.375q0.921875 0.359375 1.4375 1.03125q0.53125 0.65625 0.796875 1.703125l-1.25 0.34375q-0.234375 -0.796875 -0.59375 -1.25q-0.34375 -0.46875 -1.0 -0.734375q-0.65625 -0.28125 -1.4375 -0.28125q-0.953125 0 -1.65625 0.296875q-0.6875 0.28125 -1.125 0.765625q-0.421875 0.46875 -0.65625 1.03125q-0.390625 0.96875 -0.390625 2.109375q0 1.40625 0.46875 2.359375q0.484375 0.9375 1.40625 1.390625q0.9375 0.453125 1.96875 0.453125q0.90625 0 1.765625 -0.34375q0.859375 -0.34375 1.296875 -0.734375l0 -1.953125l-3.078125 0z" fill-rule="nonzero"/><path fill="#000000" fill-opacity="0.0" d="m219.96841 114.62861l0 0c0 -10.436874 -8.460754 -18.897636 -18.897629 -18.897636l0 0c-5.011963 0 -9.818665 1.9909973 -13.362656 5.5349884c-3.543991 3.5439987 -5.5349884 8.350685 -5.5349884 13.362648l0 0c0 10.436874 8.46077 18.897636 18.897644 18.897636l0 0c10.436874 0 18.897629 -8.460762 18.897629 -18.897636z" fill-rule="evenodd"/><path stroke="#000000" stroke-width="1.0" stroke-linejoin="round" stroke-linecap="butt" d="m219.96841 114.62861l0 0c0 -10.436874 -8.460754 -18.897636 -18.897629 -18.897636l0 0c-5.011963 0 -9.818665 1.9909973 -13.362656 5.5349884c-3.543991 3.5439987 -5.5349884 8.350685 -5.5349884 13.362648l0 0c0 10.436874 8.46077 18.897636 18.897644 18.897636l0 0c10.436874 0 18.897629 -8.460762 18.897629 -18.897636z" fill-rule="evenodd"/><path fill="#000000" d="m197.91125 119.70861l0 -10.484375l7.078125 0l0 1.234375l-5.6875 0l0 3.25l4.921875 0l0 1.234375l-4.921875 0l0 4.765625l-1.390625 0z" fill-rule="nonzero"/><path fill="#000000" fill-opacity="0.0" d="m138.63309 155.43176l0 0c0 -10.436874 -8.460754 -18.897644 -18.897636 -18.897644l0 0c-5.011963 0 -9.818649 1.9909973 -13.362648 5.5349884c-3.543991 3.543991 -5.5349884 8.350693 -5.5349884 13.362656l0 0c0 10.436874 8.460762 18.897629 18.897636 18.897629l0 0c10.436882 0 18.897636 -8.460754 18.897636 -18.897629z" fill-rule="evenodd"/><path stroke="#000000" stroke-width="1.0" stroke-linejoin="round" stroke-linecap="butt" d="m138.63309 155.43176l0 0c0 -10.436874 -8.460754 -18.897644 -18.897636 -18.897644l0 0c-5.011963 0 -9.818649 1.9909973 -13.362648 5.5349884c-3.543991 3.543991 -5.5349884 8.350693 -5.5349884 13.362656l0 0c0 10.436874 8.460762 18.897629 18.897636 18.897629l0 0c10.436882 0 18.897636 -8.460754 18.897636 -18.897629z" fill-rule="evenodd"/><path fill="#000000" d="m116.4978 160.51176l0 -10.484375l3.625 0q1.21875 0 1.859375 0.140625q0.90625 0.203125 1.546875 0.75q0.828125 0.703125 1.234375 1.796875q0.40625 1.09375 0.40625 2.5q0 1.1875 -0.28125 2.109375q-0.265625 0.921875 -0.703125 1.53125q-0.4375 0.609375 -0.96875 0.953125q-0.515625 0.34375 -1.25 0.53125q-0.71875 0.171875 -1.671875 0.171875l-3.796875 0zm1.390625 -1.234375l2.25 0q1.03125 0 1.625 -0.1875q0.59375 -0.203125 0.9375 -0.546875q0.5 -0.5 0.765625 -1.328125q0.28125 -0.84375 0.28125 -2.03125q0 -1.640625 -0.546875 -2.515625q-0.53125 -0.890625 -1.3125 -1.1875q-0.546875 -0.21875 -1.796875 -0.21875l-2.203125 0l0 8.015625z" fill-rule="nonzero"/><path fill="#000000" fill-opacity="0.0" d="m40.887684 155.43176l0 0c0 -10.436874 -8.460762 -18.897644 -18.897638 -18.897644l0 0c-5.011965 0 -9.818653 1.9909973 -13.362648 5.5349884c-3.5439944 3.543991 -5.53499 8.350693 -5.53499 13.362656l0 0c0 10.436874 8.46076 18.897629 18.897638 18.897629l0 0c10.436876 0 18.897638 -8.460754 18.897638 -18.897629z" fill-rule="evenodd"/><path stroke="#000000" stroke-width="1.0" stroke-linejoin="round" stroke-linecap="butt" d="m40.887684 155.43176l0 0c0 -10.436874 -8.460762 -18.897644 -18.897638 -18.897644l0 0c-5.011965 0 -9.818653 1.9909973 -13.362648 5.5349884c-3.5439944 3.543991 -5.53499 8.350693 -5.53499 13.362656l0 0c0 10.436874 8.46076 18.897629 18.897638 18.897629l0 0c10.436876 0 18.897638 -8.460754 18.897638 -18.897629z" fill-rule="evenodd"/><path fill="#000000" d="m26.236773 156.83989l1.390625 0.34375q-0.4375 1.703125 -1.578125 2.609375q-1.125 0.890625 -2.765625 0.890625q-1.6875 0 -2.75 -0.6875q-1.0625 -0.6875 -1.625 -2.0q-0.546875 -1.3125 -0.546875 -2.8125q0 -1.640625 0.625 -2.859375q0.625 -1.21875 1.78125 -1.84375q1.15625 -0.640625 2.546875 -0.640625q1.5625 0 2.640625 0.8125q1.078125 0.796875 1.5 2.25l-1.375 0.3125q-0.359375 -1.140625 -1.0625 -1.65625q-0.6875 -0.53125 -1.734375 -0.53125q-1.21875 0 -2.03125 0.578125q-0.8125 0.578125 -1.140625 1.5625q-0.328125 0.96875 -0.328125 2.015625q0 1.328125 0.390625 2.328125q0.390625 1.0 1.21875 1.5q0.828125 0.484375 1.78125 0.484375q1.171875 0 1.96875 -0.671875q0.8125 -0.671875 1.09375 -1.984375z" fill-rule="nonzero"/><path fill="#000000" fill-opacity="0.0" d="m138.63309 73.82415l0 0c0 -10.436882 -8.460754 -18.89764 -18.897636 -18.89764l0 0c-5.011963 0 -9.818649 1.9909935 -13.362648 5.5349884c-3.543991 3.543995 -5.5349884 8.350681 -5.5349884 13.362652l0 0c0 10.436874 8.460762 18.897636 18.897636 18.897636l0 0c10.436882 0 18.897636 -8.460762 18.897636 -18.897636z" fill-rule="evenodd"/><path stroke="#000000" stroke-width="1.0" stroke-linejoin="round" stroke-linecap="butt" d="m138.63309 73.82415l0 0c0 -10.436882 -8.460754 -18.89764 -18.897636 -18.89764l0 0c-5.011963 0 -9.818649 1.9909935 -13.362648 5.5349884c-3.543991 3.543995 -5.5349884 8.350681 -5.5349884 13.362652l0 0c0 10.436874 8.460762 18.897636 18.897636 18.897636l0 0c10.436882 0 18.897636 -8.460762 18.897636 -18.897636z" fill-rule="evenodd"/><path fill="#000000" d="m116.52905 78.904144l0 -10.484375l7.59375 0l0 1.234375l-6.203125 0l0 3.203125l5.796875 0l0 1.234375l-5.796875 0l0 3.578125l6.4375 0l0 1.234375l-7.828125 0z" fill-rule="nonzero"/><path fill="#000000" fill-opacity="0.0" d="m40.887684 73.82415l0 0c0 -10.436882 -8.460762 -18.89764 -18.897638 -18.89764l0 0c-5.011965 0 -9.818653 1.9909935 -13.362648 5.5349884c-3.5439944 3.543995 -5.53499 8.350681 -5.53499 13.362652l0 0c0 10.436874 8.46076 18.897636 18.897638 18.897636l0 0c10.436876 0 18.897638 -8.460762 18.897638 -18.897636z" fill-rule="evenodd"/><path stroke="#000000" stroke-width="1.0" stroke-linejoin="round" stroke-linecap="butt" d="m40.887684 73.82415l0 0c0 -10.436882 -8.460762 -18.89764 -18.897638 -18.89764l0 0c-5.011965 0 -9.818653 1.9909935 -13.362648 5.5349884c-3.5439944 3.543995 -5.53499 8.350681 -5.53499 13.362652l0 0c0 10.436874 8.46076 18.897636 18.897638 18.897636l0 0c10.436876 0 18.897638 -8.460762 18.897638 -18.897636z" fill-rule="evenodd"/><path fill="#000000" d="m18.705523 78.904144l0 -10.484375l3.9375 0q1.203125 0 1.921875 0.3125q0.734375 0.3125 1.140625 0.984375q0.40625 0.65625 0.40625 1.375q0 0.671875 -0.375 1.265625q-0.359375 0.59375 -1.09375 0.96875q0.953125 0.28125 1.46875 0.953125q0.515625 0.671875 0.515625 1.578125q0 0.75 -0.3125 1.390625q-0.3125 0.625 -0.78125 0.96875q-0.453125 0.34375 -1.140625 0.515625q-0.6875 0.171875 -1.6875 0.171875l-4.0 0zm1.390625 -6.078125l2.265625 0q0.921875 0 1.3125 -0.125q0.53125 -0.15625 0.796875 -0.515625q0.28125 -0.375 0.28125 -0.921875q0 -0.53125 -0.25 -0.921875q-0.25 -0.390625 -0.71875 -0.53125q-0.46875 -0.15625 -1.59375 -0.15625l-2.09375 0l0 3.171875zm0 4.84375l2.609375 0q0.671875 0 0.9375 -0.046875q0.484375 -0.09375 0.796875 -0.296875q0.328125 -0.203125 0.53125 -0.578125q0.21875 -0.390625 0.21875 -0.890625q0 -0.578125 -0.3125 -1.015625q-0.296875 -0.4375 -0.828125 -0.609375q-0.53125 -0.171875 -1.53125 -0.171875l-2.421875 0l0 3.609375z" fill-rule="nonzero"/><path fill="#000000" fill-opacity="0.0" d="m35.35269 60.4615l24.818901 -24.283463" fill-rule="evenodd"/><path stroke="#000000" stroke-width="1.0" stroke-linejoin="round" stroke-linecap="butt" d="m35.35269 60.4615l24.818901 -24.283463" fill-rule="evenodd"/><path fill="#000000" fill-opacity="0.0" d="m40.887684 73.82415l59.937008 0" fill-rule="evenodd"/><path stroke="#000000" stroke-width="1.0" stroke-linejoin="round" stroke-linecap="butt" d="m40.887684 73.82415l59.937008 0" fill-rule="evenodd"/><path fill="#000000" fill-opacity="0.0" d="m21.990046 92.7231l0 43.81102" fill-rule="evenodd"/><path stroke="#000000" stroke-width="1.0" stroke-linejoin="round" stroke-linecap="butt" d="m21.990046 92.7231l0 43.81102" fill-rule="evenodd"/><path fill="#000000" fill-opacity="0.0" d="m40.887684 155.43176l59.937008 0" fill-rule="evenodd"/><path stroke="#000000" stroke-width="1.0" stroke-linejoin="round" stroke-linecap="butt" d="m40.887684 155.43176l59.937008 0" fill-rule="evenodd"/><path fill="#000000" fill-opacity="0.0" d="m119.73545 136.5328l0 -43.81102" fill-rule="evenodd"/><path stroke="#000000" stroke-width="1.0" stroke-linejoin="round" stroke-linecap="butt" d="m119.73545 136.5328l0 -43.81102" fill-rule="evenodd"/><path fill="#000000" fill-opacity="0.0" d="m35.35269 142.0691l71.02362 -54.897636" fill-rule="evenodd"/><path stroke="#000000" stroke-width="1.0" stroke-linejoin="round" stroke-linecap="butt" d="m35.35269 142.0691l71.02362 -54.897636" fill-rule="evenodd"/><path fill="#000000" fill-opacity="0.0" d="m133.0981 87.1868l49.07086 27.433067" fill-rule="evenodd"/><path stroke="#000000" stroke-width="1.0" stroke-linejoin="round" stroke-linecap="butt" d="m133.0981 87.1868l49.07086 27.433067" fill-rule="evenodd"/><path fill="#000000" fill-opacity="0.0" d="m214.43343 101.26596l42.362198 -27.433067" fill-rule="evenodd"/><path stroke="#000000" stroke-width="1.0" stroke-linejoin="round" stroke-linecap="butt" d="m214.43343 101.26596l42.362198 -27.433067" fill-rule="evenodd"/><path fill="#000000" fill-opacity="0.0" d="m214.43343 127.99126l42.362198 27.433075" fill-rule="evenodd"/><path stroke="#000000" stroke-width="1.0" stroke-linejoin="round" stroke-linecap="butt" d="m214.43343 127.99126l42.362198 27.433075" fill-rule="evenodd"/><path fill="#000000" fill-opacity="0.0" d="m294.5854 155.42564l53.480316 -27.433075" fill-rule="evenodd"/><path stroke="#000000" stroke-width="1.0" stroke-linejoin="round" stroke-linecap="butt" d="m294.5854 155.42564l53.480316 -27.433075" fill-rule="evenodd"/><path fill="#000000" fill-opacity="0.0" d="m275.70132 136.53543l0 -43.81102" fill-rule="evenodd"/><path stroke="#000000" stroke-width="1.0" stroke-linejoin="round" stroke-linecap="butt" d="m275.70132 136.53543l0 -43.81102" fill-rule="evenodd"/></g></svg>