<svg version="1.1" viewBox="0.0 0.0 833.3622047244095 308.81364829396324" fill="none" stroke="none" stroke-linecap="square" stroke-miterlimit="10" xmlns:xlink="http://www.w3.org/1999/xlink" xmlns="http://www.w3.org/2000/svg"><clipPath id="p.0"><path d="m0 0l833.3622 0l0 308.81366l-833.3622 0l0 -308.81366z" clip-rule="nonzero"/></clipPath><g clip-path="url(#p.0)"><path fill="#000000" fill-opacity="0.0" d="m0 0l833.3622 0l0 308.81366l-833.3622 0z" fill-rule="evenodd"/><path fill="#000000" fill-opacity="0.0" d="m100.49923 84.31233l0 0c0 -10.436874 -8.460762 -18.897636 -18.897636 -18.897636l0 0c-5.011963 0 -9.818649 1.9909973 -13.362648 5.534996c-3.543991 3.543991 -5.5349884 8.3506775 -5.5349884 13.36264l0 0c0 10.436882 8.460762 18.897644 18.897636 18.897644l0 0c10.436874 0 18.897636 -8.460762 18.897636 -18.897644z" fill-rule="evenodd"/><path stroke="#000000" stroke-width="1.0" stroke-linejoin="round" stroke-linecap="butt" d="m100.49923 84.31233l0 0c0 -10.436874 -8.460762 -18.897636 -18.897636 -18.897636l0 0c-5.011963 0 -9.818649 1.9909973 -13.362648 5.534996c-3.543991 3.543991 -5.5349884 8.3506775 -5.5349884 13.36264l0 0c0 10.436882 8.460762 18.897644 18.897636 18.897644l0 0c10.436874 0 18.897636 -8.460762 18.897636 -18.897644z" fill-rule="evenodd"/><path fill="#000000" d="m77.22332 89.392334l4.015625 -10.484375l1.5 0l4.296875 10.484375l-1.578125 0l-1.234375 -3.171875l-4.375 0l-1.15625 3.171875l-1.46875 0zm3.015625 -4.3125l3.5625 0l-1.09375 -2.90625q-0.5 -1.3125 -0.75 -2.171875q-0.203125 1.015625 -0.5625 2.0l-1.15625 3.078125z" fill-rule="nonzero"/><path fill="#000000" fill-opacity="0.0" d="m56.54385 138.46457l0 0c0 -10.436874 -8.460758 -18.897636 -18.897636 -18.897636l0 0c-5.0119667 0 -9.818653 1.9909897 -13.362648 5.5349884c-3.543995 3.5439987 -5.5349903 8.350685 -5.5349903 13.362648l0 0c0 10.436874 8.46076 18.897629 18.897638 18.897629l0 0c10.436878 0 18.897636 -8.460754 18.897636 -18.897629z" fill-rule="evenodd"/><path stroke="#000000" stroke-width="1.0" stroke-linejoin="round" stroke-linecap="butt" d="m56.54385 138.46457l0 0c0 -10.436874 -8.460758 -18.897636 -18.897636 -18.897636l0 0c-5.0119667 0 -9.818653 1.9909897 -13.362648 5.5349884c-3.543995 3.5439987 -5.5349903 8.350685 -5.5349903 13.362648l0 0c0 10.436874 8.46076 18.897629 18.897638 18.897629l0 0c10.436878 0 18.897636 -8.460754 18.897636 -18.897629z" fill-rule="evenodd"/><path fill="#000000" d="m34.36169 143.54457l0 -10.484375l3.9375 0q1.203125 0 1.921875 0.3125q0.734375 0.3125 1.140625 0.984375q0.40625 0.65625 0.40625 1.375q0 0.671875 -0.375 1.265625q-0.359375 0.59375 -1.09375 0.96875q0.953125 0.28125 1.46875 0.953125q0.515625 0.671875 0.515625 1.578125q0 0.75 -0.3125 1.390625q-0.3125 0.625 -0.78125 0.96875q-0.453125 0.34375 -1.140625 0.515625q-0.6875 0.171875 -1.6875 0.171875l-4.0 0zm1.390625 -6.078125l2.265625 0q0.921875 0 1.3125 -0.125q0.53125 -0.15625 0.796875 -0.515625q0.28125 -0.375 0.28125 -0.921875q0 -0.53125 -0.25 -0.921875q-0.25 -0.390625 -0.71875 -0.53125q-0.46875 -0.15625 -1.59375 -0.15625l-2.09375 0l0 3.171875zm0 4.84375l2.609375 0q0.671875 0 0.9375 -0.046875q0.484375 -0.09375 0.796875 -0.296875q0.328125 -0.203125 0.53125 -0.578125q0.21875 -0.390625 0.21875 -0.890625q0 -0.578125 -0.3125 -1.015625q-0.296875 -0.4375 -0.828125 -0.609375q-0.53125 -0.171875 -1.53125 -0.171875l-2.421875 0l0 3.609375z" fill-rule="nonzero"/><path fill="#000000" fill-opacity="0.0" d="m140.12915 138.46457l0 0c0 -10.436874 -8.460754 -18.897636 -18.897636 -18.897636l0 0c-5.011963 0 -9.818649 1.9909897 -13.362648 5.5349884c-3.543991 3.5439987 -5.5349884 8.350685 -5.5349884 13.362648l0 0c0 10.436874 8.460762 18.897629 18.897636 18.897629l0 0c10.436882 0 18.897636 -8.460754 18.897636 -18.897629z" fill-rule="evenodd"/><path stroke="#000000" stroke-width="1.0" stroke-linejoin="round" stroke-linecap="butt" d="m140.12915 138.46457l0 0c0 -10.436874 -8.460754 -18.897636 -18.897636 -18.897636l0 0c-5.011963 0 -9.818649 1.9909897 -13.362648 5.5349884c-3.543991 3.5439987 -5.5349884 8.350685 -5.5349884 13.362648l0 0c0 10.436874 8.460762 18.897629 18.897636 18.897629l0 0c10.436882 0 18.897636 -8.460754 18.897636 -18.897629z" fill-rule="evenodd"/><path fill="#000000" d="m118.025116 143.54457l0 -10.484375l7.59375 0l0 1.234375l-6.203125 0l0 3.203125l5.796875 0l0 1.234375l-5.796875 0l0 3.578125l6.4375 0l0 1.234375l-7.828125 0z" fill-rule="nonzero"/><path fill="#000000" fill-opacity="0.0" d="m56.54385 221.69817l0 0c0 -10.436874 -8.460758 -18.897644 -18.897636 -18.897644l0 0c-5.0119667 0 -9.818653 1.9909973 -13.362648 5.5349884c-3.543995 3.5440063 -5.5349903 8.350693 -5.5349903 13.362656l0 0c0 10.436874 8.46076 18.897629 18.897638 18.897629l0 0c10.436878 0 18.897636 -8.460754 18.897636 -18.897629z" fill-rule="evenodd"/><path stroke="#000000" stroke-width="1.0" stroke-linejoin="round" stroke-linecap="butt" d="m56.54385 221.69817l0 0c0 -10.436874 -8.460758 -18.897644 -18.897636 -18.897644l0 0c-5.0119667 0 -9.818653 1.9909973 -13.362648 5.5349884c-3.543995 3.5440063 -5.5349903 8.350693 -5.5349903 13.362656l0 0c0 10.436874 8.46076 18.897629 18.897638 18.897629l0 0c10.436878 0 18.897636 -8.460754 18.897636 -18.897629z" fill-rule="evenodd"/><path fill="#000000" d="m41.89294 223.1063l1.390625 0.34375q-0.4375 1.703125 -1.578125 2.609375q-1.125 0.890625 -2.765625 0.890625q-1.6875 0 -2.75 -0.6875q-1.0625 -0.6875 -1.625 -2.0q-0.546875 -1.3125 -0.546875 -2.8125q0 -1.640625 0.625 -2.859375q0.625 -1.21875 1.78125 -1.84375q1.15625 -0.640625 2.546875 -0.640625q1.5625 0 2.640625 0.8125q1.078125 0.796875 1.5 2.25l-1.375 0.3125q-0.359375 -1.140625 -1.0625 -1.65625q-0.6875 -0.53125 -1.734375 -0.53125q-1.21875 0 -2.03125 0.578125q-0.8125 0.578125 -1.140625 1.5625q-0.328125 0.96875 -0.328125 2.015625q0 1.328125 0.390625 2.328125q0.390625 1.0 1.21875 1.5q0.828125 0.484375 1.78125 0.484375q1.171875 0 1.96875 -0.671875q0.8125 -0.671875 1.09375 -1.984375z" fill-rule="nonzero"/><path fill="#000000" fill-opacity="0.0" d="m141.60684 221.69817l0 0c0 -10.436874 -8.460754 -18.897644 -18.897636 -18.897644l0 0c-5.011963 0 -9.818657 1.9909973 -13.362648 5.5349884c-3.543991 3.5440063 -5.5349884 8.350693 -5.5349884 13.362656l0 0c0 10.436874 8.460762 18.897629 18.897636 18.897629l0 0c10.436882 0 18.897636 -8.460754 18.897636 -18.897629z" fill-rule="evenodd"/><path stroke="#000000" stroke-width="1.0" stroke-linejoin="round" stroke-linecap="butt" d="m141.60684 221.69817l0 0c0 -10.436874 -8.460754 -18.897644 -18.897636 -18.897644l0 0c-5.011963 0 -9.818657 1.9909973 -13.362648 5.5349884c-3.543991 3.5440063 -5.5349884 8.350693 -5.5349884 13.362656l0 0c0 10.436874 8.460762 18.897629 18.897636 18.897629l0 0c10.436882 0 18.897636 -8.460754 18.897636 -18.897629z" fill-rule="evenodd"/><path fill="#000000" d="m119.47156 226.77817l0 -10.484375l3.625 0q1.21875 0 1.859375 0.140625q0.90625 0.203125 1.546875 0.75q0.828125 0.703125 1.234375 1.796875q0.40625 1.09375 0.40625 2.5q0 1.1875 -0.28125 2.109375q-0.265625 0.921875 -0.703125 1.53125q-0.4375 0.609375 -0.96875 0.953125q-0.515625 0.34375 -1.25 0.53125q-0.71875 0.171875 -1.671875 0.171875l-3.796875 0zm1.390625 -1.234375l2.25 0q1.03125 0 1.625 -0.1875q0.59375 -0.203125 0.9375 -0.546875q0.5 -0.5 0.765625 -1.328125q0.28125 -0.84375 0.28125 -2.03125q0 -1.640625 -0.546875 -2.515625q-0.53125 -0.890625 -1.3125 -1.1875q-0.546875 -0.21875 -1.796875 -0.21875l-2.203125 0l0 8.015625z" fill-rule="nonzero"/><path fill="#000000" fill-opacity="0.0" d="m194.67245 171.40683l0 0c0 -10.43689 -8.460754 -18.897644 -18.897629 -18.897644l0 0c-5.011963 0 -9.818665 1.9909973 -13.362656 5.5349884c-3.543991 3.543991 -5.5349884 8.3506775 -5.5349884 13.362656l0 0c0 10.436874 8.46077 18.897629 18.897644 18.897629l0 0c10.436874 0 18.897629 -8.460754 18.897629 -18.897629z" fill-rule="evenodd"/><path stroke="#000000" stroke-width="1.0" stroke-linejoin="round" stroke-linecap="butt" d="m194.67245 171.40683l0 0c0 -10.43689 -8.460754 -18.897644 -18.897629 -18.897644l0 0c-5.011963 0 -9.818665 1.9909973 -13.362656 5.5349884c-3.543991 3.543991 -5.5349884 8.3506775 -5.5349884 13.362656l0 0c0 10.436874 8.46077 18.897629 18.897644 18.897629l0 0c10.436874 0 18.897629 -8.460754 18.897629 -18.897629z" fill-rule="evenodd"/><path fill="#000000" d="m172.6153 176.48683l0 -10.484375l7.078125 0l0 1.234375l-5.6875 0l0 3.25l4.921875 0l0 1.234375l-4.921875 0l0 4.765625l-1.390625 0z" fill-rule="nonzero"/><path fill="#000000" fill-opacity="0.0" d="m51.00886 125.10192l17.228344 -27.433075" fill-rule="evenodd"/><path stroke="#000000" stroke-width="1.0" stroke-linejoin="round" stroke-linecap="butt" d="m51.00886 125.10192l17.228344 -27.433075" fill-rule="evenodd"/><path fill="#000000" fill-opacity="0.0" d="m56.54385 138.46457l45.795277 0" fill-rule="evenodd"/><path stroke="#000000" stroke-width="1.0" stroke-linejoin="round" stroke-linecap="butt" d="m56.54385 138.46457l45.795277 0" fill-rule="evenodd"/><path fill="#000000" fill-opacity="0.0" d="m37.646214 157.3622l0 45.448822" fill-rule="evenodd"/><path stroke="#000000" stroke-width="1.0" stroke-linejoin="round" stroke-linecap="butt" d="m37.646214 157.3622l0 45.448822" fill-rule="evenodd"/><path fill="#000000" fill-opacity="0.0" d="m122.709206 202.80052l-1.4803162 -45.448822" fill-rule="evenodd"/><path stroke="#000000" stroke-width="1.0" stroke-linejoin="round" stroke-linecap="butt" d="m122.709206 202.80052l-1.4803162 -45.448822" fill-rule="evenodd"/><path fill="#000000" fill-opacity="0.0" d="m140.12915 138.46457l22.267715 19.590546" fill-rule="evenodd"/><path stroke="#000000" stroke-width="1.0" stroke-linejoin="round" stroke-linecap="butt" d="m140.12915 138.46457l22.267715 19.590546" fill-rule="evenodd"/><path fill="#000000" fill-opacity="0.0" d="m56.54385 221.69817l47.275593 0" fill-rule="evenodd"/><path stroke="#000000" stroke-width="1.0" stroke-linejoin="round" stroke-linecap="butt" d="m56.54385 221.69817l47.275593 0" fill-rule="evenodd"/><path fill="#000000" fill-opacity="0.0" d="m51.00886 208.33551l56.85039 -56.503937" fill-rule="evenodd"/><path stroke="#000000" stroke-width="1.0" stroke-linejoin="round" stroke-linecap="butt" d="m51.00886 208.33551l56.85039 -56.503937" fill-rule="evenodd"/><path fill="#000000" fill-opacity="0.0" d="m309.73492 21.630445l73.506775 0l0 41.52401l-73.506775 0z" fill-rule="evenodd"/><path stroke="#000000" stroke-width="1.0" stroke-linejoin="round" stroke-linecap="butt" d="m309.73492 21.630445l73.506775 0l0 41.52401l-73.506775 0z" fill-rule="evenodd"/><path fill="#000000" d="m342.67862 47.47245l0 -10.484375l3.9375 0q1.203125 0 1.921875 0.3125q0.734375 0.3125 1.140625 0.984375q0.40625 0.65625 0.40625 1.375q0 0.671875 -0.375 1.265625q-0.359375 0.59375 -1.09375 0.96875q0.953125 0.28125 1.46875 0.953125q0.515625 0.671875 0.515625 1.578125q0 0.75 -0.3125 1.390625q-0.3125 0.625 -0.78125 0.96875q-0.453125 0.34375 -1.140625 0.515625q-0.6875 0.171875 -1.6875 0.171875l-4.0 0zm1.390625 -6.078125l2.265625 0q0.921875 0 1.3125 -0.125q0.53125 -0.15625 0.796875 -0.515625q0.28125 -0.375 0.28125 -0.921875q0 -0.53125 -0.25 -0.921875q-0.25 -0.390625 -0.71875 -0.53125q-0.46875 -0.15625 -1.59375 -0.15625l-2.09375 0l0 3.171875zm0 4.84375l2.609375 0q0.671875 0 0.9375 -0.046875q0.484375 -0.09375 0.796875 -0.296875q0.328125 -0.203125 0.53125 -0.578125q0.21875 -0.390625 0.21875 -0.890625q0 -0.578125 -0.3125 -1.015625q-0.296875 -0.4375 -0.828125 -0.609375q-0.53125 -0.171875 -1.53125 -0.171875l-2.421875 0l0 3.609375z" fill-rule="nonzero"/><path fill="#000000" fill-opacity="0.0" d="m383.2478 21.6308l37.269318 0l0 41.52401l-37.269318 0z" fill-rule="evenodd"/><path stroke="#000000" stroke-width="1.0" stroke-linejoin="round" stroke-linecap="butt" d="m383.2478 21.6308l37.269318 0l0 41.52401l-37.269318 0z" fill-rule="evenodd"/><path fill="#000000" d="m394.59857 42.400665l0 0c0 -3.130394 2.5364075 -5.668083 5.6652527 -5.668083l0 0c1.502533 0 2.943512 0.5971718 4.005951 1.6601448c1.062439 1.0629692 1.6593018 2.5046692 1.6593018 4.0079384l0 0c0 3.130394 -2.5364075 5.668083 -5.6652527 5.668083l0 0c-3.1288452 0 -5.6652527 -2.5376892 -5.6652527 -5.668083z" fill-rule="evenodd"/><path stroke="#000000" stroke-width="1.0" stroke-linejoin="round" stroke-linecap="butt" d="m394.59857 42.400665l0 0c0 -3.130394 2.5364075 -5.668083 5.6652527 -5.668083l0 0c1.502533 0 2.943512 0.5971718 4.005951 1.6601448c1.062439 1.0629692 1.6593018 2.5046692 1.6593018 4.0079384l0 0c0 3.130394 -2.5364075 5.668083 -5.6652527 5.668083l0 0c-3.1288452 0 -5.6652527 -2.5376892 -5.6652527 -5.668083z" fill-rule="evenodd"/><path fill="#000000" fill-opacity="0.0" d="m309.73492 66.43622l73.506775 0l0 41.52401l-73.506775 0z" fill-rule="evenodd"/><path stroke="#000000" stroke-width="1.0" stroke-linejoin="round" stroke-linecap="butt" d="m309.73492 66.43622l73.506775 0l0 41.52401l-73.506775 0z" fill-rule="evenodd"/><path fill="#000000" d="m341.5849 92.27822l4.0155945 -10.484375l1.5 0l4.296875 10.484375l-1.578125 0l-1.234375 -3.171875l-4.375 0l-1.15625 3.171875l-1.4687195 0zm3.0155945 -4.3125l3.5625 0l-1.09375 -2.90625q-0.5 -1.3125 -0.75 -2.171875q-0.203125 1.015625 -0.5625 2.0l-1.15625 3.078125z" fill-rule="nonzero"/><path fill="#000000" fill-opacity="0.0" d="m383.2478 66.43658l37.269318 0l0 41.524002l-37.269318 0z" fill-rule="evenodd"/><path stroke="#000000" stroke-width="1.0" stroke-linejoin="round" stroke-linecap="butt" d="m383.2478 66.43658l37.269318 0l0 41.524002l-37.269318 0z" fill-rule="evenodd"/><path fill="#000000" fill-opacity="0.0" d="m309.73492 111.242l73.506775 0l0 41.52401l-73.506775 0z" fill-rule="evenodd"/><path stroke="#000000" stroke-width="1.0" stroke-linejoin="round" stroke-linecap="butt" d="m309.73492 111.242l73.506775 0l0 41.52401l-73.506775 0z" fill-rule="evenodd"/><path fill="#000000" d="m342.67862 137.084l0 -10.484375l3.9375 0q1.203125 0 1.921875 0.3125q0.734375 0.3125 1.140625 0.984375q0.40625 0.65625 0.40625 1.375q0 0.671875 -0.375 1.265625q-0.359375 0.59375 -1.09375 0.96875q0.953125 0.28125 1.46875 0.953125q0.515625 0.671875 0.515625 1.578125q0 0.75 -0.3125 1.390625q-0.3125 0.625 -0.78125 0.96875q-0.453125 0.34375 -1.140625 0.515625q-0.6875 0.171875 -1.6875 0.171875l-4.0 0zm1.390625 -6.078125l2.265625 0q0.921875 0 1.3125 -0.125q0.53125 -0.15625 0.796875 -0.515625q0.28125 -0.375 0.28125 -0.921875q0 -0.53125 -0.25 -0.921875q-0.25 -0.390625 -0.71875 -0.53125q-0.46875 -0.15625 -1.59375 -0.15625l-2.09375 0l0 3.171875zm0 4.84375l2.609375 0q0.671875 0 0.9375 -0.046875q0.484375 -0.09375 0.796875 -0.296875q0.328125 -0.203125 0.53125 -0.578125q0.21875 -0.390625 0.21875 -0.890625q0 -0.578125 -0.3125 -1.015625q-0.296875 -0.4375 -0.828125 -0.609375q-0.53125 -0.171875 -1.53125 -0.171875l-2.421875 0l0 3.609375z" fill-rule="nonzero"/><path fill="#000000" fill-opacity="0.0" d="m383.2478 111.24235l37.269318 0l0 41.52401l-37.269318 0z" fill-rule="evenodd"/><path stroke="#000000" stroke-width="1.0" stroke-linejoin="round" stroke-linecap="butt" d="m383.2478 111.24235l37.269318 0l0 41.52401l-37.269318 0z" fill-rule="evenodd"/><path fill="#000000" fill-opacity="0.0" d="m309.73492 156.04778l73.506775 0l0 41.524002l-73.506775 0z" fill-rule="evenodd"/><path stroke="#000000" stroke-width="1.0" stroke-linejoin="round" stroke-linecap="butt" d="m309.73492 156.04778l73.506775 0l0 41.524002l-73.506775 0z" fill-rule="evenodd"/><path fill="#000000" d="m349.80554 178.2179l1.390625 0.34375q-0.4375 1.703125 -1.578125 2.609375q-1.125 0.890625 -2.765625 0.890625q-1.6875 0 -2.75 -0.6875q-1.0625 -0.6875 -1.625 -2.0q-0.546875 -1.3125 -0.546875 -2.8125q0 -1.640625 0.625 -2.859375q0.625 -1.21875 1.78125 -1.84375q1.15625 -0.640625 2.546875 -0.640625q1.5625 0 2.640625 0.8125q1.078125 0.796875 1.5 2.25l-1.375 0.3125q-0.359375 -1.140625 -1.0625 -1.65625q-0.6875 -0.53125 -1.734375 -0.53125q-1.21875 0 -2.03125 0.578125q-0.8125 0.578125 -1.140625 1.5625q-0.328125 0.96875 -0.328125 2.015625q0 1.328125 0.390625 2.328125q0.390625 1.0 1.21875 1.5q0.828125 0.484375 1.78125 0.484375q1.171875 0 1.96875 -0.671875q0.8125 -0.671875 1.09375 -1.984375z" fill-rule="nonzero"/><path fill="#000000" fill-opacity="0.0" d="m383.2478 156.04813l37.269318 0l0 41.524002l-37.269318 0z" fill-rule="evenodd"/><path stroke="#000000" stroke-width="1.0" stroke-linejoin="round" stroke-linecap="butt" d="m383.2478 156.04813l37.269318 0l0 41.524002l-37.269318 0z" fill-rule="evenodd"/><path fill="#000000" fill-opacity="0.0" d="m309.73492 200.85355l73.506775 0l0 41.524002l-73.506775 0z" fill-rule="evenodd"/><path stroke="#000000" stroke-width="1.0" stroke-linejoin="round" stroke-linecap="butt" d="m309.73492 200.85355l73.506775 0l0 41.524002l-73.506775 0z" fill-rule="evenodd"/><path fill="#000000" d="m342.75674 226.69554l0 -10.484375l7.59375 0l0 1.234375l-6.203125 0l0 3.203125l5.796875 0l0 1.234375l-5.796875 0l0 3.578125l6.4375 0l0 1.234375l-7.828125 0z" fill-rule="nonzero"/><path fill="#000000" fill-opacity="0.0" d="m383.2478 200.8539l37.269318 0l0 41.524002l-37.269318 0z" fill-rule="evenodd"/><path stroke="#000000" stroke-width="1.0" stroke-linejoin="round" stroke-linecap="butt" d="m383.2478 200.8539l37.269318 0l0 41.524002l-37.269318 0z" fill-rule="evenodd"/><path fill="#000000" fill-opacity="0.0" d="m249.80687 21.63605l37.259842 0l0 41.51181l-37.259842 0z" fill-rule="evenodd"/><path stroke="#000000" stroke-width="1.0" stroke-linejoin="round" stroke-linecap="butt" d="m249.80687 21.63605l37.259842 0l0 41.51181l-37.259842 0z" fill-rule="evenodd"/><path fill="#000000" d="m262.18375 49.311954l5.125 -13.359375l1.90625 0l5.46875 13.359375l-2.015625 0l-1.546875 -4.046875l-5.59375 0l-1.46875 4.046875l-1.875 0zm3.859375 -5.484375l4.53125 0l-1.40625 -3.703125q-0.625 -1.6875 -0.9375 -2.765625q-0.265625 1.28125 -0.71875 2.546875l-1.46875 3.921875z" fill-rule="nonzero"/><path fill="#000000" fill-opacity="0.0" d="m249.80687 66.441826l37.259842 0l0 41.51181l-37.259842 0z" fill-rule="evenodd"/><path stroke="#000000" stroke-width="1.0" stroke-linejoin="round" stroke-linecap="butt" d="m249.80687 66.441826l37.259842 0l0 41.51181l-37.259842 0z" fill-rule="evenodd"/><path fill="#000000" d="m263.57437 94.11773l0 -13.359375l5.015625 0q1.53125 0 2.453125 0.40625q0.921875 0.40625 1.4375 1.25q0.53125 0.84375 0.53125 1.765625q0 0.859375 -0.46875 1.625q-0.453125 0.75 -1.390625 1.203125q1.203125 0.359375 1.859375 1.21875q0.65625 0.859375 0.65625 2.015625q0 0.9375 -0.40625 1.75q-0.390625 0.796875 -0.984375 1.234375q-0.578125 0.4375 -1.453125 0.671875q-0.875 0.21875 -2.15625 0.21875l-5.09375 0zm1.78125 -7.75l2.875 0q1.1875 0 1.6875 -0.140625q0.671875 -0.203125 1.015625 -0.671875q0.34375 -0.46875 0.34375 -1.171875q0 -0.65625 -0.328125 -1.15625q-0.3125 -0.515625 -0.90625 -0.703125q-0.59375 -0.1875 -2.03125 -0.1875l-2.65625 0l0 4.03125zm0 6.171875l3.3125 0q0.859375 0 1.203125 -0.0625q0.609375 -0.109375 1.015625 -0.359375q0.421875 -0.265625 0.6875 -0.75q0.265625 -0.484375 0.265625 -1.125q0 -0.75 -0.390625 -1.296875q-0.375 -0.546875 -1.0625 -0.765625q-0.671875 -0.234375 -1.953125 -0.234375l-3.078125 0l0 4.59375z" fill-rule="nonzero"/><path fill="#000000" fill-opacity="0.0" d="m249.80687 111.2476l37.259842 0l0 41.511818l-37.259842 0z" fill-rule="evenodd"/><path stroke="#000000" stroke-width="1.0" stroke-linejoin="round" stroke-linecap="butt" d="m249.80687 111.2476l37.259842 0l0 41.511818l-37.259842 0z" fill-rule="evenodd"/><path fill="#000000" d="m272.66907 134.23601l1.765625 0.453125q-0.5625 2.171875 -2.0 3.328125q-1.4375 1.140625 -3.53125 1.140625q-2.15625 0 -3.515625 -0.875q-1.34375 -0.890625 -2.0625 -2.546875q-0.703125 -1.671875 -0.703125 -3.59375q0 -2.078125 0.796875 -3.625q0.796875 -1.5625076 2.265625 -2.3593826q1.484375 -0.8125 3.25 -0.8125q2.0 0 3.359375 1.015625q1.375 1.015625 1.90625 2.8750076l-1.734375 0.40625q-0.46875 -1.453125 -1.359375 -2.1093826q-0.875 -0.671875 -2.203125 -0.671875q-1.546875 0 -2.578125 0.734375q-1.03125 0.7343826 -1.453125 1.9843826q-0.421875 1.234375 -0.421875 2.5625q0 1.703125 0.5 2.96875q0.5 1.265625 1.546875 1.90625q1.046875 0.625 2.265625 0.625q1.484375 0 2.515625 -0.859375q1.03125 -0.859375 1.390625 -2.546875z" fill-rule="nonzero"/><path fill="#000000" fill-opacity="0.0" d="m249.80687 156.05338l37.259842 0l0 41.51181l-37.259842 0z" fill-rule="evenodd"/><path stroke="#000000" stroke-width="1.0" stroke-linejoin="round" stroke-linecap="butt" d="m249.80687 156.05338l37.259842 0l0 41.51181l-37.259842 0z" fill-rule="evenodd"/><path fill="#000000" d="m263.13782 183.72928l0 -13.359375l4.609375 0q1.546875 0 2.375 0.203125q1.140625 0.25 1.953125 0.953125q1.0625 0.890625 1.578125 2.28125q0.53125 1.390625 0.53125 3.171875q0 1.515625 -0.359375 2.703125q-0.359375 1.171875 -0.921875 1.9375q-0.546875 0.765625 -1.203125 1.21875q-0.65625 0.4375 -1.59375 0.671875q-0.9375 0.21875 -2.140625 0.21875l-4.828125 0zm1.765625 -1.578125l2.859375 0q1.3125 0 2.0625 -0.234375q0.75 -0.25 1.203125 -0.703125q0.625 -0.625 0.96875 -1.6875q0.359375 -1.0625 0.359375 -2.578125q0 -2.09375 -0.6875 -3.21875q-0.6875 -1.125 -1.671875 -1.5q-0.703125 -0.28125 -2.28125 -0.28125l-2.8125 0l0 10.203125z" fill-rule="nonzero"/><path fill="#000000" fill-opacity="0.0" d="m249.80687 200.85915l37.259842 0l0 41.51181l-37.259842 0z" fill-rule="evenodd"/><path stroke="#000000" stroke-width="1.0" stroke-linejoin="round" stroke-linecap="butt" d="m249.80687 200.85915l37.259842 0l0 41.51181l-37.259842 0z" fill-rule="evenodd"/><path fill="#000000" d="m263.68375 228.53505l0 -13.359375l9.65625 0l0 1.578125l-7.875 0l0 4.09375l7.375 0l0 1.5625l-7.375 0l0 4.546875l8.1875 0l0 1.578125l-9.96875 0z" fill-rule="nonzero"/><path fill="#000000" fill-opacity="0.0" d="m249.80687 245.66492l37.259842 0l0 41.51181l-37.259842 0z" fill-rule="evenodd"/><path stroke="#000000" stroke-width="1.0" stroke-linejoin="round" stroke-linecap="butt" d="m249.80687 245.66492l37.259842 0l0 41.51181l-37.259842 0z" fill-rule="evenodd"/><path fill="#000000" d="m264.27005 273.34082l0 -13.359375l9.015625 0l0 1.578125l-7.25 0l0 4.140625l6.265625 0l0 1.578125l-6.265625 0l0 6.0625l-1.765625 0z" fill-rule="nonzero"/><path fill="#000000" fill-opacity="0.0" d="m443.18637 66.43622l73.506744 0l0 41.52401l-73.506744 0z" fill-rule="evenodd"/><path stroke="#000000" stroke-width="1.0" stroke-linejoin="round" stroke-linecap="butt" d="m443.18637 66.43622l73.506744 0l0 41.52401l-73.506744 0z" fill-rule="evenodd"/><path fill="#000000" d="m483.257 88.606346l1.390625 0.34375q-0.4375 1.703125 -1.578125 2.609375q-1.125 0.890625 -2.765625 0.890625q-1.6875 0 -2.75 -0.6875q-1.0625 -0.6875 -1.625 -2.0q-0.546875 -1.3125 -0.546875 -2.8125q0 -1.640625 0.625 -2.859375q0.625 -1.21875 1.78125 -1.84375q1.15625 -0.640625 2.546875 -0.640625q1.5625 0 2.640625 0.8125q1.078125 0.796875 1.5 2.25l-1.375 0.3125q-0.359375 -1.140625 -1.0625 -1.65625q-0.6875 -0.53125 -1.734375 -0.53125q-1.21875 0 -2.03125 0.578125q-0.8125 0.578125 -1.140625 1.5625q-0.328125 0.96875 -0.328125 2.015625q0 1.328125 0.390625 2.328125q0.390625 1.0 1.21875 1.5q0.828125 0.484375 1.78125 0.484375q1.171875 0 1.96875 -0.671875q0.8125 -0.671875 1.09375 -1.984375z" fill-rule="nonzero"/><path fill="#000000" fill-opacity="0.0" d="m516.6993 66.43658l37.269287 0l0 41.524002l-37.269287 0z" fill-rule="evenodd"/><path stroke="#000000" stroke-width="1.0" stroke-linejoin="round" stroke-linecap="butt" d="m516.6993 66.43658l37.269287 0l0 41.524002l-37.269287 0z" fill-rule="evenodd"/><path fill="#000000" fill-opacity="0.0" d="m576.6378 65.41522l73.506775 0l0 41.52401l-73.506775 0z" fill-rule="evenodd"/><path stroke="#000000" stroke-width="1.0" stroke-linejoin="round" stroke-linecap="butt" d="m576.6378 65.41522l73.506775 0l0 41.52401l-73.506775 0z" fill-rule="evenodd"/><path fill="#000000" d="m609.65967 91.257225l0 -10.484375l7.59375 0l0 1.234375l-6.203125 0l0 3.203125l5.796875 0l0 1.234375l-5.796875 0l0 3.578125l6.4375 0l0 1.234375l-7.828125 0z" fill-rule="nonzero"/><path fill="#000000" fill-opacity="0.0" d="m650.1507 65.41558l37.26935 0l0 41.524002l-37.26935 0z" fill-rule="evenodd"/><path stroke="#000000" stroke-width="1.0" stroke-linejoin="round" stroke-linecap="butt" d="m650.1507 65.41558l37.26935 0l0 41.524002l-37.26935 0z" fill-rule="evenodd"/><path fill="#000000" d="m661.50146 86.18544l0 0c0 -3.130394 2.536438 -5.668083 5.665222 -5.668083l0 0c1.5025635 0 2.9435425 0.5971756 4.0059814 1.6601486c1.062439 1.0629654 1.6593018 2.5046692 1.6593018 4.0079346l0 0c0 3.130394 -2.536438 5.668083 -5.665283 5.668083l0 0c-3.1287842 0 -5.665222 -2.5376892 -5.665222 -5.668083z" fill-rule="evenodd"/><path stroke="#000000" stroke-width="1.0" stroke-linejoin="round" stroke-linecap="butt" d="m661.50146 86.18544l0 0c0 -3.130394 2.536438 -5.668083 5.665222 -5.668083l0 0c1.5025635 0 2.9435425 0.5971756 4.0059814 1.6601486c1.062439 1.0629654 1.6593018 2.5046692 1.6593018 4.0079346l0 0c0 3.130394 -2.536438 5.668083 -5.665283 5.668083l0 0c-3.1287842 0 -5.665222 -2.5376892 -5.665222 -5.668083z" fill-rule="evenodd"/><path fill="#000000" fill-opacity="0.0" d="m443.18637 111.242l73.506744 0l0 41.52401l-73.506744 0z" fill-rule="evenodd"/><path stroke="#000000" stroke-width="1.0" stroke-linejoin="round" stroke-linecap="butt" d="m443.18637 111.242l73.506744 0l0 41.52401l-73.506744 0z" fill-rule="evenodd"/><path fill="#000000" d="m475.7726 137.084l0 -10.484375l3.625 0q1.21875 0 1.859375 0.140625q0.90625 0.203125 1.546875 0.75q0.828125 0.703125 1.234375 1.796875q0.40625 1.09375 0.40625 2.5q0 1.1875 -0.28125 2.109375q-0.265625 0.921875 -0.703125 1.53125q-0.4375 0.609375 -0.96875 0.953125q-0.515625 0.34375 -1.25 0.53125q-0.71875 0.171875 -1.671875 0.171875l-3.796875 0zm1.390625 -1.234375l2.25 0q1.03125 0 1.625 -0.1875q0.59375 -0.203125 0.9375 -0.546875q0.5 -0.5 0.765625 -1.328125q0.28125 -0.84375 0.28125 -2.03125q0 -1.640625 -0.546875 -2.515625q-0.53125 -0.890625 -1.3125 -1.1875q-0.546875 -0.21875 -1.796875 -0.21875l-2.203125 0l0 8.015625z" fill-rule="nonzero"/><path fill="#000000" fill-opacity="0.0" d="m516.6993 111.24235l37.269287 0l0 41.52401l-37.269287 0z" fill-rule="evenodd"/><path stroke="#000000" stroke-width="1.0" stroke-linejoin="round" stroke-linecap="butt" d="m516.6993 111.24235l37.269287 0l0 41.52401l-37.269287 0z" fill-rule="evenodd"/><path fill="#000000" fill-opacity="0.0" d="m576.6378 111.242l73.506775 0l0 41.52401l-73.506775 0z" fill-rule="evenodd"/><path stroke="#000000" stroke-width="1.0" stroke-linejoin="round" stroke-linecap="butt" d="m576.6378 111.242l73.506775 0l0 41.52401l-73.506775 0z" fill-rule="evenodd"/><path fill="#000000" d="m609.65967 137.084l0 -10.484375l7.59375 0l0 1.234375l-6.203125 0l0 3.203125l5.796875 0l0 1.234375l-5.796875 0l0 3.578125l6.4375 0l0 1.234375l-7.828125 0z" fill-rule="nonzero"/><path fill="#000000" fill-opacity="0.0" d="m650.1507 111.24235l37.26935 0l0 41.52401l-37.26935 0z" fill-rule="evenodd"/><path stroke="#000000" stroke-width="1.0" stroke-linejoin="round" stroke-linecap="butt" d="m650.1507 111.24235l37.26935 0l0 41.52401l-37.26935 0z" fill-rule="evenodd"/><path fill="#000000" d="m661.50146 132.0122l0 0c0 -3.1303864 2.536438 -5.6680756 5.665222 -5.6680756l0 0c1.5025635 0 2.9435425 0.59716797 4.0059814 1.660141c1.062439 1.062973 1.6593018 2.5046692 1.6593018 4.0079346l0 0c0 3.1304016 -2.536438 5.668091 -5.665283 5.668091l0 0c-3.1287842 0 -5.665222 -2.5376892 -5.665222 -5.668091z" fill-rule="evenodd"/><path stroke="#000000" stroke-width="1.0" stroke-linejoin="round" stroke-linecap="butt" d="m661.50146 132.0122l0 0c0 -3.1303864 2.536438 -5.6680756 5.665222 -5.6680756l0 0c1.5025635 0 2.9435425 0.59716797 4.0059814 1.660141c1.062439 1.062973 1.6593018 2.5046692 1.6593018 4.0079346l0 0c0 3.1304016 -2.536438 5.668091 -5.665283 5.668091l0 0c-3.1287842 0 -5.665222 -2.5376892 -5.665222 -5.668091z" fill-rule="evenodd"/><path fill="#000000" fill-opacity="0.0" d="m443.18637 156.04778l73.506744 0l0 41.524002l-73.506744 0z" fill-rule="evenodd"/><path stroke="#000000" stroke-width="1.0" stroke-linejoin="round" stroke-linecap="butt" d="m443.18637 156.04778l73.506744 0l0 41.524002l-73.506744 0z" fill-rule="evenodd"/><path fill="#000000" d="m476.2082 181.88977l0 -10.484375l7.59375 0l0 1.234375l-6.203125 0l0 3.203125l5.796875 0l0 1.234375l-5.796875 0l0 3.578125l6.4375 0l0 1.234375l-7.828125 0z" fill-rule="nonzero"/><path fill="#000000" fill-opacity="0.0" d="m516.6993 156.04813l37.269287 0l0 41.524002l-37.269287 0z" fill-rule="evenodd"/><path stroke="#000000" stroke-width="1.0" stroke-linejoin="round" stroke-linecap="butt" d="m516.6993 156.04813l37.269287 0l0 41.524002l-37.269287 0z" fill-rule="evenodd"/><path fill="#000000" d="m528.05 176.818l0 0c0 -3.1304016 2.536438 -5.668091 5.665283 -5.668091l0 0c1.5025024 0 2.9434814 0.59716797 4.0059204 1.660141c1.062439 1.062973 1.6593628 2.5046692 1.6593628 4.00795l0 0c0 3.1303864 -2.536438 5.6680756 -5.665283 5.6680756l0 0c-3.1288452 0 -5.665283 -2.5376892 -5.665283 -5.6680756z" fill-rule="evenodd"/><path stroke="#000000" stroke-width="1.0" stroke-linejoin="round" stroke-linecap="butt" d="m528.05 176.818l0 0c0 -3.1304016 2.536438 -5.668091 5.665283 -5.668091l0 0c1.5025024 0 2.9434814 0.59716797 4.0059204 1.660141c1.062439 1.062973 1.6593628 2.5046692 1.6593628 4.00795l0 0c0 3.1303864 -2.536438 5.6680756 -5.665283 5.6680756l0 0c-3.1288452 0 -5.665283 -2.5376892 -5.665283 -5.6680756z" fill-rule="evenodd"/><path fill="#000000" fill-opacity="0.0" d="m443.18637 200.85355l73.506744 0l0 41.524002l-73.506744 0z" fill-rule="evenodd"/><path stroke="#000000" stroke-width="1.0" stroke-linejoin="round" stroke-linecap="butt" d="m443.18637 200.85355l73.506744 0l0 41.524002l-73.506744 0z" fill-rule="evenodd"/><path fill="#000000" d="m483.257 223.02367l1.390625 0.34375q-0.4375 1.703125 -1.578125 2.609375q-1.125 0.890625 -2.765625 0.890625q-1.6875 0 -2.75 -0.6875q-1.0625 -0.6875 -1.625 -2.0q-0.546875 -1.3125 -0.546875 -2.8125q0 -1.640625 0.625 -2.859375q0.625 -1.21875 1.78125 -1.84375q1.15625 -0.640625 2.546875 -0.640625q1.5625 0 2.640625 0.8125q1.078125 0.796875 1.5 2.25l-1.375 0.3125q-0.359375 -1.140625 -1.0625 -1.65625q-0.6875 -0.53125 -1.734375 -0.53125q-1.21875 0 -2.03125 0.578125q-0.8125 0.578125 -1.140625 1.5625q-0.328125 0.96875 -0.328125 2.015625q0 1.328125 0.390625 2.328125q0.390625 1.0 1.21875 1.5q0.828125 0.484375 1.78125 0.484375q1.171875 0 1.96875 -0.671875q0.8125 -0.671875 1.09375 -1.984375z" fill-rule="nonzero"/><path fill="#000000" fill-opacity="0.0" d="m516.6993 200.8539l37.269287 0l0 41.524002l-37.269287 0z" fill-rule="evenodd"/><path stroke="#000000" stroke-width="1.0" stroke-linejoin="round" stroke-linecap="butt" d="m516.6993 200.8539l37.269287 0l0 41.524002l-37.269287 0z" fill-rule="evenodd"/><path fill="#000000" fill-opacity="0.0" d="m576.6378 200.85355l73.506775 0l0 41.524002l-73.506775 0z" fill-rule="evenodd"/><path stroke="#000000" stroke-width="1.0" stroke-linejoin="round" stroke-linecap="butt" d="m576.6378 200.85355l73.506775 0l0 41.524002l-73.506775 0z" fill-rule="evenodd"/><path fill="#000000" d="m609.22406 226.69554l0 -10.484375l3.625 0q1.21875 0 1.859375 0.140625q0.90625 0.203125 1.546875 0.75q0.828125 0.703125 1.234375 1.796875q0.40625 1.09375 0.40625 2.5q0 1.1875 -0.28125 2.109375q-0.265625 0.921875 -0.703125 1.53125q-0.4375 0.609375 -0.96875 0.953125q-0.515625 0.34375 -1.25 0.53125q-0.71875 0.171875 -1.671875 0.171875l-3.796875 0zm1.390625 -1.234375l2.25 0q1.03125 0 1.625 -0.1875q0.59375 -0.203125 0.9375 -0.546875q0.5 -0.5 0.765625 -1.328125q0.28125 -0.84375 0.28125 -2.03125q0 -1.640625 -0.546875 -2.515625q-0.53125 -0.890625 -1.3125 -1.1875q-0.546875 -0.21875 -1.796875 -0.21875l-2.203125 0l0 8.015625z" fill-rule="nonzero"/><path fill="#000000" fill-opacity="0.0" d="m650.1507 200.8539l37.26935 0l0 41.524002l-37.26935 0z" fill-rule="evenodd"/><path stroke="#000000" stroke-width="1.0" stroke-linejoin="round" stroke-linecap="butt" d="m650.1507 200.8539l37.26935 0l0 41.524002l-37.26935 0z" fill-rule="evenodd"/><path fill="#000000" fill-opacity="0.0" d="m710.0893 200.85355l73.506714 0l0 41.524002l-73.506714 0z" fill-rule="evenodd"/><path stroke="#000000" stroke-width="1.0" stroke-linejoin="round" stroke-linecap="butt" d="m710.0893 200.85355l73.506714 0l0 41.524002l-73.506714 0z" fill-rule="evenodd"/><path fill="#000000" d="m743.56946 226.69554l0 -10.484375l7.078125 0l0 1.234375l-5.6875 0l0 3.25l4.921875 0l0 1.234375l-4.921875 0l0 4.765625l-1.390625 0z" fill-rule="nonzero"/><path fill="#000000" fill-opacity="0.0" d="m783.6022 200.8539l37.269287 0l0 41.524002l-37.269287 0z" fill-rule="evenodd"/><path stroke="#000000" stroke-width="1.0" stroke-linejoin="round" stroke-linecap="butt" d="m783.6022 200.8539l37.269287 0l0 41.524002l-37.269287 0z" fill-rule="evenodd"/><path fill="#000000" d="m794.9529 221.62376l0 0c0 -3.1304016 2.536438 -5.668091 5.665283 -5.668091l0 0c1.5025024 0 2.9434814 0.5971832 4.0059204 1.6601562c1.062439 1.0629578 1.6593018 2.5046692 1.6593018 4.0079346l0 0c0 3.1303864 -2.536377 5.6680756 -5.665222 5.6680756l0 0c-3.1288452 0 -5.665283 -2.5376892 -5.665283 -5.6680756z" fill-rule="evenodd"/><path stroke="#000000" stroke-width="1.0" stroke-linejoin="round" stroke-linecap="butt" d="m794.9529 221.62376l0 0c0 -3.1304016 2.536438 -5.668091 5.665283 -5.668091l0 0c1.5025024 0 2.9434814 0.5971832 4.0059204 1.6601562c1.062439 1.0629578 1.6593018 2.5046692 1.6593018 4.0079346l0 0c0 3.1303864 -2.536377 5.6680756 -5.665222 5.6680756l0 0c-3.1288452 0 -5.665283 -2.5376892 -5.665283 -5.6680756z" fill-rule="evenodd"/><path fill="#000000" fill-opacity="0.0" d="m309.73492 245.65932l73.506775 0l0 41.524002l-73.506775 0z" fill-rule="evenodd"/><path stroke="#000000" stroke-width="1.0" stroke-linejoin="round" stroke-linecap="butt" d="m309.73492 245.65932l73.506775 0l0 41.524002l-73.506775 0z" fill-rule="evenodd"/><path fill="#000000" d="m342.75674 271.5013l0 -10.484375l7.59375 0l0 1.234375l-6.203125 0l0 3.203125l5.796875 0l0 1.234375l-5.796875 0l0 3.578125l6.4375 0l0 1.234375l-7.828125 0z" fill-rule="nonzero"/><path fill="#000000" fill-opacity="0.0" d="m383.2478 245.65967l37.269318 0l0 41.524017l-37.269318 0z" fill-rule="evenodd"/><path stroke="#000000" stroke-width="1.0" stroke-linejoin="round" stroke-linecap="butt" d="m383.2478 245.65967l37.269318 0l0 41.524017l-37.269318 0z" fill-rule="evenodd"/><path fill="#000000" d="m395.10776 266.415l0 0c0 -3.131073 2.538208 -5.6693115 5.669281 -5.6693115l0 0c1.5036011 0 2.9455872 0.59732056 4.008789 1.660492c1.0632019 1.0632019 1.6605225 2.5052185 1.6605225 4.0088196l0 0c0 3.1310425 -2.5382385 5.669281 -5.6693115 5.669281l0 0c-3.131073 0 -5.669281 -2.5382385 -5.669281 -5.669281z" fill-rule="evenodd"/><path stroke="#000000" stroke-width="1.0" stroke-linejoin="round" stroke-linecap="butt" d="m395.10776 266.415l0 0c0 -3.131073 2.538208 -5.6693115 5.669281 -5.6693115l0 0c1.5036011 0 2.9455872 0.59732056 4.008789 1.660492c1.0632019 1.0632019 1.6605225 2.5052185 1.6605225 4.0088196l0 0c0 3.1310425 -2.5382385 5.669281 -5.6693115 5.669281l0 0c-3.131073 0 -5.669281 -2.5382385 -5.669281 -5.669281z" fill-rule="evenodd"/><path fill="#000000" fill-opacity="0.0" d="m287.0667 42.391956l22.677155 0" fill-rule="evenodd"/><path stroke="#000000" stroke-width="1.0" stroke-linejoin="round" stroke-linecap="butt" d="m287.0667 42.391956l16.677155 0" fill-rule="evenodd"/><path fill="#000000" stroke="#000000" stroke-width="1.0" stroke-linecap="butt" d="m303.74387 44.043686l4.538086 -1.6517296l-4.538086 -1.6517334z" fill-rule="evenodd"/><path fill="#000000" fill-opacity="0.0" d="m287.0667 87.19773l22.677155 0" fill-rule="evenodd"/><path stroke="#000000" stroke-width="1.0" stroke-linejoin="round" stroke-linecap="butt" d="m287.0667 87.19773l16.677155 0" fill-rule="evenodd"/><path fill="#000000" stroke="#000000" stroke-width="1.0" stroke-linecap="butt" d="m303.74387 88.849464l4.538086 -1.6517334l-4.538086 -1.6517334z" fill-rule="evenodd"/><path fill="#000000" fill-opacity="0.0" d="m287.0667 132.00351l22.677155 0" fill-rule="evenodd"/><path stroke="#000000" stroke-width="1.0" stroke-linejoin="round" stroke-linecap="butt" d="m287.0667 132.00351l16.677155 0" fill-rule="evenodd"/><path fill="#000000" stroke="#000000" stroke-width="1.0" stroke-linecap="butt" d="m303.74387 133.65524l4.538086 -1.6517334l-4.538086 -1.6517334z" fill-rule="evenodd"/><path fill="#000000" fill-opacity="0.0" d="m287.0667 176.80928l22.677155 0" fill-rule="evenodd"/><path stroke="#000000" stroke-width="1.0" stroke-linejoin="round" stroke-linecap="butt" d="m287.0667 176.80928l16.677155 0" fill-rule="evenodd"/><path fill="#000000" stroke="#000000" stroke-width="1.0" stroke-linecap="butt" d="m303.74387 178.46101l4.538086 -1.6517334l-4.538086 -1.6517334z" fill-rule="evenodd"/><path fill="#000000" fill-opacity="0.0" d="m287.0667 221.61505l22.677155 0" fill-rule="evenodd"/><path stroke="#000000" stroke-width="1.0" stroke-linejoin="round" stroke-linecap="butt" d="m287.0667 221.61505l16.677155 0" fill-rule="evenodd"/><path fill="#000000" stroke="#000000" stroke-width="1.0" stroke-linecap="butt" d="m303.74387 223.26678l4.538086 -1.6517334l-4.538086 -1.6517334z" fill-rule="evenodd"/><path fill="#000000" fill-opacity="0.0" d="m287.0667 266.42084l22.677155 0" fill-rule="evenodd"/><path stroke="#000000" stroke-width="1.0" stroke-linejoin="round" stroke-linecap="butt" d="m287.0667 266.42084l16.677155 0" fill-rule="evenodd"/><path fill="#000000" stroke="#000000" stroke-width="1.0" stroke-linecap="butt" d="m303.74387 268.07257l4.538086 -1.6517334l-4.538086 -1.6517334z" fill-rule="evenodd"/><path fill="#000000" fill-opacity="0.0" d="m420.51712 221.6159l22.677185 0" fill-rule="evenodd"/><path stroke="#000000" stroke-width="1.0" stroke-linejoin="round" stroke-linecap="butt" d="m420.51715 221.61589l16.677155 0" fill-rule="evenodd"/><path fill="#000000" stroke="#000000" stroke-width="1.0" stroke-linecap="butt" d="m437.1943 223.26762l4.538086 -1.6517334l-4.538086 -1.6517334z" fill-rule="evenodd"/><path fill="#000000" fill-opacity="0.0" d="m553.96857 221.6159l22.677185 0" fill-rule="evenodd"/><path stroke="#000000" stroke-width="1.0" stroke-linejoin="round" stroke-linecap="butt" d="m553.96857 221.61589l16.677185 0" fill-rule="evenodd"/><path fill="#000000" stroke="#000000" stroke-width="1.0" stroke-linecap="butt" d="m570.64575 223.26762l4.538086 -1.6517334l-4.538086 -1.6517334z" fill-rule="evenodd"/><path fill="#000000" fill-opacity="0.0" d="m687.42004 221.6159l22.677124 0" fill-rule="evenodd"/><path stroke="#000000" stroke-width="1.0" stroke-linejoin="round" stroke-linecap="butt" d="m687.42004 221.61589l16.677124 0" fill-rule="evenodd"/><path fill="#000000" stroke="#000000" stroke-width="1.0" stroke-linecap="butt" d="m704.09717 223.26762l4.538147 -1.6517334l-4.538147 -1.6517334z" fill-rule="evenodd"/><path fill="#000000" fill-opacity="0.0" d="m420.51712 176.81012l22.677185 0" fill-rule="evenodd"/><path stroke="#000000" stroke-width="1.0" stroke-linejoin="round" stroke-linecap="butt" d="m420.51715 176.81012l16.677155 0" fill-rule="evenodd"/><path fill="#000000" stroke="#000000" stroke-width="1.0" stroke-linecap="butt" d="m437.1943 178.46185l4.538086 -1.6517334l-4.538086 -1.6517334z" fill-rule="evenodd"/><path fill="#000000" fill-opacity="0.0" d="m420.51712 132.00435l22.677185 0" fill-rule="evenodd"/><path stroke="#000000" stroke-width="1.0" stroke-linejoin="round" stroke-linecap="butt" d="m420.51715 132.00435l16.677155 0" fill-rule="evenodd"/><path fill="#000000" stroke="#000000" stroke-width="1.0" stroke-linecap="butt" d="m437.1943 133.65608l4.538086 -1.6517334l-4.538086 -1.6517334z" fill-rule="evenodd"/><path fill="#000000" fill-opacity="0.0" d="m553.96857 132.00435l22.677185 0" fill-rule="evenodd"/><path stroke="#000000" stroke-width="1.0" stroke-linejoin="round" stroke-linecap="butt" d="m553.96857 132.00435l16.677185 0" fill-rule="evenodd"/><path fill="#000000" stroke="#000000" stroke-width="1.0" stroke-linecap="butt" d="m570.64575 133.65608l4.538086 -1.6517334l-4.538086 -1.6517334z" fill-rule="evenodd"/><path fill="#000000" fill-opacity="0.0" d="m553.96857 87.19858l22.677185 -1.0078735" fill-rule="evenodd"/><path stroke="#000000" stroke-width="1.0" stroke-linejoin="round" stroke-linecap="butt" d="m553.96857 87.19857l16.683105 -0.74147034" fill-rule="evenodd"/><path fill="#000000" stroke="#000000" stroke-width="1.0" stroke-linecap="butt" d="m570.72504 88.10721l4.460266 -1.8516006l-4.6069946 -1.4486084z" fill-rule="evenodd"/><path fill="#000000" fill-opacity="0.0" d="m420.51712 87.19858l22.677185 0" fill-rule="evenodd"/><path stroke="#000000" stroke-width="1.0" stroke-linejoin="round" stroke-linecap="butt" d="m420.51715 87.19857l16.677155 0" fill-rule="evenodd"/><path fill="#000000" stroke="#000000" stroke-width="1.0" stroke-linecap="butt" d="m437.1943 88.8503l4.538086 -1.6517334l-4.538086 -1.6517334z" fill-rule="evenodd"/></g></svg>