<svg version="1.1" viewBox="0.0 0.0 1090.8083989501313 314.87401574803147" fill="none" stroke="none" stroke-linecap="square" stroke-miterlimit="10" xmlns:xlink="http://www.w3.org/1999/xlink" xmlns="http://www.w3.org/2000/svg"><clipPath id="p.0"><path d="m0 0l1090.8083 0l0 314.87402l-1090.8083 0l0 -314.87402z" clip-rule="nonzero"/></clipPath><g clip-path="url(#p.0)"><path fill="#000000" fill-opacity="0.0" d="m0 0l1090.8083 0l0 314.87402l-1090.8083 0z" fill-rule="evenodd"/><path fill="#000000" fill-opacity="0.0" d="m240.60892 25.440945l0 0c0 -10.436877 8.46077 -18.897636 18.897644 -18.897636l0 0c5.011963 0 9.818665 1.9909954 13.36264 5.5349894c3.5440063 3.543995 5.5350037 8.350683 5.5350037 13.362648l0 0c0 10.436878 -8.460754 18.897636 -18.897644 18.897636l0 0c-10.436874 0 -18.897644 -8.460758 -18.897644 -18.897636z" fill-rule="evenodd"/><path stroke="#000000" stroke-width="1.0" stroke-linejoin="round" stroke-linecap="butt" d="m240.60892 25.440945l0 0c0 -10.436877 8.46077 -18.897636 18.897644 -18.897636l0 0c5.011963 0 9.818665 1.9909954 13.36264 5.5349894c3.5440063 3.543995 5.5350037 8.350683 5.5350037 13.362648l0 0c0 10.436878 -8.460754 18.897636 -18.897644 18.897636l0 0c-10.436874 0 -18.897644 -8.460758 -18.897644 -18.897636z" fill-rule="evenodd"/><path fill="#000000" d="m258.7191 23.037819l-1.15625 0.09375q-0.15625 -0.6875 -0.4375 -1.0q-0.484375 -0.5 -1.171875 -0.5q-0.5625 0 -0.984375 0.3125q-0.5625 0.390625 -0.890625 1.171875q-0.3125 0.765625 -0.3125 2.203125q0.421875 -0.640625 1.03125 -0.953125q0.609375 -0.3125 1.28125 -0.3125q1.171875 0 1.984375 0.859375q0.828125 0.859375 0.828125 2.234375q0 0.890625 -0.390625 1.671875q-0.375 0.765625 -1.0625 1.171875q-0.671875 0.40625 -1.53125 0.40625q-1.46875 0 -2.390625 -1.0625q-0.921875 -1.078125 -0.921875 -3.5625q0 -2.765625 1.015625 -4.015625q0.90625 -1.09375 2.40625 -1.09375q1.125 0 1.84375 0.640625q0.71875 0.625 0.859375 1.734375zm-4.78125 4.109375q0 0.609375 0.25 1.171875q0.265625 0.546875 0.71875 0.84375q0.46875 0.28125 0.984375 0.28125q0.734375 0 1.265625 -0.59375q0.546875 -0.609375 0.546875 -1.640625q0 -0.984375 -0.53125 -1.546875q-0.53125 -0.578125 -1.328125 -0.578125q-0.796875 0 -1.359375 0.578125q-0.546875 0.5625 -0.546875 1.484375zm6.1156006 -1.609375q0 -1.6875 0.34375 -2.71875q0.359375 -1.03125 1.046875 -1.59375q0.6875 -0.5625 1.71875 -0.5625q0.78125 0 1.359375 0.3125q0.578125 0.296875 0.953125 0.890625q0.375 0.578125 0.59375 1.421875q0.21875 0.828125 0.21875 2.25q0 1.671875 -0.359375 2.703125q-0.34375 1.03125 -1.03125 1.59375q-0.671875 0.5625 -1.734375 0.5625q-1.375 0 -2.15625 -0.984375q-0.953125 -1.1875 -0.953125 -3.875zm1.203125 0q0 2.34375 0.546875 3.125q0.5625 0.78125 1.359375 0.78125q0.8125 0 1.359375 -0.78125q0.5625 -0.78125 0.5625 -3.125q0 -2.359375 -0.5625 -3.125q-0.546875 -0.78125 -1.359375 -0.78125q-0.8125 0 -1.296875 0.6875q-0.609375 0.875 -0.609375 3.21875z" fill-rule="nonzero"/><path fill="#000000" fill-opacity="0.0" d="m112.35958 94.04724l0 0c0 -10.436874 8.460762 -18.897636 18.897636 -18.897636l0 0c5.011963 0 9.818649 1.9909973 13.362656 5.5349884c3.543991 3.5439987 5.5349884 8.350685 5.5349884 13.362648l0 0c0 10.436882 -8.46077 18.897644 -18.897644 18.897644l0 0c-10.436874 0 -18.897636 -8.460762 -18.897636 -18.897644z" fill-rule="evenodd"/><path stroke="#000000" stroke-width="1.0" stroke-linejoin="round" stroke-linecap="butt" d="m112.35958 94.04724l0 0c0 -10.436874 8.460762 -18.897636 18.897636 -18.897636l0 0c5.011963 0 9.818649 1.9909973 13.362656 5.5349884c3.543991 3.5439987 5.5349884 8.350685 5.5349884 13.362648l0 0c0 10.436882 -8.46077 18.897644 -18.897644 18.897644l0 0c-10.436874 0 -18.897636 -8.460762 -18.897636 -18.897644z" fill-rule="evenodd"/><path fill="#000000" d="m127.840485 99.12724l0 -2.515625l-4.546875 0l0 -1.171875l4.78125 -6.796875l1.0625 0l0 6.796875l1.40625 0l0 1.171875l-1.40625 0l0 2.515625l-1.296875 0zm0 -3.6875l0 -4.734375l-3.28125 4.734375l3.28125 0zm4.104233 -5.4375l0 -1.234375l6.796875 0l0 1.0q-1.0 1.078125 -1.984375 2.84375q-0.984375 1.765625 -1.515625 3.625q-0.390625 1.328125 -0.5 2.890625l-1.328125 0q0.03125 -1.234375 0.484375 -2.984375q0.46875 -1.765625 1.34375 -3.390625q0.875 -1.625 1.84375 -2.75l-5.140625 0z" fill-rule="nonzero"/><path fill="#000000" fill-opacity="0.0" d="m407.41733 94.04724l0 0c0 -10.436874 8.460754 -18.897636 18.897644 -18.897636l0 0c5.011963 0 9.818634 1.9909973 13.36264 5.5349884c3.5439758 3.5439987 5.534973 8.350685 5.534973 13.362648l0 0c0 10.436882 -8.460754 18.897644 -18.897614 18.897644l0 0c-10.43689 0 -18.897644 -8.460762 -18.897644 -18.897644z" fill-rule="evenodd"/><path stroke="#000000" stroke-width="1.0" stroke-linejoin="round" stroke-linecap="butt" d="m407.41733 94.04724l0 0c0 -10.436874 8.460754 -18.897636 18.897644 -18.897636l0 0c5.011963 0 9.818634 1.9909973 13.36264 5.5349884c3.5439758 3.5439987 5.534973 8.350685 5.534973 13.362648l0 0c0 10.436882 -8.460754 18.897644 -18.897614 18.897644l0 0c-10.43689 0 -18.897644 -8.460762 -18.897644 -18.897644z" fill-rule="evenodd"/><path fill="#000000" d="m418.77322 96.36162l1.296875 -0.171875q0.21875 1.09375 0.75 1.578125q0.53125 0.484375 1.296875 0.484375q0.90625 0 1.53125 -0.625q0.640625 -0.640625 0.640625 -1.5625q0 -0.890625 -0.59375 -1.46875q-0.578125 -0.578125 -1.46875 -0.578125q-0.359375 0 -0.90625 0.140625l0.140625 -1.125q0.125 0.015625 0.203125 0.015625q0.828125 0 1.484375 -0.421875q0.65625 -0.4375 0.65625 -1.34375q0 -0.703125 -0.484375 -1.15625q-0.46875 -0.46875 -1.234375 -0.46875q-0.75 0 -1.25 0.46875q-0.5 0.46875 -0.640625 1.421875l-1.28125 -0.234375q0.234375 -1.296875 1.0625 -2.0q0.84375 -0.71875 2.09375 -0.71875q0.859375 0 1.578125 0.375q0.71875 0.359375 1.09375 1.0q0.390625 0.640625 0.390625 1.34375q0 0.6875 -0.375 1.25q-0.359375 0.546875 -1.0625 0.875q0.921875 0.21875 1.4375 0.90625q0.515625 0.671875 0.515625 1.6875q0 1.375 -1.0 2.328125q-1.0 0.953125 -2.53125 0.953125q-1.390625 0 -2.296875 -0.8125q-0.90625 -0.828125 -1.046875 -2.140625zm8.338623 0.34375l1.25 -0.125q0.15625 0.875 0.59375 1.28125q0.4375 0.390625 1.140625 0.390625q0.59375 0 1.03125 -0.265625q0.453125 -0.28125 0.734375 -0.734375q0.296875 -0.453125 0.484375 -1.21875q0.1875 -0.78125 0.1875 -1.59375q0 -0.078125 0 -0.25q-0.390625 0.609375 -1.0625 1.0q-0.65625 0.375 -1.4375 0.375q-1.3125 0 -2.21875 -0.9375q-0.890625 -0.953125 -0.890625 -2.484375q0 -1.609375 0.9375 -2.578125q0.9375 -0.96875 2.359375 -0.96875q1.03125 0 1.875 0.546875q0.84375 0.546875 1.28125 1.578125q0.4375 1.015625 0.4375 2.953125q0 2.0 -0.4375 3.203125q-0.421875 1.1875 -1.296875 1.8125q-0.859375 0.609375 -2.015625 0.609375q-1.234375 0 -2.015625 -0.671875q-0.78125 -0.6875 -0.9375 -1.921875zm5.28125 -4.640625q0 -1.109375 -0.59375 -1.75q-0.59375 -0.65625 -1.421875 -0.65625q-0.859375 0 -1.5 0.703125q-0.625 0.703125 -0.625 1.8125q0 1.0 0.59375 1.640625q0.609375 0.625 1.5 0.625q0.890625 0 1.46875 -0.625q0.578125 -0.640625 0.578125 -1.75z" fill-rule="nonzero"/><path fill="#000000" fill-opacity="0.0" d="m43.98294 152.63255l0 0c0 -10.43689 8.460758 -18.897644 18.897636 -18.897644l0 0c5.011963 0 9.818657 1.9909973 13.362648 5.5349884c3.543991 3.543991 5.5349884 8.3506775 5.5349884 13.362656l0 0c0 10.436874 -8.460762 18.897629 -18.897636 18.897629l0 0c-10.436878 0 -18.897636 -8.460754 -18.897636 -18.897629z" fill-rule="evenodd"/><path stroke="#000000" stroke-width="1.0" stroke-linejoin="round" stroke-linecap="butt" d="m43.98294 152.63255l0 0c0 -10.43689 8.460758 -18.897644 18.897636 -18.897644l0 0c5.011963 0 9.818657 1.9909973 13.362648 5.5349884c3.543991 3.543991 5.5349884 8.3506775 5.5349884 13.362656l0 0c0 10.436874 -8.460762 18.897629 -18.897636 18.897629l0 0c-10.436878 0 -18.897636 -8.460754 -18.897636 -18.897629z" fill-rule="evenodd"/><path fill="#000000" d="m55.338844 154.94691l1.296875 -0.171875q0.21875 1.09375 0.75 1.578125q0.53125 0.484375 1.296875 0.484375q0.90625 0 1.53125 -0.625q0.640625 -0.640625 0.640625 -1.5625q0 -0.890625 -0.59375 -1.46875q-0.578125 -0.578125 -1.46875 -0.578125q-0.359375 0 -0.90625 0.140625l0.140625 -1.125q0.125 0.015625 0.203125 0.015625q0.828125 0 1.484375 -0.421875q0.65625 -0.4375 0.65625 -1.34375q0 -0.703125 -0.484375 -1.15625q-0.46875 -0.46875 -1.234375 -0.46875q-0.75 0 -1.25 0.46875q-0.5 0.46875 -0.640625 1.421875l-1.28125 -0.234375q0.234375 -1.296875 1.0625 -2.0q0.84375 -0.71875 2.09375 -0.71875q0.859375 0 1.578125 0.375q0.71875 0.359375 1.09375 1.0q0.390625 0.640625 0.390625 1.34375q0 0.6875 -0.375 1.25q-0.359375 0.546875 -1.0625 0.875q0.921875 0.21875 1.4375 0.90625q0.515625 0.671875 0.515625 1.6875q0 1.375 -1.0 2.328125q-1.0 0.953125 -2.53125 0.953125q-1.390625 0 -2.296875 -0.8125q-0.90625 -0.828125 -1.046875 -2.140625zm10.135483 -2.921875q-0.796875 -0.296875 -1.1875 -0.84375q-0.390625 -0.546875 -0.390625 -1.296875q0 -1.140625 0.8125 -1.921875q0.828125 -0.78125 2.203125 -0.78125q1.375 0 2.203125 0.796875q0.84375 0.796875 0.84375 1.9375q0 0.734375 -0.390625 1.28125q-0.375 0.53125 -1.15625 0.828125q0.96875 0.3125 1.46875 1.015625q0.5 0.703125 0.5 1.671875q0 1.34375 -0.953125 2.265625q-0.9375 0.90625 -2.5 0.90625q-1.546875 0 -2.5 -0.90625q-0.953125 -0.921875 -0.953125 -2.296875q0 -1.03125 0.515625 -1.71875q0.515625 -0.6875 1.484375 -0.9375zm-0.265625 -2.1875q0 0.75 0.484375 1.21875q0.484375 0.46875 1.25 0.46875q0.734375 0 1.203125 -0.46875q0.484375 -0.46875 0.484375 -1.140625q0 -0.71875 -0.5 -1.1875q-0.484375 -0.484375 -1.203125 -0.484375q-0.734375 0 -1.234375 0.46875q-0.484375 0.46875 -0.484375 1.125zm-0.40625 4.84375q0 0.5625 0.25 1.078125q0.265625 0.5 0.78125 0.796875q0.515625 0.28125 1.109375 0.28125q0.921875 0 1.515625 -0.59375q0.609375 -0.59375 0.609375 -1.515625q0 -0.9375 -0.625 -1.53125q-0.609375 -0.609375 -1.546875 -0.609375q-0.90625 0 -1.5 0.609375q-0.59375 0.59375 -0.59375 1.484375z" fill-rule="nonzero"/><path fill="#000000" fill-opacity="0.0" d="m180.73491 152.63255l0 0c0 -10.43689 8.460754 -18.897644 18.897644 -18.897644l0 0c5.011963 0 9.818649 1.9909973 13.36264 5.5349884c3.543991 3.543991 5.5349884 8.3506775 5.5349884 13.362656l0 0c0 10.436874 -8.460754 18.897629 -18.897629 18.897629l0 0c-10.43689 0 -18.897644 -8.460754 -18.897644 -18.897629z" fill-rule="evenodd"/><path stroke="#000000" stroke-width="1.0" stroke-linejoin="round" stroke-linecap="butt" d="m180.73491 152.63255l0 0c0 -10.43689 8.460754 -18.897644 18.897644 -18.897644l0 0c5.011963 0 9.818649 1.9909973 13.36264 5.5349884c3.543991 3.543991 5.5349884 8.3506775 5.5349884 13.362656l0 0c0 10.436874 -8.460754 18.897629 -18.897629 18.897629l0 0c-10.43689 0 -18.897644 -8.460754 -18.897644 -18.897629z" fill-rule="evenodd"/><path fill="#000000" d="m196.93457 157.71254l-1.28125 0l0 -8.203125q-0.46875 0.4375 -1.21875 0.890625q-0.75 0.4375 -1.359375 0.65625l0 -1.25q1.078125 -0.5 1.890625 -1.21875q0.8125 -0.734375 1.140625 -1.40625l0.828125 0l0 10.53125zm10.072983 -1.234375l0 1.234375l-6.9375 0q-0.015625 -0.46875 0.15625 -0.890625q0.265625 -0.71875 0.84375 -1.40625q0.59375 -0.6875 1.6875 -1.578125q1.71875 -1.40625 2.3125 -2.21875q0.609375 -0.828125 0.609375 -1.5625q0 -0.765625 -0.5625 -1.28125q-0.546875 -0.53125 -1.421875 -0.53125q-0.921875 0 -1.484375 0.5625q-0.5625 0.5625 -0.5625 1.546875l-1.328125 -0.140625q0.140625 -1.484375 1.015625 -2.25q0.890625 -0.78125 2.390625 -0.78125q1.515625 0 2.390625 0.84375q0.875 0.828125 0.875 2.0625q0 0.640625 -0.265625 1.25q-0.25 0.59375 -0.84375 1.265625q-0.59375 0.671875 -1.984375 1.859375q-1.15625 0.96875 -1.484375 1.3125q-0.328125 0.34375 -0.546875 0.703125l5.140625 0z" fill-rule="nonzero"/><path fill="#000000" fill-opacity="0.0" d="m339.04068 152.63255l0 0c0 -10.43689 8.460754 -18.897644 18.897644 -18.897644l0 0c5.011963 0 9.818665 1.9909973 13.36264 5.5349884c3.5440063 3.543991 5.5350037 8.3506775 5.5350037 13.362656l0 0c0 10.436874 -8.460785 18.897629 -18.897644 18.897629l0 0c-10.43689 0 -18.897644 -8.460754 -18.897644 -18.897629z" fill-rule="evenodd"/><path stroke="#000000" stroke-width="1.0" stroke-linejoin="round" stroke-linecap="butt" d="m339.04068 152.63255l0 0c0 -10.43689 8.460754 -18.897644 18.897644 -18.897644l0 0c5.011963 0 9.818665 1.9909973 13.36264 5.5349884c3.5440063 3.543991 5.5350037 8.3506775 5.5350037 13.362656l0 0c0 10.436874 -8.460785 18.897629 -18.897644 18.897629l0 0c-10.43689 0 -18.897644 -8.460754 -18.897644 -18.897629z" fill-rule="evenodd"/><path fill="#000000" d="m350.39658 154.94691l1.296875 -0.171875q0.21875 1.09375 0.75 1.578125q0.53125 0.484375 1.296875 0.484375q0.90625 0 1.53125 -0.625q0.640625 -0.640625 0.640625 -1.5625q0 -0.890625 -0.59375 -1.46875q-0.578125 -0.578125 -1.46875 -0.578125q-0.359375 0 -0.90625 0.140625l0.140625 -1.125q0.125 0.015625 0.203125 0.015625q0.828125 0 1.484375 -0.421875q0.65625 -0.4375 0.65625 -1.34375q0 -0.703125 -0.484375 -1.15625q-0.46875 -0.46875 -1.234375 -0.46875q-0.75 0 -1.25 0.46875q-0.5 0.46875 -0.640625 1.421875l-1.28125 -0.234375q0.234375 -1.296875 1.0625 -2.0q0.84375 -0.71875 2.09375 -0.71875q0.859375 0 1.578125 0.375q0.71875 0.359375 1.09375 1.0q0.390625 0.640625 0.390625 1.34375q0 0.6875 -0.375 1.25q-0.359375 0.546875 -1.0625 0.875q0.921875 0.21875 1.4375 0.90625q0.515625 0.671875 0.515625 1.6875q0 1.375 -1.0 2.328125q-1.0 0.953125 -2.53125 0.953125q-1.390625 0 -2.296875 -0.8125q-0.90625 -0.828125 -1.046875 -2.140625zm12.276123 2.765625l0 -2.515625l-4.546875 0l0 -1.171875l4.78125 -6.796875l1.0625 0l0 6.796875l1.40625 0l0 1.171875l-1.40625 0l0 2.515625l-1.296875 0zm0 -3.6875l0 -4.734375l-3.28125 4.734375l3.28125 0z" fill-rule="nonzero"/><path fill="#000000" fill-opacity="0.0" d="m475.79266 152.63255l0 0c0 -10.43689 8.460754 -18.897644 18.897614 -18.897644l0 0c5.011963 0 9.818665 1.9909973 13.362671 5.5349884c3.5439758 3.543991 5.5350037 8.3506775 5.5350037 13.362656l0 0c0 10.436874 -8.460785 18.897629 -18.897675 18.897629l0 0c-10.436859 0 -18.897614 -8.460754 -18.897614 -18.897629z" fill-rule="evenodd"/><path stroke="#000000" stroke-width="1.0" stroke-linejoin="round" stroke-linecap="butt" d="m475.79266 152.63255l0 0c0 -10.43689 8.460754 -18.897644 18.897614 -18.897644l0 0c5.011963 0 9.818665 1.9909973 13.362671 5.5349884c3.5439758 3.543991 5.5350037 8.3506775 5.5350037 13.362656l0 0c0 10.436874 -8.460785 18.897629 -18.897675 18.897629l0 0c-10.436859 0 -18.897614 -8.460754 -18.897614 -18.897629z" fill-rule="evenodd"/><path fill="#000000" d="m487.14856 154.94691l1.296875 -0.171875q0.21875 1.09375 0.75 1.578125q0.53125 0.484375 1.296875 0.484375q0.90625 0 1.53125 -0.625q0.640625 -0.640625 0.640625 -1.5625q0 -0.890625 -0.59375 -1.46875q-0.578125 -0.578125 -1.46875 -0.578125q-0.359375 0 -0.90625 0.140625l0.140625 -1.125q0.125 0.015625 0.203125 0.015625q0.828125 0 1.484375 -0.421875q0.65625 -0.4375 0.65625 -1.34375q0 -0.703125 -0.484375 -1.15625q-0.46875 -0.46875 -1.234375 -0.46875q-0.75 0 -1.25 0.46875q-0.5 0.46875 -0.640625 1.421875l-1.28125 -0.234375q0.234375 -1.296875 1.0625 -2.0q0.84375 -0.71875 2.09375 -0.71875q0.859375 0 1.578125 0.375q0.71875 0.359375 1.09375 1.0q0.390625 0.640625 0.390625 1.34375q0 0.6875 -0.375 1.25q-0.359375 0.546875 -1.0625 0.875q0.921875 0.21875 1.4375 0.90625q0.515625 0.671875 0.515625 1.6875q0 1.375 -1.0 2.328125q-1.0 0.953125 -2.53125 0.953125q-1.390625 0 -2.296875 -0.8125q-0.90625 -0.828125 -1.046875 -2.140625zm14.916718 1.53125l0 1.234375l-6.9375 0q-0.015625 -0.46875 0.15625 -0.890625q0.265625 -0.71875 0.84375 -1.40625q0.59375 -0.6875 1.6875 -1.578125q1.71875 -1.40625 2.3125 -2.21875q0.609375 -0.828125 0.609375 -1.5625q0 -0.765625 -0.5625 -1.28125q-0.546875 -0.53125 -1.421875 -0.53125q-0.921875 0 -1.484375 0.5625q-0.5625 0.5625 -0.5625 1.546875l-1.328125 -0.140625q0.140625 -1.484375 1.015625 -2.25q0.890625 -0.78125 2.390625 -0.78125q1.515625 0 2.390625 0.84375q0.875 0.828125 0.875 2.0625q0 0.640625 -0.265625 1.25q-0.25 0.59375 -0.84375 1.265625q-0.59375 0.671875 -1.984375 1.859375q-1.15625 0.96875 -1.484375 1.3125q-0.328125 0.34375 -0.546875 0.703125l5.140625 0z" fill-rule="nonzero"/><path fill="#000000" fill-opacity="0.0" d="m5.422572 224.18636l0 0c0 -10.436874 8.460761 -18.897644 18.897636 -18.897644l0 0c5.011965 0 9.818653 1.9909973 13.362648 5.5349884c3.543995 3.543991 5.5349884 8.350693 5.5349884 13.362656l0 0c0 10.436874 -8.460758 18.897629 -18.897636 18.897629l0 0c-10.436876 0 -18.897636 -8.460754 -18.897636 -18.897629z" fill-rule="evenodd"/><path stroke="#000000" stroke-width="1.0" stroke-linejoin="round" stroke-linecap="butt" d="m5.422572 224.18636l0 0c0 -10.436874 8.460761 -18.897644 18.897636 -18.897644l0 0c5.011965 0 9.818653 1.9909973 13.362648 5.5349884c3.543995 3.543991 5.5349884 8.350693 5.5349884 13.362656l0 0c0 10.436874 -8.460758 18.897629 -18.897636 18.897629l0 0c-10.436876 0 -18.897636 -8.460754 -18.897636 -18.897629z" fill-rule="evenodd"/><path fill="#000000" d="m21.622227 229.26636l-1.28125 0l0 -8.203125q-0.46875 0.4375 -1.21875 0.890625q-0.75 0.4375 -1.359375 0.65625l0 -1.25q1.078125 -0.5 1.890625 -1.21875q0.8125 -0.734375 1.140625 -1.40625l0.828125 0l0 10.53125zm5.291733 -5.6875q-0.796875 -0.296875 -1.1875 -0.84375q-0.390625 -0.546875 -0.390625 -1.296875q0 -1.140625 0.8125 -1.921875q0.828125 -0.78125 2.203125 -0.78125q1.375 0 2.203125 0.796875q0.84375 0.796875 0.84375 1.9375q0 0.734375 -0.390625 1.28125q-0.375 0.53125 -1.15625 0.828125q0.96875 0.3125 1.46875 1.015625q0.5 0.703125 0.5 1.671875q0 1.34375 -0.953125 2.265625q-0.9375 0.90625 -2.5 0.90625q-1.546875 0 -2.5 -0.90625q-0.953125 -0.921875 -0.953125 -2.296875q0 -1.03125 0.515625 -1.71875q0.515625 -0.6875 1.484375 -0.9375zm-0.265625 -2.1875q0 0.75 0.484375 1.21875q0.484375 0.46875 1.25 0.46875q0.734375 0 1.203125 -0.46875q0.484375 -0.46875 0.484375 -1.140625q0 -0.71875 -0.5 -1.1875q-0.484375 -0.484375 -1.203125 -0.484375q-0.734375 0 -1.234375 0.46875q-0.484375 0.46875 -0.484375 1.125zm-0.40625 4.84375q0 0.5625 0.25 1.078125q0.265625 0.5 0.78125 0.796875q0.515625 0.28125 1.109375 0.28125q0.921875 0 1.515625 -0.59375q0.609375 -0.59375 0.609375 -1.515625q0 -0.9375 -0.625 -1.53125q-0.609375 -0.609375 -1.546875 -0.609375q-0.90625 0 -1.5 0.609375q-0.59375 0.59375 -0.59375 1.484375z" fill-rule="nonzero"/><path fill="#000000" fill-opacity="0.0" d="m82.543304 224.18636l0 0c0 -10.436874 8.460762 -18.897644 18.897644 -18.897644l0 0c5.011963 0 9.818649 1.9909973 13.362648 5.5349884c3.543991 3.543991 5.5349884 8.350693 5.5349884 13.362656l0 0c0 10.436874 -8.460762 18.897629 -18.897636 18.897629l0 0c-10.436882 0 -18.897644 -8.460754 -18.897644 -18.897629z" fill-rule="evenodd"/><path stroke="#000000" stroke-width="1.0" stroke-linejoin="round" stroke-linecap="butt" d="m82.543304 224.18636l0 0c0 -10.436874 8.460762 -18.897644 18.897644 -18.897644l0 0c5.011963 0 9.818649 1.9909973 13.362648 5.5349884c3.543991 3.543991 5.5349884 8.350693 5.5349884 13.362656l0 0c0 10.436874 -8.460762 18.897629 -18.897636 18.897629l0 0c-10.436882 0 -18.897644 -8.460754 -18.897644 -18.897629z" fill-rule="evenodd"/><path fill="#000000" d="m98.742966 229.26636l-1.28125 0l0 -8.203125q-0.46875 0.4375 -1.21875 0.890625q-0.75 0.4375 -1.359375 0.65625l0 -1.25q1.078125 -0.5 1.890625 -1.21875q0.8125 -0.734375 1.140625 -1.40625l0.828125 0l0 10.53125zm3.3073578 -2.75l1.34375 -0.109375q0.15625 0.984375 0.703125 1.484375q0.546875 0.5 1.328125 0.5q0.921875 0 1.5625 -0.703125q0.65625 -0.703125 0.65625 -1.859375q0 -1.109375 -0.625 -1.734375q-0.625 -0.640625 -1.625 -0.640625q-0.625 0 -1.125 0.28125q-0.5 0.28125 -0.78125 0.734375l-1.203125 -0.15625l1.015625 -5.390625l5.21875 0l0 1.21875l-4.1875 0l-0.578125 2.828125q0.953125 -0.65625 1.984375 -0.65625q1.375 0 2.3125 0.953125q0.953125 0.953125 0.953125 2.4375q0 1.4375 -0.828125 2.46875q-1.015625 1.265625 -2.75 1.265625q-1.4375 0 -2.34375 -0.796875q-0.90625 -0.796875 -1.03125 -2.125z" fill-rule="nonzero"/><path fill="#000000" fill-opacity="0.0" d="m138.17848 224.18636l0 0c0 -10.436874 8.460754 -18.897644 18.897629 -18.897644l0 0c5.011963 0 9.818665 1.9909973 13.362656 5.5349884c3.543991 3.543991 5.5349884 8.350693 5.5349884 13.362656l0 0c0 10.436874 -8.46077 18.897629 -18.897644 18.897629l0 0c-10.436874 0 -18.897629 -8.460754 -18.897629 -18.897629z" fill-rule="evenodd"/><path stroke="#000000" stroke-width="1.0" stroke-linejoin="round" stroke-linecap="butt" d="m138.17848 224.18636l0 0c0 -10.436874 8.460754 -18.897644 18.897629 -18.897644l0 0c5.011963 0 9.818665 1.9909973 13.362656 5.5349884c3.543991 3.543991 5.5349884 8.350693 5.5349884 13.362656l0 0c0 10.436874 -8.46077 18.897629 -18.897644 18.897629l0 0c-10.436874 0 -18.897629 -8.460754 -18.897629 -18.897629z" fill-rule="evenodd"/><path fill="#000000" d="m160.37556 228.03198l0 1.234375l-6.9375 0q-0.015625 -0.46875 0.15625 -0.890625q0.265625 -0.71875 0.84375 -1.40625q0.59375 -0.6875 1.6875 -1.578125q1.71875 -1.40625 2.3125 -2.21875q0.609375 -0.828125 0.609375 -1.5625q0 -0.765625 -0.5625 -1.28125q-0.546875 -0.53125 -1.421875 -0.53125q-0.921875 0 -1.484375 0.5625q-0.5625 0.5625 -0.5625 1.546875l-1.328125 -0.140625q0.140625 -1.484375 1.015625 -2.25q0.890625 -0.78125 2.390625 -0.78125q1.515625 0 2.390625 0.84375q0.875 0.828125 0.875 2.0625q0 0.640625 -0.265625 1.25q-0.25 0.59375 -0.84375 1.265625q-0.59375 0.671875 -1.984375 1.859375q-1.15625 0.96875 -1.484375 1.3125q-0.328125 0.34375 -0.546875 0.703125l5.140625 0z" fill-rule="nonzero"/><path fill="#000000" fill-opacity="0.0" d="m215.29921 224.18636l0 0c0 -10.436874 8.46077 -18.897644 18.897644 -18.897644l0 0c5.011963 0 9.818649 1.9909973 13.36264 5.5349884c3.5440063 3.543991 5.5349884 8.350693 5.5349884 13.362656l0 0c0 10.436874 -8.460754 18.897629 -18.897629 18.897629l0 0c-10.436874 0 -18.897644 -8.460754 -18.897644 -18.897629z" fill-rule="evenodd"/><path stroke="#000000" stroke-width="1.0" stroke-linejoin="round" stroke-linecap="butt" d="m215.29921 224.18636l0 0c0 -10.436874 8.46077 -18.897644 18.897644 -18.897644l0 0c5.011963 0 9.818649 1.9909973 13.36264 5.5349884c3.5440063 3.543991 5.5349884 8.350693 5.5349884 13.362656l0 0c0 10.436874 -8.460754 18.897629 -18.897629 18.897629l0 0c-10.436874 0 -18.897644 -8.460754 -18.897644 -18.897629z" fill-rule="evenodd"/><path fill="#000000" d="m234.85567 229.26636l0 -2.515625l-4.546875 0l0 -1.171875l4.78125 -6.796875l1.0625 0l0 6.796875l1.40625 0l0 1.171875l-1.40625 0l0 2.515625l-1.296875 0zm0 -3.6875l0 -4.734375l-3.28125 4.734375l3.28125 0z" fill-rule="nonzero"/><path fill="#000000" fill-opacity="0.0" d="m300.48163 224.18636l0 0c0 -10.436874 8.460754 -18.897644 18.897644 -18.897644l0 0c5.011963 0 9.818634 1.9909973 13.36264 5.5349884c3.5440063 3.543991 5.5350037 8.350693 5.5350037 13.362656l0 0c0 10.436874 -8.460785 18.897629 -18.897644 18.897629l0 0c-10.43689 0 -18.897644 -8.460754 -18.897644 -18.897629z" fill-rule="evenodd"/><path stroke="#000000" stroke-width="1.0" stroke-linejoin="round" stroke-linecap="butt" d="m300.48163 224.18636l0 0c0 -10.436874 8.460754 -18.897644 18.897644 -18.897644l0 0c5.011963 0 9.818634 1.9909973 13.36264 5.5349884c3.5440063 3.543991 5.5350037 8.350693 5.5350037 13.362656l0 0c0 10.436874 -8.460785 18.897629 -18.897644 18.897629l0 0c-10.43689 0 -18.897644 -8.460754 -18.897644 -18.897629z" fill-rule="evenodd"/><path fill="#000000" d="m317.89746 223.57886q-0.796875 -0.296875 -1.1875 -0.84375q-0.390625 -0.546875 -0.390625 -1.296875q0 -1.140625 0.8125 -1.921875q0.828125 -0.78125 2.203125 -0.78125q1.375 0 2.203125 0.796875q0.84375 0.796875 0.84375 1.9375q0 0.734375 -0.390625 1.28125q-0.375 0.53125 -1.15625 0.828125q0.96875 0.3125 1.46875 1.015625q0.5 0.703125 0.5 1.671875q0 1.34375 -0.953125 2.265625q-0.9375 0.90625 -2.5 0.90625q-1.546875 0 -2.5 -0.90625q-0.953125 -0.921875 -0.953125 -2.296875q0 -1.03125 0.515625 -1.71875q0.515625 -0.6875 1.484375 -0.9375zm-0.265625 -2.1875q0 0.75 0.484375 1.21875q0.484375 0.46875 1.25 0.46875q0.734375 0 1.203125 -0.46875q0.484375 -0.46875 0.484375 -1.140625q0 -0.71875 -0.5 -1.1875q-0.484375 -0.484375 -1.203125 -0.484375q-0.734375 0 -1.234375 0.46875q-0.484375 0.46875 -0.484375 1.125zm-0.40625 4.84375q0 0.5625 0.25 1.078125q0.265625 0.5 0.78125 0.796875q0.515625 0.28125 1.109375 0.28125q0.921875 0 1.515625 -0.59375q0.609375 -0.59375 0.609375 -1.515625q0 -0.9375 -0.625 -1.53125q-0.609375 -0.609375 -1.546875 -0.609375q-0.90625 0 -1.5 0.609375q-0.59375 0.59375 -0.59375 1.484375z" fill-rule="nonzero"/><path fill="#000000" fill-opacity="0.0" d="m131.25722 75.149605l114.897644 -36.346455" fill-rule="evenodd"/><path stroke="#000000" stroke-width="1.0" stroke-linejoin="round" stroke-linecap="butt" d="m131.25722 75.149605l114.897644 -36.346455" fill-rule="evenodd"/><path fill="#000000" fill-opacity="0.0" d="m272.8692 38.803593l153.44882 36.346455" fill-rule="evenodd"/><path stroke="#000000" stroke-width="1.0" stroke-linejoin="round" stroke-linecap="butt" d="m272.8692 38.803593l153.44882 36.346455" fill-rule="evenodd"/><path fill="#000000" fill-opacity="0.0" d="m117.89457 107.40989l-55.02362 26.330711" fill-rule="evenodd"/><path stroke="#000000" stroke-width="1.0" stroke-linejoin="round" stroke-linecap="butt" d="m117.89457 107.40989l-55.02362 26.330711" fill-rule="evenodd"/><path fill="#000000" fill-opacity="0.0" d="m144.61987 107.40989l55.02362 26.330711" fill-rule="evenodd"/><path stroke="#000000" stroke-width="1.0" stroke-linejoin="round" stroke-linecap="butt" d="m144.61987 107.40989l55.02362 26.330711" fill-rule="evenodd"/><path fill="#000000" fill-opacity="0.0" d="m76.243225 165.9952l25.196854 39.307083" fill-rule="evenodd"/><path stroke="#000000" stroke-width="1.0" stroke-linejoin="round" stroke-linecap="butt" d="m76.243225 165.9952l25.196854 39.307083" fill-rule="evenodd"/><path fill="#000000" fill-opacity="0.0" d="m49.51793 165.9952l-25.19685 39.307083" fill-rule="evenodd"/><path stroke="#000000" stroke-width="1.0" stroke-linejoin="round" stroke-linecap="butt" d="m49.51793 165.9952l-25.19685 39.307083" fill-rule="evenodd"/><path fill="#000000" fill-opacity="0.0" d="m186.27296 165.98163l-29.196854 39.307083" fill-rule="evenodd"/><path stroke="#000000" stroke-width="1.0" stroke-linejoin="round" stroke-linecap="butt" d="m186.27296 165.98163l-29.196854 39.307083" fill-rule="evenodd"/><path fill="#000000" fill-opacity="0.0" d="m212.9952 165.9952l21.196854 39.307083" fill-rule="evenodd"/><path stroke="#000000" stroke-width="1.0" stroke-linejoin="round" stroke-linecap="butt" d="m212.9952 165.9952l21.196854 39.307083" fill-rule="evenodd"/><path fill="#000000" fill-opacity="0.0" d="m344.57568 165.9952l-25.196869 39.307083" fill-rule="evenodd"/><path stroke="#000000" stroke-width="1.0" stroke-linejoin="round" stroke-linecap="butt" d="m344.57568 165.9952l-25.196869 39.307083" fill-rule="evenodd"/><path fill="#000000" fill-opacity="0.0" d="m412.9523 107.40989l-55.02362 26.330711" fill-rule="evenodd"/><path stroke="#000000" stroke-width="1.0" stroke-linejoin="round" stroke-linecap="butt" d="m412.9523 107.40989l-55.02362 26.330711" fill-rule="evenodd"/><path fill="#000000" fill-opacity="0.0" d="m439.6776 107.40989l55.02362 26.330711" fill-rule="evenodd"/><path stroke="#000000" stroke-width="1.0" stroke-linejoin="round" stroke-linecap="butt" d="m439.6776 107.40989l55.02362 26.330711" fill-rule="evenodd"/><path fill="#000000" fill-opacity="0.0" d="m811.6142 25.440945l0 0c0 -10.436877 8.460754 -18.897636 18.897644 -18.897636l0 0c5.011963 0 9.8186035 1.9909954 13.36261 5.5349894c3.5440063 3.543995 5.534973 8.350683 5.534973 13.362648l0 0c0 10.436878 -8.460754 18.897636 -18.897583 18.897636l0 0c-10.43689 0 -18.897644 -8.460758 -18.897644 -18.897636z" fill-rule="evenodd"/><path stroke="#000000" stroke-width="1.0" stroke-linejoin="round" stroke-linecap="butt" d="m811.6142 25.440945l0 0c0 -10.436877 8.460754 -18.897636 18.897644 -18.897636l0 0c5.011963 0 9.8186035 1.9909954 13.36261 5.5349894c3.5440063 3.543995 5.534973 8.350683 5.534973 13.362648l0 0c0 10.436878 -8.460754 18.897636 -18.897583 18.897636l0 0c-10.43689 0 -18.897644 -8.460758 -18.897644 -18.897636z" fill-rule="evenodd"/><path fill="#000000" d="m833.8113 29.28657l0 1.234375l-6.9375 0q-0.015625 -0.46875 0.15625 -0.890625q0.265625 -0.71875 0.84375 -1.40625q0.59375 -0.6875 1.6875 -1.578125q1.71875 -1.40625 2.3125 -2.21875q0.609375 -0.828125 0.609375 -1.5625q0 -0.765625 -0.5625 -1.28125q-0.546875 -0.53125 -1.421875 -0.53125q-0.921875 0 -1.484375 0.5625q-0.5625 0.5625 -0.5625 1.546875l-1.328125 -0.140625q0.140625 -1.484375 1.015625 -2.25q0.890625 -0.78125 2.390625 -0.78125q1.515625 0 2.390625 0.84375q0.875 0.828125 0.875 2.0625q0 0.640625 -0.265625 1.25q-0.25 0.59375 -0.84375 1.265625q-0.59375 0.671875 -1.984375 1.859375q-1.15625 0.96875 -1.484375 1.3125q-0.328125 0.34375 -0.546875 0.703125l5.140625 0z" fill-rule="nonzero"/><path fill="#000000" fill-opacity="0.0" d="m683.3648 94.04724l0 0c0 -10.436874 8.460754 -18.897636 18.897644 -18.897636l0 0c5.011963 0 9.818665 1.9909973 13.362671 5.5349884c3.5440063 3.5439987 5.534973 8.350685 5.534973 13.362648l0 0c0 10.436882 -8.460754 18.897644 -18.897644 18.897644l0 0c-10.43689 0 -18.897644 -8.460762 -18.897644 -18.897644z" fill-rule="evenodd"/><path stroke="#000000" stroke-width="1.0" stroke-linejoin="round" stroke-linecap="butt" d="m683.3648 94.04724l0 0c0 -10.436874 8.460754 -18.897636 18.897644 -18.897636l0 0c5.011963 0 9.818665 1.9909973 13.362671 5.5349884c3.5440063 3.5439987 5.534973 8.350685 5.534973 13.362648l0 0c0 10.436882 -8.460754 18.897644 -18.897644 18.897644l0 0c-10.43689 0 -18.897644 -8.460762 -18.897644 -18.897644z" fill-rule="evenodd"/><path fill="#000000" d="m702.92126 99.12724l0 -2.515625l-4.546875 0l0 -1.171875l4.78125 -6.796875l1.0625 0l0 6.796875l1.40625 0l0 1.171875l-1.40625 0l0 2.515625l-1.296875 0zm0 -3.6875l0 -4.734375l-3.28125 4.734375l3.28125 0z" fill-rule="nonzero"/><path fill="#000000" fill-opacity="0.0" d="m978.42255 94.04724l0 0c0 -10.436874 8.460815 -18.897636 18.897644 -18.897636l0 0c5.011963 0 9.818665 1.9909973 13.362671 5.5349884c3.5440063 3.5439987 5.534973 8.350685 5.534973 13.362648l0 0c0 10.436882 -8.460754 18.897644 -18.897644 18.897644l0 0c-10.436829 0 -18.897644 -8.460762 -18.897644 -18.897644z" fill-rule="evenodd"/><path stroke="#000000" stroke-width="1.0" stroke-linejoin="round" stroke-linecap="butt" d="m978.42255 94.04724l0 0c0 -10.436874 8.460815 -18.897636 18.897644 -18.897636l0 0c5.011963 0 9.818665 1.9909973 13.362671 5.5349884c3.5440063 3.5439987 5.534973 8.350685 5.534973 13.362648l0 0c0 10.436882 -8.460754 18.897644 -18.897644 18.897644l0 0c-10.436829 0 -18.897644 -8.460762 -18.897644 -18.897644z" fill-rule="evenodd"/><path fill="#000000" d="m995.8384 93.43974q-0.796875 -0.296875 -1.1875 -0.84375q-0.390625 -0.546875 -0.390625 -1.296875q0 -1.140625 0.8125 -1.921875q0.828125 -0.78125 2.203125 -0.78125q1.375 0 2.203125 0.796875q0.84375 0.796875 0.84375 1.9375q0 0.734375 -0.390625 1.28125q-0.375 0.53125 -1.15625 0.828125q0.96875 0.3125 1.46875 1.015625q0.5 0.703125 0.5 1.671875q0 1.34375 -0.953125 2.265625q-0.9375 0.90625 -2.5 0.90625q-1.546875 0 -2.5 -0.90625q-0.953125 -0.921875 -0.953125 -2.296875q0 -1.03125 0.515625 -1.71875q0.515625 -0.6875 1.484375 -0.9375zm-0.265625 -2.1875q0 0.75 0.484375 1.21875q0.484375 0.46875 1.25 0.46875q0.734375 0 1.203125 -0.46875q0.484375 -0.46875 0.484375 -1.140625q0 -0.71875 -0.5 -1.1875q-0.484375 -0.484375 -1.203125 -0.484375q-0.734375 0 -1.234375 0.46875q-0.484375 0.46875 -0.484375 1.125zm-0.40625 4.84375q0 0.5625 0.25 1.078125q0.265625 0.5 0.78125 0.796875q0.515625 0.28125 1.109375 0.28125q0.921875 0 1.515625 -0.59375q0.609375 -0.59375 0.609375 -1.515625q0 -0.9375 -0.625 -1.53125q-0.609375 -0.609375 -1.546875 -0.609375q-0.90625 0 -1.5 0.609375q-0.59375 0.59375 -0.59375 1.484375z" fill-rule="nonzero"/><path fill="#000000" fill-opacity="0.0" d="m614.98816 152.63255l0 0c0 -10.43689 8.460815 -18.897644 18.897644 -18.897644l0 0c5.011963 0 9.818665 1.9909973 13.362671 5.5349884c3.5440063 3.543991 5.534973 8.3506775 5.534973 13.362656l0 0c0 10.436874 -8.460754 18.897629 -18.897644 18.897629l0 0c-10.436829 0 -18.897644 -8.460754 -18.897644 -18.897629z" fill-rule="evenodd"/><path stroke="#000000" stroke-width="1.0" stroke-linejoin="round" stroke-linecap="butt" d="m614.98816 152.63255l0 0c0 -10.43689 8.460815 -18.897644 18.897644 -18.897644l0 0c5.011963 0 9.818665 1.9909973 13.362671 5.5349884c3.5440063 3.543991 5.534973 8.3506775 5.534973 13.362656l0 0c0 10.436874 -8.460754 18.897629 -18.897644 18.897629l0 0c-10.436829 0 -18.897644 -8.460754 -18.897644 -18.897629z" fill-rule="evenodd"/><path fill="#000000" d="m631.18787 157.71254l-1.28125 0l0 -8.203125q-0.46875 0.4375 -1.21875 0.890625q-0.75 0.4375 -1.359375 0.65625l0 -1.25q1.078125 -0.5 1.890625 -1.21875q0.8125 -0.734375 1.140625 -1.40625l0.828125 0l0 10.53125zm5.291687 -5.6875q-0.796875 -0.296875 -1.1875 -0.84375q-0.390625 -0.546875 -0.390625 -1.296875q0 -1.140625 0.8125 -1.921875q0.828125 -0.78125 2.203125 -0.78125q1.375 0 2.203125 0.796875q0.84375 0.796875 0.84375 1.9375q0 0.734375 -0.390625 1.28125q-0.375 0.53125 -1.15625 0.828125q0.96875 0.3125 1.46875 1.015625q0.5 0.703125 0.5 1.671875q0 1.34375 -0.953125 2.265625q-0.9375 0.90625 -2.5 0.90625q-1.546875 0 -2.5 -0.90625q-0.953125 -0.921875 -0.953125 -2.296875q0 -1.03125 0.515625 -1.71875q0.515625 -0.6875 1.484375 -0.9375zm-0.265625 -2.1875q0 0.75 0.484375 1.21875q0.484375 0.46875 1.25 0.46875q0.734375 0 1.203125 -0.46875q0.484375 -0.46875 0.484375 -1.140625q0 -0.71875 -0.5 -1.1875q-0.484375 -0.484375 -1.203125 -0.484375q-0.734375 0 -1.234375 0.46875q-0.484375 0.46875 -0.484375 1.125zm-0.40625 4.84375q0 0.5625 0.25 1.078125q0.265625 0.5 0.78125 0.796875q0.515625 0.28125 1.109375 0.28125q0.921875 0 1.515625 -0.59375q0.609375 -0.59375 0.609375 -1.515625q0 -0.9375 -0.625 -1.53125q-0.609375 -0.609375 -1.546875 -0.609375q-0.90625 0 -1.5 0.609375q-0.59375 0.59375 -0.59375 1.484375z" fill-rule="nonzero"/><path fill="#000000" fill-opacity="0.0" d="m751.7402 152.63255l0 0c0 -10.43689 8.460754 -18.897644 18.897644 -18.897644l0 0c5.011963 0 9.8186035 1.9909973 13.36261 5.5349884c3.5440063 3.543991 5.535034 8.3506775 5.535034 13.362656l0 0c0 10.436874 -8.460815 18.897629 -18.897644 18.897629l0 0c-10.43689 0 -18.897644 -8.460754 -18.897644 -18.897629z" fill-rule="evenodd"/><path stroke="#000000" stroke-width="1.0" stroke-linejoin="round" stroke-linecap="butt" d="m751.7402 152.63255l0 0c0 -10.43689 8.460754 -18.897644 18.897644 -18.897644l0 0c5.011963 0 9.8186035 1.9909973 13.36261 5.5349884c3.5440063 3.543991 5.535034 8.3506775 5.535034 13.362656l0 0c0 10.436874 -8.460815 18.897629 -18.897644 18.897629l0 0c-10.43689 0 -18.897644 -8.460754 -18.897644 -18.897629z" fill-rule="evenodd"/><path fill="#000000" d="m767.9398 157.71254l-1.28125 0l0 -8.203125q-0.46875 0.4375 -1.21875 0.890625q-0.75 0.4375 -1.359375 0.65625l0 -1.25q1.078125 -0.5 1.890625 -1.21875q0.8125 -0.734375 1.140625 -1.40625l0.828125 0l0 10.53125zm10.072998 -1.234375l0 1.234375l-6.9375 0q-0.015625 -0.46875 0.15625 -0.890625q0.265625 -0.71875 0.84375 -1.40625q0.59375 -0.6875 1.6875 -1.578125q1.71875 -1.40625 2.3125 -2.21875q0.609375 -0.828125 0.609375 -1.5625q0 -0.765625 -0.5625 -1.28125q-0.546875 -0.53125 -1.421875 -0.53125q-0.921875 0 -1.484375 0.5625q-0.5625 0.5625 -0.5625 1.546875l-1.328125 -0.140625q0.140625 -1.484375 1.015625 -2.25q0.890625 -0.78125 2.390625 -0.78125q1.515625 0 2.390625 0.84375q0.875 0.828125 0.875 2.0625q0 0.640625 -0.265625 1.25q-0.25 0.59375 -0.84375 1.265625q-0.59375 0.671875 -1.984375 1.859375q-1.15625 0.96875 -1.484375 1.3125q-0.328125 0.34375 -0.546875 0.703125l5.140625 0z" fill-rule="nonzero"/><path fill="#000000" fill-opacity="0.0" d="m910.04596 152.63255l0 0c0 -10.43689 8.460754 -18.897644 18.897583 -18.897644l0 0c5.011963 0 9.818665 1.9909973 13.362671 5.5349884c3.5440063 3.543991 5.534973 8.3506775 5.534973 13.362656l0 0c0 10.436874 -8.460754 18.897629 -18.897644 18.897629l0 0c-10.436829 0 -18.897583 -8.460754 -18.897583 -18.897629z" fill-rule="evenodd"/><path stroke="#000000" stroke-width="1.0" stroke-linejoin="round" stroke-linecap="butt" d="m910.04596 152.63255l0 0c0 -10.43689 8.460754 -18.897644 18.897583 -18.897644l0 0c5.011963 0 9.818665 1.9909973 13.362671 5.5349884c3.5440063 3.543991 5.534973 8.3506775 5.534973 13.362656l0 0c0 10.436874 -8.460754 18.897629 -18.897644 18.897629l0 0c-10.436829 0 -18.897583 -8.460754 -18.897583 -18.897629z" fill-rule="evenodd"/><path fill="#000000" d="m921.40186 154.94691l1.296875 -0.171875q0.21875 1.09375 0.75 1.578125q0.53125 0.484375 1.296875 0.484375q0.90625 0 1.53125 -0.625q0.640625 -0.640625 0.640625 -1.5625q0 -0.890625 -0.59375 -1.46875q-0.578125 -0.578125 -1.46875 -0.578125q-0.359375 0 -0.90625 0.140625l0.140625 -1.125q0.125 0.015625 0.203125 0.015625q0.828125 0 1.484375 -0.421875q0.65625 -0.4375 0.65625 -1.34375q0 -0.703125 -0.484375 -1.15625q-0.46875 -0.46875 -1.234375 -0.46875q-0.75 0 -1.25 0.46875q-0.5 0.46875 -0.640625 1.421875l-1.28125 -0.234375q0.234375 -1.296875 1.0625 -2.0q0.84375 -0.71875 2.09375 -0.71875q0.859375 0 1.578125 0.375q0.71875 0.359375 1.09375 1.0q0.390625 0.640625 0.390625 1.34375q0 0.6875 -0.375 1.25q-0.359375 0.546875 -1.0625 0.875q0.921875 0.21875 1.4375 0.90625q0.515625 0.671875 0.515625 1.6875q0 1.375 -1.0 2.328125q-1.0 0.953125 -2.53125 0.953125q-1.390625 0 -2.296875 -0.8125q-0.90625 -0.828125 -1.046875 -2.140625zm14.916687 1.53125l0 1.234375l-6.9375 0q-0.015625 -0.46875 0.15625 -0.890625q0.265625 -0.71875 0.84375 -1.40625q0.59375 -0.6875 1.6875 -1.578125q1.71875 -1.40625 2.3125 -2.21875q0.609375 -0.828125 0.609375 -1.5625q0 -0.765625 -0.5625 -1.28125q-0.546875 -0.53125 -1.421875 -0.53125q-0.921875 0 -1.484375 0.5625q-0.5625 0.5625 -0.5625 1.546875l-1.328125 -0.140625q0.140625 -1.484375 1.015625 -2.25q0.890625 -0.78125 2.390625 -0.78125q1.515625 0 2.390625 0.84375q0.875 0.828125 0.875 2.0625q0 0.640625 -0.265625 1.25q-0.25 0.59375 -0.84375 1.265625q-0.59375 0.671875 -1.984375 1.859375q-1.15625 0.96875 -1.484375 1.3125q-0.328125 0.34375 -0.546875 0.703125l5.140625 0z" fill-rule="nonzero"/><path fill="#000000" fill-opacity="0.0" d="m1046.7979 152.63255l0 0c0 -10.43689 8.460815 -18.897644 18.897705 -18.897644l0 0c5.011963 0 9.8186035 1.9909973 13.362671 5.5349884c3.5439453 3.543991 5.534912 8.3506775 5.534912 13.362656l0 0c0 10.436874 -8.460693 18.897629 -18.897583 18.897629l0 0c-10.43689 0 -18.897705 -8.460754 -18.897705 -18.897629z" fill-rule="evenodd"/><path stroke="#000000" stroke-width="1.0" stroke-linejoin="round" stroke-linecap="butt" d="m1046.7979 152.63255l0 0c0 -10.43689 8.460815 -18.897644 18.897705 -18.897644l0 0c5.011963 0 9.8186035 1.9909973 13.362671 5.5349884c3.5439453 3.543991 5.534912 8.3506775 5.534912 13.362656l0 0c0 10.436874 -8.460693 18.897629 -18.897583 18.897629l0 0c-10.43689 0 -18.897705 -8.460754 -18.897705 -18.897629z" fill-rule="evenodd"/><path fill="#000000" d="m1058.1538 154.94691l1.296875 -0.171875q0.21875 1.09375 0.75 1.578125q0.53125 0.484375 1.296875 0.484375q0.90625 0 1.53125 -0.625q0.640625 -0.640625 0.640625 -1.5625q0 -0.890625 -0.59375 -1.46875q-0.578125 -0.578125 -1.46875 -0.578125q-0.359375 0 -0.90625 0.140625l0.140625 -1.125q0.125 0.015625 0.203125 0.015625q0.828125 0 1.484375 -0.421875q0.65625 -0.4375 0.65625 -1.34375q0 -0.703125 -0.484375 -1.15625q-0.46875 -0.46875 -1.234375 -0.46875q-0.75 0 -1.25 0.46875q-0.5 0.46875 -0.640625 1.421875l-1.28125 -0.234375q0.234375 -1.296875 1.0625 -2.0q0.84375 -0.71875 2.09375 -0.71875q0.859375 0 1.578125 0.375q0.71875 0.359375 1.09375 1.0q0.390625 0.640625 0.390625 1.34375q0 0.6875 -0.375 1.25q-0.359375 0.546875 -1.0625 0.875q0.921875 0.21875 1.4375 0.90625q0.515625 0.671875 0.515625 1.6875q0 1.375 -1.0 2.328125q-1.0 0.953125 -2.53125 0.953125q-1.390625 0 -2.296875 -0.8125q-0.90625 -0.828125 -1.046875 -2.140625zm12.276123 2.765625l0 -2.515625l-4.546875 0l0 -1.171875l4.78125 -6.796875l1.0625 0l0 6.796875l1.40625 0l0 1.171875l-1.40625 0l0 2.515625l-1.296875 0zm0 -3.6875l0 -4.734375l-3.28125 4.734375l3.28125 0z" fill-rule="nonzero"/><path fill="#000000" fill-opacity="0.0" d="m576.4278 224.18636l0 0c0 -10.436874 8.460815 -18.897644 18.897644 -18.897644l0 0c5.011963 0 9.818665 1.9909973 13.362671 5.5349884c3.5440063 3.543991 5.534973 8.350693 5.534973 13.362656l0 0c0 10.436874 -8.460754 18.897629 -18.897644 18.897629l0 0c-10.436829 0 -18.897644 -8.460754 -18.897644 -18.897629z" fill-rule="evenodd"/><path stroke="#000000" stroke-width="1.0" stroke-linejoin="round" stroke-linecap="butt" d="m576.4278 224.18636l0 0c0 -10.436874 8.460815 -18.897644 18.897644 -18.897644l0 0c5.011963 0 9.818665 1.9909973 13.362671 5.5349884c3.5440063 3.543991 5.534973 8.350693 5.534973 13.362656l0 0c0 10.436874 -8.460754 18.897629 -18.897644 18.897629l0 0c-10.436829 0 -18.897644 -8.460754 -18.897644 -18.897629z" fill-rule="evenodd"/><path fill="#000000" d="m587.78375 226.50073l1.296875 -0.171875q0.21875 1.09375 0.75 1.578125q0.53125 0.484375 1.296875 0.484375q0.90625 0 1.53125 -0.625q0.640625 -0.640625 0.640625 -1.5625q0 -0.890625 -0.59375 -1.46875q-0.578125 -0.578125 -1.46875 -0.578125q-0.359375 0 -0.90625 0.140625l0.140625 -1.125q0.125 0.015625 0.203125 0.015625q0.828125 0 1.484375 -0.421875q0.65625 -0.4375 0.65625 -1.34375q0 -0.703125 -0.484375 -1.15625q-0.46875 -0.46875 -1.234375 -0.46875q-0.75 0 -1.25 0.46875q-0.5 0.46875 -0.640625 1.421875l-1.28125 -0.234375q0.234375 -1.296875 1.0625 -2.0q0.84375 -0.71875 2.09375 -0.71875q0.859375 0 1.578125 0.375q0.71875 0.359375 1.09375 1.0q0.390625 0.640625 0.390625 1.34375q0 0.6875 -0.375 1.25q-0.359375 0.546875 -1.0625 0.875q0.921875 0.21875 1.4375 0.90625q0.515625 0.671875 0.515625 1.6875q0 1.375 -1.0 2.328125q-1.0 0.953125 -2.53125 0.953125q-1.390625 0 -2.296875 -0.8125q-0.90625 -0.828125 -1.046875 -2.140625zm10.135437 -2.921875q-0.796875 -0.296875 -1.1875 -0.84375q-0.390625 -0.546875 -0.390625 -1.296875q0 -1.140625 0.8125 -1.921875q0.828125 -0.78125 2.203125 -0.78125q1.375 0 2.203125 0.796875q0.84375 0.796875 0.84375 1.9375q0 0.734375 -0.390625 1.28125q-0.375 0.53125 -1.15625 0.828125q0.96875 0.3125 1.46875 1.015625q0.5 0.703125 0.5 1.671875q0 1.34375 -0.953125 2.265625q-0.9375 0.90625 -2.5 0.90625q-1.546875 0 -2.5 -0.90625q-0.953125 -0.921875 -0.953125 -2.296875q0 -1.03125 0.515625 -1.71875q0.515625 -0.6875 1.484375 -0.9375zm-0.265625 -2.1875q0 0.75 0.484375 1.21875q0.484375 0.46875 1.25 0.46875q0.734375 0 1.203125 -0.46875q0.484375 -0.46875 0.484375 -1.140625q0 -0.71875 -0.5 -1.1875q-0.484375 -0.484375 -1.203125 -0.484375q-0.734375 0 -1.234375 0.46875q-0.484375 0.46875 -0.484375 1.125zm-0.40625 4.84375q0 0.5625 0.25 1.078125q0.265625 0.5 0.78125 0.796875q0.515625 0.28125 1.109375 0.28125q0.921875 0 1.515625 -0.59375q0.609375 -0.59375 0.609375 -1.515625q0 -0.9375 -0.625 -1.53125q-0.609375 -0.609375 -1.546875 -0.609375q-0.90625 0 -1.5 0.609375q-0.59375 0.59375 -0.59375 1.484375z" fill-rule="nonzero"/><path fill="#000000" fill-opacity="0.0" d="m653.5486 224.18636l0 0c0 -10.436874 8.460754 -18.897644 18.897583 -18.897644l0 0c5.011963 0 9.818665 1.9909973 13.362671 5.5349884c3.5440063 3.543991 5.534973 8.350693 5.534973 13.362656l0 0c0 10.436874 -8.460754 18.897629 -18.897644 18.897629l0 0c-10.436829 0 -18.897583 -8.460754 -18.897583 -18.897629z" fill-rule="evenodd"/><path stroke="#000000" stroke-width="1.0" stroke-linejoin="round" stroke-linecap="butt" d="m653.5486 224.18636l0 0c0 -10.436874 8.460754 -18.897644 18.897583 -18.897644l0 0c5.011963 0 9.818665 1.9909973 13.362671 5.5349884c3.5440063 3.543991 5.534973 8.350693 5.534973 13.362656l0 0c0 10.436874 -8.460754 18.897629 -18.897644 18.897629l0 0c-10.436829 0 -18.897583 -8.460754 -18.897583 -18.897629z" fill-rule="evenodd"/><path fill="#000000" d="m664.9045 226.50073l1.296875 -0.171875q0.21875 1.09375 0.75 1.578125q0.53125 0.484375 1.296875 0.484375q0.90625 0 1.53125 -0.625q0.640625 -0.640625 0.640625 -1.5625q0 -0.890625 -0.59375 -1.46875q-0.578125 -0.578125 -1.46875 -0.578125q-0.359375 0 -0.90625 0.140625l0.140625 -1.125q0.125 0.015625 0.203125 0.015625q0.828125 0 1.484375 -0.421875q0.65625 -0.4375 0.65625 -1.34375q0 -0.703125 -0.484375 -1.15625q-0.46875 -0.46875 -1.234375 -0.46875q-0.75 0 -1.25 0.46875q-0.5 0.46875 -0.640625 1.421875l-1.28125 -0.234375q0.234375 -1.296875 1.0625 -2.0q0.84375 -0.71875 2.09375 -0.71875q0.859375 0 1.578125 0.375q0.71875 0.359375 1.09375 1.0q0.390625 0.640625 0.390625 1.34375q0 0.6875 -0.375 1.25q-0.359375 0.546875 -1.0625 0.875q0.921875 0.21875 1.4375 0.90625q0.515625 0.671875 0.515625 1.6875q0 1.375 -1.0 2.328125q-1.0 0.953125 -2.53125 0.953125q-1.390625 0 -2.296875 -0.8125q-0.90625 -0.828125 -1.046875 -2.140625zm8.338562 0.34375l1.25 -0.125q0.15625 0.875 0.59375 1.28125q0.4375 0.390625 1.140625 0.390625q0.59375 0 1.03125 -0.265625q0.453125 -0.28125 0.734375 -0.734375q0.296875 -0.453125 0.484375 -1.21875q0.1875 -0.78125 0.1875 -1.59375q0 -0.078125 0 -0.25q-0.390625 0.609375 -1.0625 1.0q-0.65625 0.375 -1.4375 0.375q-1.3125 0 -2.21875 -0.9375q-0.890625 -0.953125 -0.890625 -2.484375q0 -1.609375 0.9375 -2.578125q0.9375 -0.96875 2.359375 -0.96875q1.03125 0 1.875 0.546875q0.84375 0.546875 1.28125 1.578125q0.4375 1.015625 0.4375 2.953125q0 2.0 -0.4375 3.203125q-0.421875 1.1875 -1.296875 1.8125q-0.859375 0.609375 -2.015625 0.609375q-1.234375 0 -2.015625 -0.671875q-0.78125 -0.6875 -0.9375 -1.921875zm5.28125 -4.640625q0 -1.109375 -0.59375 -1.75q-0.59375 -0.65625 -1.421875 -0.65625q-0.859375 0 -1.5 0.703125q-0.625 0.703125 -0.625 1.8125q0 1.0 0.59375 1.640625q0.609375 0.625 1.5 0.625q0.890625 0 1.46875 -0.625q0.578125 -0.640625 0.578125 -1.75z" fill-rule="nonzero"/><path fill="#000000" fill-opacity="0.0" d="m709.1837 224.18636l0 0c0 -10.436874 8.460754 -18.897644 18.897644 -18.897644l0 0c5.011963 0 9.818665 1.9909973 13.362671 5.5349884c3.5440063 3.543991 5.534973 8.350693 5.534973 13.362656l0 0c0 10.436874 -8.460754 18.897629 -18.897644 18.897629l0 0c-10.43689 0 -18.897644 -8.460754 -18.897644 -18.897629z" fill-rule="evenodd"/><path stroke="#000000" stroke-width="1.0" stroke-linejoin="round" stroke-linecap="butt" d="m709.1837 224.18636l0 0c0 -10.436874 8.460754 -18.897644 18.897644 -18.897644l0 0c5.011963 0 9.818665 1.9909973 13.362671 5.5349884c3.5440063 3.543991 5.534973 8.350693 5.534973 13.362656l0 0c0 10.436874 -8.460754 18.897629 -18.897644 18.897629l0 0c-10.43689 0 -18.897644 -8.460754 -18.897644 -18.897629z" fill-rule="evenodd"/><path fill="#000000" d="m725.38336 229.26636l-1.28125 0l0 -8.203125q-0.46875 0.4375 -1.21875 0.890625q-0.75 0.4375 -1.359375 0.65625l0 -1.25q1.078125 -0.5 1.890625 -1.21875q0.8125 -0.734375 1.140625 -1.40625l0.828125 0l0 10.53125zm3.307373 -2.75l1.34375 -0.109375q0.15625 0.984375 0.703125 1.484375q0.546875 0.5 1.328125 0.5q0.921875 0 1.5625 -0.703125q0.65625 -0.703125 0.65625 -1.859375q0 -1.109375 -0.625 -1.734375q-0.625 -0.640625 -1.625 -0.640625q-0.625 0 -1.125 0.28125q-0.5 0.28125 -0.78125 0.734375l-1.203125 -0.15625l1.015625 -5.390625l5.21875 0l0 1.21875l-4.1875 0l-0.578125 2.828125q0.953125 -0.65625 1.984375 -0.65625q1.375 0 2.3125 0.953125q0.953125 0.953125 0.953125 2.4375q0 1.4375 -0.828125 2.46875q-1.015625 1.265625 -2.75 1.265625q-1.4375 0 -2.34375 -0.796875q-0.90625 -0.796875 -1.03125 -2.125z" fill-rule="nonzero"/><path fill="#000000" fill-opacity="0.0" d="m786.30444 224.18636l0 0c0 -10.436874 8.460754 -18.897644 18.897644 -18.897644l0 0c5.011963 0 9.818665 1.9909973 13.362671 5.5349884c3.5440063 3.543991 5.534973 8.350693 5.534973 13.362656l0 0c0 10.436874 -8.460754 18.897629 -18.897644 18.897629l0 0c-10.43689 0 -18.897644 -8.460754 -18.897644 -18.897629z" fill-rule="evenodd"/><path stroke="#000000" stroke-width="1.0" stroke-linejoin="round" stroke-linecap="butt" d="m786.30444 224.18636l0 0c0 -10.436874 8.460754 -18.897644 18.897644 -18.897644l0 0c5.011963 0 9.818665 1.9909973 13.362671 5.5349884c3.5440063 3.543991 5.534973 8.350693 5.534973 13.362656l0 0c0 10.436874 -8.460754 18.897629 -18.897644 18.897629l0 0c-10.43689 0 -18.897644 -8.460754 -18.897644 -18.897629z" fill-rule="evenodd"/><path fill="#000000" d="m801.78534 229.26636l0 -2.515625l-4.546875 0l0 -1.171875l4.78125 -6.796875l1.0625 0l0 6.796875l1.40625 0l0 1.171875l-1.40625 0l0 2.515625l-1.296875 0zm0 -3.6875l0 -4.734375l-3.28125 4.734375l3.28125 0zm4.104248 -5.4375l0 -1.234375l6.796875 0l0 1.0q-1.0 1.078125 -1.984375 2.84375q-0.984375 1.765625 -1.515625 3.625q-0.390625 1.328125 -0.5 2.890625l-1.328125 0q0.03125 -1.234375 0.484375 -2.984375q0.46875 -1.765625 1.34375 -3.390625q0.875 -1.625 1.84375 -2.75l-5.140625 0z" fill-rule="nonzero"/><path fill="#000000" fill-opacity="0.0" d="m871.4869 224.18636l0 0c0 -10.436874 8.460754 -18.897644 18.897644 -18.897644l0 0c5.011963 0 9.818665 1.9909973 13.362671 5.5349884c3.5439453 3.543991 5.534973 8.350693 5.534973 13.362656l0 0c0 10.436874 -8.460754 18.897629 -18.897644 18.897629l0 0c-10.43689 0 -18.897644 -8.460754 -18.897644 -18.897629z" fill-rule="evenodd"/><path stroke="#000000" stroke-width="1.0" stroke-linejoin="round" stroke-linecap="butt" d="m871.4869 224.18636l0 0c0 -10.436874 8.460754 -18.897644 18.897644 -18.897644l0 0c5.011963 0 9.818665 1.9909973 13.362671 5.5349884c3.5439453 3.543991 5.534973 8.350693 5.534973 13.362656l0 0c0 10.436874 -8.460754 18.897629 -18.897644 18.897629l0 0c-10.43689 0 -18.897644 -8.460754 -18.897644 -18.897629z" fill-rule="evenodd"/><path fill="#000000" d="m889.5303 221.34448l-1.28125 0.09375q-0.171875 -0.75 -0.484375 -1.09375q-0.53125 -0.546875 -1.296875 -0.546875q-0.609375 0 -1.078125 0.34375q-0.609375 0.4375 -0.96875 1.296875q-0.34375 0.84375 -0.359375 2.421875q0.46875 -0.71875 1.140625 -1.0625q0.671875 -0.34375 1.40625 -0.34375q1.296875 0 2.203125 0.953125q0.90625 0.953125 0.90625 2.453125q0 0.984375 -0.4375 1.84375q-0.421875 0.84375 -1.171875 1.296875q-0.734375 0.4375 -1.6875 0.4375q-1.609375 0 -2.625 -1.171875q-1.015625 -1.1875 -1.015625 -3.90625q0 -3.046875 1.125 -4.421875q0.984375 -1.203125 2.640625 -1.203125q1.234375 0 2.03125 0.703125q0.796875 0.6875 0.953125 1.90625zm-5.265625 4.515625q0 0.671875 0.28125 1.28125q0.28125 0.609375 0.78125 0.9375q0.515625 0.3125 1.078125 0.3125q0.8125 0 1.390625 -0.65625q0.59375 -0.671875 0.59375 -1.796875q0 -1.09375 -0.578125 -1.71875q-0.578125 -0.625 -1.453125 -0.625q-0.875 0 -1.484375 0.625q-0.609375 0.625 -0.609375 1.640625zm6.729248 -1.765625q0 -1.859375 0.375 -2.984375q0.390625 -1.140625 1.140625 -1.75q0.765625 -0.625 1.90625 -0.625q0.84375 0 1.46875 0.34375q0.640625 0.328125 1.0625 0.96875q0.421875 0.640625 0.65625 1.5625q0.234375 0.921875 0.234375 2.484375q0 1.84375 -0.390625 2.984375q-0.375 1.125 -1.125 1.75q-0.75 0.609375 -1.90625 0.609375q-1.515625 0 -2.390625 -1.078125q-1.03125 -1.3125 -1.03125 -4.265625zm1.328125 0q0 2.578125 0.59375 3.4375q0.609375 0.859375 1.5 0.859375q0.890625 0 1.484375 -0.859375q0.609375 -0.859375 0.609375 -3.4375q0 -2.59375 -0.609375 -3.4375q-0.59375 -0.859375 -1.5 -0.859375q-0.890625 0 -1.421875 0.75q-0.65625 0.96875 -0.65625 3.546875z" fill-rule="nonzero"/><path fill="#000000" fill-opacity="0.0" d="m702.26245 75.149605l114.897644 -36.346455" fill-rule="evenodd"/><path stroke="#000000" stroke-width="1.0" stroke-linejoin="round" stroke-linecap="butt" d="m702.26245 75.149605l114.897644 -36.346455" fill-rule="evenodd"/><path fill="#000000" fill-opacity="0.0" d="m843.87445 38.803593l153.44885 36.346455" fill-rule="evenodd"/><path stroke="#000000" stroke-width="1.0" stroke-linejoin="round" stroke-linecap="butt" d="m843.87445 38.803593l153.44885 36.346455" fill-rule="evenodd"/><path fill="#000000" fill-opacity="0.0" d="m688.89984 107.40989l-55.02362 26.330711" fill-rule="evenodd"/><path stroke="#000000" stroke-width="1.0" stroke-linejoin="round" stroke-linecap="butt" d="m688.89984 107.40989l-55.02362 26.330711" fill-rule="evenodd"/><path fill="#000000" fill-opacity="0.0" d="m715.6251 107.40989l55.02362 26.330711" fill-rule="evenodd"/><path stroke="#000000" stroke-width="1.0" stroke-linejoin="round" stroke-linecap="butt" d="m715.6251 107.40989l55.02362 26.330711" fill-rule="evenodd"/><path fill="#000000" fill-opacity="0.0" d="m647.2485 165.9952l25.196838 39.307083" fill-rule="evenodd"/><path stroke="#000000" stroke-width="1.0" stroke-linejoin="round" stroke-linecap="butt" d="m647.2485 165.9952l25.196838 39.307083" fill-rule="evenodd"/><path fill="#000000" fill-opacity="0.0" d="m620.5232 165.9952l-25.196838 39.307083" fill-rule="evenodd"/><path stroke="#000000" stroke-width="1.0" stroke-linejoin="round" stroke-linecap="butt" d="m620.5232 165.9952l-25.196838 39.307083" fill-rule="evenodd"/><path fill="#000000" fill-opacity="0.0" d="m757.2782 165.98163l-29.196838 39.307083" fill-rule="evenodd"/><path stroke="#000000" stroke-width="1.0" stroke-linejoin="round" stroke-linecap="butt" d="m757.2782 165.98163l-29.196838 39.307083" fill-rule="evenodd"/><path fill="#000000" fill-opacity="0.0" d="m784.0004 165.9952l21.196838 39.307083" fill-rule="evenodd"/><path stroke="#000000" stroke-width="1.0" stroke-linejoin="round" stroke-linecap="butt" d="m784.0004 165.9952l21.196838 39.307083" fill-rule="evenodd"/><path fill="#000000" fill-opacity="0.0" d="m915.58093 165.9952l-25.196838 39.307083" fill-rule="evenodd"/><path stroke="#000000" stroke-width="1.0" stroke-linejoin="round" stroke-linecap="butt" d="m915.58093 165.9952l-25.196838 39.307083" fill-rule="evenodd"/><path fill="#000000" fill-opacity="0.0" d="m983.9576 107.40989l-55.02362 26.330711" fill-rule="evenodd"/><path stroke="#000000" stroke-width="1.0" stroke-linejoin="round" stroke-linecap="butt" d="m983.9576 107.40989l-55.02362 26.330711" fill-rule="evenodd"/><path fill="#000000" fill-opacity="0.0" d="m1010.68286 107.40989l55.02356 26.330711" fill-rule="evenodd"/><path stroke="#000000" stroke-width="1.0" stroke-linejoin="round" stroke-linecap="butt" d="m1010.68286 107.40989l55.02356 26.330711" fill-rule="evenodd"/><path fill="#000000" fill-opacity="0.0" d="m213.20735 276.84253l92.598434 0l0 36.346436l-92.598434 0z" fill-rule="evenodd"/><path fill="#000000" d="m230.31044 298.64252l1.4375 -6.90625l1.1875 0l-0.25 1.140625q0.65625 -0.75 1.171875 -1.015625q0.53125 -0.28125 1.125 -0.28125q0.65625 0 1.078125 0.34375q0.4375 0.328125 0.578125 0.953125q0.515625 -0.65625 1.09375 -0.96875q0.59375 -0.328125 1.234375 -0.328125q0.875 0 1.296875 0.40625q0.4375 0.40625 0.4375 1.15625q0 0.3125 -0.15625 1.046875l-0.921875 4.453125l-1.171875 0l0.9375 -4.5625q0.125 -0.5625 0.125 -0.8125q0 -0.328125 -0.21875 -0.515625q-0.203125 -0.203125 -0.59375 -0.203125q-0.53125 0 -1.078125 0.328125q-0.546875 0.3125 -0.859375 0.828125q-0.296875 0.515625 -0.515625 1.59375l-0.703125 3.34375l-1.1875 0l0.984375 -4.671875q0.109375 -0.46875 0.109375 -0.671875q0 -0.34375 -0.21875 -0.546875q-0.21875 -0.203125 -0.546875 -0.203125q-0.5 0 -1.0625 0.328125q-0.546875 0.3125 -0.890625 0.875q-0.34375 0.5625 -0.5625 1.625l-0.6875 3.265625l-1.171875 0zm15.774307 -0.859375q-0.625 0.53125 -1.1875 0.78125q-0.5625 0.234375 -1.203125 0.234375q-0.96875 0 -1.5625 -0.5625q-0.578125 -0.5625 -0.578125 -1.4375q0 -0.578125 0.265625 -1.015625q0.265625 -0.453125 0.703125 -0.71875q0.4375 -0.28125 1.0625 -0.390625q0.40625 -0.078125 1.515625 -0.125q1.109375 -0.046875 1.59375 -0.234375q0.125 -0.484375 0.125 -0.8125q0 -0.40625 -0.296875 -0.640625q-0.40625 -0.328125 -1.1875 -0.328125q-0.75 0 -1.21875 0.328125q-0.46875 0.328125 -0.6875 0.9375l-1.1875 -0.109375q0.359375 -1.015625 1.140625 -1.5625q0.796875 -0.546875 2.0 -0.546875q1.28125 0 2.03125 0.609375q0.578125 0.453125 0.578125 1.1875q0 0.546875 -0.15625 1.28125l-0.390625 1.71875q-0.1875 0.8125 -0.1875 1.328125q0 0.328125 0.15625 0.9375l-1.203125 0q-0.09375 -0.34375 -0.125 -0.859375zm0.421875 -2.640625q-0.234375 0.09375 -0.53125 0.15625q-0.28125 0.046875 -0.9375 0.109375q-1.03125 0.078125 -1.453125 0.21875q-0.421875 0.140625 -0.640625 0.453125q-0.21875 0.296875 -0.21875 0.671875q0 0.5 0.34375 0.828125q0.34375 0.3125 0.984375 0.3125q0.578125 0 1.109375 -0.3125q0.546875 -0.3125 0.859375 -0.859375q0.3125 -0.5625 0.484375 -1.578125zm1.8656006 3.5l3.0 -3.5l-1.71875 -3.40625l1.296875 0l0.59375 1.21875q0.3125 0.703125 0.578125 1.328125l2.0 -2.546875l1.4375 0l-2.90625 3.484375l1.734375 3.421875l-1.296875 0l-0.6875 -1.40625q-0.21875 -0.453125 -0.5 -1.109375l-2.0625 2.515625l-1.46875 0zm7.3046875 -2.859375l0.234375 -1.1875l3.59375 0l-0.234375 1.1875l-3.59375 0zm4.250885 2.859375l2.0 -9.546875l1.171875 0l-0.765625 3.671875q0.65625 -0.640625 1.21875 -0.90625q0.578125 -0.28125 1.171875 -0.28125q0.859375 0 1.328125 0.453125q0.484375 0.453125 0.484375 1.1875q0 0.359375 -0.203125 1.34375l-0.859375 4.078125l-1.171875 0l0.875 -4.1875q0.1875 -0.90625 0.1875 -1.140625q0 -0.34375 -0.234375 -0.546875q-0.234375 -0.21875 -0.671875 -0.21875q-0.640625 0 -1.21875 0.34375q-0.578125 0.328125 -0.90625 0.90625q-0.328125 0.578125 -0.609375 1.875l-0.609375 2.96875l-1.1875 0zm12.490601 -2.34375l1.15625 0.109375q-0.25 0.859375 -1.140625 1.625q-0.890625 0.765625 -2.125 0.765625q-0.765625 0 -1.40625 -0.34375q-0.640625 -0.359375 -0.984375 -1.03125q-0.328125 -0.6875 -0.328125 -1.546875q0 -1.140625 0.515625 -2.203125q0.53125 -1.0625 1.359375 -1.578125q0.84375 -0.515625 1.8125 -0.515625q1.234375 0 1.96875 0.765625q0.75 0.765625 0.75 2.09375q0 0.5 -0.09375 1.046875l-5.09375 0q-0.03125 0.1875 -0.03125 0.359375q0 0.96875 0.4375 1.484375q0.453125 0.5 1.109375 0.5q0.59375 0 1.171875 -0.390625q0.59375 -0.390625 0.921875 -1.140625zm-3.421875 -1.71875l3.875 0q0.015625 -0.1875 0.015625 -0.265625q0 -0.875 -0.453125 -1.34375q-0.4375 -0.484375 -1.125 -0.484375q-0.765625 0 -1.390625 0.53125q-0.609375 0.515625 -0.921875 1.5625zm10.42807 3.203125q-0.625 0.53125 -1.1875 0.78125q-0.5625 0.234375 -1.2030945 0.234375q-0.96875 0 -1.5625 -0.5625q-0.578125 -0.5625 -0.578125 -1.4375q0 -0.578125 0.265625 -1.015625q0.265625 -0.453125 0.703125 -0.71875q0.4375 -0.28125 1.0625 -0.390625q0.40621948 -0.078125 1.5155945 -0.125q1.109375 -0.046875 1.59375 -0.234375q0.125 -0.484375 0.125 -0.8125q0 -0.40625 -0.296875 -0.640625q-0.40625 -0.328125 -1.1875 -0.328125q-0.75 0 -1.21875 0.328125q-0.46871948 0.328125 -0.6874695 0.9375l-1.1875 -0.109375q0.359375 -1.015625 1.140625 -1.5625q0.7968445 -0.546875 1.9999695 -0.546875q1.28125 0 2.03125 0.609375q0.578125 0.453125 0.578125 1.1875q0 0.546875 -0.15625 1.28125l-0.390625 1.71875q-0.1875 0.8125 -0.1875 1.328125q0 0.328125 0.15625 0.9375l-1.203125 0q-0.09375 -0.34375 -0.125 -0.859375zm0.421875 -2.640625q-0.234375 0.09375 -0.53125 0.15625q-0.28125 0.046875 -0.9375 0.109375q-1.03125 0.078125 -1.4530945 0.21875q-0.421875 0.140625 -0.640625 0.453125q-0.21875 0.296875 -0.21875 0.671875q0 0.5 0.34375 0.828125q0.34375 0.3125 0.9843445 0.3125q0.578125 0 1.109375 -0.3125q0.546875 -0.3125 0.859375 -0.859375q0.3125 -0.5625 0.484375 -1.578125zm1.7406006 6.15625l2.0 -9.5625l1.09375 0l-0.203125 0.953125q0.59375 -0.625 1.078125 -0.859375q0.484375 -0.25 1.015625 -0.25q0.984375 0 1.625 0.71875q0.65625 0.71875 0.65625 2.0625q0 1.078125 -0.359375 1.96875q-0.34375 0.875 -0.875 1.421875q-0.515625 0.546875 -1.046875 0.796875q-0.53125 0.25 -1.09375 0.25q-1.25 0 -1.921875 -1.265625l-0.78125 3.765625l-1.1875 0zm2.328125 -5.484375q0 0.78125 0.109375 1.078125q0.171875 0.421875 0.53125 0.6875q0.375 0.25 0.875 0.25q1.015625 0 1.640625 -1.140625q0.625 -1.140625 0.625 -2.328125q0 -0.875 -0.421875 -1.359375q-0.421875 -0.484375 -1.046875 -0.484375q-0.453125 0 -0.84375 0.25q-0.375 0.234375 -0.703125 0.703125q-0.328125 0.46875 -0.546875 1.15625q-0.21875 0.6875 -0.21875 1.1875z" fill-rule="nonzero"/><path fill="#000000" fill-opacity="0.0" d="m784.2126 276.84253l92.59845 0l0 36.346436l-92.59845 0z" fill-rule="evenodd"/><path fill="#000000" d="m803.1672 298.64252l1.4375 -6.90625l1.1875 0l-0.25 1.140625q0.65625 -0.75 1.171875 -1.015625q0.53125 -0.28125 1.125 -0.28125q0.65625 0 1.078125 0.34375q0.4375 0.328125 0.578125 0.953125q0.515625 -0.65625 1.09375 -0.96875q0.59375 -0.328125 1.234375 -0.328125q0.875 0 1.296875 0.40625q0.4375 0.40625 0.4375 1.15625q0 0.3125 -0.15625 1.046875l-0.921875 4.453125l-1.171875 0l0.9375 -4.5625q0.125 -0.5625 0.125 -0.8125q0 -0.328125 -0.21875 -0.515625q-0.203125 -0.203125 -0.59375 -0.203125q-0.53125 0 -1.078125 0.328125q-0.546875 0.3125 -0.859375 0.828125q-0.296875 0.515625 -0.515625 1.59375l-0.703125 3.34375l-1.1875 0l0.984375 -4.671875q0.109375 -0.46875 0.109375 -0.671875q0 -0.34375 -0.21875 -0.546875q-0.21875 -0.203125 -0.546875 -0.203125q-0.5 0 -1.0625 0.328125q-0.546875 0.3125 -0.890625 0.875q-0.34375 0.5625 -0.5625 1.625l-0.6875 3.265625l-1.171875 0zm12.774292 -8.203125l0.28125 -1.34375l1.171875 0l-0.28125 1.34375l-1.171875 0zm-1.71875 8.203125l1.453125 -6.90625l1.171875 0l-1.4375 6.90625l-1.1875 0zm3.0079956 0l1.453125 -6.90625l1.0625 0l-0.25 1.203125q0.6875 -0.71875 1.296875 -1.03125q0.609375 -0.328125 1.234375 -0.328125q0.84375 0 1.3125 0.453125q0.484375 0.453125 0.484375 1.21875q0 0.375 -0.171875 1.203125l-0.875 4.1875l-1.171875 0l0.921875 -4.375q0.125 -0.640625 0.125 -0.953125q0 -0.34375 -0.234375 -0.546875q-0.234375 -0.21875 -0.6875 -0.21875q-0.90625 0 -1.609375 0.65625q-0.703125 0.640625 -1.03125 2.21875l-0.671875 3.21875l-1.1875 0zm7.5999756 -2.859375l0.234375 -1.1875l3.59375 0l-0.234375 1.1875l-3.59375 0zm4.2508545 2.859375l2.0 -9.546875l1.171875 0l-0.765625 3.671875q0.65625 -0.640625 1.21875 -0.90625q0.578125 -0.28125 1.171875 -0.28125q0.859375 0 1.328125 0.453125q0.484375 0.453125 0.484375 1.1875q0 0.359375 -0.203125 1.34375l-0.859375 4.078125l-1.171875 0l0.875 -4.1875q0.1875 -0.90625 0.1875 -1.140625q0 -0.34375 -0.234375 -0.546875q-0.234375 -0.21875 -0.671875 -0.21875q-0.640625 0 -1.21875 0.34375q-0.578125 0.328125 -0.90625 0.90625q-0.328125 0.578125 -0.609375 1.875l-0.609375 2.96875l-1.1875 0zm12.490601 -2.34375l1.15625 0.109375q-0.25 0.859375 -1.140625 1.625q-0.890625 0.765625 -2.125 0.765625q-0.765625 0 -1.40625 -0.34375q-0.640625 -0.359375 -0.984375 -1.03125q-0.328125 -0.6875 -0.328125 -1.546875q0 -1.140625 0.515625 -2.203125q0.53125 -1.0625 1.359375 -1.578125q0.84375 -0.515625 1.8125 -0.515625q1.234375 0 1.96875 0.765625q0.75 0.765625 0.75 2.09375q0 0.5 -0.09375 1.046875l-5.09375 0q-0.03125 0.1875 -0.03125 0.359375q0 0.96875 0.4375 1.484375q0.453125 0.5 1.109375 0.5q0.59375 0 1.171875 -0.390625q0.59375 -0.390625 0.921875 -1.140625zm-3.421875 -1.71875l3.875 0q0.015625 -0.1875 0.015625 -0.265625q0 -0.875 -0.453125 -1.34375q-0.4375 -0.484375 -1.125 -0.484375q-0.765625 0 -1.390625 0.53125q-0.609375 0.515625 -0.921875 1.5625zm10.428101 3.203125q-0.625 0.53125 -1.1875 0.78125q-0.5625 0.234375 -1.203125 0.234375q-0.96875 0 -1.5625 -0.5625q-0.578125 -0.5625 -0.578125 -1.4375q0 -0.578125 0.265625 -1.015625q0.265625 -0.453125 0.703125 -0.71875q0.4375 -0.28125 1.0625 -0.390625q0.40625 -0.078125 1.515625 -0.125q1.109375 -0.046875 1.59375 -0.234375q0.125 -0.484375 0.125 -0.8125q0 -0.40625 -0.296875 -0.640625q-0.40625 -0.328125 -1.1875 -0.328125q-0.75 0 -1.21875 0.328125q-0.46875 0.328125 -0.6875 0.9375l-1.1875 -0.109375q0.359375 -1.015625 1.140625 -1.5625q0.796875 -0.546875 2.0 -0.546875q1.28125 0 2.03125 0.609375q0.578125 0.453125 0.578125 1.1875q0 0.546875 -0.15625 1.28125l-0.390625 1.71875q-0.1875 0.8125 -0.1875 1.328125q0 0.328125 0.15625 0.9375l-1.203125 0q-0.09375 -0.34375 -0.125 -0.859375zm0.421875 -2.640625q-0.234375 0.09375 -0.53125 0.15625q-0.28125 0.046875 -0.9375 0.109375q-1.03125 0.078125 -1.453125 0.21875q-0.421875 0.140625 -0.640625 0.453125q-0.21875 0.296875 -0.21875 0.671875q0 0.5 0.34375 0.828125q0.34375 0.3125 0.984375 0.3125q0.578125 0 1.109375 -0.3125q0.546875 -0.3125 0.859375 -0.859375q0.3125 -0.5625 0.484375 -1.578125zm1.7406006 6.15625l2.0 -9.5625l1.09375 0l-0.203125 0.953125q0.59375 -0.625 1.078125 -0.859375q0.484375 -0.25 1.015625 -0.25q0.984375 0 1.625 0.71875q0.65625 0.71875 0.65625 2.0625q0 1.078125 -0.359375 1.96875q-0.34375 0.875 -0.875 1.421875q-0.515625 0.546875 -1.046875 0.796875q-0.53125 0.25 -1.09375 0.25q-1.25 0 -1.921875 -1.265625l-0.78125 3.765625l-1.1875 0zm2.328125 -5.484375q0 0.78125 0.109375 1.078125q0.171875 0.421875 0.53125 0.6875q0.375 0.25 0.875 0.25q1.015625 0 1.640625 -1.140625q0.625 -1.140625 0.625 -2.328125q0 -0.875 -0.421875 -1.359375q-0.421875 -0.484375 -1.046875 -0.484375q-0.453125 0 -0.84375 0.25q-0.375 0.234375 -0.703125 0.703125q-0.328125 0.46875 -0.546875 1.15625q-0.21875 0.6875 -0.21875 1.1875z" fill-rule="nonzero"/></g></svg>