<svg version="1.1" viewBox="0.0 0.0 551.6325459317585 365.997375328084" fill="none" stroke="none" stroke-linecap="square" stroke-miterlimit="10" xmlns:xlink="http://www.w3.org/1999/xlink" xmlns="http://www.w3.org/2000/svg"><clipPath id="p.0"><path d="m0 0l551.63257 0l0 365.99738l-551.63257 0l0 -365.99738z" clip-rule="nonzero"/></clipPath><g clip-path="url(#p.0)"><path fill="#000000" fill-opacity="0.0" d="m0 0l551.63257 0l0 365.99738l-551.63257 0z" fill-rule="evenodd"/><path fill="#000000" fill-opacity="0.0" d="m231.86745 45.557743l0 0c0 -15.655315 12.691147 -28.346457 28.34645 -28.346457l0 0c7.517975 0 14.727997 2.9864922 20.043976 8.3024845c5.3160095 5.3159924 8.30249 12.526024 8.30249 20.043972l0 0c0 15.655315 -12.691132 28.346455 -28.346466 28.346455l0 0c-15.655304 0 -28.34645 -12.691139 -28.34645 -28.346455z" fill-rule="evenodd"/><path stroke="#000000" stroke-width="1.0" stroke-linejoin="round" stroke-linecap="butt" d="m231.86745 45.557743l0 0c0 -15.655315 12.691147 -28.346457 28.34645 -28.346457l0 0c7.517975 0 14.727997 2.9864922 20.043976 8.3024845c5.3160095 5.3159924 8.30249 12.526024 8.30249 20.043972l0 0c0 15.655315 -12.691132 28.346455 -28.346466 28.346455l0 0c-15.655304 0 -28.34645 -12.691139 -28.34645 -28.346455z" fill-rule="evenodd"/><path fill="#000000" d="m253.96088 52.47774l5.125 -13.359375l1.90625 0l5.46875 13.359375l-2.015625 0l-1.546875 -4.046875l-5.59375 0l-1.46875 4.046875l-1.875 0zm3.859375 -5.484375l4.53125 0l-1.40625 -3.703125q-0.625 -1.6875 -0.9375 -2.765625q-0.265625 1.28125 -0.71875 2.546875l-1.46875 3.921875z" fill-rule="nonzero"/><path fill="#000000" fill-opacity="0.0" d="m82.68241 141.71523l0 0c0 -15.655319 12.691147 -28.346458 28.346458 -28.346458l0 0c7.517952 0 14.727982 2.986496 20.043976 8.302483c5.3159943 5.3159943 8.30249 12.5260315 8.30249 20.043976l0 0c0 15.655319 -12.691147 28.34645 -28.346466 28.34645l0 0c-15.655312 0 -28.346458 -12.691132 -28.346458 -28.34645z" fill-rule="evenodd"/><path stroke="#000000" stroke-width="1.0" stroke-linejoin="round" stroke-linecap="butt" d="m82.68241 141.71523l0 0c0 -15.655319 12.691147 -28.346458 28.346458 -28.346458l0 0c7.517952 0 14.727982 2.986496 20.043976 8.302483c5.3159943 5.3159943 8.30249 12.5260315 8.30249 20.043976l0 0c0 15.655319 -12.691147 28.34645 -28.346466 28.34645l0 0c-15.655312 0 -28.346458 -12.691132 -28.346458 -28.34645z" fill-rule="evenodd"/><path fill="#000000" d="m106.16646 148.63522l0 -13.359375l5.015625 0q1.53125 0 2.453125 0.40625q0.921875 0.40625 1.4375 1.25q0.53125 0.84375 0.53125 1.765625q0 0.859375 -0.46875 1.625q-0.453125 0.75 -1.390625 1.203125q1.203125 0.359375 1.859375 1.21875q0.65625 0.859375 0.65625 2.015625q0 0.9375 -0.40625 1.75q-0.390625 0.796875 -0.984375 1.234375q-0.578125 0.4375 -1.453125 0.671875q-0.875 0.21875 -2.15625 0.21875l-5.09375 0zm1.78125 -7.75l2.875 0q1.1875 0 1.6875 -0.140625q0.671875 -0.203125 1.015625 -0.671875q0.34375 -0.46875 0.34375 -1.171875q0 -0.65625 -0.328125 -1.15625q-0.3125 -0.515625 -0.90625 -0.703125q-0.59375 -0.1875 -2.03125 -0.1875l-2.65625 0l0 4.03125zm0 6.171875l3.3125 0q0.859375 0 1.203125 -0.0625q0.609375 -0.109375 1.015625 -0.359375q0.421875 -0.265625 0.6875 -0.75q0.265625 -0.484375 0.265625 -1.125q0 -0.75 -0.390625 -1.296875q-0.375 -0.546875 -1.0625 -0.765625q-0.671875 -0.234375 -1.953125 -0.234375l-3.078125 0l0 4.59375z" fill-rule="nonzero"/><path fill="#000000" fill-opacity="0.0" d="m381.04987 141.71523l0 0c0 -15.655319 12.691132 -28.346458 28.346466 -28.346458l0 0c7.5179443 0 14.727966 2.986496 20.043976 8.302483c5.315979 5.3159943 8.30246 12.5260315 8.30246 20.043976l0 0c0 15.655319 -12.691132 28.34645 -28.346436 28.34645l0 0c-15.655334 0 -28.346466 -12.691132 -28.346466 -28.34645z" fill-rule="evenodd"/><path stroke="#000000" stroke-width="1.0" stroke-linejoin="round" stroke-linecap="butt" d="m381.04987 141.71523l0 0c0 -15.655319 12.691132 -28.346458 28.346466 -28.346458l0 0c7.5179443 0 14.727966 2.986496 20.043976 8.302483c5.315979 5.3159943 8.30246 12.5260315 8.30246 20.043976l0 0c0 15.655319 -12.691132 28.34645 -28.346436 28.34645l0 0c-15.655334 0 -28.346466 -12.691132 -28.346466 -28.34645z" fill-rule="evenodd"/><path fill="#000000" d="m413.6286 143.94772l1.765625 0.453125q-0.5625 2.171875 -2.0 3.328125q-1.4375 1.140625 -3.53125 1.140625q-2.15625 0 -3.515625 -0.875q-1.34375 -0.890625 -2.0625 -2.546875q-0.703125 -1.671875 -0.703125 -3.59375q0 -2.078125 0.796875 -3.625q0.796875 -1.5625 2.265625 -2.359375q1.484375 -0.8125 3.25 -0.8125q2.0 0 3.359375 1.015625q1.375 1.015625 1.90625 2.875l-1.734375 0.40625q-0.46875 -1.453125 -1.359375 -2.109375q-0.875 -0.671875 -2.203125 -0.671875q-1.546875 0 -2.578125 0.734375q-1.03125 0.734375 -1.453125 1.984375q-0.421875 1.234375 -0.421875 2.5625q0 1.703125 0.5 2.96875q0.5 1.265625 1.546875 1.90625q1.046875 0.625 2.265625 0.625q1.484375 0 2.515625 -0.859375q1.03125 -0.859375 1.390625 -2.546875z" fill-rule="nonzero"/><path fill="#000000" fill-opacity="0.0" d="m10.573491 231.07742l0 0c0 -15.655304 12.69114 -28.34645 28.346458 -28.34645l0 0c7.517948 0 14.727978 2.986496 20.043972 8.30249c5.3159943 5.315979 8.302483 12.526016 8.302483 20.04396l0 0c0 15.655319 -12.691139 28.346466 -28.346455 28.346466l0 0c-15.655317 0 -28.346458 -12.691147 -28.346458 -28.346466z" fill-rule="evenodd"/><path stroke="#000000" stroke-width="1.0" stroke-linejoin="round" stroke-linecap="butt" d="m10.573491 231.07742l0 0c0 -15.655304 12.69114 -28.34645 28.346458 -28.34645l0 0c7.517948 0 14.727978 2.986496 20.043972 8.30249c5.3159943 5.315979 8.302483 12.526016 8.302483 20.04396l0 0c0 15.655319 -12.691139 28.346466 -28.346455 28.346466l0 0c-15.655317 0 -28.346458 -12.691147 -28.346458 -28.346466z" fill-rule="evenodd"/><path fill="#000000" d="m33.620975 237.99742l0 -13.359375l4.609375 0q1.546875 0 2.375 0.203125q1.140625 0.25 1.953125 0.953125q1.0625 0.890625 1.578125 2.28125q0.53125 1.390625 0.53125 3.171875q0 1.515625 -0.359375 2.703125q-0.359375 1.171875 -0.921875 1.9375q-0.546875 0.765625 -1.203125 1.21875q-0.65625 0.4375 -1.59375 0.671875q-0.9375 0.21875 -2.140625 0.21875l-4.828125 0zm1.765625 -1.578125l2.859375 0q1.3125 0 2.0625 -0.234375q0.75 -0.25 1.203125 -0.703125q0.625 -0.625 0.96875 -1.6875q0.359375 -1.0625 0.359375 -2.578125q0 -2.09375 -0.6875 -3.21875q-0.6875 -1.125 -1.671875 -1.5q-0.703125 -0.28125 -2.28125 -0.28125l-2.8125 0l0 10.203125z" fill-rule="nonzero"/><path fill="#000000" fill-opacity="0.0" d="m82.6811 231.07742l0 0c0 -15.655304 12.691147 -28.34645 28.346458 -28.34645l0 0c7.517952 0 14.727982 2.986496 20.043976 8.30249c5.3159943 5.315979 8.302475 12.526016 8.302475 20.04396l0 0c0 15.655319 -12.691132 28.346466 -28.34645 28.346466l0 0c-15.655312 0 -28.346458 -12.691147 -28.346458 -28.346466z" fill-rule="evenodd"/><path stroke="#000000" stroke-width="1.0" stroke-linejoin="round" stroke-linecap="butt" d="m82.6811 231.07742l0 0c0 -15.655304 12.691147 -28.34645 28.346458 -28.34645l0 0c7.517952 0 14.727982 2.986496 20.043976 8.30249c5.3159943 5.315979 8.302475 12.526016 8.302475 20.04396l0 0c0 15.655319 -12.691132 28.346466 -28.34645 28.346466l0 0c-15.655312 0 -28.346458 -12.691147 -28.346458 -28.346466z" fill-rule="evenodd"/><path fill="#000000" d="m106.27452 237.99742l0 -13.359375l9.65625 0l0 1.578125l-7.875 0l0 4.09375l7.375 0l0 1.5625l-7.375 0l0 4.546875l8.1875 0l0 1.578125l-9.96875 0z" fill-rule="nonzero"/><path fill="#000000" fill-opacity="0.0" d="m154.78871 231.07742l0 0c0 -15.655304 12.691147 -28.34645 28.346466 -28.34645l0 0c7.5179443 0 14.727966 2.986496 20.04396 8.30249c5.3159943 5.315979 8.30249 12.526016 8.30249 20.04396l0 0c0 15.655319 -12.691147 28.346466 -28.34645 28.346466l0 0c-15.655319 0 -28.346466 -12.691147 -28.346466 -28.346466z" fill-rule="evenodd"/><path stroke="#000000" stroke-width="1.0" stroke-linejoin="round" stroke-linecap="butt" d="m154.78871 231.07742l0 0c0 -15.655304 12.691147 -28.34645 28.346466 -28.34645l0 0c7.5179443 0 14.727966 2.986496 20.04396 8.30249c5.3159943 5.315979 8.30249 12.526016 8.30249 20.04396l0 0c0 15.655319 -12.691147 28.346466 -28.34645 28.346466l0 0c-15.655319 0 -28.346466 -12.691147 -28.346466 -28.346466z" fill-rule="evenodd"/><path fill="#000000" d="m178.96843 237.99742l0 -13.359375l9.015625 0l0 1.578125l-7.25 0l0 4.140625l6.265625 0l0 1.578125l-6.265625 0l0 6.0625l-1.765625 0z" fill-rule="nonzero"/><path fill="#000000" fill-opacity="0.0" d="m437.74146 231.07742l0 0c0 -15.655304 12.691162 -28.34645 28.346466 -28.34645l0 0c7.5179443 0 14.727997 2.986496 20.043976 8.30249c5.315979 5.315979 8.30249 12.526016 8.30249 20.04396l0 0c0 15.655319 -12.691132 28.346466 -28.346466 28.346466l0 0c-15.655304 0 -28.346466 -12.691147 -28.346466 -28.346466z" fill-rule="evenodd"/><path stroke="#000000" stroke-width="1.0" stroke-linejoin="round" stroke-linecap="butt" d="m437.74146 231.07742l0 0c0 -15.655304 12.691162 -28.34645 28.346466 -28.34645l0 0c7.5179443 0 14.727997 2.986496 20.043976 8.30249c5.315979 5.315979 8.30249 12.526016 8.30249 20.04396l0 0c0 15.655319 -12.691132 28.346466 -28.346466 28.346466l0 0c-15.655304 0 -28.346466 -12.691147 -28.346466 -28.346466z" fill-rule="evenodd"/><path fill="#000000" d="m466.5197 232.76305l0 -1.578125l5.65625 0l0 4.953125q-1.296875 1.046875 -2.6875 1.578125q-1.375 0.515625 -2.84375 0.515625q-1.96875 0 -3.578125 -0.84375q-1.609375 -0.84375 -2.421875 -2.4375q-0.8125 -1.59375 -0.8125 -3.5625q0 -1.953125 0.8125 -3.640625q0.8125 -1.6875 2.34375 -2.5q1.53125 -0.828125 3.515625 -0.828125q1.453125 0 2.625 0.46875q1.171875 0.46875 1.828125 1.3125q0.671875 0.828125 1.015625 2.171875l-1.59375 0.4375q-0.296875 -1.015625 -0.75 -1.59375q-0.4375 -0.59375 -1.265625 -0.9375q-0.828125 -0.34375 -1.84375 -0.34375q-1.203125 0 -2.09375 0.375q-0.890625 0.359375 -1.4375 0.96875q-0.53125 0.59375 -0.828125 1.3125q-0.515625 1.234375 -0.515625 2.6875q0 1.78125 0.609375 2.984375q0.625 1.203125 1.796875 1.796875q1.171875 0.578125 2.5 0.578125q1.140625 0 2.234375 -0.4375q1.09375 -0.453125 1.65625 -0.953125l0 -2.484375l-3.921875 0z" fill-rule="nonzero"/><path fill="#000000" fill-opacity="0.0" d="m82.6811 320.43964l0 0c0 -15.655334 12.691147 -28.346466 28.346458 -28.346466l0 0c7.517952 0 14.727982 2.9865112 20.043976 8.30249c5.3159943 5.315979 8.302475 12.5260315 8.302475 20.043976l0 0c0 15.655304 -12.691132 28.346466 -28.34645 28.346466l0 0c-15.655312 0 -28.346458 -12.691162 -28.346458 -28.346466z" fill-rule="evenodd"/><path stroke="#000000" stroke-width="1.0" stroke-linejoin="round" stroke-linecap="butt" d="m82.6811 320.43964l0 0c0 -15.655334 12.691147 -28.346466 28.346458 -28.346466l0 0c7.517952 0 14.727982 2.9865112 20.043976 8.30249c5.3159943 5.315979 8.302475 12.5260315 8.302475 20.043976l0 0c0 15.655304 -12.691132 28.346466 -28.34645 28.346466l0 0c-15.655312 0 -28.346458 -12.691162 -28.346458 -28.346466z" fill-rule="evenodd"/><path fill="#000000" d="m105.791084 327.35962l0 -13.359375l1.765625 0l0 5.484375l6.9375 0l0 -5.484375l1.765625 0l0 13.359375l-1.765625 0l0 -6.296875l-6.9375 0l0 6.296875l-1.765625 0z" fill-rule="nonzero"/><path fill="#000000" fill-opacity="0.0" d="m391.11942 320.43964l0 0c0 -15.655334 12.691162 -28.346466 28.346466 -28.346466l0 0c7.5179443 0 14.727966 2.9865112 20.043976 8.30249c5.315979 5.315979 8.30249 12.5260315 8.30249 20.043976l0 0c0 15.655304 -12.691162 28.346466 -28.346466 28.346466l0 0c-15.655304 0 -28.346466 -12.691162 -28.346466 -28.346466z" fill-rule="evenodd"/><path stroke="#000000" stroke-width="1.0" stroke-linejoin="round" stroke-linecap="butt" d="m391.11942 320.43964l0 0c0 -15.655334 12.691162 -28.346466 28.346466 -28.346466l0 0c7.5179443 0 14.727966 2.9865112 20.043976 8.30249c5.315979 5.315979 8.30249 12.5260315 8.30249 20.043976l0 0c0 15.655304 -12.691162 28.346466 -28.346466 28.346466l0 0c-15.655304 0 -28.346466 -12.691162 -28.346466 -28.346466z" fill-rule="evenodd"/><path fill="#000000" d="m418.6086 327.35962l0 -13.359375l1.765625 0l0 13.359375l-1.765625 0z" fill-rule="nonzero"/><path fill="#000000" fill-opacity="0.0" d="m484.36353 320.43964l0 0c0 -15.655334 12.691132 -28.346466 28.346436 -28.346466l0 0c7.5179443 0 14.727966 2.9865112 20.044006 8.30249c5.315979 5.315979 8.30249 12.5260315 8.30249 20.043976l0 0c0 15.655304 -12.691162 28.346466 -28.346497 28.346466l0 0c-15.655304 0 -28.346436 -12.691162 -28.346436 -28.346466z" fill-rule="evenodd"/><path stroke="#000000" stroke-width="1.0" stroke-linejoin="round" stroke-linecap="butt" d="m484.36353 320.43964l0 0c0 -15.655334 12.691132 -28.346466 28.346436 -28.346466l0 0c7.5179443 0 14.727966 2.9865112 20.044006 8.30249c5.315979 5.315979 8.30249 12.5260315 8.30249 20.043976l0 0c0 15.655304 -12.691162 28.346466 -28.346497 28.346466l0 0c-15.655304 0 -28.346436 -12.691162 -28.346436 -28.346466z" fill-rule="evenodd"/><path fill="#000000" d="m508.57715 323.56274l1.59375 -0.21875q0.078125 1.53125 0.578125 2.109375q0.515625 0.5625 1.421875 0.5625q0.65625 0 1.140625 -0.296875q0.484375 -0.3125 0.65625 -0.828125q0.1875 -0.53125 0.1875 -1.6875l0 -9.203125l1.765625 0l0 9.109375q0 1.671875 -0.40625 2.59375q-0.40625 0.921875 -1.28125 1.40625q-0.875 0.484375 -2.0625 0.484375q-1.75 0 -2.6875 -1.015625q-0.9375 -1.015625 -0.90625 -3.015625z" fill-rule="nonzero"/><path fill="#000000" fill-opacity="0.0" d="m131.07285 121.67125l109.102356 -56.06299" fill-rule="evenodd"/><path stroke="#000000" stroke-width="1.0" stroke-linejoin="round" stroke-linecap="butt" d="m131.07285 121.67125l109.102356 -56.06299" fill-rule="evenodd"/><path fill="#000000" fill-opacity="0.0" d="m280.25787 65.601715l109.102356 56.06299" fill-rule="evenodd"/><path stroke="#000000" stroke-width="1.0" stroke-linejoin="round" stroke-linecap="butt" d="m280.25787 65.601715l109.102356 56.06299" fill-rule="evenodd"/><path fill="#000000" fill-opacity="0.0" d="m429.4403 161.7592l36.661407 40.976364" fill-rule="evenodd"/><path stroke="#000000" stroke-width="1.0" stroke-linejoin="round" stroke-linecap="butt" d="m429.4403 161.7592l36.661407 40.976364" fill-rule="evenodd"/><path fill="#000000" fill-opacity="0.0" d="m486.1319 251.1214l26.582703 40.97638" fill-rule="evenodd"/><path stroke="#000000" stroke-width="1.0" stroke-linejoin="round" stroke-linecap="butt" d="m486.1319 251.1214l26.582703 40.97638" fill-rule="evenodd"/><path fill="#000000" fill-opacity="0.0" d="m446.04395 251.1214l-26.582672 40.97638" fill-rule="evenodd"/><path stroke="#000000" stroke-width="1.0" stroke-linejoin="round" stroke-linecap="butt" d="m446.04395 251.1214l-26.582672 40.97638" fill-rule="evenodd"/><path fill="#000000" fill-opacity="0.0" d="m111.02887 170.06168l0 32.661423" fill-rule="evenodd"/><path stroke="#000000" stroke-width="1.0" stroke-linejoin="round" stroke-linecap="butt" d="m111.02887 170.06168l0 32.661423" fill-rule="evenodd"/><path fill="#000000" fill-opacity="0.0" d="m131.07285 161.7592l52.06299 40.976364" fill-rule="evenodd"/><path stroke="#000000" stroke-width="1.0" stroke-linejoin="round" stroke-linecap="butt" d="m131.07285 161.7592l52.06299 40.976364" fill-rule="evenodd"/><path fill="#000000" fill-opacity="0.0" d="m90.9849 161.7592l-52.062992 40.976364" fill-rule="evenodd"/><path stroke="#000000" stroke-width="1.0" stroke-linejoin="round" stroke-linecap="butt" d="m90.9849 161.7592l-52.062992 40.976364" fill-rule="evenodd"/><path fill="#000000" fill-opacity="0.0" d="m111.02756 259.4239l0 32.661407" fill-rule="evenodd"/><path stroke="#000000" stroke-width="1.0" stroke-linejoin="round" stroke-linecap="butt" d="m111.02756 259.4239l0 32.661407" fill-rule="evenodd"/></g></svg>