<svg version="1.1" viewBox="0.0 0.0 630.1889763779527 485.2283464566929" fill="none" stroke="none" stroke-linecap="square" stroke-miterlimit="10" xmlns:xlink="http://www.w3.org/1999/xlink" xmlns="http://www.w3.org/2000/svg"><clipPath id="p.0"><path d="m0 0l630.18896 0l0 485.22833l-630.18896 0l0 -485.22833z" clip-rule="nonzero"/></clipPath><g clip-path="url(#p.0)"><path fill="#000000" fill-opacity="0.0" d="m0 0l630.18896 0l0 485.22833l-630.18896 0z" fill-rule="evenodd"/><path fill="#000000" fill-opacity="0.0" d="m369.6299 35.800526l0 0c0 -15.655317 12.691162 -28.346458 28.346466 -28.346458l0 0c7.5179443 0 14.727966 2.986493 20.043976 8.302485c5.315979 5.3159904 8.30249 12.526024 8.30249 20.043972l0 0c0 15.655315 -12.691162 28.346455 -28.346466 28.346455l0 0c-15.655304 0 -28.346466 -12.691139 -28.346466 -28.346455z" fill-rule="evenodd"/><path stroke="#000000" stroke-width="1.0" stroke-linejoin="round" stroke-linecap="butt" d="m369.6299 35.800526l0 0c0 -15.655317 12.691162 -28.346458 28.346466 -28.346458l0 0c7.5179443 0 14.727966 2.986493 20.043976 8.302485c5.315979 5.3159904 8.30249 12.526024 8.30249 20.043972l0 0c0 15.655315 -12.691162 28.346455 -28.346466 28.346455l0 0c-15.655304 0 -28.346466 -12.691139 -28.346466 -28.346455z" fill-rule="evenodd"/><path fill="#000000" fill-opacity="0.0" d="m417.15747 137.17126l0 0c0 -15.655319 12.691162 -28.346458 28.346466 -28.346458l0 0c7.5179443 0 14.727966 2.9864883 20.043976 8.302483c5.315979 5.3159943 8.30249 12.526016 8.30249 20.043976l0 0c0 15.655304 -12.691162 28.34645 -28.346466 28.34645l0 0c-15.655304 0 -28.346466 -12.691147 -28.346466 -28.34645z" fill-rule="evenodd"/><path stroke="#000000" stroke-width="1.0" stroke-linejoin="round" stroke-linecap="butt" d="m417.15747 137.17126l0 0c0 -15.655319 12.691162 -28.346458 28.346466 -28.346458l0 0c7.5179443 0 14.727966 2.9864883 20.043976 8.302483c5.315979 5.3159943 8.30249 12.526016 8.30249 20.043976l0 0c0 15.655304 -12.691162 28.34645 -28.346466 28.34645l0 0c-15.655304 0 -28.346466 -12.691147 -28.346466 -28.34645z" fill-rule="evenodd"/><path fill="#000000" fill-opacity="0.0" d="m239.91602 339.9134l0 0c0 -15.655334 12.691132 -28.346466 28.346466 -28.346466l0 0c7.5179443 0 14.727966 2.9865112 20.043945 8.30249c5.3160095 5.315979 8.30249 12.5260315 8.30249 20.043976l0 0c0 15.655304 -12.691132 28.346466 -28.346436 28.346466l0 0c-15.655334 0 -28.346466 -12.691162 -28.346466 -28.346466z" fill-rule="evenodd"/><path stroke="#000000" stroke-width="1.0" stroke-linejoin="round" stroke-linecap="butt" d="m239.91602 339.9134l0 0c0 -15.655334 12.691132 -28.346466 28.346466 -28.346466l0 0c7.5179443 0 14.727966 2.9865112 20.043945 8.30249c5.3160095 5.315979 8.30249 12.5260315 8.30249 20.043976l0 0c0 15.655304 -12.691132 28.346466 -28.346436 28.346466l0 0c-15.655334 0 -28.346466 -12.691162 -28.346466 -28.346466z" fill-rule="evenodd"/><path fill="#000000" fill-opacity="0.0" d="m462.95538 238.54199l0 0c0 -15.655319 12.691132 -28.34645 28.346466 -28.34645l0 0c7.5179443 0 14.727966 2.986496 20.043945 8.302475c5.3160095 5.3159943 8.302521 12.5260315 8.302521 20.043976l0 0c0 15.655319 -12.691162 28.346466 -28.346466 28.346466l0 0c-15.655334 0 -28.346466 -12.691147 -28.346466 -28.346466z" fill-rule="evenodd"/><path stroke="#000000" stroke-width="1.0" stroke-linejoin="round" stroke-linecap="butt" d="m462.95538 238.54199l0 0c0 -15.655319 12.691132 -28.34645 28.346466 -28.34645l0 0c7.5179443 0 14.727966 2.986496 20.043945 8.302475c5.3160095 5.3159943 8.302521 12.5260315 8.302521 20.043976l0 0c0 15.655319 -12.691162 28.346466 -28.346466 28.346466l0 0c-15.655334 0 -28.346466 -12.691147 -28.346466 -28.346466z" fill-rule="evenodd"/><path fill="#000000" fill-opacity="0.0" d="m512.02496 339.91272l0 0c0 -15.655304 12.691101 -28.346436 28.346436 -28.346436l0 0c7.5179443 0 14.727966 2.9864807 20.043945 8.30246c5.31604 5.3160095 8.30249 12.5260315 8.30249 20.043976l0 0c0 15.655334 -12.691101 28.346466 -28.346436 28.346466l0 0c-15.655334 0 -28.346436 -12.691132 -28.346436 -28.346466z" fill-rule="evenodd"/><path stroke="#000000" stroke-width="1.0" stroke-linejoin="round" stroke-linecap="butt" d="m512.02496 339.91272l0 0c0 -15.655304 12.691101 -28.346436 28.346436 -28.346436l0 0c7.5179443 0 14.727966 2.9864807 20.043945 8.30246c5.31604 5.3160095 8.30249 12.5260315 8.30249 20.043976l0 0c0 15.655334 -12.691101 28.346466 -28.346436 28.346466l0 0c-15.655334 0 -28.346436 -12.691132 -28.346436 -28.346466z" fill-rule="evenodd"/><path fill="#000000" fill-opacity="0.0" d="m561.50397 441.28348l0 0c0 -15.655334 12.691101 -28.346466 28.346436 -28.346466l0 0c7.5179443 0 14.727966 2.9864807 20.043945 8.30249c5.315979 5.315979 8.30249 12.526001 8.30249 20.043976l0 0c0 15.655304 -12.691101 28.346436 -28.346436 28.346436l0 0c-15.655334 0 -28.346436 -12.691132 -28.346436 -28.346436z" fill-rule="evenodd"/><path stroke="#000000" stroke-width="1.0" stroke-linejoin="round" stroke-linecap="butt" d="m561.50397 441.28348l0 0c0 -15.655334 12.691101 -28.346466 28.346436 -28.346466l0 0c7.5179443 0 14.727966 2.9864807 20.043945 8.30249c5.315979 5.315979 8.30249 12.526001 8.30249 20.043976l0 0c0 15.655304 -12.691101 28.346436 -28.346436 28.346436l0 0c-15.655334 0 -28.346436 -12.691132 -28.346436 -28.346436z" fill-rule="evenodd"/><path fill="#000000" d="m586.4524 446.08347l0 -9.546875l6.90625 0l0 1.125l-5.640625 0l0 2.921875l5.28125 0l0 1.125l-5.28125 0l0 3.25l5.859375 0l0 1.125l-7.125 0z" fill-rule="nonzero"/><path fill="#000000" fill-opacity="0.0" d="m469.62335 441.28348l0 0c0 -15.655334 12.691162 -28.346466 28.346466 -28.346466l0 0c7.5179443 0 14.727997 2.9864807 20.043976 8.30249c5.315979 5.315979 8.30249 12.526001 8.30249 20.043976l0 0c0 15.655304 -12.691162 28.346436 -28.346466 28.346436l0 0c-15.655304 0 -28.346466 -12.691132 -28.346466 -28.346436z" fill-rule="evenodd"/><path stroke="#000000" stroke-width="1.0" stroke-linejoin="round" stroke-linecap="butt" d="m469.62335 441.28348l0 0c0 -15.655334 12.691162 -28.346466 28.346466 -28.346466l0 0c7.5179443 0 14.727997 2.9864807 20.043976 8.30249c5.315979 5.315979 8.30249 12.526001 8.30249 20.043976l0 0c0 15.655304 -12.691162 28.346436 -28.346466 28.346436l0 0c-15.655304 0 -28.346466 -12.691132 -28.346466 -28.346436z" fill-rule="evenodd"/><path fill="#000000" d="m494.18848 446.08347l0 -9.546875l3.28125 0q1.109375 0 1.703125 0.140625q0.8125 0.1875 1.390625 0.6875q0.765625 0.640625 1.140625 1.640625q0.375 0.984375 0.375 2.25q0 1.09375 -0.265625 1.9375q-0.25 0.828125 -0.65625 1.390625q-0.390625 0.546875 -0.859375 0.859375q-0.46875 0.3125 -1.140625 0.484375q-0.65625 0.15625 -1.53125 0.15625l-3.4375 0zm1.265625 -1.125l2.03125 0q0.9375 0 1.46875 -0.171875q0.546875 -0.1875 0.875 -0.5q0.4375 -0.453125 0.6875 -1.203125q0.25 -0.765625 0.25 -1.84375q0 -1.5 -0.5 -2.296875q-0.484375 -0.8125 -1.1875 -1.078125q-0.5 -0.203125 -1.625 -0.203125l-2.0 0l0 7.296875z" fill-rule="nonzero"/><path fill="#000000" fill-opacity="0.0" d="m377.74277 441.28348l0 0c0 -15.655334 12.691162 -28.346466 28.346466 -28.346466l0 0c7.5179443 0 14.727997 2.9864807 20.043976 8.30249c5.315979 5.315979 8.30249 12.526001 8.30249 20.043976l0 0c0 15.655304 -12.691132 28.346436 -28.346466 28.346436l0 0c-15.655304 0 -28.346466 -12.691132 -28.346466 -28.346436z" fill-rule="evenodd"/><path stroke="#000000" stroke-width="1.0" stroke-linejoin="round" stroke-linecap="butt" d="m377.74277 441.28348l0 0c0 -15.655334 12.691162 -28.346466 28.346466 -28.346466l0 0c7.5179443 0 14.727997 2.9864807 20.043976 8.30249c5.315979 5.315979 8.30249 12.526001 8.30249 20.043976l0 0c0 15.655304 -12.691132 28.346436 -28.346466 28.346436l0 0c-15.655304 0 -28.346466 -12.691132 -28.346466 -28.346436z" fill-rule="evenodd"/><path fill="#000000" d="m406.4057 442.3491l0 -1.125l4.03125 -0.015625l0 3.546875q-0.921875 0.75 -1.921875 1.125q-0.984375 0.359375 -2.03125 0.359375q-1.40625 0 -2.5625 -0.59375q-1.140625 -0.609375 -1.734375 -1.734375q-0.578125 -1.140625 -0.578125 -2.546875q0 -1.40625 0.578125 -2.609375q0.59375 -1.203125 1.6875 -1.78125q1.09375 -0.59375 2.515625 -0.59375q1.03125 0 1.859375 0.34375q0.84375 0.328125 1.3125 0.9375q0.484375 0.59375 0.734375 1.546875l-1.140625 0.3125q-0.21875 -0.71875 -0.53125 -1.140625q-0.3125 -0.421875 -0.90625 -0.671875q-0.59375 -0.25 -1.3125 -0.25q-0.875 0 -1.515625 0.265625q-0.625 0.265625 -1.015625 0.703125q-0.375 0.421875 -0.59375 0.9375q-0.359375 0.875 -0.359375 1.921875q0 1.265625 0.4375 2.125q0.4375 0.859375 1.265625 1.28125q0.84375 0.421875 1.796875 0.421875q0.8125 0 1.59375 -0.3125q0.78125 -0.328125 1.1875 -0.6875l0 -1.765625l-2.796875 0z" fill-rule="nonzero"/><path fill="#000000" fill-opacity="0.0" d="m285.8622 441.28348l0 0c0 -15.655334 12.691132 -28.346466 28.346436 -28.346466l0 0c7.517975 0 14.727997 2.9864807 20.043976 8.30249c5.3160095 5.315979 8.30249 12.526001 8.30249 20.043976l0 0c0 15.655304 -12.691132 28.346436 -28.346466 28.346436l0 0c-15.655304 0 -28.346436 -12.691132 -28.346436 -28.346436z" fill-rule="evenodd"/><path stroke="#000000" stroke-width="1.0" stroke-linejoin="round" stroke-linecap="butt" d="m285.8622 441.28348l0 0c0 -15.655334 12.691132 -28.346466 28.346436 -28.346466l0 0c7.517975 0 14.727997 2.9864807 20.043976 8.30249c5.3160095 5.315979 8.30249 12.526001 8.30249 20.043976l0 0c0 15.655304 -12.691132 28.346436 -28.346466 28.346436l0 0c-15.655304 0 -28.346436 -12.691132 -28.346436 -28.346436z" fill-rule="evenodd"/><path fill="#000000" d="m309.74817 446.08347l3.65625 -9.546875l1.359375 0l3.90625 9.546875l-1.4375 0l-1.109375 -2.890625l-3.984375 0l-1.046875 2.890625l-1.34375 0zm2.75 -3.921875l3.234375 0l-1.0 -2.640625q-0.453125 -1.203125 -0.671875 -1.96875q-0.1875 0.90625 -0.515625 1.8125l-1.046875 2.796875z" fill-rule="nonzero"/><path fill="#000000" fill-opacity="0.0" d="m193.98163 441.28348l0 0c0 -15.655334 12.691147 -28.346466 28.34645 -28.346466l0 0c7.5179596 0 14.727982 2.9864807 20.043976 8.30249c5.3159943 5.315979 8.30249 12.526001 8.30249 20.043976l0 0c0 15.655304 -12.691147 28.346436 -28.346466 28.346436l0 0c-15.655304 0 -28.34645 -12.691132 -28.34645 -28.346436z" fill-rule="evenodd"/><path stroke="#000000" stroke-width="1.0" stroke-linejoin="round" stroke-linecap="butt" d="m193.98163 441.28348l0 0c0 -15.655334 12.691147 -28.346466 28.34645 -28.346466l0 0c7.5179596 0 14.727982 2.9864807 20.043976 8.30249c5.3159943 5.315979 8.30249 12.526001 8.30249 20.043976l0 0c0 15.655304 -12.691147 28.346436 -28.346466 28.346436l0 0c-15.655304 0 -28.34645 -12.691132 -28.34645 -28.346436z" fill-rule="evenodd"/><path fill="#000000" d="m225.34363 442.73972l1.265625 0.3125q-0.390625 1.5625 -1.421875 2.375q-1.03125 0.8125 -2.53125 0.8125q-1.53125 0 -2.5 -0.625q-0.96875 -0.625 -1.484375 -1.8125q-0.5 -1.1875 -0.5 -2.5625q0 -1.484375 0.5625 -2.59375q0.578125 -1.109375 1.625 -1.6875q1.0625 -0.578125 2.328125 -0.578125q1.421875 0 2.390625 0.734375q0.984375 0.71875 1.375 2.046875l-1.25 0.296875q-0.328125 -1.046875 -0.96875 -1.515625q-0.625 -0.484375 -1.578125 -0.484375q-1.09375 0 -1.84375 0.53125q-0.734375 0.53125 -1.03125 1.421875q-0.296875 0.875 -0.296875 1.828125q0 1.21875 0.34375 2.125q0.359375 0.90625 1.109375 1.359375q0.75 0.4375 1.625 0.4375q1.0625 0 1.796875 -0.609375q0.734375 -0.609375 0.984375 -1.8125z" fill-rule="nonzero"/><path fill="#000000" fill-opacity="0.0" d="m102.10105 441.28348l0 0c0 -15.655334 12.691139 -28.346466 28.346458 -28.346466l0 0c7.5179443 0 14.727982 2.9864807 20.043976 8.30249c5.315979 5.315979 8.302475 12.526001 8.302475 20.043976l0 0c0 15.655304 -12.691132 28.346436 -28.34645 28.346436l0 0c-15.655319 0 -28.346458 -12.691132 -28.346458 -28.346436z" fill-rule="evenodd"/><path stroke="#000000" stroke-width="1.0" stroke-linejoin="round" stroke-linecap="butt" d="m102.10105 441.28348l0 0c0 -15.655334 12.691139 -28.346466 28.346458 -28.346466l0 0c7.5179443 0 14.727982 2.9864807 20.043976 8.30249c5.315979 5.315979 8.302475 12.526001 8.302475 20.043976l0 0c0 15.655304 -12.691132 28.346436 -28.34645 28.346436l0 0c-15.655319 0 -28.346458 -12.691132 -28.346458 -28.346436z" fill-rule="evenodd"/><path fill="#000000" d="m126.97138 446.08347l0 -9.546875l3.5937424 0q1.09375 0 1.75 0.296875q0.65625 0.28125 1.03125 0.890625q0.375 0.609375 0.375 1.265625q0 0.609375 -0.34375 1.15625q-0.328125 0.53125 -0.984375 0.859375q0.859375 0.25 1.328125 0.875q0.46875 0.609375 0.46875 1.4375q0 0.671875 -0.296875 1.25q-0.28125 0.578125 -0.703125 0.890625q-0.40625 0.3125 -1.03125 0.46875q-0.625 0.15625 -1.546875 0.15625l-3.6406174 0zm1.2656174 -5.53125l2.0625 0q0.84375 0 1.203125 -0.109375q0.484375 -0.140625 0.71875 -0.46875q0.25 -0.34375 0.25 -0.84375q0 -0.46875 -0.234375 -0.828125q-0.21875 -0.359375 -0.640625 -0.5q-0.421875 -0.140625 -1.453125 -0.140625l-1.90625 0l0 2.890625zm0 4.40625l2.375 0q0.609375 0 0.859375 -0.046875q0.4375 -0.078125 0.734375 -0.25q0.296875 -0.1875 0.484375 -0.53125q0.1875 -0.359375 0.1875 -0.8125q0 -0.53125 -0.28125 -0.921875q-0.265625 -0.40625 -0.75 -0.5625q-0.484375 -0.15625 -1.40625 -0.15625l-2.203125 0l0 3.28125z" fill-rule="nonzero"/><path fill="#000000" fill-opacity="0.0" d="m10.220472 441.28348l0 0c0 -15.655334 12.691141 -28.346466 28.346457 -28.346466l0 0c7.517948 0 14.727982 2.9864807 20.043972 8.30249c5.3159904 5.315979 8.302483 12.526001 8.302483 20.043976l0 0c0 15.655304 -12.691139 28.346436 -28.346455 28.346436l0 0c-15.655315 0 -28.346457 -12.691132 -28.346457 -28.346436z" fill-rule="evenodd"/><path stroke="#000000" stroke-width="1.0" stroke-linejoin="round" stroke-linecap="butt" d="m10.220472 441.28348l0 0c0 -15.655334 12.691141 -28.346466 28.346457 -28.346466l0 0c7.517948 0 14.727982 2.9864807 20.043972 8.30249c5.3159904 5.315979 8.302483 12.526001 8.302483 20.043976l0 0c0 15.655304 -12.691139 28.346436 -28.346455 28.346436l0 0c-15.655315 0 -28.346457 -12.691132 -28.346457 -28.346436z" fill-rule="evenodd"/><path fill="#000000" d="m35.59 446.08347l0 -9.546875l6.4375 0l0 1.125l-5.171875 0l0 2.96875l4.46875 0l0 1.125l-4.46875 0l0 4.328125l-1.265625 0z" fill-rule="nonzero"/><path fill="#000000" fill-opacity="0.0" d="m58.766403 339.91428l0 0c0 -15.655334 12.691139 -28.346466 28.346458 -28.346466l0 0c7.5179443 0 14.727982 2.9864807 20.043968 8.30249c5.3159943 5.315979 8.30249 12.526001 8.30249 20.043976l0 0c0 15.655304 -12.691147 28.346436 -28.346458 28.346436l0 0c-15.655319 0 -28.346458 -12.691132 -28.346458 -28.346436z" fill-rule="evenodd"/><path stroke="#000000" stroke-width="1.0" stroke-linejoin="round" stroke-linecap="butt" d="m58.766403 339.91428l0 0c0 -15.655334 12.691139 -28.346466 28.346458 -28.346466l0 0c7.5179443 0 14.727982 2.9864807 20.043968 8.30249c5.3159943 5.315979 8.30249 12.526001 8.30249 20.043976l0 0c0 15.655304 -12.691147 28.346436 -28.346458 28.346436l0 0c-15.655319 0 -28.346458 -12.691132 -28.346458 -28.346436z" fill-rule="evenodd"/><path fill="#000000" fill-opacity="0.0" d="m418.02036 55.844498l27.496063 52.97638" fill-rule="evenodd"/><path stroke="#000000" stroke-width="1.0" stroke-linejoin="round" stroke-linecap="butt" d="m418.02036 55.844498l27.496063 52.97638" fill-rule="evenodd"/><path fill="#000000" fill-opacity="0.0" d="m465.5479 157.21523l25.763763 52.97638" fill-rule="evenodd"/><path stroke="#000000" stroke-width="1.0" stroke-linejoin="round" stroke-linecap="butt" d="m465.5479 157.21523l25.763763 52.97638" fill-rule="evenodd"/><path fill="#000000" fill-opacity="0.0" d="m511.3458 258.58597l29.039398 52.97638" fill-rule="evenodd"/><path stroke="#000000" stroke-width="1.0" stroke-linejoin="round" stroke-linecap="butt" d="m511.3458 258.58597l29.039398 52.97638" fill-rule="evenodd"/><path fill="#000000" fill-opacity="0.0" d="m520.3274 359.9567l-22.362183 52.97638" fill-rule="evenodd"/><path stroke="#000000" stroke-width="1.0" stroke-linejoin="round" stroke-linecap="butt" d="m520.3274 359.9567l-22.362183 52.97638" fill-rule="evenodd"/><path fill="#000000" fill-opacity="0.0" d="m560.41534 359.9567l29.448853 52.97638" fill-rule="evenodd"/><path stroke="#000000" stroke-width="1.0" stroke-linejoin="round" stroke-linecap="butt" d="m560.41534 359.9567l29.448853 52.97638" fill-rule="evenodd"/><path fill="#000000" fill-opacity="0.0" d="m67.068886 359.95822l0 0" fill-rule="evenodd"/><path stroke="#000000" stroke-width="1.0" stroke-linejoin="round" stroke-linecap="butt" d="m67.068886 359.95822l0 0" fill-rule="evenodd"/><path fill="#000000" fill-opacity="0.0" d="m67.068886 359.95822l-28.503933 52.97638" fill-rule="evenodd"/><path stroke="#000000" stroke-width="1.0" stroke-linejoin="round" stroke-linecap="butt" d="m67.068886 359.95822l-28.503933 52.97638" fill-rule="evenodd"/><path fill="#000000" fill-opacity="0.0" d="m107.15683 359.95822l23.275589 52.97638" fill-rule="evenodd"/><path stroke="#000000" stroke-width="1.0" stroke-linejoin="round" stroke-linecap="butt" d="m107.15683 359.95822l23.275589 52.97638" fill-rule="evenodd"/><path fill="#000000" fill-opacity="0.0" d="m248.21849 359.95737l-25.889755 52.97638" fill-rule="evenodd"/><path stroke="#000000" stroke-width="1.0" stroke-linejoin="round" stroke-linecap="butt" d="m248.21849 359.95737l-25.889755 52.97638" fill-rule="evenodd"/><path fill="#000000" fill-opacity="0.0" d="m288.30643 359.95737l25.88977 52.97638" fill-rule="evenodd"/><path stroke="#000000" stroke-width="1.0" stroke-linejoin="round" stroke-linecap="butt" d="m288.30643 359.95737l25.88977 52.97638" fill-rule="evenodd"/><path fill="#000000" fill-opacity="0.0" d="m471.25787 258.58597l-65.165375 154.36221" fill-rule="evenodd"/><path stroke="#000000" stroke-width="1.0" stroke-linejoin="round" stroke-linecap="butt" d="m471.25787 258.58597l-65.165375 154.36221" fill-rule="evenodd"/><path fill="#000000" fill-opacity="0.0" d="m87.09776 311.56104l290.83466 -255.71654" fill-rule="evenodd"/><path stroke="#000000" stroke-width="1.0" stroke-linejoin="round" stroke-linecap="butt" d="m87.09776 311.56104l290.83466 -255.71654" fill-rule="evenodd"/><path fill="#000000" fill-opacity="0.0" d="m425.45996 157.21523l-157.19684 154.3622" fill-rule="evenodd"/><path stroke="#000000" stroke-width="1.0" stroke-linejoin="round" stroke-linecap="butt" d="m425.45996 157.21523l-157.19684 154.3622" fill-rule="evenodd"/><path fill="#000000" fill-opacity="0.0" d="m430.52493 64.14698l14.992126 0l0 21.196854l-14.992126 0z" fill-rule="evenodd"/><path fill="#000000" d="m435.97806 78.22698l-1.28125 0l0 -8.203125q-0.46875 0.4375 -1.21875 0.890625q-0.75 0.4375 -1.359375 0.65625l0 -1.25q1.078125 -0.5 1.890625 -1.21875q0.8125 -0.734375 1.140625 -1.40625l0.828125 0l0 10.53125z" fill-rule="nonzero"/><path fill="#000000" fill-opacity="0.0" d="m476.32022 165.51706l14.992126 0l0 21.196854l-14.992126 0z" fill-rule="evenodd"/><path fill="#000000" d="m481.77335 179.59706l-1.28125 0l0 -8.203125q-0.46875 0.4375 -1.21875 0.890625q-0.75 0.4375 -1.359375 0.65625l0 -1.25q1.078125 -0.5 1.890625 -1.21875q0.8125 -0.734375 1.140625 -1.40625l0.828125 0l0 10.53125z" fill-rule="nonzero"/><path fill="#000000" fill-opacity="0.0" d="m523.08136 266.88977l14.992126 0l0 21.196838l-14.992126 0z" fill-rule="evenodd"/><path fill="#000000" d="m528.5345 280.96976l-1.28125 0l0 -8.203125q-0.46875 0.4375 -1.21875 0.890625q-0.75 0.4375 -1.359375 0.65625l0 -1.25q1.078125 -0.5 1.890625 -1.21875q0.8125 -0.734375 1.140625 -1.40625l0.828125 0l0 10.53125z" fill-rule="nonzero"/><path fill="#000000" fill-opacity="0.0" d="m574.8714 368.25986l14.992126 0l0 21.196838l-14.992126 0z" fill-rule="evenodd"/><path fill="#000000" d="m580.3245 382.33984l-1.28125 0l0 -8.203125q-0.46875 0.4375 -1.21875 0.890625q-0.75 0.4375 -1.359375 0.65625l0 -1.25q1.078125 -0.5 1.890625 -1.21875q0.8125 -0.734375 1.140625 -1.40625l0.828125 0l0 10.53125z" fill-rule="nonzero"/><path fill="#000000" fill-opacity="0.0" d="m299.2047 368.25986l14.992126 0l0 21.196838l-14.992126 0z" fill-rule="evenodd"/><path fill="#000000" d="m304.65784 382.33984l-1.28125 0l0 -8.203125q-0.46875 0.4375 -1.21875 0.890625q-0.75 0.4375 -1.359375 0.65625l0 -1.25q1.078125 -0.5 1.890625 -1.21875q0.8125 -0.734375 1.140625 -1.40625l0.828125 0l0 10.53125z" fill-rule="nonzero"/><path fill="#000000" fill-opacity="0.0" d="m115.44095 368.25986l14.992126 0l0 21.196838l-14.992126 0z" fill-rule="evenodd"/><path fill="#000000" d="m120.89407 382.33984l-1.28125 0l0 -8.203125q-0.46875 0.4375 -1.21875 0.890625q-0.75 0.4375 -1.359375 0.65625l0 -1.25q1.078125 -0.5 1.890625 -1.21875q0.8125 -0.734375 1.140625 -1.40625l0.828125 0l0 10.53125z" fill-rule="nonzero"/><path fill="#000000" fill-opacity="0.0" d="m339.36484 64.14698l14.992126 0l0 21.196854l-14.992126 0z" fill-rule="evenodd"/><path fill="#000000" d="m339.9742 73.05511q0 -1.859375 0.375 -2.984375q0.390625 -1.140625 1.140625 -1.75q0.765625 -0.625 1.90625 -0.625q0.84375 0 1.46875 0.34375q0.640625 0.328125 1.0625 0.96875q0.421875 0.640625 0.65625 1.5625q0.234375 0.921875 0.234375 2.484375q0 1.84375 -0.390625 2.984375q-0.375 1.125 -1.125 1.75q-0.75 0.609375 -1.90625 0.609375q-1.515625 0 -2.390625 -1.078125q-1.03125 -1.3125 -1.03125 -4.265625zm1.328125 0q0 2.578125 0.59375 3.4375q0.609375 0.859375 1.5 0.859375q0.890625 0 1.484375 -0.859375q0.609375 -0.859375 0.609375 -3.4375q0 -2.59375 -0.609375 -3.4375q-0.59375 -0.859375 -1.5 -0.859375q-0.890625 0 -1.421875 0.75q-0.65625 0.96875 -0.65625 3.546875z" fill-rule="nonzero"/><path fill="#000000" fill-opacity="0.0" d="m43.774277 368.25986l14.992126 0l0 21.196838l-14.992126 0z" fill-rule="evenodd"/><path fill="#000000" d="m44.38365 377.16797q0 -1.859375 0.375 -2.984375q0.390625 -1.140625 1.140625 -1.75q0.765625 -0.625 1.90625 -0.625q0.84375 0 1.46875 0.34375q0.640625 0.328125 1.0625 0.96875q0.421875 0.640625 0.65625 1.5625q0.234375 0.921875 0.234375 2.484375q0 1.84375 -0.390625 2.984375q-0.375 1.125 -1.125 1.75q-0.75 0.609375 -1.90625 0.609375q-1.515625 0 -2.390625 -1.078125q-1.03125 -1.3125 -1.03125 -4.265625zm1.328125 0q0 2.578125 0.59375 3.4375q0.609375 0.859375 1.5 0.859375q0.890625 0 1.484375 -0.859375q0.609375 -0.859375 0.609375 -3.4375q0 -2.59375 -0.609375 -3.4375q-0.59375 -0.859375 -1.5 -0.859375q-0.890625 0 -1.421875 0.75q-0.65625 0.96875 -0.65625 3.546875z" fill-rule="nonzero"/><path fill="#000000" fill-opacity="0.0" d="m390.04855 165.51706l14.992126 0l0 21.196854l-14.992126 0z" fill-rule="evenodd"/><path fill="#000000" d="m390.65793 174.42519q0 -1.859375 0.375 -2.984375q0.390625 -1.140625 1.140625 -1.75q0.765625 -0.625 1.90625 -0.625q0.84375 0 1.46875 0.34375q0.640625 0.328125 1.0625 0.96875q0.421875 0.640625 0.65625 1.5625q0.234375 0.921875 0.234375 2.484375q0 1.84375 -0.390625 2.984375q-0.375 1.125 -1.125 1.75q-0.75 0.609375 -1.90625 0.609375q-1.515625 0 -2.390625 -1.078125q-1.03125 -1.3125 -1.03125 -4.265625zm1.328125 0q0 2.578125 0.59375 3.4375q0.609375 0.859375 1.5 0.859375q0.890625 0 1.484375 -0.859375q0.609375 -0.859375 0.609375 -3.4375q0 -2.59375 -0.609375 -3.4375q-0.59375 -0.859375 -1.5 -0.859375q-0.890625 0 -1.421875 0.75q-0.65625 0.96875 -0.65625 3.546875z" fill-rule="nonzero"/><path fill="#000000" fill-opacity="0.0" d="m222.32808 368.25986l14.992126 0l0 21.196838l-14.992126 0z" fill-rule="evenodd"/><path fill="#000000" d="m222.93745 377.16797q0 -1.859375 0.375 -2.984375q0.390625 -1.140625 1.140625 -1.75q0.765625 -0.625 1.90625 -0.625q0.84375 0 1.46875 0.34375q0.640625 0.328125 1.0625 0.96875q0.421875 0.640625 0.65625 1.5625q0.234375 0.921875 0.234375 2.484375q0 1.84375 -0.390625 2.984375q-0.375 1.125 -1.125 1.75q-0.75 0.609375 -1.90625 0.609375q-1.515625 0 -2.390625 -1.078125q-1.03125 -1.3125 -1.03125 -4.265625zm1.328125 0q0 2.578125 0.59375 3.4375q0.609375 0.859375 1.5 0.859375q0.890625 0 1.484375 -0.859375q0.609375 -0.859375 0.609375 -3.4375q0 -2.59375 -0.609375 -3.4375q-0.59375 -0.859375 -1.5 -0.859375q-0.890625 0 -1.421875 0.75q-0.65625 0.96875 -0.65625 3.546875z" fill-rule="nonzero"/><path fill="#000000" fill-opacity="0.0" d="m450.55643 266.88977l14.992126 0l0 21.196838l-14.992126 0z" fill-rule="evenodd"/><path fill="#000000" d="m451.1658 275.79788q0 -1.859375 0.375 -2.984375q0.390625 -1.140625 1.140625 -1.75q0.765625 -0.625 1.90625 -0.625q0.84375 0 1.46875 0.34375q0.640625 0.328125 1.0625 0.96875q0.421875 0.640625 0.65625 1.5625q0.234375 0.921875 0.234375 2.484375q0 1.84375 -0.390625 2.984375q-0.375 1.125 -1.125 1.75q-0.75 0.609375 -1.90625 0.609375q-1.515625 0 -2.390625 -1.078125q-1.03125 -1.3125 -1.03125 -4.265625zm1.328125 0q0 2.578125 0.59375 3.4375q0.609375 0.859375 1.5 0.859375q0.890625 0 1.484375 -0.859375q0.609375 -0.859375 0.609375 -3.4375q0 -2.59375 -0.609375 -3.4375q-0.59375 -0.859375 -1.5 -0.859375q-0.890625 0 -1.421875 0.75q-0.65625 0.96875 -0.65625 3.546875z" fill-rule="nonzero"/><path fill="#000000" fill-opacity="0.0" d="m502.95795 366.9469l14.992126 0l0 21.196838l-14.992126 0z" fill-rule="evenodd"/><path fill="#000000" d="m503.56732 375.855q0 -1.859375 0.375 -2.984375q0.390625 -1.140625 1.140625 -1.75q0.765625 -0.625 1.90625 -0.625q0.84375 0 1.46875 0.34375q0.640625 0.328125 1.0625 0.96875q0.421875 0.640625 0.65625 1.5625q0.234375 0.921875 0.234375 2.484375q0 1.84375 -0.390625 2.984375q-0.375 1.125 -1.125 1.75q-0.75 0.609375 -1.90625 0.609375q-1.515625 0 -2.390625 -1.078125q-1.03125 -1.3125 -1.03125 -4.265625zm1.328125 0q0 2.578125 0.59375 3.4375q0.609375 0.859375 1.5 0.859375q0.890625 0 1.484375 -0.859375q0.609375 -0.859375 0.609375 -3.4375q0 -2.59375 -0.609375 -3.4375q-0.59375 -0.859375 -1.5 -0.859375q-0.890625 0 -1.421875 0.75q-0.65625 0.96875 -0.65625 3.546875z" fill-rule="nonzero"/></g></svg>