<svg version="1.1" viewBox="0.0 0.0 1409.755905511811 202.48031496062993" fill="none" stroke="none" stroke-linecap="square" stroke-miterlimit="10" xmlns:xlink="http://www.w3.org/1999/xlink" xmlns="http://www.w3.org/2000/svg"><clipPath id="p.0"><path d="m0 0l1409.7559 0l0 202.48032l-1409.7559 0l0 -202.48032z" clip-rule="nonzero"/></clipPath><g clip-path="url(#p.0)"><path fill="#000000" fill-opacity="0.0" d="m0 0l1409.7559 0l0 202.48032l-1409.7559 0z" fill-rule="evenodd"/><path fill="#000000" fill-opacity="0.0" d="m166.07878 34.581364l147.44246 0l0 83.18111l-147.44246 0z" fill-rule="evenodd"/><path stroke="#000000" stroke-width="1.0" stroke-linejoin="round" stroke-linecap="butt" d="m166.07878 34.581364l147.44246 0l0 83.18111l-147.44246 0z" fill-rule="evenodd"/><path fill="#000000" d="m230.20554 79.56067l1.640625 -0.21875q0.28125 1.40625 0.953125 2.015625q0.6875 0.609375 1.65625 0.609375q1.15625 0 1.953125 -0.796875q0.796875 -0.796875 0.796875 -1.984375q0 -1.125 -0.734375 -1.859375q-0.734375 -0.734375 -1.875 -0.734375q-0.46875 0 -1.15625 0.171875l0.1875 -1.4375q0.15625 0.015625 0.265625 0.015625q1.046875 0 1.875 -0.546875q0.84375 -0.546875 0.84375 -1.671875q0 -0.90625 -0.609375 -1.5q-0.609375 -0.59375 -1.578125 -0.59375q-0.953125 0 -1.59375 0.609375q-0.640625 0.59375 -0.8125 1.796875l-1.640625 -0.296875q0.296875 -1.640625 1.359375 -2.546875q1.0625 -0.90625 2.65625 -0.90625q1.09375 0 2.0 0.46875q0.921875 0.46875 1.40625 1.28125q0.5 0.8125 0.5 1.71875q0 0.859375 -0.46875 1.578125q-0.46875 0.703125 -1.375 1.125q1.1875 0.28125 1.84375 1.140625q0.65625 0.859375 0.65625 2.15625q0 1.734375 -1.28125 2.953125q-1.265625 1.21875 -3.21875 1.21875q-1.765625 0 -2.921875 -1.046875q-1.15625 -1.046875 -1.328125 -2.71875zm15.625717 3.53125l0 -3.203125l-5.796875 0l0 -1.5l6.09375 -8.65625l1.34375 0l0 8.65625l1.796875 0l0 1.5l-1.796875 0l0 3.203125l-1.640625 0zm0 -4.703125l0 -6.015625l-4.1875 6.015625l4.1875 0z" fill-rule="nonzero"/><path fill="#000000" fill-opacity="0.0" d="m313.51837 34.581364l63.02832 0l0 83.18111l-63.02832 0z" fill-rule="evenodd"/><path stroke="#000000" stroke-width="1.0" stroke-linejoin="round" stroke-linecap="butt" d="m313.51837 34.581364l63.02832 0l0 83.18111l-63.02832 0z" fill-rule="evenodd"/><path fill="#000000" d="m332.7143 76.17191l0 0c0 -6.262123 5.5150757 -11.338577 12.318237 -11.338577l0 0c6.8031616 0 12.318237 5.076454 12.318237 11.338577l0 0c0 6.2621307 -5.5150757 11.338585 -12.318237 11.338585l0 0c-6.8031616 0 -12.318237 -5.076454 -12.318237 -11.338585z" fill-rule="evenodd"/><path stroke="#000000" stroke-width="1.0" stroke-linejoin="round" stroke-linecap="butt" d="m332.7143 76.17191l0 0c0 -6.262123 5.5150757 -11.338577 12.318237 -11.338577l0 0c6.8031616 0 12.318237 5.076454 12.318237 11.338577l0 0c0 6.2621307 -5.5150757 11.338585 -12.318237 11.338585l0 0c-6.8031616 0 -12.318237 -5.076454 -12.318237 -11.338585z" fill-rule="evenodd"/><path fill="#000000" fill-opacity="0.0" d="m454.62396 34.581364l147.44244 0l0 83.18111l-147.44244 0z" fill-rule="evenodd"/><path stroke="#000000" stroke-width="1.0" stroke-linejoin="round" stroke-linecap="butt" d="m454.62396 34.581364l147.44244 0l0 83.18111l-147.44244 0z" fill-rule="evenodd"/><path fill="#000000" d="m518.75073 79.59192l1.71875 -0.140625q0.1875 1.25 0.875 1.890625q0.703125 0.625 1.6875 0.625q1.1875 0 2.0 -0.890625q0.828125 -0.890625 0.828125 -2.359375q0 -1.40625 -0.796875 -2.21875q-0.78125 -0.8125 -2.0625 -0.8125q-0.78125 0 -1.421875 0.359375q-0.640625 0.359375 -1.0 0.9375l-1.546875 -0.203125l1.296875 -6.859375l6.640625 0l0 1.5625l-5.328125 0l-0.71875 3.59375q1.203125 -0.84375 2.515625 -0.84375q1.75 0 2.953125 1.21875q1.203125 1.203125 1.203125 3.109375q0 1.8125 -1.046875 3.140625q-1.296875 1.625 -3.515625 1.625q-1.8125 0 -2.96875 -1.015625q-1.15625 -1.03125 -1.3125 -2.71875zm18.875671 -6.578125l-1.625 0.125q-0.21875 -0.96875 -0.625 -1.40625q-0.65625 -0.703125 -1.640625 -0.703125q-0.78125 0 -1.375 0.4375q-0.765625 0.5625 -1.21875 1.65625q-0.453125 1.078125 -0.46875 3.078125q0.59375 -0.890625 1.453125 -1.328125q0.859375 -0.4375 1.796875 -0.4375q1.640625 0 2.78125 1.203125q1.15625 1.203125 1.15625 3.109375q0 1.265625 -0.546875 2.34375q-0.53125 1.078125 -1.484375 1.65625q-0.9375 0.578125 -2.140625 0.578125q-2.0625 0 -3.359375 -1.5q-1.28125 -1.515625 -1.28125 -4.984375q0 -3.875 1.421875 -5.625q1.25 -1.53125 3.375 -1.53125q1.5625 0 2.5625 0.890625q1.015625 0.875 1.21875 2.4375zm-6.6875 5.75q0 0.84375 0.359375 1.625q0.359375 0.765625 1.0 1.171875q0.640625 0.40625 1.359375 0.40625q1.03125 0 1.78125 -0.828125q0.75 -0.84375 0.75 -2.28125q0 -1.390625 -0.734375 -2.1875q-0.734375 -0.796875 -1.859375 -0.796875q-1.109375 0 -1.890625 0.796875q-0.765625 0.796875 -0.765625 2.09375z" fill-rule="nonzero"/><path fill="#000000" fill-opacity="0.0" d="m602.06354 34.581364l63.02832 0l0 83.18111l-63.02832 0z" fill-rule="evenodd"/><path stroke="#000000" stroke-width="1.0" stroke-linejoin="round" stroke-linecap="butt" d="m602.06354 34.581364l63.02832 0l0 83.18111l-63.02832 0z" fill-rule="evenodd"/><path fill="#000000" d="m621.25946 76.17191l0 0c0 -6.262123 5.5150757 -11.338577 12.318237 -11.338577l0 0c6.8031616 0 12.318237 5.076454 12.318237 11.338577l0 0c0 6.2621307 -5.5150757 11.338585 -12.318237 11.338585l0 0c-6.8031616 0 -12.318237 -5.076454 -12.318237 -11.338585z" fill-rule="evenodd"/><path stroke="#000000" stroke-width="1.0" stroke-linejoin="round" stroke-linecap="butt" d="m621.25946 76.17191l0 0c0 -6.262123 5.5150757 -11.338577 12.318237 -11.338577l0 0c6.8031616 0 12.318237 5.076454 12.318237 11.338577l0 0c0 6.2621307 -5.5150757 11.338585 -12.318237 11.338585l0 0c-6.8031616 0 -12.318237 -5.076454 -12.318237 -11.338585z" fill-rule="evenodd"/><path fill="#000000" fill-opacity="0.0" d="m743.17053 34.581364l147.44244 0l0 83.18111l-147.44244 0z" fill-rule="evenodd"/><path stroke="#000000" stroke-width="1.0" stroke-linejoin="round" stroke-linecap="butt" d="m743.17053 34.581364l147.44244 0l0 83.18111l-147.44244 0z" fill-rule="evenodd"/><path fill="#000000" d="m821.09454 81.513794l0 1.578125l-8.828125 0q-0.015625 -0.59375 0.1875 -1.140625q0.34375 -0.90625 1.078125 -1.78125q0.75 -0.875 2.15625 -2.015625q2.171875 -1.78125 2.9375 -2.828125q0.765625 -1.046875 0.765625 -1.96875q0 -0.984375 -0.703125 -1.640625q-0.6875 -0.671875 -1.8125 -0.671875q-1.1875 0 -1.90625 0.71875q-0.703125 0.703125 -0.703125 1.953125l-1.6875 -0.171875q0.171875 -1.890625 1.296875 -2.875q1.140625 -0.984375 3.03125 -0.984375q1.921875 0 3.046875 1.0625q1.125 1.0625 1.125 2.640625q0 0.796875 -0.328125 1.578125q-0.328125 0.78125 -1.09375 1.640625q-0.75 0.84375 -2.53125 2.34375q-1.46875 1.234375 -1.890625 1.6875q-0.421875 0.4375 -0.6875 0.875l6.546875 0z" fill-rule="nonzero"/><path fill="#000000" fill-opacity="0.0" d="m890.61017 34.581364l63.02826 0l0 83.18111l-63.02826 0z" fill-rule="evenodd"/><path stroke="#000000" stroke-width="1.0" stroke-linejoin="round" stroke-linecap="butt" d="m890.61017 34.581364l63.02826 0l0 83.18111l-63.02826 0z" fill-rule="evenodd"/><path fill="#000000" d="m909.806 76.17191l0 0c0 -6.262123 5.5150757 -11.338577 12.318237 -11.338577l0 0c6.8032227 0 12.318237 5.076454 12.318237 11.338577l0 0c0 6.2621307 -5.5150146 11.338585 -12.318237 11.338585l0 0c-6.8031616 0 -12.318237 -5.076454 -12.318237 -11.338585z" fill-rule="evenodd"/><path stroke="#000000" stroke-width="1.0" stroke-linejoin="round" stroke-linecap="butt" d="m909.806 76.17191l0 0c0 -6.262123 5.5150757 -11.338577 12.318237 -11.338577l0 0c6.8032227 0 12.318237 5.076454 12.318237 11.338577l0 0c0 6.2621307 -5.5150146 11.338585 -12.318237 11.338585l0 0c-6.8031616 0 -12.318237 -5.076454 -12.318237 -11.338585z" fill-rule="evenodd"/><path fill="#000000" fill-opacity="0.0" d="m1031.7172 34.581364l147.44238 0l0 83.18111l-147.44238 0z" fill-rule="evenodd"/><path stroke="#000000" stroke-width="1.0" stroke-linejoin="round" stroke-linecap="butt" d="m1031.7172 34.581364l147.44238 0l0 83.18111l-147.44238 0z" fill-rule="evenodd"/><path fill="#000000" d="m1095.9532 71.482544l0 -1.578125l8.640625 0l0 1.28125q-1.28125 1.359375 -2.53125 3.609375q-1.25 2.25 -1.9375 4.625q-0.484375 1.671875 -0.625 3.671875l-1.6875 0q0.03125 -1.578125 0.625 -3.8125q0.59375 -2.234375 1.6875 -4.296875q1.109375 -2.078125 2.359375 -3.5l-6.53125 0zm12.781982 4.375q-1.015625 -0.375 -1.515625 -1.0625q-0.484375 -0.703125 -0.484375 -1.671875q0 -1.453125 1.046875 -2.4375q1.046875 -1.0 2.78125 -1.0q1.75 0 2.8125 1.015625q1.078125 1.015625 1.078125 2.46875q0 0.9375 -0.5 1.625q-0.484375 0.6875 -1.46875 1.0625q1.21875 0.390625 1.859375 1.28125q0.65625 0.890625 0.65625 2.140625q0 1.703125 -1.21875 2.875q-1.21875 1.171875 -3.1875 1.171875q-1.984375 0 -3.203125 -1.171875q-1.203125 -1.171875 -1.203125 -2.921875q0 -1.3125 0.65625 -2.1875q0.671875 -0.875 1.890625 -1.1875zm-0.328125 -2.78125q0 0.9375 0.609375 1.546875q0.609375 0.59375 1.59375 0.59375q0.9375 0 1.546875 -0.59375q0.609375 -0.59375 0.609375 -1.453125q0 -0.90625 -0.625 -1.515625q-0.625 -0.625 -1.5625 -0.625q-0.9375 0 -1.5625 0.609375q-0.609375 0.59375 -0.609375 1.4375zm-0.53125 6.15625q0 0.703125 0.328125 1.359375q0.34375 0.65625 1.0 1.015625q0.65625 0.359375 1.40625 0.359375q1.171875 0 1.9375 -0.75q0.765625 -0.75 0.765625 -1.921875q0 -1.1875 -0.796875 -1.953125q-0.78125 -0.78125 -1.953125 -0.78125q-1.15625 0 -1.921875 0.765625q-0.765625 0.765625 -0.765625 1.90625z" fill-rule="nonzero"/><path fill="#000000" fill-opacity="0.0" d="m1179.1567 34.581364l63.02832 0l0 83.18111l-63.02832 0z" fill-rule="evenodd"/><path stroke="#000000" stroke-width="1.0" stroke-linejoin="round" stroke-linecap="butt" d="m1179.1567 34.581364l63.02832 0l0 83.18111l-63.02832 0z" fill-rule="evenodd"/><path fill="#000000" d="m1198.3527 76.17191l0 0c0 -6.262123 5.5150146 -11.338577 12.318237 -11.338577l0 0c6.8032227 0 12.318237 5.076454 12.318237 11.338577l0 0c0 6.2621307 -5.5150146 11.338585 -12.318237 11.338585l0 0c-6.8032227 0 -12.318237 -5.076454 -12.318237 -11.338585z" fill-rule="evenodd"/><path stroke="#000000" stroke-width="1.0" stroke-linejoin="round" stroke-linecap="butt" d="m1198.3527 76.17191l0 0c0 -6.262123 5.5150146 -11.338577 12.318237 -11.338577l0 0c6.8032227 0 12.318237 5.076454 12.318237 11.338577l0 0c0 6.2621307 -5.5150146 11.338585 -12.318237 11.338585l0 0c-6.8032227 0 -12.318237 -5.076454 -12.318237 -11.338585z" fill-rule="evenodd"/><path fill="#000000" fill-opacity="0.0" d="m24.965363 34.581364l63.02362 0l0 83.18111l-63.02362 0z" fill-rule="evenodd"/><path stroke="#000000" stroke-width="1.0" stroke-linejoin="round" stroke-linecap="butt" d="m24.965363 34.581364l63.02362 0l0 83.18111l-63.02362 0z" fill-rule="evenodd"/><path fill="#000000" d="m44.16049 76.17191l0 0c0 -6.262123 5.5135956 -11.338577 12.3149605 -11.338577l0 0c6.801365 0 12.314964 5.076454 12.314964 11.338577l0 0c0 6.2621307 -5.5135994 11.338585 -12.314964 11.338585l0 0c-6.801365 0 -12.3149605 -5.076454 -12.3149605 -11.338585z" fill-rule="evenodd"/><path stroke="#000000" stroke-width="1.0" stroke-linejoin="round" stroke-linecap="butt" d="m44.16049 76.17191l0 0c0 -6.262123 5.5135956 -11.338577 12.3149605 -11.338577l0 0c6.801365 0 12.314964 5.076454 12.314964 11.338577l0 0c0 6.2621307 -5.5135994 11.338585 -12.314964 11.338585l0 0c-6.801365 0 -12.3149605 -5.076454 -12.3149605 -11.338585z" fill-rule="evenodd"/><path fill="#000000" fill-opacity="0.0" d="m68.79041 76.17191l97.29133 0" fill-rule="evenodd"/><path stroke="#000000" stroke-width="1.0" stroke-linejoin="round" stroke-linecap="butt" d="m68.79041 76.17191l91.29133 0" fill-rule="evenodd"/><path fill="#000000" stroke="#000000" stroke-width="1.0" stroke-linecap="butt" d="m160.08174 77.82365l4.538101 -1.6517334l-4.538101 -1.6517258z" fill-rule="evenodd"/><path fill="#000000" fill-opacity="0.0" d="m357.3641 76.17191l97.25986 0" fill-rule="evenodd"/><path stroke="#000000" stroke-width="1.0" stroke-linejoin="round" stroke-linecap="butt" d="m357.3641 76.17191l91.25983 0" fill-rule="evenodd"/><path fill="#000000" stroke="#000000" stroke-width="1.0" stroke-linecap="butt" d="m448.62393 77.82365l4.538086 -1.6517334l-4.538086 -1.6517258z" fill-rule="evenodd"/><path fill="#000000" fill-opacity="0.0" d="m645.89594 76.17191l97.25983 0" fill-rule="evenodd"/><path stroke="#000000" stroke-width="1.0" stroke-linejoin="round" stroke-linecap="butt" d="m645.89594 76.17191l91.25983 0" fill-rule="evenodd"/><path fill="#000000" stroke="#000000" stroke-width="1.0" stroke-linecap="butt" d="m737.15576 77.82365l4.538086 -1.6517334l-4.538086 -1.6517258z" fill-rule="evenodd"/><path fill="#000000" fill-opacity="0.0" d="m934.4425 76.17191l97.25989 0" fill-rule="evenodd"/><path stroke="#000000" stroke-width="1.0" stroke-linejoin="round" stroke-linecap="butt" d="m934.4425 76.17191l91.25989 0" fill-rule="evenodd"/><path fill="#000000" stroke="#000000" stroke-width="1.0" stroke-linecap="butt" d="m1025.7024 77.82365l4.538086 -1.6517334l-4.538086 -1.6517258z" fill-rule="evenodd"/><path fill="#000000" fill-opacity="0.0" d="m1222.9891 76.17191l54.399292 0l0 97.56037l-1136.3087 0l0 -97.497375l24.996002 0" fill-rule="evenodd"/><path stroke="#000000" stroke-width="1.0" stroke-linejoin="round" stroke-linecap="butt" d="m1222.9891 76.17191l54.399292 0l0 97.56037l-1136.3087 0l0 -97.497375l24.996002 0" fill-rule="evenodd"/></g></svg>