<svg version="1.1" viewBox="0.0 0.0 850.7349081364829 226.7244094488189" fill="none" stroke="none" stroke-linecap="square" stroke-miterlimit="10" xmlns:xlink="http://www.w3.org/1999/xlink" xmlns="http://www.w3.org/2000/svg"><clipPath id="p.0"><path d="m0 0l850.7349 0l0 226.72441l-850.7349 0l0 -226.72441z" clip-rule="nonzero"/></clipPath><g clip-path="url(#p.0)"><path fill="#000000" fill-opacity="0.0" d="m0 0l850.7349 0l0 226.72441l-850.7349 0z" fill-rule="evenodd"/><path fill="#000000" fill-opacity="0.0" d="m169.52536 104.47033l49.275604 0l0 -8.212593l16.425186 16.425194l-16.425186 16.425194l0 -8.212593l-49.275604 0z" fill-rule="evenodd"/><path stroke="#000000" stroke-width="1.0" stroke-linejoin="round" stroke-linecap="butt" d="m169.52536 104.47033l49.275604 0l0 -8.212593l16.425186 16.425194l-16.425186 16.425194l0 -8.212593l-49.275604 0z" fill-rule="evenodd"/><path fill="#000000" fill-opacity="0.0" d="m92.00054 31.473753l0 0c0 -10.436876 8.460762 -18.897636 18.897636 -18.897636l0 0c5.0119705 0 9.818657 1.9909954 13.362648 5.5349894c3.5439987 3.543995 5.534996 8.350683 5.534996 13.362648l0 0c0 10.436876 -8.460762 18.897638 -18.897644 18.897638l0 0c-10.436874 0 -18.897636 -8.460762 -18.897636 -18.897638z" fill-rule="evenodd"/><path stroke="#000000" stroke-width="1.0" stroke-linejoin="round" stroke-linecap="butt" d="m92.00054 31.473753l0 0c0 -10.436876 8.460762 -18.897636 18.897636 -18.897636l0 0c5.0119705 0 9.818657 1.9909954 13.362648 5.5349894c3.5439987 3.543995 5.534996 8.350683 5.534996 13.362648l0 0c0 10.436876 -8.460762 18.897638 -18.897644 18.897638l0 0c-10.436874 0 -18.897636 -8.460762 -18.897636 -18.897638z" fill-rule="evenodd"/><path fill="#000000" d="m115.14491 32.881878l1.390625 0.34375q-0.4375 1.703125 -1.578125 2.609375q-1.125 0.890625 -2.765625 0.890625q-1.6875 0 -2.75 -0.6875q-1.0625 -0.6875 -1.625 -2.0q-0.546875 -1.3125 -0.546875 -2.8125q0 -1.640625 0.625 -2.859375q0.625 -1.21875 1.78125 -1.84375q1.15625 -0.640625 2.546875 -0.640625q1.5625 0 2.640625 0.8125q1.078125 0.796875 1.5 2.25l-1.375 0.3125q-0.359375 -1.140625 -1.0625 -1.65625q-0.6875 -0.53125 -1.734375 -0.53125q-1.21875 0 -2.03125 0.578125q-0.8125 0.578125 -1.140625 1.5625q-0.328125 0.96875 -0.328125 2.015625q0 1.328125 0.390625 2.328125q0.390625 1.0 1.21875 1.5q0.828125 0.484375 1.78125 0.484375q1.171875 0 1.96875 -0.671875q0.8125 -0.671875 1.09375 -1.984375z" fill-rule="nonzero"/><path fill="#000000" fill-opacity="0.0" d="m54.20527 79.6601l0 0c0 -10.436874 8.460762 -18.897636 18.897636 -18.897636l0 0c5.011963 0 9.818657 1.9909973 13.362648 5.5349884c3.5439987 3.5439987 5.5349884 8.350685 5.5349884 13.362648l0 0c0 10.436882 -8.460762 18.897636 -18.897636 18.897636l0 0c-10.436874 0 -18.897636 -8.460754 -18.897636 -18.897636z" fill-rule="evenodd"/><path stroke="#000000" stroke-width="1.0" stroke-linejoin="round" stroke-linecap="butt" d="m54.20527 79.6601l0 0c0 -10.436874 8.460762 -18.897636 18.897636 -18.897636l0 0c5.011963 0 9.818657 1.9909973 13.362648 5.5349884c3.5439987 3.5439987 5.5349884 8.350685 5.5349884 13.362648l0 0c0 10.436882 -8.460762 18.897636 -18.897636 18.897636l0 0c-10.436874 0 -18.897636 -8.460754 -18.897636 -18.897636z" fill-rule="evenodd"/><path fill="#000000" d="m69.81838 84.740105l0 -10.484375l3.9375 0q1.203125 0 1.921875 0.3125q0.734375 0.3125 1.140625 0.984375q0.40625 0.65625 0.40625 1.375q0 0.671875 -0.375 1.265625q-0.359375 0.59375 -1.09375 0.96875q0.953125 0.28125 1.46875 0.953125q0.515625 0.671875 0.515625 1.578125q0 0.75 -0.3125 1.390625q-0.3125 0.625 -0.78125 0.96875q-0.453125 0.34375 -1.140625 0.515625q-0.6875 0.171875 -1.6875 0.171875l-4.0 0zm1.390625 -6.078125l2.265625 0q0.921875 0 1.3125 -0.125q0.53125 -0.15625 0.796875 -0.515625q0.28125 -0.375 0.28125 -0.921875q0 -0.53125 -0.25 -0.921875q-0.25 -0.390625 -0.71875 -0.53125q-0.46875 -0.15625 -1.59375 -0.15625l-2.09375 0l0 3.171875zm0 4.84375l2.609375 0q0.671875 0 0.9375 -0.046875q0.484375 -0.09375 0.796875 -0.296875q0.328125 -0.203125 0.53125 -0.578125q0.21875 -0.390625 0.21875 -0.890625q0 -0.578125 -0.3125 -1.015625q-0.296875 -0.4375 -0.828125 -0.609375q-0.53125 -0.171875 -1.53125 -0.171875l-2.421875 0l0 3.609375z" fill-rule="nonzero"/><path fill="#000000" fill-opacity="0.0" d="m129.79582 60.762466l37.795273 0l0 37.795273l-37.795273 0z" fill-rule="evenodd"/><path stroke="#000000" stroke-width="1.0" stroke-linejoin="round" stroke-linecap="butt" d="m129.79582 60.762466l37.795273 0l0 37.795273l-37.795273 0z" fill-rule="evenodd"/><path fill="#000000" d="m143.93846 84.740105l0 -9.25l-3.453125 0l0 -1.234375l8.3125 0l0 1.234375l-3.46875 0l0 9.25l-1.390625 0zm9.890121 0l0 -2.515625l-4.546875 0l0 -1.171875l4.78125 -6.796875l1.0625 0l0 6.796875l1.40625 0l0 1.171875l-1.40625 0l0 2.515625l-1.296875 0zm0 -3.6875l0 -4.734375l-3.28125 4.734375l3.28125 0z" fill-rule="nonzero"/><path fill="#000000" fill-opacity="0.0" d="m81.46511 108.94882l37.795273 0l0 37.795273l-37.795273 0z" fill-rule="evenodd"/><path stroke="#000000" stroke-width="1.0" stroke-linejoin="round" stroke-linecap="butt" d="m81.46511 108.94882l37.795273 0l0 37.795273l-37.795273 0z" fill-rule="evenodd"/><path fill="#000000" d="m95.60776 132.92645l0 -9.249992l-3.453125 0l0 -1.234375l8.3125 0l0 1.234375l-3.46875 0l0 9.249992l-1.390625 0zm5.7651215 -2.765625l1.296875 -0.171875q0.21875 1.09375 0.75 1.578125q0.53125 0.484375 1.296875 0.484375q0.90625 0 1.53125 -0.625q0.640625 -0.640625 0.640625 -1.5625q0 -0.890625 -0.59375 -1.46875q-0.578125 -0.5781174 -1.46875 -0.5781174q-0.359375 0 -0.90625 0.140625l0.140625 -1.125q0.125 0.015625 0.203125 0.015625q0.828125 0 1.484375 -0.421875q0.65625 -0.4375 0.65625 -1.34375q0 -0.703125 -0.484375 -1.15625q-0.46875 -0.46875 -1.234375 -0.46875q-0.75 0 -1.25 0.46875q-0.5 0.46875 -0.640625 1.421875l-1.28125 -0.234375q0.234375 -1.296875 1.0625 -2.0q0.84375 -0.71875 2.09375 -0.71875q0.859375 0 1.578125 0.375q0.71875 0.359375 1.09375 1.0q0.390625 0.640625 0.390625 1.34375q0 0.6875 -0.375 1.25q-0.359375 0.546875 -1.0625 0.875q0.921875 0.21875 1.4375 0.9062424q0.515625 0.671875 0.515625 1.6875q0 1.375 -1.0 2.328125q-1.0 0.953125 -2.53125 0.953125q-1.390625 0 -2.296875 -0.8125q-0.90625 -0.828125 -1.046875 -2.140625z" fill-rule="nonzero"/><path fill="#000000" fill-opacity="0.0" d="m26.945425 127.84646l0 0c0 -10.436882 8.46076 -18.897636 18.897638 -18.897636l0 0c5.0119667 0 9.818653 1.9909897 13.362648 5.5349884c3.543995 3.543991 5.5349884 8.3506775 5.5349884 13.362648l0 0c0 10.436882 -8.460758 18.897636 -18.897636 18.897636l0 0c-10.436878 0 -18.897638 -8.460754 -18.897638 -18.897636z" fill-rule="evenodd"/><path stroke="#000000" stroke-width="1.0" stroke-linejoin="round" stroke-linecap="butt" d="m26.945425 127.84646l0 0c0 -10.436882 8.46076 -18.897636 18.897638 -18.897636l0 0c5.0119667 0 9.818653 1.9909897 13.362648 5.5349884c3.543995 3.543991 5.5349884 8.3506775 5.5349884 13.362648l0 0c0 10.436882 -8.460758 18.897636 -18.897636 18.897636l0 0c-10.436878 0 -18.897638 -8.460754 -18.897638 -18.897636z" fill-rule="evenodd"/><path fill="#000000" d="m41.46479 132.92645l4.015625 -10.484367l1.5 0l4.296875 10.484367l-1.578125 0l-1.234375 -3.171875l-4.375 0l-1.15625 3.171875l-1.46875 0zm3.015625 -4.3125l3.5625 0l-1.09375 -2.9062424q-0.5 -1.3125 -0.75 -2.171875q-0.203125 1.015625 -0.5625 2.0l-1.15625 3.0781174z" fill-rule="nonzero"/><path fill="#000000" fill-opacity="0.0" d="m124.260826 44.836403l24.44094 15.937008" fill-rule="evenodd"/><path stroke="#000000" stroke-width="1.0" stroke-linejoin="round" stroke-linecap="butt" d="m124.260826 44.836403l24.44094 15.937008" fill-rule="evenodd"/><path fill="#000000" fill-opacity="0.0" d="m97.54385 44.82546l-24.440948 15.937008" fill-rule="evenodd"/><path stroke="#000000" stroke-width="1.0" stroke-linejoin="round" stroke-linecap="butt" d="m97.54385 44.82546l-24.440948 15.937008" fill-rule="evenodd"/><path fill="#000000" fill-opacity="0.0" d="m86.46555 93.02275l13.889763 15.937012" fill-rule="evenodd"/><path stroke="#000000" stroke-width="1.0" stroke-linejoin="round" stroke-linecap="butt" d="m86.46555 93.02275l13.889763 15.937012" fill-rule="evenodd"/><path fill="#000000" fill-opacity="0.0" d="m59.740257 93.02275l-13.889763 15.937012" fill-rule="evenodd"/><path stroke="#000000" stroke-width="1.0" stroke-linejoin="round" stroke-linecap="butt" d="m59.740257 93.02275l-13.889763 15.937012" fill-rule="evenodd"/><path fill="#000000" fill-opacity="0.0" d="m176.67455 194.93176l51.401566 0l0 37.795273l-51.401566 0z" fill-rule="evenodd"/><path fill="#000000" d="m196.841 221.08989q-1.0625 -1.34375 -1.796875 -3.140625q-0.734375 -1.8125 -0.734375 -3.734375q0 -1.703125 0.546875 -3.265625q0.640625 -1.8125 1.984375 -3.609375l0.921875 0q-0.859375 1.484375 -1.140625 2.125q-0.4375 0.984375 -0.6875 2.0625q-0.296875 1.34375 -0.296875 2.6875q0 3.453125 2.125 6.875l-0.921875 0zm7.6306458 -5.53125l1.328125 0.171875q-0.3125 1.171875 -1.171875 1.8125q-0.84375 0.640625 -2.171875 0.640625q-1.671875 0 -2.65625 -1.015625q-0.96875 -1.03125 -0.96875 -2.890625q0 -1.921875 0.984375 -2.96875q1.0 -1.0625 2.578125 -1.0625q1.515625 0 2.484375 1.03125q0.96875 1.03125 0.96875 2.921875q0 0.109375 -0.015625 0.34375l-5.65625 0q0.0625 1.25 0.703125 1.921875q0.640625 0.65625 1.59375 0.65625q0.703125 0 1.203125 -0.359375q0.5 -0.375 0.796875 -1.203125zm-4.234375 -2.078125l4.25 0q-0.09375 -0.953125 -0.484375 -1.4375q-0.625 -0.75 -1.609375 -0.75q-0.875 0 -1.484375 0.59375q-0.609375 0.59375 -0.671875 1.59375zm8.026108 7.609375l-0.921875 0q2.140625 -3.421875 2.140625 -6.875q0 -1.34375 -0.3125 -2.671875q-0.25 -1.0625 -0.671875 -2.046875q-0.28125 -0.65625 -1.15625 -2.15625l0.921875 0q1.34375 1.796875 1.984375 3.609375q0.546875 1.5625 0.546875 3.265625q0 1.921875 -0.734375 3.734375q-0.734375 1.796875 -1.796875 3.140625z" fill-rule="nonzero"/><path fill="#000000" fill-opacity="0.0" d="m49.188484 54.299213l24.44094 0l0 23.527561l-24.44094 0z" fill-rule="evenodd"/><path fill="#000000" d="m50.313484 68.37921l0 -10.484375l3.96875 0q1.046875 0 1.59375 0.09375q0.765625 0.125 1.28125 0.484375q0.53125 0.359375 0.84375 1.015625q0.328125 0.65625 0.328125 1.4375q0 1.328125 -0.859375 2.265625q-0.84375 0.921875 -3.078125 0.921875l-2.6875 0l0 4.265625l-1.390625 0zm1.390625 -5.5l2.71875 0q1.34375 0 1.90625 -0.5q0.5625 -0.5 0.5625 -1.40625q0 -0.671875 -0.328125 -1.140625q-0.328125 -0.46875 -0.875 -0.609375q-0.359375 -0.09375 -1.296875 -0.09375l-2.6875 0l0 3.75z" fill-rule="nonzero"/><path fill="#000000" fill-opacity="0.0" d="m15.398458 100.54068l24.440945 0l0 23.527565l-24.440945 0z" fill-rule="evenodd"/><path fill="#000000" d="m16.054707 111.24568l1.3125 -0.109375q0.09375 0.78125 0.421875 1.296875q0.34375 0.5 1.0625 0.8125q0.71875 0.3125 1.609375 0.3125q0.796875 0 1.40625 -0.234375q0.609375 -0.234375 0.90625 -0.640625q0.296875 -0.421875 0.296875 -0.90625q0 -0.5 -0.296875 -0.859375q-0.28125 -0.375 -0.9375 -0.625q-0.421875 -0.171875 -1.875 -0.515625q-1.4375 -0.34375 -2.015625 -0.65625q-0.75 -0.390625 -1.125 -0.96875q-0.359375 -0.59375 -0.359375 -1.3125q0 -0.796875 0.4375 -1.484375q0.453125 -0.6875 1.3125 -1.046875q0.875 -0.359375 1.9375 -0.359375q1.171875 0 2.0625 0.375q0.890625 0.375 1.359375 1.109375q0.484375 0.734375 0.515625 1.65625l-1.328125 0.09375q-0.109375 -1.0 -0.734375 -1.5q-0.609375 -0.515625 -1.8125 -0.515625q-1.265625 0 -1.84375 0.46875q-0.578125 0.46875 -0.578125 1.109375q0 0.5625 0.421875 0.9375q0.390625 0.359375 2.078125 0.75q1.703125 0.375 2.328125 0.65625q0.921875 0.421875 1.359375 1.078125q0.4375 0.640625 0.4375 1.484375q0 0.84375 -0.484375 1.59375q-0.484375 0.734375 -1.390625 1.140625q-0.890625 0.40625 -2.015625 0.40625q-1.421875 0 -2.390625 -0.40625q-0.953125 -0.421875 -1.5 -1.25q-0.546875 -0.828125 -0.578125 -1.890625z" fill-rule="nonzero"/><path fill="#000000" fill-opacity="0.0" d="m50.02023 157.13518l37.795277 0l0 37.795273l-37.795277 0z" fill-rule="evenodd"/><path stroke="#000000" stroke-width="1.0" stroke-linejoin="round" stroke-linecap="butt" d="m50.02023 157.13518l37.795277 0l0 37.795273l-37.795277 0z" fill-rule="evenodd"/><path fill="#000000" d="m64.16288 181.11281l0 -9.25l-3.4531288 0l0 -1.234375l8.312496 0l0 1.234375l-3.4687424 0l0 9.25l-1.390625 0zm12.530739 -1.234375l0 1.234375l-6.9375 0q-0.015625 -0.46875 0.15625 -0.890625q0.265625 -0.71875 0.84375 -1.40625q0.59375 -0.6875 1.6875 -1.578125q1.71875 -1.40625 2.3125 -2.21875q0.609375 -0.828125 0.609375 -1.5625q0 -0.765625 -0.5625 -1.28125q-0.546875 -0.53125 -1.421875 -0.53125q-0.921875 0 -1.484375 0.5625q-0.5625 0.5625 -0.5625 1.546875l-1.328125 -0.140625q0.140625 -1.484375 1.015625 -2.25q0.890625 -0.78125 2.390625 -0.78125q1.515625 0 2.390625 0.84375q0.875 0.828125 0.875 2.0625q0 0.640625 -0.265625 1.25q-0.25 0.59375 -0.84375 1.265625q-0.59375 0.671875 -1.984375 1.859375q-1.15625 0.96875 -1.484375 1.3125q-0.328125 0.34375 -0.546875 0.703125l5.140625 0z" fill-rule="nonzero"/><path fill="#000000" fill-opacity="0.0" d="m3.8706229 157.13518l37.795273 0l0 37.795273l-37.795273 0z" fill-rule="evenodd"/><path stroke="#000000" stroke-width="1.0" stroke-linejoin="round" stroke-linecap="butt" d="m3.8706229 157.13518l37.795273 0l0 37.795273l-37.795273 0z" fill-rule="evenodd"/><path fill="#000000" d="m18.013271 181.11281l0 -9.25l-3.453126 0l0 -1.234375l8.312499 0l0 1.234375l-3.468748 0l0 9.25l-1.390625 0zm10.60887 0l-1.28125 0l0 -8.203125q-0.46875 0.4375 -1.21875 0.890625q-0.75 0.4375 -1.359375 0.65625l0 -1.25q1.078125 -0.5 1.890625 -1.21875q0.8125 -0.734375 1.140625 -1.40625l0.828125 0l0 10.53125z" fill-rule="nonzero"/><path fill="#000000" fill-opacity="0.0" d="m22.768261 157.13518l9.700787 -15.937012" fill-rule="evenodd"/><path stroke="#000000" stroke-width="1.0" stroke-linejoin="round" stroke-linecap="butt" d="m22.768261 157.13518l9.700787 -15.937012" fill-rule="evenodd"/><path fill="#000000" fill-opacity="0.0" d="m59.20571 141.2091l9.70079 15.937012" fill-rule="evenodd"/><path stroke="#000000" stroke-width="1.0" stroke-linejoin="round" stroke-linecap="butt" d="m59.20571 141.2091l9.70079 15.937012" fill-rule="evenodd"/><path fill="#000000" fill-opacity="0.0" d="m81.188484 6.2992125l24.44094 0l0 23.527557l-24.44094 0z" fill-rule="evenodd"/><path fill="#000000" d="m87.23536 16.269838l0 -1.234376l4.4375 -0.015625l0 3.906251q-1.03125 0.8125 -2.125 1.21875q-1.078125 0.40625 -2.21875 0.40625q-1.546875 0 -2.8125 -0.65625q-1.265625 -0.65625 -1.90625 -1.90625q-0.640625 -1.265625 -0.640625 -2.812501q0 -1.53125 0.640625 -2.84375q0.640625 -1.328125 1.84375 -1.96875q1.203125 -0.65625 2.765625 -0.65625q1.140625 0 2.0625 0.375q0.921875 0.359375 1.4375 1.03125q0.53125 0.65625 0.796875 1.703125l-1.25 0.34375q-0.234375 -0.796875 -0.59375 -1.25q-0.34375 -0.46875 -1.0 -0.734375q-0.65625 -0.28125 -1.4375 -0.28125q-0.953125 0 -1.65625 0.296875q-0.6875 0.28125 -1.125 0.765625q-0.421875 0.46875 -0.65625 1.03125q-0.390625 0.96875 -0.390625 2.109375q0 1.406251 0.46875 2.359376q0.484375 0.9375 1.40625 1.390625q0.9375 0.453125 1.96875 0.453125q0.90625 0 1.765625 -0.34375q0.859375 -0.34375 1.296875 -0.734375l0 -1.953125l-3.078125 0z" fill-rule="nonzero"/><path fill="#000000" fill-opacity="0.0" d="m768.9927 31.850393l0 0c0 -10.436876 8.460754 -18.897636 18.897644 -18.897636l0 0c5.011963 0 9.818665 1.9909954 13.36261 5.5349894c3.5440063 3.543995 5.535034 8.350683 5.535034 13.362648l0 0c0 10.436876 -8.460754 18.897638 -18.897644 18.897638l0 0c-10.43689 0 -18.897644 -8.460762 -18.897644 -18.897638z" fill-rule="evenodd"/><path stroke="#000000" stroke-width="1.0" stroke-linejoin="round" stroke-linecap="butt" d="m768.9927 31.850393l0 0c0 -10.436876 8.460754 -18.897636 18.897644 -18.897636l0 0c5.011963 0 9.818665 1.9909954 13.36261 5.5349894c3.5440063 3.543995 5.535034 8.350683 5.535034 13.362648l0 0c0 10.436876 -8.460754 18.897638 -18.897644 18.897638l0 0c-10.43689 0 -18.897644 -8.460762 -18.897644 -18.897638z" fill-rule="evenodd"/><path fill="#000000" d="m792.137 33.25852l1.390625 0.34375q-0.4375 1.703125 -1.578125 2.609375q-1.125 0.890625 -2.765625 0.890625q-1.6875 0 -2.75 -0.6875q-1.0625 -0.6875 -1.625 -2.0q-0.546875 -1.3125 -0.546875 -2.8125q0 -1.640625 0.625 -2.859375q0.625 -1.21875 1.78125 -1.84375q1.15625 -0.640625 2.546875 -0.640625q1.5625 0 2.640625 0.8125q1.078125 0.796875 1.5 2.25l-1.375 0.3125q-0.359375 -1.140625 -1.0625 -1.65625q-0.6875 -0.53125 -1.734375 -0.53125q-1.21875 0 -2.03125 0.578125q-0.8125 0.578125 -1.140625 1.5625q-0.328125 0.96875 -0.328125 2.015625q0 1.328125 0.390625 2.328125q0.390625 1.0 1.21875 1.5q0.828125 0.484375 1.78125 0.484375q1.171875 0 1.96875 -0.671875q0.8125 -0.671875 1.09375 -1.984375z" fill-rule="nonzero"/><path fill="#000000" fill-opacity="0.0" d="m731.1974 80.03674l0 0c0 -10.436874 8.460754 -18.897636 18.897644 -18.897636l0 0c5.011963 0 9.818665 1.9909973 13.362671 5.5349884c3.5439453 3.5439987 5.534973 8.350685 5.534973 13.362648l0 0c0 10.436882 -8.460754 18.897636 -18.897644 18.897636l0 0c-10.43689 0 -18.897644 -8.460754 -18.897644 -18.897636z" fill-rule="evenodd"/><path stroke="#000000" stroke-width="1.0" stroke-linejoin="round" stroke-linecap="butt" d="m731.1974 80.03674l0 0c0 -10.436874 8.460754 -18.897636 18.897644 -18.897636l0 0c5.011963 0 9.818665 1.9909973 13.362671 5.5349884c3.5439453 3.5439987 5.534973 8.350685 5.534973 13.362648l0 0c0 10.436882 -8.460754 18.897636 -18.897644 18.897636l0 0c-10.43689 0 -18.897644 -8.460754 -18.897644 -18.897636z" fill-rule="evenodd"/><path fill="#000000" d="m746.8105 85.116745l0 -10.484375l3.9375 0q1.203125 0 1.921875 0.3125q0.734375 0.3125 1.140625 0.984375q0.40625 0.65625 0.40625 1.375q0 0.671875 -0.375 1.265625q-0.359375 0.59375 -1.09375 0.96875q0.953125 0.28125 1.46875 0.953125q0.515625 0.671875 0.515625 1.578125q0 0.75 -0.3125 1.390625q-0.3125 0.625 -0.78125 0.96875q-0.453125 0.34375 -1.140625 0.515625q-0.6875 0.171875 -1.6875 0.171875l-4.0 0zm1.390625 -6.078125l2.265625 0q0.921875 0 1.3125 -0.125q0.53125 -0.15625 0.796875 -0.515625q0.28125 -0.375 0.28125 -0.921875q0 -0.53125 -0.25 -0.921875q-0.25 -0.390625 -0.71875 -0.53125q-0.46875 -0.15625 -1.59375 -0.15625l-2.09375 0l0 3.171875zm0 4.84375l2.609375 0q0.671875 0 0.9375 -0.046875q0.484375 -0.09375 0.796875 -0.296875q0.328125 -0.203125 0.53125 -0.578125q0.21875 -0.390625 0.21875 -0.890625q0 -0.578125 -0.3125 -1.015625q-0.296875 -0.4375 -0.828125 -0.609375q-0.53125 -0.171875 -1.53125 -0.171875l-2.421875 0l0 3.609375z" fill-rule="nonzero"/><path fill="#000000" fill-opacity="0.0" d="m806.78796 61.139107l37.795227 0l0 37.795273l-37.795227 0z" fill-rule="evenodd"/><path stroke="#000000" stroke-width="1.0" stroke-linejoin="round" stroke-linecap="butt" d="m806.78796 61.139107l37.795227 0l0 37.795273l-37.795227 0z" fill-rule="evenodd"/><path fill="#000000" d="m820.9306 85.116745l0 -9.25l-3.453125 0l0 -1.234375l8.3125 0l0 1.234375l-3.46875 0l0 9.25l-1.390625 0zm9.890137 0l0 -2.515625l-4.546875 0l0 -1.171875l4.78125 -6.796875l1.0625 0l0 6.796875l1.40625 0l0 1.171875l-1.40625 0l0 2.515625l-1.296875 0zm0 -3.6875l0 -4.734375l-3.28125 4.734375l3.28125 0z" fill-rule="nonzero"/><path fill="#000000" fill-opacity="0.0" d="m758.4572 109.32546l37.795288 0l0 37.795265l-37.795288 0z" fill-rule="evenodd"/><path stroke="#000000" stroke-width="1.0" stroke-linejoin="round" stroke-linecap="butt" d="m758.4572 109.32546l37.795288 0l0 37.795265l-37.795288 0z" fill-rule="evenodd"/><path fill="#000000" d="m772.5999 133.3031l0 -9.25l-3.453125 0l0 -1.234375l8.312439 0l0 1.234375l-3.468689 0l0 9.25l-1.390625 0zm5.7650757 -2.765625l1.296875 -0.171875q0.21875 1.09375 0.75 1.578125q0.53125 0.484375 1.296875 0.484375q0.90625 0 1.53125 -0.625q0.640625 -0.640625 0.640625 -1.5625q0 -0.890625 -0.59375 -1.46875q-0.578125 -0.578125 -1.46875 -0.578125q-0.359375 0 -0.90625 0.140625l0.140625 -1.125q0.125 0.015625 0.203125 0.015625q0.828125 0 1.484375 -0.421875q0.65625 -0.4375 0.65625 -1.34375q0 -0.703125 -0.484375 -1.15625q-0.46875 -0.46875 -1.234375 -0.46875q-0.75 0 -1.25 0.46875q-0.5 0.46875 -0.640625 1.421875l-1.28125 -0.234375q0.234375 -1.296875 1.0625 -2.0q0.84375 -0.71875 2.09375 -0.71875q0.859375 0 1.578125 0.375q0.71875 0.359375 1.09375 1.0q0.390625 0.640625 0.390625 1.34375q0 0.6875 -0.375 1.25q-0.359375 0.546875 -1.0625 0.875q0.921875 0.21875 1.4375 0.90625q0.515625 0.671875 0.515625 1.6875q0 1.375 -1.0 2.328125q-1.0 0.953125 -2.53125 0.953125q-1.390625 0 -2.296875 -0.8125q-0.90625 -0.828125 -1.046875 -2.140625z" fill-rule="nonzero"/><path fill="#000000" fill-opacity="0.0" d="m703.93756 128.2231l0 0c0 -10.436882 8.460754 -18.897636 18.897644 -18.897636l0 0c5.011963 0 9.818665 1.9909897 13.36261 5.5349884c3.5440063 3.543991 5.535034 8.3506775 5.535034 13.362648l0 0c0 10.436874 -8.460754 18.897629 -18.897644 18.897629l0 0c-10.43689 0 -18.897644 -8.460754 -18.897644 -18.897629z" fill-rule="evenodd"/><path stroke="#000000" stroke-width="1.0" stroke-linejoin="round" stroke-linecap="butt" d="m703.93756 128.2231l0 0c0 -10.436882 8.460754 -18.897636 18.897644 -18.897636l0 0c5.011963 0 9.818665 1.9909897 13.36261 5.5349884c3.5440063 3.543991 5.535034 8.3506775 5.535034 13.362648l0 0c0 10.436874 -8.460754 18.897629 -18.897644 18.897629l0 0c-10.43689 0 -18.897644 -8.460754 -18.897644 -18.897629z" fill-rule="evenodd"/><path fill="#000000" d="m718.4569 133.3031l4.015625 -10.484375l1.5 0l4.296875 10.484375l-1.578125 0l-1.234375 -3.171875l-4.375 0l-1.15625 3.171875l-1.46875 0zm3.015625 -4.3125l3.5625 0l-1.09375 -2.90625q-0.5 -1.3125 -0.75 -2.171875q-0.203125 1.015625 -0.5625 2.0l-1.15625 3.078125z" fill-rule="nonzero"/><path fill="#000000" fill-opacity="0.0" d="m801.2529 45.213043l24.440979 15.937008" fill-rule="evenodd"/><path stroke="#000000" stroke-width="1.0" stroke-linejoin="round" stroke-linecap="butt" d="m801.2529 45.213043l24.440979 15.937008" fill-rule="evenodd"/><path fill="#000000" fill-opacity="0.0" d="m774.53595 45.2021l-24.440918 15.937008" fill-rule="evenodd"/><path stroke="#000000" stroke-width="1.0" stroke-linejoin="round" stroke-linecap="butt" d="m774.53595 45.2021l-24.440918 15.937008" fill-rule="evenodd"/><path fill="#000000" fill-opacity="0.0" d="m763.4577 93.39939l13.8897705 15.937012" fill-rule="evenodd"/><path stroke="#000000" stroke-width="1.0" stroke-linejoin="round" stroke-linecap="butt" d="m763.4577 93.39939l13.8897705 15.937012" fill-rule="evenodd"/><path fill="#000000" fill-opacity="0.0" d="m736.73236 93.39939l-13.8897705 15.937012" fill-rule="evenodd"/><path stroke="#000000" stroke-width="1.0" stroke-linejoin="round" stroke-linecap="butt" d="m736.73236 93.39939l-13.8897705 15.937012" fill-rule="evenodd"/><path fill="#000000" fill-opacity="0.0" d="m726.1806 54.675854l24.440979 0l0 23.527561l-24.440979 0z" fill-rule="evenodd"/><path fill="#000000" d="m727.3056 68.75585l0 -10.484375l3.96875 0q1.046875 0 1.59375 0.09375q0.765625 0.125 1.28125 0.484375q0.53125 0.359375 0.84375 1.015625q0.328125 0.65625 0.328125 1.4375q0 1.328125 -0.859375 2.265625q-0.84375 0.921875 -3.078125 0.921875l-2.6875 0l0 4.265625l-1.390625 0zm1.390625 -5.5l2.71875 0q1.34375 0 1.90625 -0.5q0.5625 -0.5 0.5625 -1.40625q0 -0.671875 -0.328125 -1.140625q-0.328125 -0.46875 -0.875 -0.609375q-0.359375 -0.09375 -1.296875 -0.09375l-2.6875 0l0 3.75z" fill-rule="nonzero"/><path fill="#000000" fill-opacity="0.0" d="m692.39056 100.91732l24.440979 0l0 23.527565l-24.440979 0z" fill-rule="evenodd"/><path fill="#000000" d="m693.0468 111.62232l1.3125 -0.109375q0.09375 0.78125 0.421875 1.296875q0.34375 0.5 1.0625 0.8125q0.71875 0.3125 1.609375 0.3125q0.796875 0 1.40625 -0.234375q0.609375 -0.234375 0.90625 -0.640625q0.296875 -0.421875 0.296875 -0.90625q0 -0.5 -0.296875 -0.859375q-0.28125 -0.375 -0.9375 -0.625q-0.421875 -0.171875 -1.875 -0.515625q-1.4375 -0.34375 -2.015625 -0.65625q-0.75 -0.390625 -1.125 -0.96875q-0.359375 -0.59375 -0.359375 -1.3125q0 -0.796875 0.4375 -1.484375q0.453125 -0.6875 1.3125 -1.046875q0.875 -0.359375 1.9375 -0.359375q1.171875 0 2.0625 0.375q0.890625 0.375 1.359375 1.109375q0.484375 0.734375 0.515625 1.65625l-1.328125 0.09375q-0.109375 -1.0 -0.734375 -1.5q-0.609375 -0.515625 -1.8125 -0.515625q-1.265625 0 -1.84375 0.46875q-0.578125 0.46875 -0.578125 1.109375q0 0.5625 0.421875 0.9375q0.390625 0.359375 2.078125 0.75q1.703125 0.375 2.328125 0.65625q0.921875 0.421875 1.359375 1.078125q0.4375 0.640625 0.4375 1.484375q0 0.84375 -0.484375 1.59375q-0.484375 0.734375 -1.390625 1.140625q-0.890625 0.40625 -2.015625 0.40625q-1.421875 0 -2.390625 -0.40625q-0.953125 -0.421875 -1.5 -1.25q-0.546875 -0.828125 -0.578125 -1.890625z" fill-rule="nonzero"/><path fill="#000000" fill-opacity="0.0" d="m727.0123 157.51181l37.795288 0l0 37.795273l-37.795288 0z" fill-rule="evenodd"/><path stroke="#000000" stroke-width="1.0" stroke-linejoin="round" stroke-linecap="butt" d="m727.0123 157.51181l37.795288 0l0 37.795273l-37.795288 0z" fill-rule="evenodd"/><path fill="#000000" d="m741.155 181.48946l0 -9.25l-3.453125 0l0 -1.234375l8.3125 0l0 1.234375l-3.46875 0l0 9.25l-1.390625 0zm12.530701 -1.234375l0 1.234375l-6.9375 0q-0.015625 -0.46875 0.15625 -0.890625q0.265625 -0.71875 0.84375 -1.40625q0.59375 -0.6875 1.6875 -1.578125q1.71875 -1.40625 2.3125 -2.21875q0.609375 -0.828125 0.609375 -1.5625q0 -0.765625 -0.5625 -1.28125q-0.546875 -0.53125 -1.421875 -0.53125q-0.921875 0 -1.484375 0.5625q-0.5625 0.5625 -0.5625 1.546875l-1.328125 -0.140625q0.140625 -1.484375 1.015625 -2.25q0.890625 -0.78125 2.390625 -0.78125q1.515625 0 2.390625 0.84375q0.875 0.828125 0.875 2.0625q0 0.640625 -0.265625 1.25q-0.25 0.59375 -0.84375 1.265625q-0.59375 0.671875 -1.984375 1.859375q-1.15625 0.96875 -1.484375 1.3125q-0.328125 0.34375 -0.546875 0.703125l5.140625 0z" fill-rule="nonzero"/><path fill="#000000" fill-opacity="0.0" d="m680.86273 157.51181l37.795288 0l0 37.795273l-37.795288 0z" fill-rule="evenodd"/><path stroke="#000000" stroke-width="1.0" stroke-linejoin="round" stroke-linecap="butt" d="m680.86273 157.51181l37.795288 0l0 37.795273l-37.795288 0z" fill-rule="evenodd"/><path fill="#000000" d="m695.0054 181.48946l0 -9.25l-3.453125 0l0 -1.234375l8.3125 0l0 1.234375l-3.46875 0l0 9.25l-1.390625 0zm10.608887 0l-1.28125 0l0 -8.203125q-0.46875 0.4375 -1.21875 0.890625q-0.75 0.4375 -1.359375 0.65625l0 -1.25q1.078125 -0.5 1.890625 -1.21875q0.8125 -0.734375 1.140625 -1.40625l0.828125 0l0 10.53125z" fill-rule="nonzero"/><path fill="#000000" fill-opacity="0.0" d="m699.7604 157.51181l9.700806 -15.937012" fill-rule="evenodd"/><path stroke="#000000" stroke-width="1.0" stroke-linejoin="round" stroke-linecap="butt" d="m699.7604 157.51181l9.700806 -15.937012" fill-rule="evenodd"/><path fill="#000000" fill-opacity="0.0" d="m736.1978 141.58574l9.700806 15.937012" fill-rule="evenodd"/><path stroke="#000000" stroke-width="1.0" stroke-linejoin="round" stroke-linecap="butt" d="m736.1978 141.58574l9.700806 15.937012" fill-rule="evenodd"/><path fill="#000000" fill-opacity="0.0" d="m758.1806 6.6758533l24.440979 0l0 23.52756l-24.440979 0z" fill-rule="evenodd"/><path fill="#000000" d="m764.2275 16.646479l0 -1.234376l4.4375 -0.015625l0 3.906251q-1.03125 0.8125 -2.125 1.21875q-1.078125 0.40625 -2.21875 0.40625q-1.546875 0 -2.8125 -0.65625q-1.265625 -0.65625 -1.90625 -1.90625q-0.640625 -1.265625 -0.640625 -2.812501q0 -1.53125 0.640625 -2.84375q0.640625 -1.328125 1.84375 -1.96875q1.203125 -0.65625 2.765625 -0.65625q1.140625 0 2.0625 0.375q0.921875 0.359375 1.4375 1.03125q0.53125 0.65625 0.796875 1.703125l-1.25 0.34375q-0.234375 -0.796875 -0.59375 -1.25q-0.34375 -0.46875 -1.0 -0.734375q-0.65625 -0.28125 -1.4375 -0.28125q-0.953125 0 -1.65625 0.296875q-0.6875 0.28125 -1.125 0.765625q-0.421875 0.46875 -0.65625 1.03125q-0.390625 0.96875 -0.390625 2.109375q0 1.406251 0.46875 2.359376q0.484375 0.9375 1.40625 1.390625q0.9375 0.453125 1.96875 0.453125q0.90625 0 1.765625 -0.34375q0.859375 -0.34375 1.296875 -0.734375l0 -1.953125l-3.078125 0z" fill-rule="nonzero"/><path fill="#000000" fill-opacity="0.0" d="m312.4218 31.863846l0 0c0 -10.436876 -8.460785 -18.897636 -18.897644 -18.897636l0 0c-5.011963 0 -9.818665 1.9909954 -13.36264 5.5349913c-3.5440063 3.543993 -5.5350037 8.350681 -5.5350037 13.362646l0 0c0 10.436878 8.460754 18.89764 18.897644 18.89764l0 0c10.436859 0 18.897644 -8.460762 18.897644 -18.89764z" fill-rule="evenodd"/><path stroke="#000000" stroke-width="1.0" stroke-linejoin="round" stroke-linecap="butt" d="m312.4218 31.863846l0 0c0 -10.436876 -8.460785 -18.897636 -18.897644 -18.897636l0 0c-5.011963 0 -9.818665 1.9909954 -13.36264 5.5349913c-3.5440063 3.543993 -5.5350037 8.350681 -5.5350037 13.362646l0 0c0 10.436878 8.460754 18.89764 18.897644 18.89764l0 0c10.436859 0 18.897644 -8.460762 18.897644 -18.89764z" fill-rule="evenodd"/><path fill="#000000" d="m289.1459 36.943848l4.015625 -10.484375l1.5 0l4.296875 10.484375l-1.578125 0l-1.234375 -3.171875l-4.375 0l-1.15625 3.171875l-1.46875 0zm3.015625 -4.3125l3.5625 0l-1.09375 -2.90625q-0.5 -1.3125 -0.75 -2.171875q-0.203125 1.015625 -0.5625 2.0l-1.15625 3.078125z" fill-rule="nonzero"/><path fill="#000000" fill-opacity="0.0" d="m350.21707 80.0502l0 0c0 -10.436882 -8.460754 -18.89764 -18.897644 -18.89764l0 0c-5.011963 0 -9.818634 1.9909935 -13.36264 5.534992c-3.5439758 3.543991 -5.534973 8.3506775 -5.534973 13.362648l0 0c0 10.436874 8.460754 18.897636 18.897614 18.897636l0 0c10.43689 0 18.897644 -8.460762 18.897644 -18.897636z" fill-rule="evenodd"/><path stroke="#000000" stroke-width="1.0" stroke-linejoin="round" stroke-linecap="butt" d="m350.21707 80.0502l0 0c0 -10.436882 -8.460754 -18.89764 -18.897644 -18.89764l0 0c-5.011963 0 -9.818634 1.9909935 -13.36264 5.534992c-3.5439758 3.543991 -5.534973 8.3506775 -5.534973 13.362648l0 0c0 10.436874 8.460754 18.897636 18.897614 18.897636l0 0c10.43689 0 18.897644 -8.460762 18.897644 -18.897636z" fill-rule="evenodd"/><path fill="#000000" d="m328.0349 85.130196l0 -10.484375l3.9375 0q1.203125 0 1.921875 0.3125q0.734375 0.3125 1.140625 0.984375q0.40625 0.65625 0.40625 1.375q0 0.671875 -0.375 1.265625q-0.359375 0.59375 -1.09375 0.96875q0.953125 0.28125 1.46875 0.953125q0.515625 0.671875 0.515625 1.578125q0 0.75 -0.3125 1.390625q-0.3125 0.625 -0.78125 0.96875q-0.453125 0.34375 -1.140625 0.515625q-0.6875 0.171875 -1.6875 0.171875l-4.0 0zm1.390625 -6.078125l2.265625 0q0.921875 0 1.3125 -0.125q0.53125 -0.15625 0.796875 -0.515625q0.28125 -0.375 0.28125 -0.921875q0 -0.53125 -0.25 -0.921875q-0.25 -0.390625 -0.71875 -0.53125q-0.46875 -0.15625 -1.59375 -0.15625l-2.09375 0l0 3.171875zm0 4.84375l2.609375 0q0.671875 0 0.9375 -0.046875q0.484375 -0.09375 0.796875 -0.296875q0.328125 -0.203125 0.53125 -0.578125q0.21875 -0.390625 0.21875 -0.890625q0 -0.578125 -0.3125 -1.015625q-0.296875 -0.4375 -0.828125 -0.609375q-0.53125 -0.171875 -1.53125 -0.171875l-2.421875 0l0 3.609375z" fill-rule="nonzero"/><path fill="#000000" fill-opacity="0.0" d="m274.62653 61.15256l-37.795273 0l0 37.795277l37.795273 0z" fill-rule="evenodd"/><path stroke="#000000" stroke-width="1.0" stroke-linejoin="round" stroke-linecap="butt" d="m274.62653 61.15256l-37.795273 0l0 37.795277l37.795273 0z" fill-rule="evenodd"/><path fill="#000000" d="m250.9739 85.130196l0 -9.25l-3.453125 0l0 -1.234375l8.312485 0l0 1.234375l-3.4687347 0l0 9.25l-1.390625 0zm10.608856 0l-1.28125 0l0 -8.203125q-0.46875 0.4375 -1.21875 0.890625q-0.75 0.4375 -1.359375 0.65625l0 -1.25q1.078125 -0.5 1.890625 -1.21875q0.8125 -0.734375 1.140625 -1.40625l0.828125 0l0 10.53125z" fill-rule="nonzero"/><path fill="#000000" fill-opacity="0.0" d="m322.95724 109.33891l-37.795288 0l0 37.795273l37.795288 0z" fill-rule="evenodd"/><path stroke="#000000" stroke-width="1.0" stroke-linejoin="round" stroke-linecap="butt" d="m322.95724 109.33891l-37.795288 0l0 37.795273l37.795288 0z" fill-rule="evenodd"/><path fill="#000000" d="m299.3046 133.31654l0 -9.249992l-3.453125 0l0 -1.234375l8.3125 0l0 1.234375l-3.46875 0l0 9.249992l-1.390625 0zm12.530762 -1.234375l0 1.234375l-6.9375 0q-0.015625 -0.46875 0.15625 -0.890625q0.265625 -0.71875 0.84375 -1.40625q0.59375 -0.6875 1.6875 -1.578125q1.71875 -1.40625 2.3125 -2.2187424q0.609375 -0.828125 0.609375 -1.5625q0 -0.765625 -0.5625 -1.28125q-0.546875 -0.53125 -1.421875 -0.53125q-0.921875 0 -1.484375 0.5625q-0.5625 0.5625 -0.5625 1.546875l-1.328125 -0.140625q0.140625 -1.484375 1.015625 -2.25q0.890625 -0.78125 2.390625 -0.78125q1.515625 0 2.390625 0.84375q0.875 0.828125 0.875 2.0625q0 0.640625 -0.265625 1.25q-0.25 0.59375 -0.84375 1.2656174q-0.59375 0.671875 -1.984375 1.859375q-1.15625 0.96875 -1.484375 1.3125q-0.328125 0.34375 -0.546875 0.703125l5.140625 0z" fill-rule="nonzero"/><path fill="#000000" fill-opacity="0.0" d="m377.47693 128.23656l0 0c0 -10.436882 -8.460754 -18.897644 -18.897644 -18.897644l0 0c-5.011963 0 -9.818665 1.9909973 -13.36264 5.5349884c-3.5440063 3.5439987 -5.5350037 8.350685 -5.5350037 13.362656l0 0c0 10.436874 8.460754 18.897629 18.897644 18.897629l0 0c10.43689 0 18.897644 -8.460754 18.897644 -18.897629z" fill-rule="evenodd"/><path stroke="#000000" stroke-width="1.0" stroke-linejoin="round" stroke-linecap="butt" d="m377.47693 128.23656l0 0c0 -10.436882 -8.460754 -18.897644 -18.897644 -18.897644l0 0c-5.011963 0 -9.818665 1.9909973 -13.36264 5.5349884c-3.5440063 3.5439987 -5.5350037 8.350685 -5.5350037 13.362656l0 0c0 10.436874 8.460754 18.897629 18.897644 18.897629l0 0c10.43689 0 18.897644 -8.460754 18.897644 -18.897629z" fill-rule="evenodd"/><path fill="#000000" d="m362.82602 129.64467l1.390625 0.34375q-0.4375 1.703125 -1.578125 2.609375q-1.125 0.890625 -2.765625 0.890625q-1.6875 0 -2.75 -0.6875q-1.0625 -0.6875 -1.625 -2.0q-0.546875 -1.3125 -0.546875 -2.8124924q0 -1.640625 0.625 -2.859375q0.625 -1.21875 1.78125 -1.84375q1.15625 -0.640625 2.546875 -0.640625q1.5625 0 2.640625 0.8125q1.078125 0.796875 1.5 2.25l-1.375 0.3125q-0.359375 -1.140625 -1.0625 -1.65625q-0.6875 -0.53125 -1.734375 -0.53125q-1.21875 0 -2.03125 0.578125q-0.8125 0.578125 -1.140625 1.5625q-0.328125 0.96875 -0.328125 2.015625q0 1.3281174 0.390625 2.3281174q0.390625 1.0 1.21875 1.5q0.828125 0.484375 1.78125 0.484375q1.171875 0 1.96875 -0.671875q0.8125 -0.671875 1.09375 -1.984375z" fill-rule="nonzero"/><path fill="#000000" fill-opacity="0.0" d="m280.16153 45.226494l-24.440948 15.937008" fill-rule="evenodd"/><path stroke="#000000" stroke-width="1.0" stroke-linejoin="round" stroke-linecap="butt" d="m280.16153 45.226494l-24.440948 15.937008" fill-rule="evenodd"/><path fill="#000000" fill-opacity="0.0" d="m306.8785 45.215553l24.440918 15.937008" fill-rule="evenodd"/><path stroke="#000000" stroke-width="1.0" stroke-linejoin="round" stroke-linecap="butt" d="m306.8785 45.215553l24.440918 15.937008" fill-rule="evenodd"/><path fill="#000000" fill-opacity="0.0" d="m317.9568 93.41285l-13.8897705 15.937004" fill-rule="evenodd"/><path stroke="#000000" stroke-width="1.0" stroke-linejoin="round" stroke-linecap="butt" d="m317.9568 93.41285l-13.8897705 15.937004" fill-rule="evenodd"/><path fill="#000000" fill-opacity="0.0" d="m344.6821 93.41285l13.88974 15.937004" fill-rule="evenodd"/><path stroke="#000000" stroke-width="1.0" stroke-linejoin="round" stroke-linecap="butt" d="m344.6821 93.41285l13.88974 15.937004" fill-rule="evenodd"/><path fill="#000000" fill-opacity="0.0" d="m363.23386 46.689304l-24.440948 0l0 23.527561l24.440948 0z" fill-rule="evenodd"/><path fill="#000000" d="m339.9179 60.769306l0 -10.484375l3.96875 0q1.046875 0 1.59375 0.09375q0.765625 0.125 1.28125 0.484375q0.53125 0.359375 0.84375 1.015625q0.328125 0.65625 0.328125 1.4375q0 1.328125 -0.859375 2.265625q-0.84375 0.921875 -3.078125 0.921875l-2.6875 0l0 4.265625l-1.390625 0zm1.390625 -5.5l2.71875 0q1.34375 0 1.90625 -0.5q0.5625 -0.5 0.5625 -1.40625q0 -0.671875 -0.328125 -1.140625q-0.328125 -0.46875 -0.875 -0.609375q-0.359375 -0.09375 -1.296875 -0.09375l-2.6875 0l0 3.75z" fill-rule="nonzero"/><path fill="#000000" fill-opacity="0.0" d="m389.0239 92.93078l-24.440948 0l0 23.527557l24.440948 0z" fill-rule="evenodd"/><path fill="#000000" d="m370.62982 102.9014l0 -1.234375l4.4375 -0.015625l0 3.90625q-1.03125 0.8125 -2.125 1.21875q-1.078125 0.40625 -2.21875 0.40625q-1.546875 0 -2.8125 -0.65625q-1.265625 -0.65625 -1.90625 -1.90625q-0.640625 -1.265625 -0.640625 -2.8125q0 -1.53125 0.640625 -2.84375q0.640625 -1.328125 1.84375 -1.96875q1.203125 -0.65625 2.765625 -0.65625q1.140625 0 2.0625 0.375q0.921875 0.359375 1.4375 1.03125q0.53125 0.65625 0.796875 1.703125l-1.25 0.34375q-0.234375 -0.796875 -0.59375 -1.25q-0.34375 -0.46875 -1.0 -0.734375q-0.65625 -0.28125 -1.4375 -0.28125q-0.953125 0 -1.65625 0.296875q-0.6875 0.28125 -1.125 0.765625q-0.421875 0.46875 -0.65625 1.03125q-0.390625 0.96875 -0.390625 2.109375q0 1.40625 0.46875 2.359375q0.484375 0.9375 1.40625 1.390625q0.9375 0.453125 1.96875 0.453125q0.90625 0 1.765625 -0.34375q0.859375 -0.34375 1.296875 -0.734375l0 -1.953125l-3.078125 0z" fill-rule="nonzero"/><path fill="#000000" fill-opacity="0.0" d="m354.40213 157.52527l-37.795288 0l0 37.795273l37.795288 0z" fill-rule="evenodd"/><path stroke="#000000" stroke-width="1.0" stroke-linejoin="round" stroke-linecap="butt" d="m354.40213 157.52527l-37.795288 0l0 37.795273l37.795288 0z" fill-rule="evenodd"/><path fill="#000000" d="m330.74948 181.5029l0 -9.25l-3.453125 0l0 -1.234375l8.3125 0l0 1.234375l-3.46875 0l0 9.25l-1.390625 0zm5.7651367 -2.765625l1.296875 -0.171875q0.21875 1.09375 0.75 1.578125q0.53125 0.484375 1.296875 0.484375q0.90625 0 1.53125 -0.625q0.640625 -0.640625 0.640625 -1.5625q0 -0.890625 -0.59375 -1.46875q-0.578125 -0.578125 -1.46875 -0.578125q-0.359375 0 -0.90625 0.140625l0.140625 -1.125q0.125 0.015625 0.203125 0.015625q0.828125 0 1.484375 -0.421875q0.65625 -0.4375 0.65625 -1.34375q0 -0.703125 -0.484375 -1.15625q-0.46875 -0.46875 -1.234375 -0.46875q-0.75 0 -1.25 0.46875q-0.5 0.46875 -0.640625 1.421875l-1.28125 -0.234375q0.234375 -1.296875 1.0625 -2.0q0.84375 -0.71875 2.09375 -0.71875q0.859375 0 1.578125 0.375q0.71875 0.359375 1.09375 1.0q0.390625 0.640625 0.390625 1.34375q0 0.6875 -0.375 1.25q-0.359375 0.546875 -1.0625 0.875q0.921875 0.21875 1.4375 0.90625q0.515625 0.671875 0.515625 1.6875q0 1.375 -1.0 2.328125q-1.0 0.953125 -2.53125 0.953125q-1.390625 0 -2.296875 -0.8125q-0.90625 -0.828125 -1.046875 -2.140625z" fill-rule="nonzero"/><path fill="#000000" fill-opacity="0.0" d="m400.55173 157.52527l-37.795288 0l0 37.795273l37.795288 0z" fill-rule="evenodd"/><path stroke="#000000" stroke-width="1.0" stroke-linejoin="round" stroke-linecap="butt" d="m400.55173 157.52527l-37.795288 0l0 37.795273l37.795288 0z" fill-rule="evenodd"/><path fill="#000000" d="m376.8991 181.5029l0 -9.25l-3.453125 0l0 -1.234375l8.3125 0l0 1.234375l-3.46875 0l0 9.25l-1.390625 0zm9.890106 0l0 -2.515625l-4.546875 0l0 -1.171875l4.78125 -6.796875l1.0625 0l0 6.796875l1.40625 0l0 1.171875l-1.40625 0l0 2.515625l-1.296875 0zm0 -3.6875l0 -4.734375l-3.28125 4.734375l3.28125 0z" fill-rule="nonzero"/><path fill="#000000" fill-opacity="0.0" d="m381.65408 157.52527l-9.700775 -15.937012" fill-rule="evenodd"/><path stroke="#000000" stroke-width="1.0" stroke-linejoin="round" stroke-linecap="butt" d="m381.65408 157.52527l-9.700775 -15.937012" fill-rule="evenodd"/><path fill="#000000" fill-opacity="0.0" d="m345.21664 141.5992l-9.700806 15.937012" fill-rule="evenodd"/><path stroke="#000000" stroke-width="1.0" stroke-linejoin="round" stroke-linecap="butt" d="m345.21664 141.5992l-9.700806 15.937012" fill-rule="evenodd"/><path fill="#000000" fill-opacity="0.0" d="m331.32047 1.6525606l-24.440918 0l0 23.52756l24.440918 0z" fill-rule="evenodd"/><path fill="#000000" d="m307.5358 12.35756l1.3125 -0.109375q0.09375 0.78125 0.421875 1.296875q0.34375 0.5 1.0625 0.8125q0.71875 0.3125 1.609375 0.3125q0.796875 0 1.40625 -0.234375q0.609375 -0.234375 0.90625 -0.640625q0.296875 -0.421875 0.296875 -0.90625q0 -0.5 -0.296875 -0.859375q-0.28125 -0.375 -0.9375 -0.625q-0.421875 -0.171875 -1.875 -0.515625q-1.4375 -0.34375 -2.015625 -0.65625q-0.75 -0.390625 -1.125 -0.96875q-0.359375 -0.59375 -0.359375 -1.3124995q0 -0.796875 0.4375 -1.484375q0.453125 -0.6875 1.3125 -1.046875q0.875 -0.359375 1.9375 -0.359375q1.171875 0 2.0625 0.375q0.890625 0.375 1.359375 1.109375q0.484375 0.734375 0.515625 1.6562495l-1.328125 0.09375q-0.109375 -0.9999995 -0.734375 -1.4999995q-0.609375 -0.515625 -1.8125 -0.515625q-1.265625 0 -1.84375 0.46875q-0.578125 0.46875 -0.578125 1.109375q0 0.5624995 0.421875 0.9374995q0.390625 0.359375 2.078125 0.75q1.703125 0.375 2.328125 0.65625q0.921875 0.421875 1.359375 1.078125q0.4375 0.640625 0.4375 1.484375q0 0.84375 -0.484375 1.59375q-0.484375 0.734375 -1.390625 1.140625q-0.890625 0.40625 -2.015625 0.40625q-1.421875 0 -2.390625 -0.40625q-0.953125 -0.421875 -1.5 -1.25q-0.546875 -0.828125 -0.578125 -1.890625z" fill-rule="nonzero"/><path fill="#000000" fill-opacity="0.0" d="m515.9428 30.211287l0 0c0 -10.436878 -8.460754 -18.897638 -18.897644 -18.897638l0 0c-5.011963 0 -9.818665 1.9909954 -13.36264 5.5349903c-3.5440063 3.543995 -5.5350037 8.350683 -5.5350037 13.362648l0 0c0 10.436876 8.460754 18.897638 18.897644 18.897638l0 0c10.43689 0 18.897644 -8.460762 18.897644 -18.897638z" fill-rule="evenodd"/><path stroke="#000000" stroke-width="1.0" stroke-linejoin="round" stroke-linecap="butt" d="m515.9428 30.211287l0 0c0 -10.436878 -8.460754 -18.897638 -18.897644 -18.897638l0 0c-5.011963 0 -9.818665 1.9909954 -13.36264 5.5349903c-3.5440063 3.543995 -5.5350037 8.350683 -5.5350037 13.362648l0 0c0 10.436876 8.460754 18.897638 18.897644 18.897638l0 0c10.43689 0 18.897644 -8.460762 18.897644 -18.897638z" fill-rule="evenodd"/><path fill="#000000" d="m492.6669 35.291286l4.015625 -10.484375l1.5 0l4.296875 10.484375l-1.578125 0l-1.234375 -3.171875l-4.375 0l-1.15625 3.171875l-1.46875 0zm3.015625 -4.3125l3.5625 0l-1.09375 -2.90625q-0.5 -1.3125 -0.75 -2.171875q-0.203125 1.015625 -0.5625 2.0l-1.15625 3.078125z" fill-rule="nonzero"/><path fill="#000000" fill-opacity="0.0" d="m553.7381 78.39764l0 0c0 -10.436874 -8.460754 -18.897636 -18.897644 -18.897636l0 0c-5.011963 0 -9.818665 1.9909973 -13.362671 5.5349884c-3.5440063 3.5439987 -5.534973 8.350685 -5.534973 13.362648l0 0c0 10.436882 8.460754 18.897636 18.897644 18.897636l0 0c10.43689 0 18.897644 -8.460754 18.897644 -18.897636z" fill-rule="evenodd"/><path stroke="#000000" stroke-width="1.0" stroke-linejoin="round" stroke-linecap="butt" d="m553.7381 78.39764l0 0c0 -10.436874 -8.460754 -18.897636 -18.897644 -18.897636l0 0c-5.011963 0 -9.818665 1.9909973 -13.362671 5.5349884c-3.5440063 3.5439987 -5.534973 8.350685 -5.534973 13.362648l0 0c0 10.436882 8.460754 18.897636 18.897644 18.897636l0 0c10.43689 0 18.897644 -8.460754 18.897644 -18.897636z" fill-rule="evenodd"/><path fill="#000000" d="m531.5559 83.47764l0 -10.484375l3.9375 0q1.203125 0 1.921875 0.3125q0.734375 0.3125 1.140625 0.984375q0.40625 0.65625 0.40625 1.375q0 0.671875 -0.375 1.265625q-0.359375 0.59375 -1.09375 0.96875q0.953125 0.28125 1.46875 0.953125q0.515625 0.671875 0.515625 1.578125q0 0.75 -0.3125 1.390625q-0.3125 0.625 -0.78125 0.96875q-0.453125 0.34375 -1.140625 0.515625q-0.6875 0.171875 -1.6875 0.171875l-4.0 0zm1.390625 -6.078125l2.265625 0q0.921875 0 1.3125 -0.125q0.53125 -0.15625 0.796875 -0.515625q0.28125 -0.375 0.28125 -0.921875q0 -0.53125 -0.25 -0.921875q-0.25 -0.390625 -0.71875 -0.53125q-0.46875 -0.15625 -1.59375 -0.15625l-2.09375 0l0 3.171875zm0 4.84375l2.609375 0q0.671875 0 0.9375 -0.046875q0.484375 -0.09375 0.796875 -0.296875q0.328125 -0.203125 0.53125 -0.578125q0.21875 -0.390625 0.21875 -0.890625q0 -0.578125 -0.3125 -1.015625q-0.296875 -0.4375 -0.828125 -0.609375q-0.53125 -0.171875 -1.53125 -0.171875l-2.421875 0l0 3.609375z" fill-rule="nonzero"/><path fill="#000000" fill-opacity="0.0" d="m478.14752 59.5l-37.795258 0l0 37.795273l37.795258 0z" fill-rule="evenodd"/><path stroke="#000000" stroke-width="1.0" stroke-linejoin="round" stroke-linecap="butt" d="m478.14752 59.5l-37.795258 0l0 37.795273l37.795258 0z" fill-rule="evenodd"/><path fill="#000000" d="m454.4949 83.47764l0 -9.25l-3.453125 0l0 -1.234375l8.3125 0l0 1.234375l-3.46875 0l0 9.25l-1.390625 0zm10.608856 0l-1.28125 0l0 -8.203125q-0.46875 0.4375 -1.21875 0.890625q-0.75 0.4375 -1.359375 0.65625l0 -1.25q1.078125 -0.5 1.890625 -1.21875q0.8125 -0.734375 1.140625 -1.40625l0.828125 0l0 10.53125z" fill-rule="nonzero"/><path fill="#000000" fill-opacity="0.0" d="m526.4782 107.68635l-37.795258 0l0 37.79528l37.795258 0z" fill-rule="evenodd"/><path stroke="#000000" stroke-width="1.0" stroke-linejoin="round" stroke-linecap="butt" d="m526.4782 107.68635l-37.795258 0l0 37.79528l37.795258 0z" fill-rule="evenodd"/><path fill="#000000" d="m502.8256 131.66399l0 -9.25l-3.453125 0l0 -1.234375l8.3125 0l0 1.234375l-3.46875 0l0 9.25l-1.390625 0zm12.530731 -1.234375l0 1.234375l-6.9374695 0q-0.015625 -0.46875 0.15625 -0.890625q0.265625 -0.71875 0.84375 -1.40625q0.59375 -0.6875 1.6875 -1.578125q1.7187195 -1.40625 2.3124695 -2.21875q0.609375 -0.828125 0.609375 -1.5625q0 -0.765625 -0.5625 -1.28125q-0.546875 -0.53125 -1.421875 -0.53125q-0.9218445 0 -1.4843445 0.5625q-0.5625 0.5625 -0.5625 1.546875l-1.328125 -0.140625q0.140625 -1.484375 1.015625 -2.25q0.890625 -0.78125 2.3905945 -0.78125q1.515625 0 2.390625 0.84375q0.875 0.828125 0.875 2.0625q0 0.640625 -0.265625 1.25q-0.25 0.59375 -0.84375 1.265625q-0.59375 0.671875 -1.984375 1.859375q-1.1562195 0.96875 -1.4843445 1.3125q-0.328125 0.34375 -0.546875 0.703125l5.1405945 0z" fill-rule="nonzero"/><path fill="#000000" fill-opacity="0.0" d="m580.9979 126.58399l0 0c0 -10.436882 -8.460754 -18.897644 -18.897644 -18.897644l0 0c-5.011963 0 -9.818665 1.9909973 -13.362671 5.534996c-3.5439453 3.543991 -5.534973 8.3506775 -5.534973 13.362648l0 0c0 10.436882 8.460754 18.897636 18.897644 18.897636l0 0c10.43689 0 18.897644 -8.460754 18.897644 -18.897636z" fill-rule="evenodd"/><path stroke="#000000" stroke-width="1.0" stroke-linejoin="round" stroke-linecap="butt" d="m580.9979 126.58399l0 0c0 -10.436882 -8.460754 -18.897644 -18.897644 -18.897644l0 0c-5.011963 0 -9.818665 1.9909973 -13.362671 5.534996c-3.5439453 3.543991 -5.534973 8.3506775 -5.534973 13.362648l0 0c0 10.436882 8.460754 18.897636 18.897644 18.897636l0 0c10.43689 0 18.897644 -8.460754 18.897644 -18.897636z" fill-rule="evenodd"/><path fill="#000000" d="m566.347 127.99211l1.390625 0.34375q-0.4375 1.703125 -1.578125 2.609375q-1.125 0.890625 -2.765625 0.890625q-1.6875 0 -2.75 -0.6875q-1.0625 -0.6875 -1.625 -2.0q-0.546875 -1.3125 -0.546875 -2.8125q0 -1.640625 0.625 -2.859375q0.625 -1.21875 1.78125 -1.84375q1.15625 -0.640625 2.546875 -0.640625q1.5625 0 2.640625 0.8125q1.078125 0.796875 1.5 2.25l-1.375 0.3125q-0.359375 -1.140625 -1.0625 -1.65625q-0.6875 -0.53125 -1.734375 -0.53125q-1.21875 0 -2.03125 0.578125q-0.8125 0.578125 -1.140625 1.5625q-0.328125 0.96875 -0.328125 2.015625q0 1.328125 0.390625 2.328125q0.390625 1.0 1.21875 1.5q0.828125 0.484375 1.78125 0.484375q1.171875 0 1.96875 -0.671875q0.8125 -0.671875 1.09375 -1.984375z" fill-rule="nonzero"/><path fill="#000000" fill-opacity="0.0" d="m483.68253 43.573933l-24.440948 15.937008" fill-rule="evenodd"/><path stroke="#000000" stroke-width="1.0" stroke-linejoin="round" stroke-linecap="butt" d="m483.68253 43.573933l-24.440948 15.937008" fill-rule="evenodd"/><path fill="#000000" fill-opacity="0.0" d="m510.3995 43.562992l24.440948 15.937008" fill-rule="evenodd"/><path stroke="#000000" stroke-width="1.0" stroke-linejoin="round" stroke-linecap="butt" d="m510.3995 43.562992l24.440948 15.937008" fill-rule="evenodd"/><path fill="#000000" fill-opacity="0.0" d="m521.4778 91.760284l-13.8897705 15.937012" fill-rule="evenodd"/><path stroke="#000000" stroke-width="1.0" stroke-linejoin="round" stroke-linecap="butt" d="m521.4778 91.760284l-13.8897705 15.937012" fill-rule="evenodd"/><path fill="#000000" fill-opacity="0.0" d="m548.20306 91.760284l13.8897705 15.937012" fill-rule="evenodd"/><path stroke="#000000" stroke-width="1.0" stroke-linejoin="round" stroke-linecap="butt" d="m548.20306 91.760284l13.8897705 15.937012" fill-rule="evenodd"/><path fill="#000000" fill-opacity="0.0" d="m566.7549 45.036747l-24.440979 0l0 23.527561l24.440979 0z" fill-rule="evenodd"/><path fill="#000000" d="m543.4389 59.116745l0 -10.484375l3.96875 0q1.046875 0 1.59375 0.09375q0.765625 0.125 1.28125 0.484375q0.53125 0.359375 0.84375 1.015625q0.328125 0.65625 0.328125 1.4375q0 1.328125 -0.859375 2.265625q-0.84375 0.921875 -3.078125 0.921875l-2.6875 0l0 4.265625l-1.390625 0zm1.390625 -5.5l2.71875 0q1.34375 0 1.90625 -0.5q0.5625 -0.5 0.5625 -1.40625q0 -0.671875 -0.328125 -1.140625q-0.328125 -0.46875 -0.875 -0.609375q-0.359375 -0.09375 -1.296875 -0.09375l-2.6875 0l0 3.75z" fill-rule="nonzero"/><path fill="#000000" fill-opacity="0.0" d="m592.54486 91.27821l-24.440918 0l0 23.527557l24.440918 0z" fill-rule="evenodd"/><path fill="#000000" d="m574.1508 101.24884l0 -1.234375l4.4375 -0.015625l0 3.90625q-1.03125 0.8125 -2.125 1.21875q-1.078125 0.40625 -2.21875 0.40625q-1.546875 0 -2.8125 -0.65625q-1.265625 -0.65625 -1.90625 -1.90625q-0.640625 -1.265625 -0.640625 -2.8125q0 -1.53125 0.640625 -2.84375q0.640625 -1.328125 1.84375 -1.96875q1.203125 -0.65625 2.765625 -0.65625q1.140625 0 2.0625 0.375q0.921875 0.359375 1.4375 1.03125q0.53125 0.65625 0.796875 1.703125l-1.25 0.34375q-0.234375 -0.796875 -0.59375 -1.25q-0.34375 -0.46875 -1.0 -0.734375q-0.65625 -0.28125 -1.4375 -0.28125q-0.953125 0 -1.65625 0.296875q-0.6875 0.28125 -1.125 0.765625q-0.421875 0.46875 -0.65625 1.03125q-0.390625 0.96875 -0.390625 2.109375q0 1.40625 0.46875 2.359375q0.484375 0.9375 1.40625 1.390625q0.9375 0.453125 1.96875 0.453125q0.90625 0 1.765625 -0.34375q0.859375 -0.34375 1.296875 -0.734375l0 -1.953125l-3.078125 0z" fill-rule="nonzero"/><path fill="#000000" fill-opacity="0.0" d="m557.9231 155.8727l-37.795227 0l0 37.795288l37.795227 0z" fill-rule="evenodd"/><path stroke="#000000" stroke-width="1.0" stroke-linejoin="round" stroke-linecap="butt" d="m557.9231 155.8727l-37.795227 0l0 37.795288l37.795227 0z" fill-rule="evenodd"/><path fill="#000000" d="m534.2705 179.85034l0 -9.25l-3.453125 0l0 -1.234375l8.3125 0l0 1.234375l-3.46875 0l0 9.25l-1.390625 0zm5.7650757 -2.765625l1.296875 -0.171875q0.21875 1.09375 0.75 1.578125q0.53125 0.484375 1.296875 0.484375q0.90625 0 1.53125 -0.625q0.640625 -0.640625 0.640625 -1.5625q0 -0.890625 -0.59375 -1.46875q-0.578125 -0.578125 -1.46875 -0.578125q-0.359375 0 -0.90625 0.140625l0.140625 -1.125q0.125 0.015625 0.203125 0.015625q0.828125 0 1.484375 -0.421875q0.65625 -0.4375 0.65625 -1.34375q0 -0.703125 -0.484375 -1.15625q-0.46875 -0.46875 -1.234375 -0.46875q-0.75 0 -1.25 0.46875q-0.5 0.46875 -0.640625 1.421875l-1.28125 -0.234375q0.234375 -1.296875 1.0625 -2.0q0.84375 -0.71875 2.09375 -0.71875q0.859375 0 1.578125 0.375q0.71875 0.359375 1.09375 1.0q0.390625 0.640625 0.390625 1.34375q0 0.6875 -0.375 1.25q-0.359375 0.546875 -1.0625 0.875q0.921875 0.21875 1.4375 0.90625q0.515625 0.671875 0.515625 1.6875q0 1.375 -1.0 2.328125q-1.0 0.953125 -2.53125 0.953125q-1.390625 0 -2.296875 -0.8125q-0.90625 -0.828125 -1.046875 -2.140625z" fill-rule="nonzero"/><path fill="#000000" fill-opacity="0.0" d="m604.0727 155.8727l-37.795227 0l0 37.795288l37.795227 0z" fill-rule="evenodd"/><path stroke="#000000" stroke-width="1.0" stroke-linejoin="round" stroke-linecap="butt" d="m604.0727 155.8727l-37.795227 0l0 37.795288l37.795227 0z" fill-rule="evenodd"/><path fill="#000000" d="m580.4201 179.85034l0 -9.25l-3.453125 0l0 -1.234375l8.3125 0l0 1.234375l-3.46875 0l0 9.25l-1.390625 0zm9.890137 0l0 -2.515625l-4.546875 0l0 -1.171875l4.78125 -6.796875l1.0625 0l0 6.796875l1.40625 0l0 1.171875l-1.40625 0l0 2.515625l-1.296875 0zm0 -3.6875l0 -4.734375l-3.28125 4.734375l3.28125 0z" fill-rule="nonzero"/><path fill="#000000" fill-opacity="0.0" d="m585.1751 155.8727l-9.700806 -15.936996" fill-rule="evenodd"/><path stroke="#000000" stroke-width="1.0" stroke-linejoin="round" stroke-linecap="butt" d="m585.1751 155.8727l-9.700806 -15.936996" fill-rule="evenodd"/><path fill="#000000" fill-opacity="0.0" d="m548.7376 139.94664l-9.700745 15.937012" fill-rule="evenodd"/><path stroke="#000000" stroke-width="1.0" stroke-linejoin="round" stroke-linecap="butt" d="m548.7376 139.94664l-9.700745 15.937012" fill-rule="evenodd"/><path fill="#000000" fill-opacity="0.0" d="m534.8415 0l-24.440948 0l0 23.52756l24.440948 0z" fill-rule="evenodd"/><path fill="#000000" d="m511.0568 10.705l1.3124695 -0.109375q0.09375 0.78125 0.421875 1.296875q0.34375 0.5 1.0625 0.8125q0.71875 0.3125 1.609375 0.3125q0.796875 0 1.40625 -0.234375q0.609375 -0.234375 0.90625 -0.640625q0.296875 -0.421875 0.296875 -0.90625q0 -0.5 -0.296875 -0.859375q-0.28125 -0.375 -0.9375 -0.625q-0.421875 -0.171875 -1.875 -0.515625q-1.4375 -0.34375 -2.015625 -0.65625q-0.75 -0.390625 -1.1249695 -0.96875q-0.359375 -0.59375 -0.359375 -1.3125q0 -0.796875 0.4375 -1.484375q0.45309448 -0.6875 1.3124695 -1.046875q0.875 -0.359375 1.9375 -0.359375q1.171875 0 2.0625 0.375q0.890625 0.375 1.359375 1.109375q0.484375 0.734375 0.515625 1.65625l-1.328125 0.09375q-0.109375 -1.0 -0.734375 -1.5q-0.609375 -0.515625 -1.8125 -0.515625q-1.265625 0 -1.84375 0.46875q-0.578125 0.46875 -0.578125 1.109375q0 0.5625 0.421875 0.9375q0.390625 0.359375 2.078125 0.75q1.703125 0.375 2.328125 0.65625q0.921875 0.421875 1.359375 1.078125q0.4375 0.640625 0.4375 1.484375q0 0.84375 -0.484375 1.59375q-0.484375 0.734375 -1.390625 1.140625q-0.890625 0.40625 -2.015625 0.40625q-1.421875 0 -2.390625 -0.40625q-0.953125 -0.421875 -1.4999695 -1.25q-0.546875 -0.828125 -0.578125 -1.890625z" fill-rule="nonzero"/><path fill="#000000" fill-opacity="0.0" d="m609.6185 104.09238l49.275574 0l0 -8.212593l16.425232 16.425194l-16.425232 16.425201l0 -8.212601l-49.275574 0z" fill-rule="evenodd"/><path stroke="#000000" stroke-width="1.0" stroke-linejoin="round" stroke-linecap="butt" d="m609.6185 104.09238l49.275574 0l0 -8.212593l16.425232 16.425194l-16.425232 16.425201l0 -8.212601l-49.275574 0z" fill-rule="evenodd"/><path fill="#000000" fill-opacity="0.0" d="m616.76904 194.93176l51.40155 0l0 37.795273l-51.40155 0z" fill-rule="evenodd"/><path fill="#000000" d="m638.97504 221.08989q-1.0625 -1.34375 -1.796875 -3.140625q-0.734375 -1.8125 -0.734375 -3.734375q0 -1.703125 0.546875 -3.265625q0.640625 -1.8125 1.984375 -3.609375l0.921875 0q-0.859375 1.484375 -1.140625 2.125q-0.4375 0.984375 -0.6875 2.0625q-0.296875 1.34375 -0.296875 2.6875q0 3.453125 2.125 6.875l-0.921875 0zm2.7400513 -3.078125l0 -6.59375l-1.140625 0l0 -1.0l1.140625 0l0 -0.8125q0 -0.765625 0.125 -1.140625q0.1875 -0.5 0.65625 -0.8125q0.46875 -0.3125 1.3125 -0.3125q0.546875 0 1.203125 0.125l-0.1875 1.125q-0.40625 -0.0625 -0.765625 -0.0625q-0.578125 0 -0.828125 0.25q-0.234375 0.25 -0.234375 0.9375l0 0.703125l1.46875 0l0 1.0l-1.46875 0l0 6.59375l-1.28125 0zm4.6032104 3.078125l-0.921875 0q2.140625 -3.421875 2.140625 -6.875q0 -1.34375 -0.3125 -2.671875q-0.25 -1.0625 -0.671875 -2.046875q-0.28125 -0.65625 -1.15625 -2.15625l0.921875 0q1.34375 1.796875 1.984375 3.609375q0.546875 1.5625 0.546875 3.265625q0 1.921875 -0.734375 3.734375q-0.734375 1.796875 -1.796875 3.140625z" fill-rule="nonzero"/></g></svg>